<svg width="360" height="160" viewBox="0 0 360 160" fill="none" xmlns="http://www.w3.org/2000/svg">
<rect width="360" height="160" fill="#5A9DED"/>
<rect width="320" height="160" transform="translate(20)" fill="#5A9DED"/>
<path d="M67 88.8931V30.179H92.4321C96.8999 30.179 100.652 30.781 103.688 31.9851C106.742 33.1892 109.043 34.8902 110.59 37.0882C112.155 39.2861 112.938 41.8759 112.938 44.8575C112.938 47.0172 112.461 48.9858 111.506 50.7633C110.571 52.5408 109.253 54.0316 107.554 55.2357C105.855 56.4206 103.869 57.2425 101.597 57.7012V58.2746C104.117 58.3701 106.408 59.0104 108.47 60.1954C110.532 61.3613 112.174 62.9763 113.396 65.0405C114.618 67.0855 115.229 69.4937 115.229 72.265C115.229 75.476 114.389 78.3333 112.709 80.8371C111.048 83.3408 108.68 85.3094 105.606 86.7429C102.532 88.1763 98.8665 88.8931 94.6088 88.8931H67ZM82.9237 76.164H90.3701C93.0431 76.164 95.0479 75.6671 96.3844 74.6732C97.7209 73.6603 98.3892 72.1695 98.3892 70.2009C98.3892 68.8248 98.0742 67.6589 97.4441 66.7033C96.814 65.7476 95.9166 65.0213 94.752 64.5244C93.6064 64.0275 92.2221 63.779 90.5992 63.779H82.9237V76.164ZM82.9237 53.9169H89.4536C90.8474 53.9169 92.0789 53.6971 93.1481 53.2575C94.2173 52.8179 95.0479 52.1872 95.6398 51.3653C96.2508 50.5244 96.5563 49.5019 96.5563 48.2978C96.5563 46.4821 95.9071 45.0964 94.6088 44.1408C93.3104 43.166 91.6684 42.6786 89.6827 42.6786H82.9237V53.9169Z" fill="#FCFCFC"/>
<path d="M120.871 88.8931V30.179H136.795V76.0494H158.512V88.8931H120.871Z" fill="#FCFCFC"/>
<path d="M196.567 48.5271C196.415 46.6158 195.699 45.1251 194.419 44.0547C193.159 42.9844 191.24 42.4493 188.663 42.4493C187.021 42.4493 185.675 42.65 184.625 43.0513C183.594 43.4336 182.83 43.9592 182.333 44.6281C181.837 45.2971 181.579 46.0616 181.56 46.9217C181.522 47.6288 181.646 48.2691 181.932 48.8425C182.238 49.3967 182.715 49.9032 183.364 50.3619C184.014 50.8015 184.844 51.2029 185.856 51.566C186.868 51.9292 188.071 52.2541 189.465 52.5408L194.276 53.5729C197.522 54.2609 200.3 55.1688 202.61 56.2964C204.921 57.4241 206.811 58.7524 208.281 60.2814C209.751 61.7913 210.83 63.4923 211.517 65.3845C212.224 67.2766 212.587 69.3408 212.606 71.577C212.587 75.4378 211.622 78.706 209.713 81.3818C207.804 84.0576 205.073 86.0931 201.522 87.4883C197.99 88.8835 193.742 89.5811 188.777 89.5811C183.68 89.5811 179.231 88.8262 175.431 87.3163C171.651 85.8064 168.71 83.4842 166.61 80.3497C164.529 77.1961 163.479 73.1633 163.46 68.2514H178.582C178.677 70.048 179.126 71.5579 179.928 72.7811C180.73 74.0043 181.856 74.9313 183.307 75.562C184.777 76.1927 186.524 76.5081 188.548 76.5081C190.248 76.5081 191.67 76.2978 192.816 75.8773C193.961 75.4569 194.83 74.8739 195.422 74.1285C196.014 73.3831 196.319 72.5326 196.338 71.577C196.319 70.6787 196.023 69.8951 195.45 69.2261C194.897 68.5381 193.98 67.9265 192.701 67.3913C191.422 66.837 189.694 66.321 187.517 65.8432L181.675 64.5818C176.481 63.4541 172.386 61.5715 169.388 58.934C166.41 56.2773 164.93 52.6554 164.949 48.0684C164.93 44.3414 165.923 41.0827 167.928 38.2923C169.952 35.4827 172.749 33.2943 176.319 31.7271C179.909 30.1598 184.023 29.3762 188.663 29.3762C193.398 29.3762 197.493 30.1694 200.949 31.7557C204.405 33.3421 207.069 35.5783 208.94 38.4643C210.83 41.3312 211.785 44.6855 211.804 48.5271H196.567Z" fill="#FCFCFC"/>
<path d="M224.298 73.5386C233.722 63.5166 238.96 50.3362 238.96 36.6481V34.2479C238.959 33.9541 239.048 33.6669 239.215 33.4238C239.381 33.1806 239.618 32.9929 239.894 32.8849C251.063 28.5409 263.468 28.4746 274.683 32.6992C274.953 32.8038 275.186 32.9849 275.352 33.2198C275.519 33.4547 275.611 33.7329 275.619 34.0197L261.221 62.2176C260.487 61.724 259.659 61.3842 258.787 61.2193C257.915 61.0544 257.019 61.0677 256.152 61.2587C255.286 61.4496 254.469 61.8141 253.75 62.3296C253.032 62.8451 252.427 63.5005 251.975 64.256C251.522 65.0112 251.23 65.8501 251.117 66.7212C251.005 67.5922 251.074 68.4769 251.32 69.3205C251.565 70.1641 251.984 70.949 252.548 71.6269C253.112 72.3048 253.811 72.861 254.6 73.2617C254.867 73.3931 255.091 73.5951 255.248 73.8451C255.406 74.0951 255.49 74.3836 255.491 74.6782V123.179C255.491 123.368 255.452 123.555 255.376 123.728C255.3 123.901 255.188 124.056 255.048 124.185C254.909 124.313 254.743 124.412 254.564 124.474C254.383 124.536 254.192 124.561 254.002 124.547H253.986C253.712 124.527 253.451 124.427 253.234 124.26C253.017 124.094 252.854 123.868 252.766 123.611C246.625 105.734 235.905 89.1958 224.252 75.58C224.006 75.2929 223.875 74.9268 223.884 74.5507C223.892 74.1744 224.04 73.8144 224.298 73.5386Z" fill="url(#paint0_linear_50_2002)"/>
<path d="M239.884 32.8852C251.057 28.5366 263.467 28.4687 274.686 32.6948C274.956 32.7994 275.189 32.9805 275.355 33.2154C275.522 33.4503 275.614 33.7285 275.622 34.0153C276.099 48.673 280.023 63.2694 290.742 73.8915C291.026 74.1761 291.186 74.5605 291.186 74.961C291.186 75.3614 291.026 75.7458 290.742 76.0305C277.477 89.473 268.312 106.071 262.142 123.575C262.046 123.846 261.873 124.084 261.642 124.258C261.411 124.432 261.134 124.536 260.844 124.555H260.828C260.627 124.568 260.425 124.541 260.235 124.474C260.045 124.407 259.871 124.302 259.723 124.165C259.576 124.029 259.458 123.864 259.378 123.681C259.298 123.498 259.256 123.301 259.256 123.101V75.651C259.214 67.88 257.453 60.2125 254.097 53.1862C250.741 46.1599 245.873 39.9454 239.832 34.9785C239.514 34.722 239.229 34.478 238.962 34.2482C238.955 33.9548 239.041 33.6666 239.206 33.4227C239.371 33.1788 239.608 32.9912 239.884 32.8852Z" fill="url(#paint1_linear_50_2002)"/>
<path d="M78.305 130.69L67.7959 95.1508H78.5834L83.4551 117.016H83.7335L89.5101 95.1508H98.0008L103.777 117.085H104.056L108.928 95.1508H119.715L109.206 130.69H99.9496L93.8946 110.838H93.6163L87.5613 130.69H78.305Z" fill="#FCFCFC"/>
<path d="M127.94 130.69H117.501L129.263 95.1508H142.486L154.248 130.69H143.808L136.014 104.938H135.735L127.94 130.69ZM125.992 116.669H145.618V123.888H125.992V116.669Z" fill="#FCFCFC"/>
<path d="M157.68 130.69V95.1508H167.354V122.916H181.76V130.69H157.68Z" fill="#FCFCFC"/>
<path d="M185.671 130.69V95.1508H195.345V122.916H209.751V130.69H185.671Z" fill="#FCFCFC"/>
<path d="M213.662 130.69V95.1508H239.343V102.925H223.336V109.033H238.021V116.808H223.336V122.916H239.273V130.69H213.662Z" fill="#FCFCFC"/>
<path d="M243.166 102.925V95.1508H274.137V102.925H263.419V130.69H253.884V102.925H243.166Z" fill="#FCFCFC"/>
<defs>
<linearGradient id="paint0_linear_50_2002" x1="249.753" y1="124.552" x2="249.753" y2="29.5797" gradientUnits="userSpaceOnUse">
<stop stop-color="#196DD2"/>
<stop offset="1" stop-color="#0D40A1"/>
</linearGradient>
<linearGradient id="paint1_linear_50_2002" x1="265.077" y1="29.5801" x2="265.077" y2="124.566" gradientUnits="userSpaceOnUse">
<stop stop-color="#1E7EE5"/>
<stop offset="1" stop-color="#196DD2"/>
</linearGradient>
</defs>
</svg>
