<svg width="360" height="160" viewBox="0 0 360 160" fill="none" xmlns="http://www.w3.org/2000/svg">
<g clip-path="url(#clip0_51_2206)">
<rect width="360" height="160" fill="#FFE94D"/>
<path fill-rule="evenodd" clip-rule="evenodd" d="M207.259 188.243L76.6204 195.59C75.994 195.626 75.3795 195.409 74.9132 194.99L-12.6709 116.173C-14.2353 114.766 -13.3078 112.169 -11.2055 112.071L157.047 104.232C158.352 104.171 159.358 103.061 159.289 101.756L152.25 -31.9643C152.182 -33.2646 153.182 -34.3736 154.482 -34.4396L279.861 -40.7983C280.482 -40.8299 281.091 -40.6141 281.554 -40.1982L369.838 39.1257C371.408 40.5359 370.473 43.1397 368.365 43.2296L204.376 50.227C203.065 50.2829 202.053 51.3994 202.125 52.7093L209.478 185.763C209.55 187.06 208.557 188.17 207.259 188.243ZM186.932 172.573L98.4944 177.332C96.0661 177.463 95.0575 174.275 97.1189 172.985L166.873 129.338C168.063 128.593 169.636 129.048 170.244 130.314L188.928 169.203C189.655 170.716 188.609 172.483 186.932 172.573ZM265.193 -23.7847L175.464 -18.9561C173.374 -18.8436 172.459 -16.2635 174.011 -14.859L221.027 27.6795C221.992 28.553 223.484 28.4772 224.355 27.5103L267.068 -19.8568C268.474 -21.4164 267.29 -23.8976 265.193 -23.7847Z" fill="white" fill-opacity="0.8"/>
<path fill-rule="evenodd" clip-rule="evenodd" d="M167.721 37.2191L185.644 27.0483C185.73 26.9995 185.832 26.9871 185.927 27.0137L203.798 32.0133C204.117 32.1026 204.168 32.5339 203.878 32.6947L180.681 45.5648C180.501 45.6646 180.437 45.8917 180.537 46.0709L190.88 64.4506C190.981 64.6294 190.917 64.8558 190.738 64.956L173.488 74.6196C173.403 74.6675 173.302 74.6796 173.208 74.6532L155.202 69.631C154.882 69.5417 154.832 69.1089 155.123 68.9488L177.777 56.4956C177.958 56.3961 178.023 56.1677 177.921 55.9879L167.581 37.7243C167.48 37.5462 167.543 37.3201 167.721 37.2191ZM171.685 38.0094L183.833 31.1544C184.167 30.9662 184.532 31.3455 184.331 31.6717L177.539 42.7087C177.423 42.897 177.169 42.9427 176.995 42.8066L171.639 38.6246C171.43 38.4618 171.455 38.1394 171.685 38.0094ZM174.369 71.1929L186.695 64.2379C186.982 64.0758 186.93 63.6477 186.613 63.558L177.004 60.8419C176.806 60.7861 176.601 60.9011 176.546 61.0985L173.83 70.7697C173.74 71.0881 174.081 71.3555 174.369 71.1929Z" fill="black"/>
<path d="M73.6562 95.2865C73.528 93.9939 72.9778 92.9896 72.0056 92.2738C71.0334 91.5581 69.7141 91.2002 68.0475 91.2002C66.915 91.2002 65.9589 91.3604 65.179 91.6809C64.3991 91.9907 63.8008 92.4234 63.3842 92.9789C62.9782 93.5345 62.7752 94.1648 62.7752 94.8699C62.7539 95.4575 62.8767 95.9703 63.1438 96.4083C63.4216 96.8463 63.8008 97.2256 64.2816 97.5461C64.7623 97.8559 65.3179 98.1283 65.9482 98.3633C66.5785 98.5877 67.2516 98.78 67.9673 98.9402L70.9159 99.6453C72.3475 99.9658 73.6615 100.393 74.8581 100.927C76.0546 101.462 77.0909 102.119 77.9669 102.898C78.843 103.678 79.5213 104.597 80.0021 105.655C80.4935 106.712 80.7446 107.925 80.7553 109.292C80.7446 111.301 80.2318 113.042 79.2169 114.517C78.2126 115.98 76.7597 117.118 74.8581 117.93C72.9671 118.731 70.6862 119.132 68.0154 119.132C65.3659 119.132 63.0583 118.726 61.0926 117.914C59.1376 117.102 57.6099 115.9 56.5095 114.308C55.4198 112.706 54.8482 110.724 54.7948 108.363H61.5093C61.584 109.463 61.8992 110.382 62.4547 111.119C63.021 111.846 63.7741 112.396 64.7143 112.77C65.6651 113.133 66.7388 113.315 67.9353 113.315C69.1105 113.315 70.1307 113.144 70.9961 112.802C71.8721 112.46 72.5505 111.985 73.0312 111.376C73.512 110.767 73.7524 110.067 73.7524 109.276C73.7524 108.539 73.5333 107.92 73.0953 107.417C72.668 106.915 72.0377 106.488 71.2044 106.135C70.3818 105.783 69.3722 105.462 68.1757 105.174L64.6021 104.277C61.8351 103.604 59.6504 102.551 58.0479 101.12C56.4454 99.6881 55.6495 97.7597 55.6601 95.3346C55.6495 93.3475 56.1783 91.6115 57.2466 90.1265C58.3256 88.6415 59.8053 87.4824 61.6855 86.6491C63.5658 85.8158 65.7025 85.3991 68.0955 85.3991C70.5313 85.3991 72.6573 85.8158 74.4735 86.6491C76.3003 87.4824 77.7212 88.6415 78.7361 90.1265C79.751 91.6115 80.2745 93.3315 80.3066 95.2865H73.6562ZM96.5118 119.148C93.9799 119.148 91.8005 118.635 89.9736 117.609C88.1575 116.573 86.758 115.109 85.7751 113.218C84.7922 111.317 84.3008 109.068 84.3008 106.472C84.3008 103.94 84.7922 101.718 85.7751 99.8056C86.758 97.8933 88.1415 96.4029 89.9256 95.3346C91.7204 94.2663 93.825 93.7321 96.2394 93.7321C97.8633 93.7321 99.375 93.9939 100.774 94.5173C102.185 95.0301 103.413 95.8047 104.46 96.841C105.518 97.8772 106.34 99.1806 106.928 100.751C107.516 102.311 107.809 104.138 107.809 106.232V108.107H87.025V103.876H101.383C101.383 102.893 101.17 102.022 100.742 101.264C100.315 100.505 99.7222 99.9124 98.9637 99.4851C98.2158 99.0471 97.3451 98.8281 96.3516 98.8281C95.3153 98.8281 94.3965 99.0684 93.5953 99.5492C92.8047 100.019 92.1851 100.655 91.7364 101.456C91.2877 102.247 91.058 103.128 91.0473 104.1V108.123C91.0473 109.34 91.2717 110.393 91.7204 111.279C92.1797 112.166 92.8261 112.85 93.6594 113.331C94.4927 113.811 95.4809 114.052 96.624 114.052C97.3825 114.052 98.0769 113.945 98.7073 113.731C99.3376 113.518 99.8771 113.197 100.326 112.77C100.774 112.342 101.116 111.819 101.351 111.199L107.665 111.616C107.345 113.133 106.688 114.458 105.694 115.59C104.711 116.712 103.44 117.588 101.88 118.218C100.331 118.838 98.5417 119.148 96.5118 119.148ZM112.264 118.667V94.0526H118.771V98.3954H119.059C119.572 96.9531 120.426 95.8154 121.623 94.9821C122.82 94.1488 124.251 93.7321 125.918 93.7321C127.606 93.7321 129.043 94.1541 130.228 94.9981C131.414 95.8314 132.205 96.9638 132.6 98.3954H132.856C133.359 96.9852 134.267 95.8581 135.581 95.0141C136.905 94.1595 138.471 93.7321 140.276 93.7321C142.573 93.7321 144.437 94.4639 145.869 95.9275C147.311 97.3805 148.032 99.4424 148.032 102.113V118.667H141.222V103.459C141.222 102.092 140.858 101.066 140.132 100.382C139.405 99.6988 138.497 99.3569 137.408 99.3569C136.168 99.3569 135.201 99.7522 134.507 100.543C133.813 101.323 133.465 102.354 133.465 103.636V118.667H126.847V103.315C126.847 102.108 126.5 101.146 125.806 100.431C125.122 99.7148 124.219 99.3569 123.097 99.3569C122.339 99.3569 121.655 99.5492 121.046 99.9338C120.448 100.308 119.972 100.837 119.62 101.52C119.267 102.193 119.091 102.984 119.091 103.892V118.667H112.264ZM160.444 119.132C158.873 119.132 157.474 118.859 156.245 118.314C155.016 117.759 154.044 116.942 153.328 115.863C152.623 114.773 152.271 113.416 152.271 111.792C152.271 110.425 152.522 109.276 153.024 108.347C153.526 107.417 154.21 106.67 155.075 106.103C155.94 105.537 156.923 105.11 158.024 104.821C159.135 104.533 160.299 104.33 161.517 104.212C162.949 104.063 164.103 103.924 164.979 103.796C165.855 103.657 166.49 103.454 166.886 103.187C167.281 102.92 167.478 102.524 167.478 102.001V101.905C167.478 100.89 167.158 100.105 166.517 99.5492C165.887 98.9937 164.989 98.7159 163.825 98.7159C162.596 98.7159 161.619 98.9883 160.892 99.5332C160.166 100.067 159.685 100.74 159.45 101.552L153.136 101.04C153.457 99.5438 154.087 98.2512 155.027 97.1615C155.967 96.0611 157.18 95.2171 158.665 94.6295C160.16 94.0313 161.891 93.7321 163.857 93.7321C165.224 93.7321 166.533 93.8924 167.783 94.2129C169.044 94.5334 170.16 95.0301 171.132 95.7032C172.115 96.3762 172.89 97.2416 173.456 98.2992C174.022 99.3462 174.305 100.601 174.305 102.065V118.667H167.831V115.254H167.639C167.243 116.023 166.715 116.701 166.052 117.289C165.39 117.866 164.594 118.32 163.665 118.651C162.735 118.971 161.661 119.132 160.444 119.132ZM162.399 114.42C163.403 114.42 164.29 114.223 165.059 113.827C165.828 113.421 166.432 112.877 166.87 112.193C167.308 111.509 167.527 110.735 167.527 109.869V107.257C167.313 107.396 167.019 107.524 166.645 107.642C166.282 107.749 165.871 107.85 165.411 107.946C164.952 108.032 164.492 108.112 164.033 108.187C163.574 108.251 163.157 108.31 162.783 108.363C161.982 108.48 161.282 108.667 160.684 108.924C160.086 109.18 159.621 109.527 159.29 109.965C158.959 110.393 158.793 110.927 158.793 111.568C158.793 112.497 159.129 113.208 159.803 113.699C160.486 114.18 161.352 114.42 162.399 114.42ZM179.601 127.897V94.0526H186.332V98.1871H186.636C186.935 97.5247 187.368 96.8516 187.934 96.1679C188.511 95.4735 189.259 94.8966 190.178 94.4372C191.107 93.9672 192.261 93.7321 193.639 93.7321C195.434 93.7321 197.09 94.2022 198.607 95.1423C200.124 96.0718 201.337 97.4766 202.245 99.3569C203.153 101.226 203.607 103.571 203.607 106.392C203.607 109.137 203.163 111.456 202.277 113.347C201.401 115.227 200.204 116.653 198.687 117.625C197.181 118.587 195.493 119.068 193.623 119.068C192.299 119.068 191.171 118.849 190.242 118.411C189.323 117.973 188.57 117.422 187.982 116.76C187.395 116.087 186.946 115.409 186.636 114.725H186.428V127.897H179.601ZM186.284 106.36C186.284 107.823 186.487 109.1 186.893 110.19C187.299 111.279 187.886 112.129 188.655 112.738C189.425 113.336 190.359 113.635 191.46 113.635C192.571 113.635 193.511 113.331 194.28 112.722C195.049 112.102 195.632 111.247 196.027 110.158C196.433 109.057 196.636 107.791 196.636 106.36C196.636 104.939 196.438 103.689 196.043 102.61C195.648 101.531 195.065 100.687 194.296 100.078C193.527 99.4691 192.582 99.1646 191.46 99.1646C190.349 99.1646 189.409 99.4584 188.639 100.046C187.881 100.634 187.299 101.467 186.893 102.546C186.487 103.625 186.284 104.896 186.284 106.36ZM214.985 104.437V118.667H208.158V85.8478H214.792V98.3954H215.081C215.636 96.9425 216.534 95.8047 217.773 94.9821C219.012 94.1488 220.567 93.7321 222.436 93.7321C224.145 93.7321 225.636 94.106 226.907 94.8539C228.189 95.591 229.183 96.654 229.888 98.0428C230.604 99.421 230.956 101.072 230.945 102.995V118.667H224.119V104.212C224.129 102.695 223.745 101.515 222.965 100.671C222.196 99.827 221.117 99.405 219.728 99.405C218.798 99.405 217.976 99.6026 217.26 99.9979C216.555 100.393 215.999 100.97 215.593 101.729C215.198 102.476 214.995 103.379 214.985 104.437ZM247.439 119.148C244.95 119.148 242.797 118.619 240.981 117.561C239.176 116.493 237.781 115.008 236.799 113.106C235.816 111.194 235.324 108.977 235.324 106.456C235.324 103.913 235.816 101.691 236.799 99.7896C237.781 97.8772 239.176 96.3923 240.981 95.3346C242.797 94.2663 244.95 93.7321 247.439 93.7321C249.928 93.7321 252.076 94.2663 253.881 95.3346C255.697 96.3923 257.097 97.8772 258.08 99.7896C259.063 101.691 259.554 103.913 259.554 106.456C259.554 108.977 259.063 111.194 258.08 113.106C257.097 115.008 255.697 116.493 253.881 117.561C252.076 118.619 249.928 119.148 247.439 119.148ZM247.471 113.859C248.604 113.859 249.549 113.539 250.308 112.898C251.066 112.246 251.638 111.36 252.022 110.238C252.418 109.116 252.615 107.839 252.615 106.408C252.615 104.976 252.418 103.7 252.022 102.578C251.638 101.456 251.066 100.569 250.308 99.9178C249.549 99.2661 248.604 98.9402 247.471 98.9402C246.328 98.9402 245.367 99.2661 244.587 99.9178C243.817 100.569 243.235 101.456 242.84 102.578C242.455 103.7 242.263 104.976 242.263 106.408C242.263 107.839 242.455 109.116 242.84 110.238C243.235 111.36 243.817 112.246 244.587 112.898C245.367 113.539 246.328 113.859 247.471 113.859ZM263.993 118.667V94.0526H270.611V98.3473H270.868C271.316 96.8196 272.07 95.6658 273.127 94.8859C274.185 94.0954 275.403 93.7001 276.781 93.7001C277.123 93.7001 277.491 93.7214 277.887 93.7642C278.282 93.8069 278.629 93.8657 278.928 93.9404V99.9979C278.608 99.9017 278.164 99.8163 277.598 99.7415C277.032 99.6667 276.514 99.6293 276.044 99.6293C275.04 99.6293 274.142 99.8483 273.352 100.286C272.572 100.714 271.952 101.312 271.493 102.081C271.044 102.85 270.82 103.737 270.82 104.741V118.667H263.993ZM292.529 119.148C289.997 119.148 287.818 118.635 285.991 117.609C284.175 116.573 282.776 115.109 281.793 113.218C280.81 111.317 280.318 109.068 280.318 106.472C280.318 103.94 280.81 101.718 281.793 99.8056C282.776 97.8933 284.159 96.4029 285.943 95.3346C287.738 94.2663 289.843 93.7321 292.257 93.7321C293.881 93.7321 295.393 93.9939 296.792 94.5173C298.202 95.0301 299.431 95.8047 300.478 96.841C301.535 97.8772 302.358 99.1806 302.946 100.751C303.533 102.311 303.827 104.138 303.827 106.232V108.107H283.043V103.876H297.401C297.401 102.893 297.187 102.022 296.76 101.264C296.333 100.505 295.74 99.9124 294.981 99.4851C294.233 99.0471 293.363 98.8281 292.369 98.8281C291.333 98.8281 290.414 99.0684 289.613 99.5492C288.822 100.019 288.203 100.655 287.754 101.456C287.305 102.247 287.076 103.128 287.065 104.1V108.123C287.065 109.34 287.289 110.393 287.738 111.279C288.197 112.166 288.844 112.85 289.677 113.331C290.51 113.811 291.499 114.052 292.642 114.052C293.4 114.052 294.095 113.945 294.725 113.731C295.355 113.518 295.895 113.197 296.343 112.77C296.792 112.342 297.134 111.819 297.369 111.199L303.683 111.616C303.362 113.133 302.705 114.458 301.712 115.59C300.729 116.712 299.458 117.588 297.898 118.218C296.349 118.838 294.559 119.148 292.529 119.148Z" fill="black"/>
</g>
<defs>
<clipPath id="clip0_51_2206">
<rect width="360" height="160" fill="white"/>
</clipPath>
</defs>
</svg>
