<svg width="360" height="160" viewBox="0 0 360 160" fill="none" xmlns="http://www.w3.org/2000/svg">
<g clip-path="url(#clip0_55_2546)">
<rect width="360" height="160" rx="4" fill="#D895D3"/>
<g opacity="0.4">
<path fill-rule="evenodd" clip-rule="evenodd" d="M289.597 133.28L290.929 142.145L288.719 145.242L285.603 139.634L286.061 133.811L289.597 133.28Z" fill="#998C2E"/>
<path fill-rule="evenodd" clip-rule="evenodd" d="M289.907 132.966L286.058 133.544L285.585 139.561L288.862 145.458L291.276 142.076L289.907 132.966ZM285.945 139.482L286.388 133.851L289.611 133.367L290.906 141.987L288.899 144.799L285.945 139.482Z" fill="black"/>
<path d="M316.738 82.9999C315.899 77.4118 310.688 73.5624 305.1 74.4019L243.781 83.6139C238.193 84.4535 234.344 89.664 235.183 95.252L240.15 128.31C240.989 133.899 246.199 137.748 251.788 136.908L313.107 127.696C318.695 126.857 322.544 121.646 321.705 116.058L316.738 82.9999Z" fill="#998C2E"/>
<path fill-rule="evenodd" clip-rule="evenodd" d="M235.183 95.252C234.344 89.664 238.193 84.4535 243.781 83.6139L305.1 74.4019C310.688 73.5624 315.899 77.4118 316.738 82.9999L321.705 116.058C322.544 121.646 318.695 126.857 313.107 127.696L251.788 136.908C246.199 137.748 240.989 133.899 240.15 128.31L235.183 95.252ZM305.153 74.7508L243.834 83.9628L243.673 83.9884C238.365 84.874 234.73 89.8583 235.532 95.1996L240.499 128.258L240.525 128.419C241.409 133.727 246.394 137.362 251.735 136.559L313.054 127.347L313.216 127.321C318.524 126.436 322.158 121.452 321.356 116.11L316.389 83.0523L316.364 82.891C315.478 77.583 310.494 73.9483 305.153 74.7508Z" fill="black"/>
<path fill-rule="evenodd" clip-rule="evenodd" d="M301.925 77.0193C307.513 76.1798 312.724 80.0293 313.564 85.6173L318.53 118.675C319.369 124.264 315.52 129.474 309.932 130.314L286.992 133.76L288.717 145.242L268.444 136.546L248.613 139.526C243.025 140.365 237.814 136.516 236.975 130.928L232.009 97.8695C231.169 92.2814 235.018 87.0709 240.607 86.2314L301.925 77.0193Z" fill="#FFE94D"/>
<path d="M286.936 106.074C287.359 108.892 289.987 110.833 292.805 110.41C295.623 109.987 297.564 107.359 297.141 104.541C296.718 101.723 294.09 99.7814 291.272 100.205C288.454 100.628 286.512 103.256 286.936 106.074Z" fill="#998C2E"/>
<path fill-rule="evenodd" clip-rule="evenodd" d="M286.936 106.074C286.512 103.256 288.454 100.628 291.272 100.205C294.09 99.7814 296.718 101.723 297.141 104.541C297.564 107.359 295.623 109.987 292.805 110.41C289.987 110.833 287.359 108.892 286.936 106.074ZM296.792 104.593C296.398 101.968 293.95 100.159 291.324 100.554C288.699 100.948 286.89 103.396 287.285 106.022C287.679 108.647 290.127 110.456 292.753 110.061C295.378 109.667 297.187 107.219 296.792 104.593Z" fill="black"/>
<path d="M270.101 108.603C270.525 111.421 273.152 113.363 275.971 112.939C278.789 112.516 280.73 109.888 280.307 107.07C279.883 104.252 277.256 102.31 274.437 102.734C271.619 103.157 269.678 105.785 270.101 108.603Z" fill="#998C2E"/>
<path fill-rule="evenodd" clip-rule="evenodd" d="M270.101 108.603C269.678 105.785 271.619 103.157 274.437 102.734C277.256 102.31 279.883 104.252 280.307 107.07C280.73 109.888 278.789 112.516 275.971 112.939C273.152 113.363 270.525 111.421 270.101 108.603ZM279.958 107.122C279.563 104.497 277.115 102.688 274.49 103.083C271.864 103.477 270.056 105.925 270.45 108.551C270.845 111.176 273.293 112.985 275.918 112.59C278.544 112.196 280.352 109.748 279.958 107.122Z" fill="black"/>
<path d="M253.267 111.132C253.691 113.95 256.318 115.891 259.137 115.468C261.955 115.045 263.896 112.417 263.473 109.599C263.049 106.781 260.422 104.839 257.603 105.263C254.785 105.686 252.844 108.314 253.267 111.132Z" fill="#998C2E"/>
<path fill-rule="evenodd" clip-rule="evenodd" d="M253.267 111.132C252.844 108.314 254.785 105.686 257.603 105.263C260.422 104.839 263.049 106.781 263.473 109.599C263.896 112.417 261.955 115.045 259.137 115.468C256.318 115.891 253.691 113.95 253.267 111.132ZM263.124 109.651C262.729 107.026 260.281 105.217 257.656 105.612C255.03 106.006 253.222 108.454 253.616 111.079C254.011 113.705 256.459 115.513 259.084 115.119C261.71 114.725 263.518 112.277 263.124 109.651Z" fill="black"/>
<path fill-rule="evenodd" clip-rule="evenodd" d="M301.887 76.7577L240.568 85.9697C234.883 86.8237 230.968 92.1241 231.822 97.8085L236.788 130.867C237.642 136.551 242.942 140.467 248.627 139.613L268.408 136.641L288.926 145.442L287.18 133.821L309.946 130.401C315.573 129.555 319.467 124.352 318.716 118.732L318.692 118.562L313.725 85.5039C312.871 79.8195 307.571 75.9037 301.887 76.7577ZM240.62 86.3186L301.939 77.1066C307.431 76.2816 312.552 80.0647 313.377 85.5563L318.343 118.614C319.168 124.106 315.385 129.227 309.893 130.052L286.779 133.524L288.483 144.868L268.455 136.277L248.574 139.264C243.083 140.089 237.962 136.306 237.137 130.814L232.17 97.7561C231.345 92.2644 235.129 87.1437 240.62 86.3186Z" fill="black"/>
</g>
<path fill-rule="evenodd" clip-rule="evenodd" d="M322.576 105.273L321.244 114.138L323.454 117.235L326.57 111.627L326.112 105.804L322.576 105.273Z" fill="#998C2E"/>
<path fill-rule="evenodd" clip-rule="evenodd" d="M322.266 104.959L326.115 105.537L326.588 111.554L323.311 117.451L320.897 114.069L322.266 104.959ZM326.228 111.476L325.785 105.844L322.562 105.36L321.267 113.98L323.274 116.792L326.228 111.476Z" fill="black"/>
<path d="M295.435 54.9931C296.274 49.405 301.485 45.5556 307.073 46.3951L368.392 55.6071C373.98 56.4467 377.829 61.6572 376.99 67.2452L372.023 100.303C371.184 105.892 365.974 109.741 360.385 108.901L299.066 99.6893C293.478 98.8498 289.629 93.6396 290.468 88.0512L295.435 54.9931Z" fill="#998C2E"/>
<path fill-rule="evenodd" clip-rule="evenodd" d="M376.99 67.2452C377.829 61.6572 373.98 56.4467 368.392 55.6071L307.073 46.3951C301.485 45.5556 296.274 49.405 295.435 54.9931L290.468 88.0512C289.629 93.6396 293.478 98.8498 299.066 99.6893L360.385 108.901C365.974 109.741 371.184 105.892 372.023 100.303L376.99 67.2452ZM307.02 46.744L368.339 55.956L368.5 55.9816C373.808 56.8672 377.443 61.8514 376.641 67.1928L371.674 100.251L371.648 100.412C370.763 105.72 365.779 109.355 360.437 108.552L299.119 99.3404L298.957 99.3144C293.649 98.4295 290.015 93.4452 290.817 88.1036L295.783 55.0455L295.809 54.8841C296.695 49.5762 301.679 45.9415 307.02 46.744Z" fill="black"/>
<path fill-rule="evenodd" clip-rule="evenodd" d="M310.247 49.0127C304.659 48.1732 299.449 52.0227 298.609 57.6107L293.643 90.6688C292.803 96.2573 296.653 101.467 302.241 102.307L325.181 105.753L323.456 117.236L343.729 108.54L363.56 111.519C369.148 112.359 374.358 108.509 375.198 102.921L380.164 69.8629C381.004 64.2748 377.155 59.0643 371.566 58.2248L310.247 49.0127Z" fill="#FFE94D"/>
<path d="M325.237 78.0672C324.814 80.8853 322.186 82.8266 319.368 82.4033C316.55 81.9799 314.608 79.3522 315.032 76.534C315.455 73.7159 318.083 71.7746 320.901 72.198C323.719 72.6213 325.66 75.2491 325.237 78.0672Z" fill="#998C2E"/>
<path fill-rule="evenodd" clip-rule="evenodd" d="M325.237 78.0672C325.66 75.2491 323.719 72.6213 320.901 72.198C318.083 71.7746 315.455 73.7159 315.032 76.534C314.608 79.3522 316.55 81.9799 319.368 82.4033C322.186 82.8266 324.814 80.8853 325.237 78.0672ZM315.381 76.5864C315.775 73.961 318.223 72.1524 320.849 72.5469C323.474 72.9413 325.283 75.3893 324.888 78.0148C324.494 80.6402 322.046 82.4488 319.42 82.0544C316.795 81.6599 314.986 79.2119 315.381 76.5864Z" fill="black"/>
<path d="M342.072 80.5962C341.648 83.4144 339.02 85.3557 336.202 84.9323C333.384 84.5089 331.443 81.8812 331.866 79.0631C332.29 76.2449 334.917 74.3037 337.735 74.727C340.554 75.1504 342.495 77.7781 342.072 80.5962Z" fill="#998C2E"/>
<path fill-rule="evenodd" clip-rule="evenodd" d="M342.072 80.5962C342.495 77.7781 340.554 75.1504 337.735 74.727C334.917 74.3037 332.29 76.2449 331.866 79.0631C331.443 81.8812 333.384 84.5089 336.202 84.9323C339.02 85.3557 341.648 83.4144 342.072 80.5962ZM332.215 79.1155C332.61 76.49 335.058 74.6815 337.683 75.0759C340.308 75.4704 342.117 77.9184 341.723 80.5438C341.328 83.1693 338.88 84.9778 336.255 84.5834C333.629 84.189 331.821 81.741 332.215 79.1155Z" fill="black"/>
<path d="M358.905 83.1253C358.482 85.9434 355.855 87.8847 353.036 87.4614C350.218 87.038 348.277 84.4103 348.7 81.5921C349.124 78.774 351.751 76.8327 354.569 77.2561C357.388 77.6795 359.329 80.3072 358.905 83.1253Z" fill="#998C2E"/>
<path fill-rule="evenodd" clip-rule="evenodd" d="M358.905 83.1253C359.329 80.3072 357.388 77.6795 354.569 77.2561C351.751 76.8327 349.124 78.774 348.7 81.5921C348.277 84.4103 350.218 87.038 353.036 87.4614C355.855 87.8847 358.482 85.9434 358.905 83.1253ZM349.049 81.6446C349.444 79.0191 351.892 77.2106 354.517 77.605C357.142 77.9994 358.951 80.4474 358.557 83.0729C358.162 85.6983 355.714 87.5069 353.089 87.1125C350.463 86.718 348.655 84.27 349.049 81.6446Z" fill="black"/>
<path fill-rule="evenodd" clip-rule="evenodd" d="M310.286 48.7511L371.605 57.9631C377.289 58.8171 381.205 64.1175 380.351 69.8019L375.385 102.86C374.531 108.544 369.231 112.46 363.546 111.606L343.765 108.635L323.247 117.435L324.993 105.814L302.227 102.394C296.6 101.549 292.706 96.3453 293.457 90.7258L293.481 90.5555L298.447 57.4973C299.301 51.8129 304.602 47.8971 310.286 48.7511ZM371.553 58.312L310.234 49.1C304.742 48.275 299.621 52.0581 298.796 57.5498L293.83 90.6079C293.005 96.0995 296.788 101.22 302.28 102.045L325.394 105.518L323.69 116.861L343.718 108.271L363.599 111.257C369.09 112.082 374.211 108.299 375.036 102.808L380.002 69.7495C380.827 64.2578 377.044 59.1371 371.553 58.312Z" fill="black"/>
<path fill-rule="evenodd" clip-rule="evenodd" d="M53.3364 50.4829L55.2435 63.1773L52.0783 67.612L47.6174 59.5823L48.2728 51.2436L53.3364 50.4829Z" fill="#998C2E"/>
<path fill-rule="evenodd" clip-rule="evenodd" d="M53.7808 50.0334L48.2688 50.8615L47.5918 59.4767L52.2836 67.9213L55.7406 63.0788L53.7808 50.0334ZM48.1075 59.3648L48.7411 51.3014L53.3562 50.6081L55.2106 62.9516L52.3371 66.9772L48.1075 59.3648Z" fill="black"/>
<path d="M92.1995 -21.5121C90.9974 -29.5135 83.5365 -35.0255 75.535 -33.8234L-12.2669 -20.6328C-20.269 -19.4306 -25.7804 -11.9698 -24.5783 -3.96831L-17.467 43.3673C-16.2648 51.3694 -8.8046 56.8809 -0.802507 55.6787L86.9994 42.488C95.0009 41.286 100.513 33.8256 99.3108 25.8235L92.1995 -21.5121Z" fill="#998C2E"/>
<path fill-rule="evenodd" clip-rule="evenodd" d="M-24.5783 -3.96831C-25.7804 -11.9698 -20.269 -19.4306 -12.2669 -20.6328L75.535 -33.8234C83.5365 -35.0255 90.9974 -29.5135 92.1995 -21.5121L99.3108 25.8235C100.513 33.8256 95.0009 41.286 86.9994 42.488L-0.802507 55.6787C-8.8046 56.8809 -16.2648 51.3694 -17.467 43.3673L-24.5783 -3.96831ZM75.6101 -33.3239L-12.1919 -20.1332L-12.4226 -20.0966C-20.0227 -18.8285 -25.2277 -11.6916 -24.0787 -4.04337L-16.9674 43.2922L-16.9302 43.5232C-15.6632 51.1232 -8.5262 56.3282 -0.87756 55.1791L86.9244 41.9885L87.1553 41.9512C94.7558 40.6842 99.9603 33.5472 98.8112 25.8986L91.6999 -21.437L91.6633 -21.668C90.3952 -29.2684 83.2583 -34.4729 75.6101 -33.3239Z" fill="black"/>
<path fill-rule="evenodd" clip-rule="evenodd" d="M70.9891 -30.0752C78.9906 -31.2772 86.4515 -25.7652 87.6536 -17.7638L94.7649 29.5718C95.9671 37.5739 90.455 45.0343 82.4535 46.2363L49.6059 51.1711L52.0759 67.6124L23.0467 55.1611L-5.34841 59.427C-13.3505 60.6291 -20.8107 55.1177 -22.0129 47.1156L-29.1242 -0.220022C-30.3263 -8.22149 -24.8149 -15.6823 -16.8128 -16.8845L70.9891 -30.0752Z" fill="#FFE94D"/>
<path d="M49.5258 11.5276C50.1321 15.5629 53.8946 18.3426 57.9299 17.7364C61.9652 17.1301 64.7449 13.3676 64.1387 9.3323C63.5324 5.29703 59.7699 2.51731 55.7346 3.12354C51.6993 3.72976 48.9196 7.49234 49.5258 11.5276Z" fill="#998C2E"/>
<path fill-rule="evenodd" clip-rule="evenodd" d="M49.5258 11.5276C48.9196 7.49234 51.6993 3.72976 55.7346 3.12354C59.7699 2.51731 63.5324 5.29703 64.1387 9.3323C64.7449 13.3676 61.9652 17.1301 57.9299 17.7364C53.8946 18.3426 50.1321 15.5629 49.5258 11.5276ZM63.6391 9.40735C63.0743 5.64798 59.569 3.05834 55.8097 3.62312C52.0503 4.1879 49.4606 7.69319 50.0254 11.4526C50.5902 15.2119 54.0955 17.8016 57.8549 17.2368C61.6142 16.672 64.2039 13.1667 63.6391 9.40735Z" fill="black"/>
<path d="M25.4209 15.1489C26.0271 19.1842 29.7897 21.9639 33.8249 21.3577C37.8602 20.7515 40.6399 16.9889 40.0337 12.9536C39.4275 8.91837 35.6649 6.13865 31.6296 6.74487C27.5944 7.3511 24.8146 11.1137 25.4209 15.1489Z" fill="#998C2E"/>
<path fill-rule="evenodd" clip-rule="evenodd" d="M25.4209 15.1489C24.8146 11.1137 27.5944 7.3511 31.6296 6.74487C35.6649 6.13865 39.4275 8.91837 40.0337 12.9536C40.6399 16.9889 37.8602 20.7515 33.8249 21.3577C29.7897 21.9639 26.0271 19.1842 25.4209 15.1489ZM39.5341 13.0287C38.9693 9.26932 35.464 6.67968 31.7047 7.24446C27.9453 7.80923 25.3557 11.3145 25.9204 15.0739C26.4852 18.8333 29.9905 21.4229 33.7499 20.8581C37.5092 20.2933 40.0989 16.7881 39.5341 13.0287Z" fill="black"/>
<path d="M1.31636 18.7703C1.92259 22.8056 5.68505 25.5853 9.72044 24.979C13.7558 24.3728 16.5354 20.6102 15.9292 16.575C15.323 12.5397 11.5605 9.75997 7.52513 10.3662C3.48973 10.9725 0.710139 14.735 1.31636 18.7703Z" fill="#998C2E"/>
<path fill-rule="evenodd" clip-rule="evenodd" d="M1.31636 18.7703C0.710139 14.735 3.48973 10.9725 7.52513 10.3662C11.5605 9.75997 15.323 12.5397 15.9292 16.575C16.5354 20.6102 13.7558 24.3728 9.72044 24.979C5.68505 25.5853 1.92259 22.8056 1.31636 18.7703ZM15.4296 16.65C14.8648 12.8907 11.3595 10.301 7.60018 10.8658C3.84081 11.4306 1.25117 14.9359 1.81595 18.6952C2.38072 22.4546 5.88601 25.0442 9.64538 24.4795C13.4048 23.9147 15.9944 20.4094 15.4296 16.65Z" fill="black"/>
<path fill-rule="evenodd" clip-rule="evenodd" d="M70.9337 -30.4497L-16.8683 -17.2591C-25.0077 -16.0363 -30.6147 -8.44676 -29.3919 -0.307289L-22.2806 47.0283C-21.0578 55.1678 -13.4683 60.7748 -5.3288 59.552L22.9951 55.2968L52.3751 67.8985L49.8753 51.2586L82.4731 46.3613C90.5312 45.1508 96.1071 37.7 95.0314 29.6535L94.9968 29.4095L87.8855 -17.9261C86.6627 -26.0656 79.0731 -31.6726 70.9337 -30.4497ZM-16.7932 -16.7595L71.0087 -29.9502C78.8722 -31.1315 86.2045 -25.7145 87.3859 -17.851L94.4972 29.4846C95.6785 37.348 90.2615 44.6804 82.3981 45.8617L49.3006 50.834L51.7408 67.0768L23.0625 54.7758L-5.40385 59.0524C-13.2673 60.2337 -20.5997 54.8167 -21.781 46.9533L-28.8923 -0.382342C-30.0737 -8.2458 -24.6567 -15.5782 -16.7932 -16.7595Z" fill="black"/>
<path d="M77.3867 97.0001V91.7501L93.8867 69.7274H77.4549V62.091H105.955V67.341L89.4549 89.3638H105.887V97.0001H77.3867Z" fill="#665D1F"/>
<path d="M110.578 97.0001V62.091H120.056V76.2047H120.533L131.033 62.091H142.078L130.283 77.6365L142.351 97.0001H131.033L123.192 83.9092L120.056 88.0001V97.0001H110.578Z" fill="#665D1F"/>
<path d="M175.279 75.182H165.665C165.597 74.3865 165.415 73.6649 165.12 73.0172C164.836 72.3695 164.438 71.8126 163.926 71.3467C163.426 70.8695 162.819 70.5058 162.103 70.2558C161.387 69.9945 160.574 69.8638 159.665 69.8638C158.074 69.8638 156.728 70.2501 155.625 71.0229C154.534 71.7956 153.705 72.9035 153.137 74.3467C152.58 75.7899 152.301 77.5229 152.301 79.5456C152.301 81.682 152.586 83.4717 153.154 84.9149C153.733 86.3467 154.569 87.4263 155.659 88.1535C156.75 88.8694 158.063 89.2274 159.597 89.2274C160.472 89.2274 161.256 89.1194 161.949 88.9035C162.642 88.6763 163.245 88.3524 163.756 87.932C164.267 87.5115 164.682 87.0058 165 86.4149C165.33 85.8126 165.551 85.1365 165.665 84.3865L175.279 84.4547C175.165 85.9319 174.75 87.4376 174.034 88.9717C173.319 90.4945 172.301 91.9035 170.983 93.199C169.676 94.4831 168.057 95.5172 166.125 96.3013C164.194 97.0854 161.949 97.4774 159.392 97.4774C156.188 97.4774 153.313 96.7899 150.767 95.4149C148.233 94.0399 146.228 92.0172 144.75 89.3467C143.284 86.6763 142.551 83.4092 142.551 79.5456C142.551 75.6592 143.301 72.3865 144.801 69.7274C146.301 67.057 148.324 65.0399 150.87 63.6763C153.415 62.3013 156.256 61.6138 159.392 61.6138C161.597 61.6138 163.625 61.9149 165.478 62.5172C167.33 63.1195 168.955 64.0001 170.353 65.1592C171.75 66.307 172.875 67.7217 173.728 69.4035C174.58 71.0854 175.097 73.0115 175.279 75.182Z" fill="#665D1F"/>
<path d="M179.578 97.0001V62.091H189.056V75.7274H201.601V62.091H211.078V97.0001H201.601V83.3638H189.056V97.0001H179.578Z" fill="#665D1F"/>
<path d="M224.647 97.0001H214.419L225.942 62.091H238.897L250.419 97.0001H240.192L232.556 71.7047H232.283L224.647 97.0001ZM222.738 83.2274H241.965V90.3183H222.738V83.2274Z" fill="#665D1F"/>
<path d="M248.421 69.7274V62.091H278.762V69.7274H268.262V97.0001H258.921V69.7274H248.421Z" fill="#665D1F"/>
<path d="M81.3867 98.0001V92.7501L97.8867 70.7274H81.4549V63.091H109.955V68.341L93.4549 90.3638H109.887V98.0001H81.3867Z" fill="#FFE94D"/>
<path d="M114.578 98.0001V63.091H124.056V77.2047H124.533L135.033 63.091H146.078L134.283 78.6365L146.351 98.0001H135.033L127.192 84.9092L124.056 89.0001V98.0001H114.578Z" fill="#FFE94D"/>
<path d="M179.279 76.182H169.665C169.597 75.3865 169.415 74.6649 169.12 74.0172C168.836 73.3695 168.438 72.8126 167.926 72.3467C167.426 71.8695 166.819 71.5058 166.103 71.2558C165.387 70.9945 164.574 70.8638 163.665 70.8638C162.074 70.8638 160.728 71.2501 159.625 72.0229C158.534 72.7956 157.705 73.9035 157.137 75.3467C156.58 76.7899 156.301 78.5229 156.301 80.5456C156.301 82.682 156.586 84.4717 157.154 85.9149C157.733 87.3467 158.569 88.4263 159.659 89.1535C160.75 89.8694 162.063 90.2274 163.597 90.2274C164.472 90.2274 165.256 90.1194 165.949 89.9035C166.642 89.6763 167.245 89.3524 167.756 88.932C168.267 88.5115 168.682 88.0058 169 87.4149C169.33 86.8126 169.551 86.1365 169.665 85.3865L179.279 85.4547C179.165 86.9319 178.75 88.4376 178.034 89.9717C177.319 91.4945 176.301 92.9035 174.983 94.199C173.676 95.4831 172.057 96.5172 170.125 97.3013C168.194 98.0854 165.949 98.4774 163.392 98.4774C160.188 98.4774 157.313 97.7899 154.767 96.4149C152.233 95.0399 150.228 93.0172 148.75 90.3467C147.284 87.6763 146.551 84.4092 146.551 80.5456C146.551 76.6592 147.301 73.3865 148.801 70.7274C150.301 68.057 152.324 66.0399 154.87 64.6763C157.415 63.3013 160.256 62.6138 163.392 62.6138C165.597 62.6138 167.625 62.9149 169.478 63.5172C171.33 64.1195 172.955 65.0001 174.353 66.1592C175.75 67.307 176.875 68.7217 177.728 70.4035C178.58 72.0854 179.097 74.0115 179.279 76.182Z" fill="#FFE94D"/>
<path d="M183.578 98.0001V63.091H193.056V76.7274H205.601V63.091H215.078V98.0001H205.601V84.3638H193.056V98.0001H183.578Z" fill="#FFE94D"/>
<path d="M228.647 98.0001H218.419L229.942 63.091H242.897L254.419 98.0001H244.192L240.374 85.3524L236.556 72.7047H236.283L228.647 98.0001ZM232.804 84.2274H240.034L242.175 91.3183H230.664L232.804 84.2274Z" fill="#FFE94D"/>
<path d="M252.421 70.7274V63.091H282.762V70.7274H272.262V98.0001H262.921V70.7274H252.421Z" fill="#FFE94D"/>
</g>
<defs>
<clipPath id="clip0_55_2546">
<rect width="360" height="160" rx="4" fill="white"/>
</clipPath>
</defs>
</svg>
