<svg width="19" height="18" viewBox="0 0 19 18" fill="none" xmlns="http://www.w3.org/2000/svg">
<path fill-rule="evenodd" clip-rule="evenodd" d="M11.375 0.7499C11.3751 0.335686 11.7109 -5.52194e-05 12.1251 6.81216e-09L17.7494 0.00074998C18.1635 0.000805188 18.4992 0.336515 18.4993 0.75065L18.5 6.3749C18.5001 6.78911 18.1643 7.12495 17.7501 7.125C17.3359 7.12506 17.0001 6.78931 17 6.3751L16.9995 2.5611L11.5276 8.03301C11.2347 8.3259 10.7598 8.3259 10.4669 8.03301C10.174 7.74012 10.174 7.26524 10.4669 6.97235L15.9388 1.50051L12.1249 1.5C11.7107 1.49994 11.3749 1.16411 11.375 0.7499ZM2 3C1.60217 3 1.22064 3.15804 0.93934 3.43934C0.658036 3.72064 0.5 4.10217 0.5 4.5V16.5C0.5 16.8978 0.658035 17.2794 0.93934 17.5607C1.22065 17.842 1.60218 18 2 18H14C14.3978 18 14.7794 17.842 15.0607 17.5607C15.342 17.2794 15.5 16.8978 15.5 16.5V10.5C15.5 10.0858 15.1642 9.75 14.75 9.75C14.3358 9.75 14 10.0858 14 10.5V16.5H2L2 4.5H8C8.41421 4.5 8.75 4.16421 8.75 3.75C8.75 3.33579 8.41421 3 8 3H2Z" fill="#151616"/>
</svg>
