<svg width="360" height="160" viewBox="0 0 360 160" fill="none" xmlns="http://www.w3.org/2000/svg">
<rect width="360" height="160" fill="#151616"/>
<rect width="320" height="160" transform="translate(20)" fill="#151616"/>
<path fill-rule="evenodd" clip-rule="evenodd" d="M83.7576 91.6778C97.3867 91.6778 108.435 80.6293 108.435 67.0003C108.435 53.3713 97.3867 42.3228 83.7576 42.3228C70.1286 42.3228 59.0801 53.3713 59.0801 67.0003C59.0801 80.6293 70.1286 91.6778 83.7576 91.6778ZM97.3303 57.1287H89.927V64.532H97.3303V57.1287ZM82.5239 57.1288H75.1206V64.532H82.5239V57.1288ZM82.5237 68.2336H75.1205V74.403C75.1205 76.4595 77.5882 83.0402 86.2254 83.0402C95.1093 83.0402 97.3303 76.4595 97.3303 74.403V68.2336H89.927V74.403C89.927 75.2256 88.6931 76.8708 86.2254 76.8708C83.7576 76.8708 82.5237 75.2256 82.5237 74.403V68.2336Z" fill="#FCFCFC"/>
<path fill-rule="evenodd" clip-rule="evenodd" d="M147.92 87.5647C159.277 87.5647 168.484 78.3576 168.484 67C168.484 55.6425 159.277 46.4354 147.92 46.4354C136.562 46.4354 127.355 55.6425 127.355 67C127.355 78.3576 136.562 87.5647 147.92 87.5647ZM148.947 56.19C148.947 54.1238 146.242 53.348 145.147 55.1L137.748 66.9383C136.892 68.308 137.877 70.0846 139.492 70.0846H144.649L143.387 77.6566C143.046 79.6998 145.599 80.9078 146.963 79.3489L157.483 67.3259C158.646 65.9962 157.702 63.9153 155.935 63.9153H148.947V56.19Z" fill="#FCFCFC"/>
<path fill-rule="evenodd" clip-rule="evenodd" d="M193.573 46.4354H230.589C231.725 46.4354 232.646 47.3561 232.646 48.4919V75.2259C232.646 76.3617 231.725 77.2824 230.589 77.2824H212.081L200.899 86.2282C200.226 86.7668 199.228 86.2875 199.228 85.4253V77.2824H193.573C192.437 77.2824 191.517 76.3616 191.517 75.2259V48.4919C191.517 47.3561 192.437 46.4354 193.573 46.4354ZM201.799 64.9436C202.934 64.9436 203.855 64.0229 203.855 62.8871C203.855 61.7514 202.934 60.8306 201.799 60.8306C200.663 60.8306 199.742 61.7514 199.742 62.8871C199.742 64.0229 200.663 64.9436 201.799 64.9436ZM212.081 64.9436C213.217 64.9436 214.138 64.0229 214.138 62.8871C214.138 61.7514 213.217 60.8306 212.081 60.8306C210.945 60.8306 210.025 61.7514 210.025 62.8871C210.025 64.0229 210.945 64.9436 212.081 64.9436ZM224.42 62.8871C224.42 64.0229 223.499 64.9436 222.363 64.9436C221.227 64.9436 220.307 64.0229 220.307 62.8871C220.307 61.7514 221.227 60.8306 222.363 60.8306C223.499 60.8306 224.42 61.7514 224.42 62.8871Z" fill="#FCFCFC"/>
<path fill-rule="evenodd" clip-rule="evenodd" d="M285.659 53.3774L275.858 47.7191C275.575 47.5555 275.238 47.5112 274.922 47.5959L269.146 49.1437L287.782 59.9031L286.234 54.1267C286.149 53.8106 285.942 53.5411 285.659 53.3774ZM266.733 50.1644C266.738 50.1545 266.744 50.1448 266.75 50.1352L288.121 62.4735C288.115 62.4834 288.11 62.4933 288.104 62.5031L283.843 69.8831L294.878 76.2541C296.845 77.3899 297.519 79.9053 296.384 81.8725C295.248 83.8397 292.732 84.5137 290.765 83.3779L279.73 77.0069L276.646 82.3497L255.274 70.0109L266.733 50.1644ZM254.945 72.1953L274.919 83.7272L268.272 85.5082H289.61C290.177 85.5082 290.638 85.9686 290.638 86.5364C290.638 87.1043 290.177 87.5647 289.61 87.5647H256.706C256.138 87.5647 255.678 87.1043 255.678 86.5364C255.678 85.9686 256.138 85.5082 256.706 85.5082H267.301C267.25 85.4872 267.199 85.4626 267.151 85.4345L257.35 79.7762C257.067 79.6126 256.86 79.3431 256.775 79.027L254.945 72.1953ZM268.271 62.7827C267.958 62.3088 267.321 62.1783 266.847 62.4911C266.373 62.804 266.242 63.4419 266.555 63.9158L270.138 69.3427C270.335 69.6401 270.671 69.8146 271.027 69.8039C271.383 69.7932 271.709 69.5989 271.887 69.2902L273.554 66.4028L275.041 71.9505C275.188 72.4991 275.751 72.8246 276.3 72.6776C276.848 72.5306 277.174 71.9668 277.027 71.4183L274.898 63.4727C274.79 63.071 274.451 62.7737 274.039 62.7194C273.627 62.6651 273.222 62.8646 273.014 63.2247L270.938 66.8212L268.271 62.7827ZM283.164 71.8657L281.108 75.4276L291.793 81.597C292.777 82.1649 294.035 81.8279 294.603 80.8443C295.171 79.8607 294.834 78.603 293.85 78.0351L283.164 71.8657Z" fill="#FCFCFC"/>
<path d="M93.9808 114.677V106.135H97.6679C98.3019 106.135 98.8566 106.261 99.3321 106.511C99.8076 106.761 100.177 107.113 100.442 107.566C100.706 108.019 100.838 108.549 100.838 109.155C100.838 109.767 100.702 110.297 100.429 110.744C100.159 111.192 99.7797 111.537 99.2904 111.779C98.8038 112.021 98.2351 112.142 97.5845 112.142H95.3822V110.34H97.1173C97.3898 110.34 97.622 110.292 97.8139 110.198C98.0085 110.101 98.1573 109.963 98.2601 109.785C98.3658 109.607 98.4186 109.397 98.4186 109.155C98.4186 108.911 98.3658 108.702 98.2601 108.53C98.1573 108.354 98.0085 108.221 97.8139 108.129C97.622 108.035 97.3898 107.987 97.1173 107.987H96.2998V114.677H93.9808ZM101.722 114.677V108.271H103.958V109.489H104.024C104.141 109.038 104.326 108.709 104.579 108.5C104.835 108.292 105.134 108.188 105.476 108.188C105.576 108.188 105.675 108.196 105.772 108.213C105.872 108.226 105.968 108.247 106.06 108.275V110.24C105.946 110.201 105.805 110.172 105.638 110.152C105.472 110.133 105.328 110.123 105.209 110.123C104.984 110.123 104.781 110.174 104.6 110.277C104.422 110.377 104.282 110.519 104.179 110.703C104.076 110.883 104.024 111.096 104.024 111.341V114.677H101.722ZM106.815 114.677V108.271H109.117V114.677H106.815ZM107.966 107.604C107.654 107.604 107.387 107.501 107.165 107.295C106.943 107.089 106.831 106.842 106.831 106.553C106.831 106.263 106.943 106.016 107.165 105.81C107.387 105.604 107.654 105.501 107.966 105.501C108.28 105.501 108.547 105.604 108.767 105.81C108.989 106.016 109.1 106.263 109.1 106.553C109.1 106.842 108.989 107.089 108.767 107.295C108.547 107.501 108.28 107.604 107.966 107.604ZM116.747 108.271L114.594 114.677H111.925L109.773 108.271H112.192L113.226 112.509H113.293L114.328 108.271H116.747ZM119.026 114.778C118.617 114.778 118.256 114.711 117.942 114.577C117.63 114.441 117.385 114.235 117.208 113.96C117.03 113.685 116.941 113.334 116.941 112.909C116.941 112.559 117 112.26 117.12 112.012C117.24 111.762 117.406 111.558 117.62 111.399C117.835 111.241 118.083 111.12 118.367 111.036C118.653 110.953 118.962 110.899 119.293 110.874C119.652 110.846 119.939 110.812 120.156 110.774C120.376 110.732 120.535 110.675 120.632 110.603C120.729 110.527 120.778 110.429 120.778 110.306V110.29C120.778 110.123 120.714 109.995 120.586 109.906C120.458 109.817 120.294 109.773 120.094 109.773C119.874 109.773 119.695 109.821 119.556 109.918C119.42 110.013 119.337 110.159 119.31 110.356H117.191C117.219 109.967 117.342 109.608 117.562 109.28C117.785 108.949 118.108 108.685 118.534 108.488C118.959 108.288 119.49 108.188 120.127 108.188C120.586 108.188 120.997 108.242 121.362 108.35C121.726 108.456 122.036 108.605 122.292 108.797C122.548 108.986 122.742 109.208 122.876 109.464C123.012 109.717 123.08 109.992 123.08 110.29V114.677H120.928V113.777H120.878C120.75 114.016 120.594 114.209 120.411 114.356C120.23 114.504 120.023 114.611 119.789 114.677C119.559 114.744 119.304 114.778 119.026 114.778ZM119.777 113.326C119.952 113.326 120.116 113.29 120.269 113.218C120.425 113.145 120.551 113.041 120.649 112.905C120.746 112.769 120.795 112.603 120.795 112.409V111.875C120.733 111.9 120.668 111.923 120.598 111.946C120.532 111.968 120.459 111.989 120.382 112.008C120.307 112.028 120.226 112.046 120.14 112.062C120.056 112.079 119.969 112.094 119.877 112.108C119.699 112.136 119.553 112.182 119.439 112.246C119.328 112.307 119.244 112.383 119.189 112.475C119.136 112.564 119.109 112.664 119.109 112.776C119.109 112.954 119.172 113.09 119.297 113.184C119.422 113.279 119.582 113.326 119.777 113.326ZM127.267 114.794C126.572 114.794 125.977 114.657 125.482 114.381C124.987 114.103 124.607 113.717 124.343 113.222C124.079 112.724 123.947 112.147 123.947 111.491C123.947 110.835 124.079 110.259 124.343 109.764C124.607 109.266 124.987 108.88 125.482 108.605C125.977 108.327 126.572 108.188 127.267 108.188C127.895 108.188 128.439 108.302 128.898 108.53C129.359 108.755 129.716 109.075 129.969 109.489C130.222 109.9 130.35 110.384 130.353 110.94H128.218C128.187 110.604 128.09 110.348 127.926 110.173C127.764 109.995 127.556 109.906 127.3 109.906C127.1 109.906 126.925 109.964 126.775 110.081C126.624 110.195 126.508 110.369 126.424 110.603C126.341 110.833 126.299 111.124 126.299 111.474C126.299 111.825 126.341 112.117 126.424 112.35C126.508 112.581 126.624 112.755 126.775 112.871C126.925 112.985 127.1 113.042 127.3 113.042C127.47 113.042 127.62 113.004 127.751 112.926C127.881 112.845 127.987 112.728 128.068 112.575C128.151 112.42 128.201 112.231 128.218 112.008H130.353C130.345 112.573 130.216 113.065 129.965 113.485C129.715 113.902 129.361 114.224 128.902 114.452C128.446 114.68 127.901 114.794 127.267 114.794ZM132.705 117.08C132.44 117.08 132.189 117.059 131.95 117.017C131.71 116.978 131.501 116.924 131.32 116.855L131.82 115.22C132.009 115.286 132.182 115.33 132.337 115.349C132.496 115.368 132.631 115.357 132.742 115.316C132.856 115.274 132.938 115.195 132.988 115.078L133.038 114.961L130.786 108.271H133.188L134.223 112.709H134.289L135.341 108.271H137.76L135.424 115.211C135.307 115.565 135.138 115.881 134.915 116.162C134.695 116.446 134.406 116.67 134.048 116.834C133.689 116.998 133.241 117.08 132.705 117.08ZM143.507 114.811C142.895 114.811 142.369 114.703 141.926 114.486C141.484 114.269 141.145 113.978 140.909 113.614C140.672 113.25 140.554 112.848 140.554 112.409C140.554 112.089 140.615 111.807 140.738 111.562C140.86 111.314 141.031 111.088 141.251 110.882C141.47 110.676 141.728 110.473 142.022 110.273L143.958 109.072C144.152 108.949 144.284 108.823 144.354 108.692C144.423 108.559 144.458 108.441 144.458 108.338C144.458 108.201 144.408 108.081 144.308 107.975C144.208 107.869 144.052 107.818 143.841 107.821C143.71 107.821 143.598 107.846 143.503 107.896C143.408 107.943 143.335 108.01 143.282 108.096C143.232 108.182 143.207 108.285 143.207 108.404C143.207 108.569 143.254 108.737 143.349 108.909C143.443 109.079 143.573 109.262 143.737 109.46C143.901 109.657 144.086 109.878 144.291 110.123L148.429 114.677H146.127L142.656 111.007C142.487 110.826 142.299 110.605 142.093 110.344C141.887 110.08 141.71 109.782 141.559 109.451C141.412 109.12 141.338 108.76 141.338 108.371C141.338 107.937 141.443 107.541 141.651 107.182C141.86 106.824 142.152 106.537 142.527 106.323C142.902 106.109 143.34 106.002 143.841 106.002C144.319 106.002 144.731 106.101 145.075 106.298C145.423 106.496 145.69 106.758 145.876 107.086C146.065 107.415 146.16 107.776 146.16 108.171C146.16 108.569 146.061 108.94 145.864 109.285C145.669 109.629 145.39 109.931 145.025 110.19L143.257 111.441C143.121 111.535 143.002 111.644 142.902 111.766C142.805 111.889 142.756 112.047 142.756 112.242C142.756 112.403 142.794 112.541 142.869 112.655C142.944 112.769 143.05 112.856 143.186 112.917C143.325 112.979 143.488 113.009 143.674 113.009C143.958 113.009 144.241 112.941 144.525 112.805C144.811 112.666 145.073 112.472 145.309 112.225C145.545 111.975 145.734 111.68 145.876 111.341C146.021 110.999 146.093 110.626 146.093 110.223H147.912C147.912 110.718 147.86 111.195 147.757 111.654C147.654 112.112 147.489 112.532 147.261 112.913C147.033 113.294 146.733 113.615 146.36 113.877C146.243 113.935 146.129 113.991 146.018 114.044C145.907 114.096 145.793 114.152 145.676 114.21C145.334 114.43 144.977 114.586 144.604 114.677C144.232 114.766 143.866 114.811 143.507 114.811ZM151.284 117.08V108.271H153.569V109.389H153.62C153.703 109.172 153.825 108.973 153.987 108.792C154.148 108.609 154.348 108.463 154.587 108.354C154.826 108.243 155.104 108.188 155.421 108.188C155.844 108.188 156.246 108.3 156.627 108.525C157.01 108.751 157.322 109.105 157.561 109.589C157.803 110.073 157.924 110.701 157.924 111.474C157.924 112.214 157.809 112.827 157.578 113.314C157.35 113.8 157.044 114.163 156.66 114.402C156.279 114.641 155.861 114.761 155.405 114.761C155.104 114.761 154.836 114.712 154.6 114.615C154.366 114.515 154.166 114.38 153.999 114.21C153.835 114.038 153.709 113.843 153.62 113.626H153.586V117.08H151.284ZM153.536 111.474C153.536 111.786 153.576 112.055 153.657 112.283C153.74 112.509 153.857 112.684 154.007 112.809C154.16 112.931 154.342 112.992 154.554 112.992C154.765 112.992 154.944 112.933 155.092 112.813C155.242 112.691 155.356 112.517 155.434 112.292C155.515 112.064 155.555 111.791 155.555 111.474C155.555 111.157 155.515 110.886 155.434 110.661C155.356 110.433 155.242 110.259 155.092 110.14C154.944 110.017 154.765 109.956 154.554 109.956C154.342 109.956 154.16 110.017 154.007 110.14C153.857 110.259 153.74 110.433 153.657 110.661C153.576 110.886 153.536 111.157 153.536 111.474ZM158.888 114.677V108.271H161.124V109.489H161.191C161.308 109.038 161.492 108.709 161.746 108.5C162.001 108.292 162.3 108.188 162.642 108.188C162.742 108.188 162.841 108.196 162.938 108.213C163.038 108.226 163.134 108.247 163.226 108.275V110.24C163.112 110.201 162.972 110.172 162.805 110.152C162.638 110.133 162.495 110.123 162.375 110.123C162.15 110.123 161.947 110.174 161.766 110.277C161.588 110.377 161.448 110.519 161.345 110.703C161.242 110.883 161.191 111.096 161.191 111.341V114.677H158.888ZM166.701 114.794C166.005 114.794 165.41 114.657 164.915 114.381C164.42 114.103 164.041 113.717 163.777 113.222C163.513 112.724 163.38 112.147 163.38 111.491C163.38 110.835 163.513 110.259 163.777 109.764C164.041 109.266 164.42 108.88 164.915 108.605C165.41 108.327 166.005 108.188 166.701 108.188C167.396 108.188 167.991 108.327 168.486 108.605C168.981 108.88 169.36 109.266 169.624 109.764C169.889 110.259 170.021 110.835 170.021 111.491C170.021 112.147 169.889 112.724 169.624 113.222C169.36 113.717 168.981 114.103 168.486 114.381C167.991 114.657 167.396 114.794 166.701 114.794ZM166.717 113.093C166.912 113.093 167.08 113.027 167.222 112.897C167.364 112.766 167.474 112.58 167.551 112.338C167.629 112.096 167.668 111.808 167.668 111.474C167.668 111.138 167.629 110.85 167.551 110.611C167.474 110.369 167.364 110.183 167.222 110.052C167.08 109.921 166.912 109.856 166.717 109.856C166.511 109.856 166.335 109.921 166.188 110.052C166.04 110.183 165.928 110.369 165.85 110.611C165.772 110.85 165.733 111.138 165.733 111.474C165.733 111.808 165.772 112.096 165.85 112.338C165.928 112.58 166.04 112.766 166.188 112.897C166.335 113.027 166.511 113.093 166.717 113.093ZM177.216 108.271L175.064 114.677H172.395L170.243 108.271H172.662L173.696 112.509H173.763L174.797 108.271H177.216ZM179.496 114.778C179.087 114.778 178.726 114.711 178.411 114.577C178.1 114.441 177.855 114.235 177.677 113.96C177.499 113.685 177.41 113.334 177.41 112.909C177.41 112.559 177.47 112.26 177.59 112.012C177.709 111.762 177.876 111.558 178.09 111.399C178.304 111.241 178.553 111.12 178.837 111.036C179.123 110.953 179.432 110.899 179.763 110.874C180.121 110.846 180.409 110.812 180.626 110.774C180.846 110.732 181.004 110.675 181.102 110.603C181.199 110.527 181.248 110.429 181.248 110.306V110.29C181.248 110.123 181.184 109.995 181.056 109.906C180.928 109.817 180.764 109.773 180.564 109.773C180.344 109.773 180.165 109.821 180.026 109.918C179.889 110.013 179.807 110.159 179.779 110.356H177.661C177.688 109.967 177.812 109.608 178.032 109.28C178.254 108.949 178.578 108.685 179.004 108.488C179.429 108.288 179.96 108.188 180.597 108.188C181.056 108.188 181.467 108.242 181.832 108.35C182.196 108.456 182.506 108.605 182.762 108.797C183.017 108.986 183.212 109.208 183.346 109.464C183.482 109.717 183.55 109.992 183.55 110.29V114.677H181.398V113.777H181.348C181.22 114.016 181.064 114.209 180.881 114.356C180.7 114.504 180.493 114.611 180.259 114.677C180.028 114.744 179.774 114.778 179.496 114.778ZM180.247 113.326C180.422 113.326 180.586 113.29 180.739 113.218C180.894 113.145 181.021 113.041 181.118 112.905C181.216 112.769 181.264 112.603 181.264 112.409V111.875C181.203 111.9 181.138 111.923 181.068 111.946C181.002 111.968 180.929 111.989 180.851 112.008C180.776 112.028 180.696 112.046 180.609 112.062C180.526 112.079 180.438 112.094 180.347 112.108C180.169 112.136 180.023 112.182 179.909 112.246C179.798 112.307 179.714 112.383 179.659 112.475C179.606 112.564 179.579 112.664 179.579 112.776C179.579 112.954 179.642 113.09 179.767 113.184C179.892 113.279 180.052 113.326 180.247 113.326ZM184.617 114.677V106.135H186.919V109.389H186.952C187.036 109.172 187.158 108.973 187.319 108.792C187.481 108.609 187.681 108.463 187.92 108.354C188.159 108.243 188.437 108.188 188.754 108.188C189.177 108.188 189.579 108.3 189.96 108.525C190.343 108.751 190.655 109.105 190.894 109.589C191.136 110.073 191.257 110.701 191.257 111.474C191.257 112.214 191.141 112.827 190.911 113.314C190.683 113.8 190.377 114.163 189.993 114.402C189.612 114.641 189.194 114.761 188.738 114.761C188.437 114.761 188.169 114.712 187.933 114.615C187.699 114.515 187.499 114.38 187.332 114.21C187.168 114.038 187.041 113.843 186.952 113.626H186.902V114.677H184.617ZM186.869 111.474C186.869 111.786 186.909 112.055 186.99 112.283C187.073 112.509 187.19 112.684 187.34 112.809C187.493 112.931 187.675 112.992 187.887 112.992C188.098 112.992 188.277 112.933 188.425 112.813C188.575 112.691 188.689 112.517 188.767 112.292C188.847 112.064 188.888 111.791 188.888 111.474C188.888 111.157 188.847 110.886 188.767 110.661C188.689 110.433 188.575 110.259 188.425 110.14C188.277 110.017 188.098 109.956 187.887 109.956C187.675 109.956 187.493 110.017 187.34 110.14C187.19 110.259 187.073 110.433 186.99 110.661C186.909 110.886 186.869 111.157 186.869 111.474ZM194.523 106.135V114.677H192.22V106.135H194.523ZM198.765 114.794C198.081 114.794 197.492 114.664 196.997 114.402C196.505 114.138 196.125 113.76 195.858 113.268C195.594 112.773 195.462 112.181 195.462 111.491C195.462 110.829 195.596 110.251 195.862 109.756C196.129 109.261 196.506 108.876 196.993 108.6C197.479 108.325 198.054 108.188 198.715 108.188C199.199 108.188 199.637 108.263 200.029 108.413C200.421 108.563 200.756 108.781 201.034 109.068C201.312 109.351 201.527 109.696 201.677 110.102C201.827 110.508 201.902 110.965 201.902 111.474V112.008H196.179V110.74H199.783C199.78 110.557 199.733 110.395 199.641 110.256C199.552 110.115 199.431 110.005 199.278 109.927C199.128 109.846 198.957 109.806 198.765 109.806C198.579 109.806 198.408 109.846 198.252 109.927C198.097 110.005 197.972 110.113 197.877 110.252C197.785 110.391 197.737 110.554 197.731 110.74V112.108C197.731 112.314 197.774 112.497 197.86 112.659C197.947 112.82 198.07 112.947 198.232 113.038C198.393 113.13 198.587 113.176 198.815 113.176C198.974 113.176 199.119 113.154 199.249 113.109C199.383 113.065 199.497 113.001 199.591 112.917C199.686 112.831 199.755 112.728 199.8 112.609H201.902C201.83 113.054 201.659 113.44 201.389 113.768C201.119 114.094 200.762 114.347 200.317 114.527C199.875 114.705 199.358 114.794 198.765 114.794ZM205.181 114.677V108.271H207.417V109.489H207.484C207.6 109.038 207.785 108.709 208.038 108.5C208.294 108.292 208.593 108.188 208.935 108.188C209.035 108.188 209.134 108.196 209.231 108.213C209.331 108.226 209.427 108.247 209.519 108.275V110.24C209.405 110.201 209.265 110.172 209.098 110.152C208.931 110.133 208.788 110.123 208.668 110.123C208.443 110.123 208.24 110.174 208.059 110.277C207.881 110.377 207.741 110.519 207.638 110.703C207.535 110.883 207.484 111.096 207.484 111.341V114.677H205.181ZM212.977 114.794C212.293 114.794 211.703 114.664 211.208 114.402C210.716 114.138 210.337 113.76 210.07 113.268C209.805 112.773 209.673 112.181 209.673 111.491C209.673 110.829 209.807 110.251 210.074 109.756C210.341 109.261 210.718 108.876 211.204 108.6C211.691 108.325 212.265 108.188 212.927 108.188C213.411 108.188 213.848 108.263 214.241 108.413C214.633 108.563 214.968 108.781 215.246 109.068C215.524 109.351 215.738 109.696 215.888 110.102C216.038 110.508 216.113 110.965 216.113 111.474V112.008H210.391V110.74H213.994C213.992 110.557 213.944 110.395 213.853 110.256C213.764 110.115 213.643 110.005 213.49 109.927C213.34 109.846 213.169 109.806 212.977 109.806C212.79 109.806 212.619 109.846 212.464 109.927C212.308 110.005 212.183 110.113 212.088 110.252C211.997 110.391 211.948 110.554 211.942 110.74V112.108C211.942 112.314 211.985 112.497 212.072 112.659C212.158 112.82 212.282 112.947 212.443 113.038C212.604 113.13 212.799 113.176 213.027 113.176C213.185 113.176 213.33 113.154 213.461 113.109C213.594 113.065 213.708 113.001 213.803 112.917C213.897 112.831 213.967 112.728 214.011 112.609H216.113C216.041 113.054 215.87 113.44 215.6 113.768C215.331 114.094 214.973 114.347 214.528 114.527C214.086 114.705 213.569 114.794 212.977 114.794ZM217.053 117.08V108.271H219.338V109.389H219.388C219.472 109.172 219.594 108.973 219.756 108.792C219.917 108.609 220.117 108.463 220.356 108.354C220.595 108.243 220.873 108.188 221.19 108.188C221.613 108.188 222.015 108.3 222.396 108.525C222.779 108.751 223.091 109.105 223.33 109.589C223.572 110.073 223.693 110.701 223.693 111.474C223.693 112.214 223.577 112.827 223.347 113.314C223.119 113.8 222.813 114.163 222.429 114.402C222.048 114.641 221.63 114.761 221.174 114.761C220.873 114.761 220.605 114.712 220.369 114.615C220.135 114.515 219.935 114.38 219.768 114.21C219.604 114.038 219.477 113.843 219.388 113.626H219.355V117.08H217.053ZM219.305 111.474C219.305 111.786 219.345 112.055 219.426 112.283C219.509 112.509 219.626 112.684 219.776 112.809C219.929 112.931 220.111 112.992 220.323 112.992C220.534 112.992 220.713 112.933 220.861 112.813C221.011 112.691 221.125 112.517 221.203 112.292C221.283 112.064 221.324 111.791 221.324 111.474C221.324 111.157 221.283 110.886 221.203 110.661C221.125 110.433 221.011 110.259 220.861 110.14C220.713 110.017 220.534 109.956 220.323 109.956C220.111 109.956 219.929 110.017 219.776 110.14C219.626 110.259 219.509 110.433 219.426 110.661C219.345 110.886 219.305 111.157 219.305 111.474ZM228.812 111.875V108.271H231.114V114.677H228.928V113.46H228.862C228.723 113.868 228.479 114.188 228.132 114.419C227.784 114.647 227.371 114.761 226.893 114.761C226.445 114.761 226.053 114.658 225.717 114.452C225.383 114.246 225.123 113.963 224.937 113.601C224.753 113.24 224.66 112.826 224.657 112.358V108.271H226.96V111.875C226.962 112.192 227.043 112.44 227.202 112.621C227.363 112.802 227.588 112.892 227.877 112.892C228.069 112.892 228.235 112.852 228.374 112.771C228.515 112.688 228.624 112.571 228.699 112.421C228.777 112.268 228.814 112.086 228.812 111.875ZM236.105 108.271V109.939H231.885V108.271H236.105ZM232.702 106.736H235.004V112.617C235.004 112.706 235.02 112.781 235.05 112.842C235.081 112.901 235.128 112.945 235.192 112.976C235.256 113.004 235.338 113.017 235.438 113.017C235.508 113.017 235.588 113.009 235.68 112.992C235.775 112.976 235.844 112.962 235.889 112.951L236.222 114.569C236.119 114.6 235.972 114.637 235.78 114.682C235.591 114.726 235.366 114.755 235.104 114.769C234.576 114.797 234.133 114.743 233.774 114.607C233.415 114.468 233.146 114.249 232.965 113.952C232.784 113.654 232.696 113.282 232.702 112.834V106.736ZM238.83 114.778C238.421 114.778 238.06 114.711 237.746 114.577C237.434 114.441 237.19 114.235 237.012 113.96C236.834 113.685 236.745 113.334 236.745 112.909C236.745 112.559 236.804 112.26 236.924 112.012C237.044 111.762 237.21 111.558 237.425 111.399C237.639 111.241 237.887 111.12 238.171 111.036C238.458 110.953 238.766 110.899 239.097 110.874C239.456 110.846 239.744 110.812 239.96 110.774C240.18 110.732 240.339 110.675 240.436 110.603C240.533 110.527 240.582 110.429 240.582 110.306V110.29C240.582 110.123 240.518 109.995 240.39 109.906C240.262 109.817 240.098 109.773 239.898 109.773C239.678 109.773 239.499 109.821 239.36 109.918C239.224 110.013 239.142 110.159 239.114 110.356H236.995C237.023 109.967 237.146 109.608 237.366 109.28C237.589 108.949 237.913 108.685 238.338 108.488C238.763 108.288 239.294 108.188 239.931 108.188C240.39 108.188 240.802 108.242 241.166 108.35C241.53 108.456 241.84 108.605 242.096 108.797C242.352 108.986 242.546 109.208 242.68 109.464C242.816 109.717 242.884 109.992 242.884 110.29V114.677H240.732V113.777H240.682C240.554 114.016 240.398 114.209 240.215 114.356C240.034 114.504 239.827 114.611 239.593 114.677C239.363 114.744 239.108 114.778 238.83 114.778ZM239.581 113.326C239.756 113.326 239.92 113.29 240.073 113.218C240.229 113.145 240.355 113.041 240.453 112.905C240.55 112.769 240.599 112.603 240.599 112.409V111.875C240.537 111.9 240.472 111.923 240.403 111.946C240.336 111.968 240.264 111.989 240.186 112.008C240.111 112.028 240.03 112.046 239.944 112.062C239.86 112.079 239.773 112.094 239.681 112.108C239.503 112.136 239.357 112.182 239.243 112.246C239.132 112.307 239.048 112.383 238.993 112.475C238.94 112.564 238.914 112.664 238.914 112.776C238.914 112.954 238.976 113.09 239.101 113.184C239.226 113.279 239.386 113.326 239.581 113.326ZM247.805 108.271V109.939H243.584V108.271H247.805ZM244.401 106.736H246.704V112.617C246.704 112.706 246.719 112.781 246.75 112.842C246.78 112.901 246.827 112.945 246.891 112.976C246.955 113.004 247.037 113.017 247.138 113.017C247.207 113.017 247.288 113.009 247.379 112.992C247.474 112.976 247.543 112.962 247.588 112.951L247.922 114.569C247.819 114.6 247.671 114.637 247.48 114.682C247.29 114.726 247.065 114.755 246.804 114.769C246.276 114.797 245.832 114.743 245.473 114.607C245.115 114.468 244.845 114.249 244.664 113.952C244.483 113.654 244.396 113.282 244.401 112.834V106.736ZM248.744 114.677V108.271H251.047V114.677H248.744ZM249.896 107.604C249.584 107.604 249.317 107.501 249.095 107.295C248.872 107.089 248.761 106.842 248.761 106.553C248.761 106.263 248.872 106.016 249.095 105.81C249.317 105.604 249.584 105.501 249.896 105.501C250.21 105.501 250.477 105.604 250.696 105.81C250.919 106.016 251.03 106.263 251.03 106.553C251.03 106.842 250.919 107.089 250.696 107.295C250.477 107.501 250.21 107.604 249.896 107.604ZM255.306 114.794C254.611 114.794 254.016 114.657 253.521 114.381C253.026 114.103 252.647 113.717 252.382 113.222C252.118 112.724 251.986 112.147 251.986 111.491C251.986 110.835 252.118 110.259 252.382 109.764C252.647 109.266 253.026 108.88 253.521 108.605C254.016 108.327 254.611 108.188 255.306 108.188C256.001 108.188 256.596 108.327 257.091 108.605C257.586 108.88 257.966 109.266 258.23 109.764C258.494 110.259 258.626 110.835 258.626 111.491C258.626 112.147 258.494 112.724 258.23 113.222C257.966 113.717 257.586 114.103 257.091 114.381C256.596 114.657 256.001 114.794 255.306 114.794ZM255.323 113.093C255.518 113.093 255.686 113.027 255.828 112.897C255.969 112.766 256.079 112.58 256.157 112.338C256.235 112.096 256.274 111.808 256.274 111.474C256.274 111.138 256.235 110.85 256.157 110.611C256.079 110.369 255.969 110.183 255.828 110.052C255.686 109.921 255.518 109.856 255.323 109.856C255.117 109.856 254.941 109.921 254.793 110.052C254.646 110.183 254.533 110.369 254.455 110.611C254.378 110.85 254.339 111.138 254.339 111.474C254.339 111.808 254.378 112.096 254.455 112.338C254.533 112.58 254.646 112.766 254.793 112.897C254.941 113.027 255.117 113.093 255.323 113.093ZM261.863 111.074V114.677H259.561V108.271H261.746V109.489H261.813C261.952 109.083 262.197 108.765 262.547 108.534C262.9 108.303 263.312 108.188 263.782 108.188C264.235 108.188 264.628 108.292 264.962 108.5C265.298 108.706 265.558 108.99 265.742 109.351C265.928 109.713 266.02 110.126 266.017 110.59V114.677H263.715V111.074C263.718 110.757 263.637 110.508 263.473 110.327C263.312 110.146 263.086 110.056 262.797 110.056C262.608 110.056 262.443 110.098 262.301 110.181C262.162 110.262 262.055 110.379 261.98 110.532C261.905 110.682 261.866 110.863 261.863 111.074Z" fill="#FCFF59"/>
</svg>
