<svg xmlns="http://www.w3.org/2000/svg" viewBox="0 0 187.23 182.93"><defs><style>.cls-1{fill:#282a2d;}.cls-2{fill:#a5e174;}</style></defs><g id="Layer_2" data-name="Layer 2"><g id="Layer_1-2" data-name="Layer 1"><path class="cls-1" d="M185.52,69.45C172.1,3.24,91.61-21.4,40.73,21c-68.67,41.7-46,151.85,34.32,161.28C137.48,189.57,198.31,133.42,185.52,69.45ZM99.21,166.59C-4.9,165.75-3.15,8,100.16,8.55,203.33,11,202.93,165.3,99.21,166.59Z"/><path class="cls-2" d="M100.24,8a79.62,79.62,0,1,0,78.9,79.77A79.66,79.66,0,0,0,100.24,8Zm18.27,90.13a2.74,2.74,0,0,0-.9,2.32q0,16.82,0,33.64c0,4.73-2.92,7.64-7.7,7.65q-10.48,0-21,0c-4.71,0-7.65-3-7.66-7.71,0-5.55,0-11.1,0-16.65s0-11.33,0-17a2.92,2.92,0,0,0-1.07-2.41c-8.76-8.17-12-18.19-8.82-29.74S82.54,49.63,94.29,47.24c15.7-3.19,31.75,8.24,34,24.09C129.77,82,126.51,90.92,118.51,98.09Z"/><path class="cls-1" d="M94.29,47.24c-11.75,2.39-19.67,9.42-22.88,20.95s.06,21.57,8.82,29.74a2.92,2.92,0,0,1,1.07,2.41c0,5.66,0,11.32,0,17s0,11.1,0,16.65c0,4.74,3,7.71,7.66,7.71q10.5,0,21,0c4.78,0,7.7-2.92,7.7-7.65q0-16.82,0-33.64a2.74,2.74,0,0,1,.9-2.32c8-7.17,11.26-16.13,9.76-26.76C126,55.48,110,44.05,94.29,47.24Zm5.79,53.15a6.21,6.21,0,0,0-2.89,6c.17,8.44,0,16.87.09,25.31,0,1.3-.32,1.75-1.64,1.64a32,32,0,0,0-4.49,0c-1.23.09-1.47-.41-1.46-1.52,0-6,0-12,0-18s0-11.77,0-17.65a2.61,2.61,0,0,0-1.33-2.55,20.86,20.86,0,0,1-6.24-29.15,2.34,2.34,0,0,1,1.81-1,20.83,20.83,0,0,1,22.59,12.35A20.49,20.49,0,0,1,100.08,100.39Z"/></g></g></svg>