<svg width="360" height="160" viewBox="0 0 360 160" fill="none" xmlns="http://www.w3.org/2000/svg">
<rect width="360" height="160" rx="4" fill="#363337"/>
<rect x="53.5" y="15.5" width="166" height="116" rx="2.02991" stroke="black" stroke-dasharray="2 2"/>
<rect x="247" y="18" width="82" height="110" rx="2.53" fill="#100F11"/>
<rect x="249.316" y="13.3162" width="81.3675" height="109.368" rx="2.21368" fill="#1B1A1B" stroke="#363337" stroke-width="0.632479"/>
<rect x="27" y="71" width="142" height="78" rx="2.53" fill="#100F11"/>
<rect x="29.3162" y="66.3162" width="141.368" height="77.3675" rx="2.21368" fill="#292629" stroke="#363337" stroke-width="0.632479"/>
<rect x="39.4276" y="125.174" width="120.705" height="12.3675" rx="2.21368" fill="#1B1A1B" stroke="#363337" stroke-width="0.632479"/>
<rect x="76" y="54" width="205" height="61" rx="2.53" fill="#100F11"/>
<path d="M78.75 51.5417C78.75 50.5491 79.5503 49.75 80.5309 49.75H280.469C281.45 49.75 282.25 50.5491 282.25 51.5417V107.458C282.25 108.451 281.45 109.25 280.469 109.25H80.5309C79.5503 109.25 78.75 108.451 78.75 107.458V51.5417Z" fill="#1B1A1B" stroke="#D168F9" stroke-width="1.5"/>
<path d="M108.858 72.8353H127.053V77.5107L115.079 91.2306H127.053V95.7019H108.37V91.0265L120.365 77.3065H108.858V72.8353Z" fill="#D168F9"/>
<path d="M133.701 63.9337H139.658V80.614L146.814 72.8353H154.031L145.411 81.3694L154.519 95.7019H147.932L141.691 85.0036L139.658 86.9636V95.7019H133.701V63.9337Z" fill="#D168F9"/>
<path d="M157.324 80.9203H178.874V86.4123H157.324V80.9203Z" fill="#D168F9"/>
<path d="M183.875 63.9337H189.832V80.614L196.988 72.8353H204.205L195.585 81.3694L204.693 95.7019H198.106L191.865 85.0036L189.832 86.9636V95.7019H183.875V63.9337Z" fill="#D168F9"/>
<path d="M209.918 72.8353H221.709V91.1081H229.109V95.7019H208.332V91.1081H215.752V77.429H209.918V72.8353ZM215.752 61.7083H221.709V68.6907H215.752V61.7083Z" fill="#D168F9"/>
<path d="M244.539 66.3428V72.8353H252.325V77.429H244.539V88.2498C244.539 89.2706 244.783 90.0056 245.271 90.4548C245.773 90.8904 246.599 91.1081 247.751 91.1081H252.325V95.7019H247.324C243.909 95.7019 241.598 95.1574 240.392 94.0685C239.186 92.966 238.583 90.9312 238.583 87.964V77.429H232.768V72.8353H238.583V66.3428H244.539Z" fill="#D168F9"/>
<rect x="196" y="30" width="15" height="15" rx="2.52991" fill="#100F11"/>
<rect x="227" y="30" width="15" height="15" rx="2.52991" fill="#100F11"/>
<rect x="257" y="30" width="15" height="15" rx="2.52991" fill="#100F11"/>
<rect x="287" y="30" width="15" height="15" rx="2.52991" fill="#100F11"/>
<rect x="198.316" y="25.3162" width="14.3675" height="14.3675" rx="2.21368" fill="#292629" stroke="#363337" stroke-width="0.632479"/>
<rect x="229.316" y="25.3162" width="14.3675" height="14.3675" rx="2.21368" fill="#292629" stroke="#363337" stroke-width="0.632479"/>
<rect x="259.316" y="25.3162" width="14.3675" height="14.3675" rx="2.21368" fill="#292629" stroke="#363337" stroke-width="0.632479"/>
<rect x="289.316" y="25.3162" width="14.3675" height="14.3675" rx="2.21368" fill="#292629" stroke="#363337" stroke-width="0.632479"/>
</svg>
