<svg width="33" height="27" viewBox="0 0 33 27" fill="none" xmlns="http://www.w3.org/2000/svg">
<path d="M10.552 26.9999C22.628 26.9999 29.234 16.9939 29.234 8.33192C29.234 8.05192 29.234 7.76792 29.222 7.48792C30.5081 6.55689 31.6181 5.40422 32.5 4.08392C31.2986 4.61362 30.0255 4.96273 28.722 5.11992C30.0951 4.2992 31.1234 3.00786 31.616 1.48592C30.326 2.25017 28.914 2.78667 27.442 3.07192C26.4524 2.01797 25.1428 1.31976 23.7162 1.08544C22.2895 0.851116 20.8254 1.09376 19.5507 1.7758C18.2759 2.45783 17.2616 3.54118 16.6649 4.85804C16.0682 6.1749 15.9224 7.65179 16.25 9.05992C13.6395 8.92902 11.0856 8.25086 8.75409 7.06941C6.42254 5.88796 4.36537 4.22961 2.716 2.20192C1.87868 3.64809 1.62315 5.35872 2.00129 6.98645C2.37944 8.61418 3.36291 10.037 4.752 10.9659C3.71108 10.9306 2.69304 10.651 1.78 10.1499V10.2399C1.78179 11.7549 2.30661 13.2228 3.26575 14.3954C4.22488 15.5681 5.5595 16.3737 7.044 16.6759C6.48053 16.8312 5.89846 16.9085 5.314 16.9059C4.90197 16.9072 4.49076 16.869 4.086 16.7919C4.50557 18.096 5.32255 19.2363 6.42249 20.0529C7.52244 20.8695 8.85027 21.3216 10.22 21.3459C7.89311 23.1735 5.0188 24.1647 2.06 24.1599C1.53864 24.1621 1.01765 24.1321 0.5 24.0699C3.50303 25.9844 6.9906 27.001 10.552 26.9999Z" fill="#282A2D"/>
</svg>
