<svg width="24" height="24" viewBox="0 0 24 24" fill="none" xmlns="http://www.w3.org/2000/svg">
<g clip-path="url(#clip0_104_1192)">
<path d="M20.8644 10.2054L21.9051 11.3946C22.3457 11.8982 22.3457 12.7125 21.9051 13.2107L12.7973 23.625C12.3566 24.1286 11.6441 24.1286 11.2082 23.625L2.09569 13.2107C1.65507 12.7071 1.65507 11.8929 2.09569 11.3946L3.13631 10.2054C3.58163 9.69643 4.30819 9.70714 4.74413 10.2268L10.1254 16.6821L10.1254 1.28571C10.1254 0.573214 10.6269 -5.07428e-07 11.2504 -4.80176e-07L12.7504 -4.14609e-07C13.3738 -3.87358e-07 13.8754 0.573214 13.8754 1.28571L13.8754 16.6821L19.2566 10.2268C19.6926 9.70179 20.4191 9.69107 20.8644 10.2054Z" fill="black"/>
</g>
<defs>
<clipPath id="clip0_104_1192">
<rect width="24" height="24" fill="white" transform="translate(24) rotate(90)"/>
</clipPath>
</defs>
</svg>
