<svg xmlns="http://www.w3.org/2000/svg" viewBox="0 0 246.94 341.7"><defs><style>.cls-1{fill:#282a2d;}.cls-2{fill:#fe9b91;}.cls-3{fill:#fee0dd;}</style></defs><g id="Layer_2" data-name="Layer 2"><g id="Layer_1-2" data-name="Layer 1"><path class="cls-1" d="M.39,264.71c1-3.87,4.07-6.39,6.39-9.36q8.73-11.17,17.83-22.07c1.94-2.32,2.52-4.18.88-7-2.58-4.43-4.79-9.09-7-13.72-2.66-5.49-1.22-9.35,4.4-11.54,8-3.13,16.08-6.11,24.15-9.1,2.08-.77,3.78-1.51,4.27-4.15.67-3.57,3.75-4.95,6.86-5.72,7.77-1.91,13.08-6.66,18-12.87Q134,96.59,192.33,24.38c6.26-7.8,11.94-8,19.26-.49L226.4,5.41C228.63,2.62,231.1.23,235,.08c7.36-.49,9.33,1,12,9.19v3c-3.44,18.1-8.11,35.91-12.24,53.85-6.9,30-14,59.86-21,89.79q-18.26,77.88-36.46,155.78c-.88,3.75-1.7,7.51-5,10-3.69,2.79-7.67,3.83-12.13,1.89-2.75-1.2-5.42-2.53-8.07-3.9-5.44-2.81-5.43-2.82-6.8,3.4-.69,3.08-1.64,6.1-2.22,9.2-1,5.07-3.56,8.45-8.81,9.42h-6c-8.58-2.23-16-7.1-23.66-11.16C89,322.35,73.41,314.28,57.93,306c-17.08-9.19-34.42-17.88-51.39-27.26-3.38-1.87-6.76-3.84-6.5-8.53C.19,268.35-.32,266.49.39,264.71Z"/><path class="cls-2" d="M76.1,241.5c.79,1.34,1.22,2,1.62,2.72,4,6.9,9.1,7.38,14,1.26q19.06-23.67,38.11-47.37,15.3-19,30.58-38.05c.72-.91,1.42-1.84,2.14-2.76,2.33-3,2.61-6.13.4-9.19s-5.21-3.74-8.82-2.36c-11.93,4.55-23.9,9-35.86,13.5l-4.91,1.83c0-1.83,1-2.61,1.79-3.53q58.47-72.86,117-145.69c1-1.29,1.93-3.86,4-2.85,2.73,1.33.82,4,.39,5.78Q221.45,80,206.05,145.2,186.71,227.61,167.48,310c-1,4.53-2.16,5.41-6.47,3.12q-48.34-25.72-96.91-51c-2.11-1.11-3.29-1.89-1.27-4.26C67.22,252.65,71.41,247.29,76.1,241.5Z"/><path class="cls-3" d="M152.38,156.33c-3,3.78-5.76,7.36-8.6,10.9C125.38,190.15,106.92,213,88.63,236c-2.72,3.42-3.88,3.83-6-.52-6.85-14-14.08-27.82-21.2-41.7-1-1.85-2-3.21,1.12-4.39,29.48-11,58.91-22.19,88.36-33.31C151.16,156,151.52,156.18,152.38,156.33Z"/></g></g></svg>