<svg width="360" height="160" viewBox="0 0 360 160" fill="none" xmlns="http://www.w3.org/2000/svg">
<g clip-path="url(#clip0_50_2075)">
<rect width="360" height="160" rx="4" fill="#E7E1FD"/>
<rect x="68.001" y="-16" width="205" height="205" fill="#E7E1FD"/>
<path d="M69.541 116.239V26.4492H108.253C114.909 26.4492 120.733 27.6622 125.726 30.0882C130.718 32.5141 134.601 36.0069 137.374 40.5666C140.148 45.1262 141.534 50.592 141.534 56.9638C141.534 63.3941 140.104 68.8159 137.243 73.2295C134.411 77.643 130.426 80.975 125.288 83.2256C120.179 85.4762 114.208 86.6015 107.377 86.6015H84.255V67.6614H102.472C105.333 67.6614 107.771 67.3107 109.785 66.6092C111.829 65.8785 113.391 64.724 114.471 63.1456C115.58 61.5673 116.135 59.5067 116.135 56.9638C116.135 54.3917 115.58 52.3018 114.471 50.6943C113.391 49.0575 111.829 47.8591 109.785 47.0992C107.771 46.31 105.333 45.9154 102.472 45.9154H93.8891V116.239H69.541ZM122.091 75.027L144.512 116.239H118.062L96.1663 75.027H122.091Z" fill="#4E4864"/>
<path d="M148.223 116.239V26.4492H172.571V96.5976H208.83V116.239H148.223Z" fill="#4E4864"/>
<path d="M289.301 26.4492V116.239H268.982L236.576 69.0644H236.051V116.239H211.702V26.4492H232.372L264.252 73.4487H264.953V26.4492H289.301Z" fill="#4E4864"/>
<path d="M-44.3681 158.547H122.149V160.544H-44.3681V158.547Z" fill="#7364FF"/>
<path d="M-33.5761 144.152H111.355V146.15H-33.5761V144.152Z" fill="#7364FF"/>
<path d="M-22.5264 129.756H100.306V131.754H-22.5264V129.756Z" fill="#7364FF"/>
<path d="M-10.1907 116.962H87.9722V118.959H-10.1907V116.962Z" fill="#7364FF"/>
<path d="M2.78709 110.565H76.2808V116.962H2.78709V110.565Z" fill="#7364FF"/>
<path d="M42.3603 110.565H115.854V116.962H42.3603V110.565Z" fill="#CECCFF"/>
<path d="M-8.1361 116.962H87.457V129.757H-8.1361V116.962Z" fill="#7364FF"/>
<path d="M31.4386 116.962H127.032V129.757H31.4386V116.962Z" fill="#CECCFF"/>
<path d="M-42.3121 158.547H121.635V172.941H-42.3121V158.547Z" fill="#7364FF"/>
<path d="M-2.73889 158.547H161.208V172.941H-2.73889V158.547Z" fill="#CECCFF"/>
<path d="M-20.4708 129.756H99.7915V144.151H-20.4708V129.756Z" fill="#7364FF"/>
<path d="M19.1029 129.756H139.365V144.151H19.1029V129.756Z" fill="#CECCFF"/>
<path d="M-31.2625 144.152H110.585V158.547H-31.2625V144.152Z" fill="#7364FF"/>
<path d="M8.31079 144.152H150.159V158.547H8.31079V144.152Z" fill="#CECCFF"/>
<path d="M-5.30858 158.547H161.208V160.544H-5.30858V158.547Z" fill="#A39FFF"/>
<path d="M5.48398 144.152H150.416V146.15H5.48398V144.152Z" fill="#A39FFF"/>
<path d="M16.5332 129.756H139.365V131.754H16.5332V129.756Z" fill="#A39FFF"/>
<path d="M28.8689 116.962H127.032V118.959H28.8689V116.962Z" fill="#A39FFF"/>
<path fill-rule="evenodd" clip-rule="evenodd" d="M93.4965 110.564H63.9448L83.7316 172.941H113.283L93.4965 110.564Z" fill="#A39FFF"/>
<path fill-rule="evenodd" clip-rule="evenodd" d="M96.0673 110.564H66.5156L86.3024 172.941H115.854L96.0673 110.564Z" fill="#E8E7FF"/>
<path d="M80.9048 137.754H99.4067V140.953H80.9048V137.754Z" fill="#CECCFF"/>
<path d="M86.045 153.748H104.547V156.947H86.045V153.748Z" fill="#CECCFF"/>
<path d="M75.7647 121.761H94.2666V124.96H75.7647V121.761Z" fill="#CECCFF"/>
<path d="M78.8492 131.357H97.3511V134.556H78.8492V131.357Z" fill="#CECCFF"/>
<path d="M83.9874 147.351H102.489V150.55H83.9874V147.351Z" fill="#CECCFF"/>
<path d="M73.9669 115.362H92.4688V118.561H73.9669V115.362Z" fill="#CECCFF"/>
<path d="M79.877 134.556H98.3789V137.755H79.877V134.556Z" fill="#CECCFF"/>
<path d="M85.0162 150.55H103.518V153.749H85.0162V150.55Z" fill="#CECCFF"/>
<path d="M74.9947 118.562H93.4966V121.76H74.9947V118.562Z" fill="#CECCFF"/>
<path d="M77.8213 128.158H96.3232V131.357H77.8213V128.158Z" fill="#CECCFF"/>
<path d="M82.9605 144.152H101.462V147.351H82.9605V144.152Z" fill="#CECCFF"/>
<path d="M72.9385 110.565H91.4404V115.363H72.9385V110.565Z" fill="#CECCFF"/>
<path d="M87.0723 156.947H105.574V160.146H87.0723V156.947Z" fill="#CECCFF"/>
<path d="M76.7945 124.96H95.2964V128.159H76.7945V124.96Z" fill="#CECCFF"/>
<path d="M81.9327 140.954H100.435V144.152H81.9327V140.954Z" fill="#CECCFF"/>
<path d="M19.2332 86.3062H67.0298V110.564H19.2332V86.3062Z" fill="#7364FF"/>
<path d="M40.3047 86.3062H98.894V110.564H40.3047V86.3062Z" fill="#CECCFF"/>
<path d="M16.6635 84.4399H67.0298V86.4376H16.6635V84.4399Z" fill="#7364FF"/>
<path d="M16.6635 95.9025H67.0298V97.9001H16.6635V95.9025Z" fill="#7364FF"/>
<path d="M37.2209 84.4399H101.978V86.4376H37.2209V84.4399Z" fill="#A39FFF"/>
<path d="M37.2209 95.9025H101.978V97.9001H37.2209V95.9025Z" fill="#A39FFF"/>
<path d="M65.7442 97.7683H73.9673V110.564H65.7442V97.7683Z" fill="#7364FF"/>
<path d="M65.7442 88.7051H73.9673V93.5033H65.7442V88.7051Z" fill="#E8E7FF"/>
<path d="M81.1632 88.7051H89.3862V93.5033H81.1632V88.7051Z" fill="#E8E7FF"/>
<path d="M49.8131 88.7051H58.0361V93.5033H49.8131V88.7051Z" fill="#E8E7FF"/>
<path d="M24.3726 97.7687H32.5957V110.564H24.3726V97.7687Z" fill="#5628D2"/>
<path d="M87.0723 106.033H93.4966V110.565H87.0723V106.033Z" fill="#A39FFF"/>
<path d="M63.9449 106.033H70.3691V110.565H63.9449V106.033Z" fill="#A39FFF"/>
<path d="M89.6426 106.033H96.0669V110.565H89.6426V106.033Z" fill="#E8E7FF"/>
<path d="M66.5147 106.033H72.939V110.565H66.5147V106.033Z" fill="#E8E7FF"/>
<path fill-rule="evenodd" clip-rule="evenodd" d="M362.699 45.7C363.654 45.7 364.428 46.5137 364.428 47.5176V98.3407H364.141L364.141 107.61C376.811 110.747 386.245 122.756 386.245 137.092V170.641C386.245 171.802 385.919 172.883 385.359 173.788L395.431 183.05H215.441L263.955 156.107V132.247C263.955 120.821 273.615 111.537 285.606 111.352L285.97 111.35H315.303C316.503 111.35 317.669 111.486 318.785 111.744L318.784 95.8949C318.784 88.3902 324.567 82.3064 331.699 82.3064H341.463V70.7235C341.463 64.1544 346.501 58.8166 352.755 58.7105L352.945 58.7089V47.5176C352.945 46.5137 353.719 45.7 354.674 45.7H362.699Z" fill="#FFE38E"/>
<path d="M152.829 148.378H151.681V176.965H152.829V148.378Z" fill="#02A837"/>
<path fill-rule="evenodd" clip-rule="evenodd" d="M151.967 146.591L165.746 170.712H138.188L151.967 146.591Z" fill="#02A837"/>
<path fill-rule="evenodd" clip-rule="evenodd" d="M152.255 140.338L163.738 160.29H140.772L152.255 140.338Z" fill="#02A837"/>
<path fill-rule="evenodd" clip-rule="evenodd" d="M151.967 135.871L160.005 149.867H143.929L151.967 135.871Z" fill="#02A837"/>
<path d="M213.642 127.888H159.366V153.563H213.642V127.888Z" fill="#A39FFF"/>
<path d="M239.527 125.868H213.642V127.888H239.527V125.868Z" fill="#A39FFF"/>
<path d="M238.136 127.888H213.642V153.563H238.136V127.888Z" fill="#7364FF"/>
<path d="M173.841 129.619H161.037V153.563H173.841V129.619Z" fill="#FFE38E"/>
<path d="M211.97 129.619H199.166V153.563H211.97V129.619Z" fill="#FFE38E"/>
<path d="M213.642 141.446H159.366V143.466H213.642V141.446Z" fill="#A39FFF"/>
<path d="M213.642 151.543H159.366V153.562H213.642V151.543Z" fill="#A39FFF"/>
<path d="M196.384 127.888H174.952V153.563H196.384V127.888Z" fill="#E8E7FF"/>
<path d="M198.054 127.888H196.384V153.563H198.054V127.888Z" fill="#CECCFF"/>
<path d="M215.868 125.868H157.139V127.888H215.868V125.868Z" fill="#CECCFF"/>
<path fill-rule="evenodd" clip-rule="evenodd" d="M179.128 129.619H191.931V146.318V153.563H179.128V129.619Z" fill="#7364FF"/>
<path d="M233.124 129.619H220.321V151.255H233.124V129.619Z" fill="#5628D2"/>
<path d="M238.136 141.446H213.642V143.466H238.136V141.446Z" fill="#7364FF"/>
<path fill-rule="evenodd" clip-rule="evenodd" d="M245.836 167.437C253.446 167.437 264.208 167.161 264.208 157.951C264.208 148.741 258.039 139.557 245.836 139.557C233.633 139.557 227.464 148.741 227.464 157.951C227.464 167.161 238.226 167.437 245.836 167.437Z" fill="#2EE17C"/>
<path d="M246.696 155.525H245.547V176.966H246.696V155.525Z" fill="#02A837"/>
<path fill-rule="evenodd" clip-rule="evenodd" d="M264.924 176.967C268.808 176.967 271.957 176.805 271.957 172.118C271.957 167.43 268.808 159.993 264.924 159.993C261.039 159.993 257.891 167.43 257.891 172.118C257.891 176.805 261.039 176.967 264.924 176.967Z" fill="#00D745"/>
<path d="M266.748 44.0131C273.838 44.0131 279.586 37.966 279.586 30.5065C279.586 23.0471 273.838 17 266.748 17C259.658 17 253.91 23.0471 253.91 30.5065C253.91 37.966 259.658 44.0131 266.748 44.0131Z" fill="#FEFED0"/>
<path d="M308.53 86.4623C320.465 86.4623 330.14 76.3588 330.14 63.8955C330.14 51.4321 320.465 41.3286 308.53 41.3286C296.595 41.3286 286.92 51.4321 286.92 63.8955C286.92 76.3588 296.595 86.4623 308.53 86.4623Z" fill="#FF8D62"/>
<path fill-rule="evenodd" clip-rule="evenodd" d="M226.008 69.0182C227.023 67.1908 258.892 65.1533 270.354 65.1533C281.815 65.1533 316.585 67.7544 316.585 69.0182C316.585 70.282 224.994 70.8455 226.008 69.0182Z" fill="white" fill-opacity="0.2"/>
</g>
<defs>
<clipPath id="clip0_50_2075">
<rect width="360" height="160" rx="4" fill="white"/>
</clipPath>
</defs>
</svg>
