<svg width="40" height="40" viewBox="0 0 40 40" fill="none" xmlns="http://www.w3.org/2000/svg">
<path fill-rule="evenodd" clip-rule="evenodd" d="M22.18 23.5C22.48 23.88 22.84 24.31 22.84 24.31C25.05 24.24 25.9 22.79 25.9 22.79C25.9 19.57 24.46 16.96 24.46 16.96C23.02 15.88 21.65 15.91 21.65 15.91L21.51 16.07C23.21 16.59 24 17.34 24 17.34C22.96 16.77 21.94 16.49 20.99 16.38C20.27 16.3 19.58 16.32 18.97 16.4C18.9176 16.4 18.8729 16.4076 18.8224 16.4162L18.8 16.42C18.45 16.45 17.6 16.58 16.53 17.05C16.16 17.22 15.94 17.34 15.94 17.34C15.94 17.34 16.77 16.55 18.57 16.03L18.47 15.91C18.47 15.91 17.1 15.88 15.66 16.96C15.66 16.96 14.22 19.57 14.22 22.79C14.22 22.79 15.06 24.24 17.27 24.31C17.27 24.31 17.64 23.86 17.94 23.48C16.67 23.1 16.19 22.3 16.19 22.3C16.19 22.3 16.29 22.37 16.47 22.47C16.48 22.48 16.49 22.49 16.51 22.5C16.525 22.51 16.54 22.5175 16.555 22.525C16.57 22.5325 16.585 22.54 16.6 22.55C16.85 22.69 17.1 22.8 17.33 22.89C17.74 23.05 18.23 23.21 18.8 23.32C19.55 23.46 20.43 23.51 21.39 23.33C21.86 23.25 22.34 23.11 22.84 22.9C23.19 22.77 23.58 22.58 23.99 22.31C23.99 22.31 23.49 23.13 22.18 23.5ZM17.17 20.75C17.17 20.14 17.62 19.64 18.19 19.64C18.76 19.64 19.22 20.14 19.21 20.75C19.21 21.36 18.76 21.86 18.19 21.86C17.63 21.86 17.17 21.36 17.17 20.75ZM20.82 20.75C20.82 20.14 21.27 19.64 21.84 19.64C22.41 19.64 22.86 20.14 22.86 20.75C22.86 21.36 22.41 21.86 21.84 21.86C21.28 21.86 20.82 21.36 20.82 20.75Z" fill="#151616"/>
<path fill-rule="evenodd" clip-rule="evenodd" d="M20 0C31.0457 0 40 8.95431 40 20C40 31.0457 31.0457 40 20 40C8.95431 40 0 31.0457 0 20C0 8.95431 8.95431 0 20 0ZM11.25 13.31C11.25 12.17 12.17 11.25 13.3 11.25H26.7C27.83 11.25 28.75 12.17 28.75 13.31V31.25L26.6 29.35L25.39 28.23L24.11 27.04L24.64 28.89H13.3C12.17 28.89 11.25 27.97 11.25 26.83V13.31Z" fill="#151616"/>
</svg>
