<svg width="360" height="160" viewBox="0 0 360 160" fill="none" xmlns="http://www.w3.org/2000/svg">
<rect width="360" height="160" fill="#6CF5D4"/>
<g clip-path="url(#clip0_51_2183)">
<path fill-rule="evenodd" clip-rule="evenodd" d="M77.7742 109C93.6657 109 106.548 96.2401 106.548 80.5C106.548 64.7599 93.6657 52 77.7742 52C61.8827 52 49 64.7599 49 80.5C49 96.2401 61.8827 109 77.7742 109Z" fill="#221F2C"/>
<path fill-rule="evenodd" clip-rule="evenodd" d="M100.794 80.5C100.794 93.0921 90.4875 103.3 77.7742 103.3C65.0609 103.3 54.7548 93.0921 54.7548 80.5C54.7548 67.9079 65.0609 57.7 77.7742 57.7C90.4875 57.7 100.794 67.9079 100.794 80.5ZM106.548 80.5C106.548 96.2401 93.6657 109 77.7742 109C61.8827 109 49 96.2401 49 80.5C49 64.7599 61.8827 52 77.7742 52C93.6657 52 106.548 64.7599 106.548 80.5ZM65.9068 81.6399C65.9068 74.8334 71.4776 69.3155 78.3497 69.3155V63.5385C68.2563 63.5385 60.0741 71.6428 60.0741 81.6399H65.9068Z" fill="white"/>
<path d="M131.782 82.0186C134.038 82.0186 135.47 83.1578 135.556 84.9718H142.021C141.717 80.6687 137.769 77.0828 131.565 77.0828C125.187 77.0828 120.936 81.5124 120.936 86.828C120.936 92.1437 124.927 96.5312 131.565 96.5312C137.379 96.5312 141.24 93.3249 141.891 89.1905H135.556C135.34 90.8781 133.778 91.7218 131.782 91.7218C128.745 91.7218 127.877 89.0218 127.877 86.8703C127.877 84.7609 128.832 82.0186 131.782 82.0186Z" fill="#221F2C"/>
<path d="M152.466 96.4656V64.4688H145.958V96.4656H152.466Z" fill="#221F2C"/>
<path d="M168.455 82.1875C169.453 82.1875 170.408 82.4827 171.057 83.2421H171.145V77.5046C170.625 77.2515 169.757 77.0828 169.192 77.0828C166.806 77.0828 165.157 78.3906 164.16 79.7828V77.5046H157.652V96.4655H164.16V86.828C164.16 84.5922 166.025 82.1875 168.455 82.1875Z" fill="#221F2C"/>
<path d="M173.829 92.861C173.829 94.8861 175.522 96.5314 177.647 96.5314C179.73 96.5314 181.465 94.8861 181.465 92.861C181.465 90.7938 179.73 89.1486 177.647 89.1486C175.522 89.1486 173.829 90.7938 173.829 92.861Z" fill="#221F2C"/>
<path d="M193.929 64.4688C190.458 64.4688 187.767 66.5781 187.767 71.1766V77.5047H185.034V82.3985H187.767V96.4656H194.275V82.3985H198.745V77.5047H194.275V71.936C194.275 70.1218 194.623 69.4047 195.968 69.4047H198.745V64.4688H193.929Z" fill="#221F2C"/>
<path d="M201.663 88.0937C201.663 93.1141 203.745 96.5312 208.865 96.5312C211.381 96.5312 213.42 95.4343 214.722 93.8312V96.4656H221.23V77.5046H214.722V86.8281C214.722 89.3172 213.117 91.4687 211.078 91.4687C209.038 91.4687 208.17 90.2453 208.17 88.0937V77.5046H201.663V88.0937Z" fill="#221F2C"/>
<path d="M245.983 85.5625C245.983 80.4999 243.901 77.0828 238.782 77.0828C236.265 77.0828 234.226 78.1797 232.925 79.7828V77.5046H226.417V96.4655H232.925V86.828C232.925 84.2968 234.53 82.1875 236.568 82.1875C238.608 82.1875 239.476 83.3687 239.476 85.5625V96.4655H245.983V85.5625Z" fill="#221F2C"/>
<path d="M265.492 86.8281C265.492 89.275 263.54 91.4687 260.936 91.4687C258.334 91.4687 256.382 89.275 256.382 86.8281C256.382 84.3812 258.334 82.1876 260.936 82.1876C263.54 82.1876 265.492 84.3812 265.492 86.8281ZM272 64.4688H265.492V79.7829C263.801 77.7578 261.37 77.0829 258.941 77.0829C253.517 77.0829 249.44 81.6812 249.44 86.8281C249.44 91.975 253.517 96.5312 258.941 96.5312C261.37 96.5312 264.19 95.7718 265.492 93.8734V96.4656H272V64.4688Z" fill="#221F2C"/>
</g>
<defs>
<clipPath id="clip0_51_2183">
<rect width="223" height="57" fill="white" transform="translate(49 52)"/>
</clipPath>
</defs>
</svg>
