<?xml version="1.0" encoding="UTF-8" standalone="no"?>
<svg
   xmlns:dc="http://purl.org/dc/elements/1.1/"
   xmlns:cc="http://creativecommons.org/ns#"
   xmlns:rdf="http://www.w3.org/1999/02/22-rdf-syntax-ns#"
   xmlns:svg="http://www.w3.org/2000/svg"
   xmlns="http://www.w3.org/2000/svg"
   xmlns:sodipodi="http://sodipodi.sourceforge.net/DTD/sodipodi-0.dtd"
   xmlns:inkscape="http://www.inkscape.org/namespaces/inkscape"
   width="350"
   height="150"
   viewBox="0 0 350 150"
   version="1.1"
   id="svg10"
   sodipodi:docname="semaphore.svg"
   style="fill:none"
   inkscape:version="0.92.5 (2060ec1f9f, 2020-04-08)">
  <metadata
     id="metadata16">
    <rdf:RDF>
      <cc:Work
         rdf:about="">
        <dc:format>image/svg+xml</dc:format>
        <dc:type
           rdf:resource="http://purl.org/dc/dcmitype/StillImage" />
      </cc:Work>
    </rdf:RDF>
  </metadata>
  <defs
     id="defs14" />
  <sodipodi:namedview
     pagecolor="#ffffff"
     bordercolor="#666666"
     borderopacity="1"
     objecttolerance="10"
     gridtolerance="10"
     guidetolerance="10"
     inkscape:pageopacity="0"
     inkscape:pageshadow="2"
     inkscape:window-width="2560"
     inkscape:window-height="1025"
     id="namedview12"
     showgrid="false"
     inkscape:zoom="2.5875"
     inkscape:cx="158.04145"
     inkscape:cy="55.047758"
     inkscape:window-x="0"
     inkscape:window-y="421"
     inkscape:window-maximized="1"
     inkscape:current-layer="svg10" />
  <rect
     width="350"
     height="150"
     id="rect2"
     x="0"
     y="0"
     style="fill:#1d1d1d;stroke-width:0.25315392" />
  <g
     id="g831"
     transform="translate(0,10.824199)">
    <g
       transform="translate(-3.1980105)"
       id="g825">
      <path
         d="m 120.77896,44.337255 8.18632,-4.645428 c 0.0392,-0.0224 0.0857,-0.02792 0.12918,-0.01571 l 8.16252,2.283381 c 0.14572,0.04066 0.16894,0.237749 0.0365,0.311191 l -10.59511,5.878269 c -0.0822,0.04554 -0.11147,0.149496 -0.0656,0.231357 l 4.72409,8.394738 c 0.0459,0.08153 0.0169,0.184912 -0.0648,0.230784 l -7.87891,4.413774 c -0.0389,0.02176 -0.085,0.02728 -0.12831,0.01539 l -8.22377,-2.294125 c -0.1463,-0.04066 -0.16895,-0.238321 -0.036,-0.311477 l 10.34691,-5.687837 c 0.0827,-0.04554 0.11234,-0.149793 0.0659,-0.231941 l -4.72292,-8.341625 c -0.0459,-0.08132 -0.0174,-0.184626 0.0639,-0.230774 z m 1.81079,0.360821 5.54851,-3.130718 c 0.15239,-0.0862 0.31931,0.08705 0.22758,0.236293 l -3.10257,5.040795 c -0.0529,0.0862 -0.16894,0.107116 -0.24848,0.04469 l -2.44623,-1.910076 c -0.0952,-0.07431 -0.0842,-0.221484 0.0212,-0.280999 z m 1.22588,15.156354 5.62949,-3.176591 c 0.13121,-0.07399 0.1077,-0.269671 -0.0372,-0.310606 l -4.3891,-1.240676 c -0.09,-0.02527 -0.18376,0.02728 -0.20901,0.117276 l -1.24068,4.417267 c -0.0407,0.14543 0.11495,0.267643 0.24646,0.19333 z"
         id="path4"
         inkscape:connector-curvature="0"
         style="clip-rule:evenodd;fill:#f8f8f8;fill-rule:evenodd;stroke-width:0.29028484" />
      <path
         d="m 141.5291,58.926389 c -1.18553,0 -2.20646,-0.253418 -3.06308,-0.759966 -0.85141,-0.512059 -1.50949,-1.229932 -1.97423,-2.154491 -0.45981,-0.929782 -0.68943,-2.018647 -0.68943,-3.266871 0,-1.23284 0.22962,-2.319083 0.68943,-3.259311 0.46474,-0.939953 1.11237,-1.673793 1.94288,-2.201234 0.83572,-0.527738 1.81224,-0.791316 2.93013,-0.791316 0.67898,0 1.33705,0.11234 1.97422,0.336733 0.63718,0.22468 1.20904,0.577083 1.71559,1.057792 0.50684,0.480422 0.90627,1.104534 1.19888,1.872335 0.29231,0.762578 0.43862,1.689462 0.43862,2.781225 v 0.8305 h -9.56577 v -1.755059 h 7.2702 c 0,-0.616277 -0.12541,-1.16201 -0.37592,-1.637209 -0.25081,-0.480709 -0.60322,-0.859238 -1.0578,-1.136171 -0.44908,-0.276645 -0.97652,-0.415112 -1.58235,-0.415112 -0.65807,0 -1.23284,0.161981 -1.72371,0.485646 -0.48564,0.318739 -0.86186,0.736452 -1.12805,1.253457 -0.26125,0.512059 -0.39188,1.068249 -0.39188,1.668846 v 1.371009 c 0,0.804385 0.14108,1.488584 0.42323,2.052608 0.2871,0.564025 0.68682,0.995093 1.1986,1.292642 0.51177,0.292601 1.10975,0.438616 1.79395,0.438616 0.44414,0 0.84879,-0.06242 1.21455,-0.18781 0.36547,-0.130632 0.68159,-0.323962 0.94779,-0.579705 0.26647,-0.256029 0.47025,-0.572146 0.61104,-0.948063 l 2.2172,0.399432 c -0.17766,0.65285 -0.4961,1.224996 -0.95562,1.715875 -0.45458,0.485645 -1.02644,0.864461 -1.71587,1.135883 -0.6842,0.266476 -1.46507,0.399719 -2.3426,0.399719 z m 7.98254,-0.242971 V 46.649661 h 2.24855 v 1.958846 h 0.14892 c 0.2508,-0.663307 0.66068,-1.180588 1.22993,-1.551282 0.56925,-0.376215 1.25084,-0.564025 2.04477,-0.564025 0.80437,0 1.47813,0.18781 2.02125,0.564025 0.54835,0.375917 0.9533,0.893199 1.21426,1.551282 h 0.12541 c 0.28738,-0.642403 0.74429,-1.154462 1.37101,-1.535613 0.62672,-0.386661 1.37363,-0.579694 2.24071,-0.579694 1.09147,0 1.98207,0.341956 2.67149,1.026156 0.69466,0.684199 1.04212,1.715874 1.04212,3.094729 v 8.069333 h -2.3426 v -7.850173 c 0,-0.814534 -0.22206,-1.404982 -0.6659,-1.770442 -0.44385,-0.365757 -0.9742,-0.548355 -1.59048,-0.548355 -0.76258,0 -1.35534,0.23484 -1.77829,0.705102 -0.42293,0.464753 -0.63456,1.062739 -0.63456,1.793967 v 7.669901 h -2.33476 v -7.998799 c 0,-0.65285 -0.20349,-1.177977 -0.61104,-1.574797 -0.40728,-0.397107 -0.93763,-0.595374 -1.59048,-0.595374 -0.44384,0 -0.85373,0.117574 -1.22993,0.352413 -0.37069,0.229903 -0.67114,0.550956 -0.90076,0.963743 -0.22468,0.41249 -0.33702,0.890598 -0.33702,1.433719 v 7.419095 z m 23.22047,0.266486 c -0.76258,0 -1.452,-0.141078 -2.06828,-0.423234 -0.61628,-0.287092 -1.10453,-0.70249 -1.46507,-1.245611 -0.35501,-0.543132 -0.53267,-1.20904 -0.53267,-1.997744 0,-0.678976 0.13063,-1.237777 0.39188,-1.676691 0.26097,-0.438616 0.61367,-0.785795 1.05752,-1.041824 0.44383,-0.25604 0.94022,-0.449073 1.48857,-0.579705 0.54835,-0.130621 1.10714,-0.229903 1.67669,-0.297825 0.72048,-0.08366 1.3057,-0.151535 1.75477,-0.203787 0.44907,-0.05722 0.77564,-0.148626 0.97942,-0.274024 0.20349,-0.125408 0.30538,-0.329185 0.30538,-0.611054 v -0.05488 c 0,-0.684199 -0.19333,-1.214263 -0.5797,-1.590466 -0.38143,-0.375918 -0.95068,-0.564025 -1.70804,-0.564025 -0.7884,0 -1.4102,0.175039 -1.8645,0.52483 -0.44907,0.344865 -0.75996,0.728617 -0.93239,1.151563 l -2.20123,-0.501325 c 0.26096,-0.731229 0.6424,-1.321369 1.14372,-1.770442 0.50655,-0.454593 1.08886,-0.783481 1.74694,-0.987258 0.65836,-0.208713 1.35041,-0.313218 2.07611,-0.313218 0.48071,0 0.98987,0.05743 1.52777,0.172141 0.54312,0.109728 1.04997,0.313505 1.51993,0.61134 0.4752,0.297539 0.86448,0.723097 1.16724,1.276962 0.30306,0.548344 0.45459,1.261281 0.45459,2.138821 v 7.990953 h -2.28774 v -1.64533 h -0.0941 c -0.15153,0.303059 -0.37853,0.600884 -0.68159,0.893209 -0.30277,0.292602 -0.69203,0.535276 -1.16723,0.728607 -0.4752,0.19333 -1.04474,0.290001 -1.70804,0.290001 z m 0.50944,-1.880467 c 0.64763,0 1.20121,-0.127723 1.66073,-0.383752 0.46474,-0.25604 0.81744,-0.590151 1.0578,-1.002938 0.24529,-0.417724 0.36808,-0.864175 0.36808,-1.339671 v -1.550985 c -0.0836,0.08334 -0.24558,0.161684 -0.48565,0.234839 -0.23513,0.06794 -0.50393,0.12802 -0.80699,0.180262 -0.30306,0.04703 -0.59798,0.09141 -0.88537,0.133243 -0.2871,0.03652 -0.52744,0.06794 -0.72078,0.09406 -0.45429,0.05743 -0.8694,0.153849 -1.24561,0.289704 -0.37069,0.135855 -0.66853,0.331796 -0.89321,0.587528 -0.21916,0.250807 -0.32888,0.584928 -0.32888,1.002938 0,0.579694 0.21422,1.018321 0.64239,1.316156 0.42817,0.292602 0.9742,0.438617 1.63749,0.438616 z m 8.7698,6.126463 V 46.649661 h 2.28774 v 1.951001 h 0.19565 c 0.13585,-0.250806 0.3318,-0.540797 0.58754,-0.869684 0.25603,-0.329185 0.61134,-0.616278 1.06563,-0.86186 0.4543,-0.25052 1.0549,-0.375918 1.80181,-0.375918 0.97157,0 1.83866,0.245286 2.60124,0.736452 0.76229,0.490869 1.36056,1.198582 1.79395,2.123141 0.43863,0.924273 0.65808,2.036928 0.65808,3.337404 0,1.300476 -0.21684,2.415468 -0.65023,3.34525 -0.43341,0.924261 -1.02907,1.637198 -1.78614,2.13881 -0.75734,0.496103 -1.62181,0.744297 -2.5934,0.744297 -0.73123,0 -1.32921,-0.122796 -1.79396,-0.368379 -0.45952,-0.245286 -0.82005,-0.532665 -1.0813,-0.86185 -0.26097,-0.328898 -0.46214,-0.6215 -0.60322,-0.877243 h -0.14078 V 63.1959 Z m 2.29558,-10.529217 c 0,0.845893 0.1225,1.587568 0.36808,2.225035 0.24558,0.63718 0.6006,1.135883 1.06564,1.496131 0.46474,0.355311 1.03399,0.532962 1.70774,0.532962 0.69988,0 1.2848,-0.185496 1.75477,-0.556477 0.47027,-0.375917 0.82528,-0.885077 1.06564,-1.527481 0.24558,-0.642403 0.36808,-1.365786 0.36808,-2.17017 0,-0.793928 -0.11989,-1.506865 -0.36025,-2.138811 -0.23512,-0.631957 -0.59015,-1.130958 -1.06563,-1.496418 -0.46997,-0.365471 -1.05751,-0.548355 -1.76261,-0.548355 -0.67898,0 -1.25345,0.175049 -1.72342,0.52484 -0.46504,0.350077 -0.81744,0.838335 -1.0578,1.465069 -0.24035,0.626723 -0.36024,1.357951 -0.36024,2.193675 z m 13.88374,-1.128336 v 7.145071 h -2.34259 V 42.638504 h 2.31124 v 5.970003 h 0.14892 c 0.28187,-0.647627 0.71293,-1.162307 1.29264,-1.543448 0.57969,-0.381437 1.33705,-0.571859 2.27177,-0.571859 0.82527,0 1.54605,0.169529 2.16232,0.509161 0.6215,0.339344 1.10222,0.84618 1.44155,1.519932 0.34487,0.668519 0.51701,1.504253 0.51701,2.506894 v 7.654231 h -2.34231 v -7.372076 c 0,-0.882752 -0.22729,-1.566951 -0.68159,-2.052597 -0.45458,-0.491166 -1.08654,-0.736452 -1.89585,-0.736452 -0.55386,0 -1.04997,0.117563 -1.48858,0.352403 -0.43368,0.235126 -0.77564,0.579694 -1.02644,1.034287 -0.2453,0.449062 -0.36809,0.992194 -0.36809,1.629364 z m 16.2185,7.388042 c -1.12833,0 -2.11268,-0.258641 -2.95364,-0.775646 -0.84096,-0.516995 -1.49381,-1.240379 -1.95856,-2.170161 -0.46503,-0.929782 -0.69726,-2.016035 -0.69726,-3.259035 0,-1.24851 0.23223,-2.339987 0.69726,-3.274992 0.46475,-0.934719 1.1176,-1.660713 1.95856,-2.177719 0.84096,-0.517282 1.82531,-0.775636 2.95364,-0.775636 1.12805,0 2.11241,0.258354 2.95337,0.775636 0.84095,0.517006 1.4938,1.243 1.95855,2.177719 0.46504,0.935005 0.69726,2.026482 0.69726,3.274992 0,1.243 -0.23222,2.329253 -0.69726,3.259035 -0.46475,0.929782 -1.1176,1.653166 -1.95855,2.170161 -0.84096,0.517005 -1.82532,0.775646 -2.95337,0.775646 z m 0.007,-1.966681 c 0.73093,0 1.33705,-0.193044 1.81747,-0.579694 0.48043,-0.386374 0.83574,-0.900757 1.06534,-1.543161 0.23514,-0.642403 0.3527,-1.350117 0.3527,-2.123141 0,-0.767801 -0.11756,-1.472903 -0.3527,-2.115307 -0.2296,-0.647626 -0.58491,-1.167519 -1.06534,-1.559117 -0.48042,-0.391597 -1.08654,-0.587539 -1.81747,-0.587539 -0.73645,0 -1.3475,0.195942 -1.83343,0.587539 -0.48043,0.391598 -0.83835,0.911491 -1.07319,1.559117 -0.22991,0.642404 -0.34486,1.347506 -0.34486,2.115307 0,0.773024 0.11495,1.480738 0.34486,2.123141 0.23484,0.642404 0.59276,1.156787 1.07319,1.543161 0.48593,0.38665 1.09698,0.579694 1.83343,0.579694 z m 8.43683,1.72371 V 46.649661 h 2.26423 v 1.911817 h 0.12511 c 0.21946,-0.647627 0.60612,-1.157074 1.15969,-1.527768 0.5588,-0.376214 1.19075,-0.564024 1.89585,-0.564024 0.1463,0 0.31874,0.0053 0.51699,0.01571 0.20379,0.01062 0.36315,0.02346 0.47811,0.03917 v 2.240418 c -0.0941,-0.02612 -0.26126,-0.05489 -0.50162,-0.08588 -0.24006,-0.03652 -0.48041,-0.05489 -0.72077,-0.05489 -0.55358,0 -1.04706,0.117276 -1.48075,0.352413 -0.42817,0.229903 -0.7675,0.550956 -1.01831,0.963743 -0.25081,0.407267 -0.37621,0.872009 -0.37621,1.394524 v 7.348561 z m 13.44309,0.242971 c -1.18551,0 -2.20674,-0.253418 -3.06336,-0.759966 -0.85112,-0.512059 -1.50919,-1.229932 -1.97423,-2.154491 -0.45952,-0.929782 -0.68943,-2.018647 -0.68943,-3.266871 0,-1.23284 0.22991,-2.319083 0.68943,-3.259311 0.46504,-0.939953 1.11266,-1.673793 1.94288,-2.201234 0.83572,-0.527738 1.81253,-0.791316 2.93013,-0.791316 0.67898,0 1.33705,0.11234 1.97422,0.336733 0.63718,0.22468 1.20933,0.577083 1.71588,1.057792 0.50654,0.480422 0.90626,1.104534 1.19859,1.872335 0.2926,0.762578 0.43862,1.689462 0.43862,2.781225 v 0.8305 h -9.56577 v -1.755059 h 7.27048 c 0,-0.616277 -0.12539,-1.16201 -0.3762,-1.637209 -0.25052,-0.480709 -0.60322,-0.859238 -1.05752,-1.136171 -0.44907,-0.276645 -0.9768,-0.415112 -1.58263,-0.415112 -0.65807,0 -1.23254,0.161981 -1.72342,0.485646 -0.48593,0.318739 -0.86185,0.736452 -1.12834,1.253457 -0.26096,0.512059 -0.39159,1.068249 -0.39159,1.668846 v 1.371009 c 0,0.804385 0.14107,1.488584 0.42294,2.052608 0.28739,0.564025 0.68682,0.995093 1.19888,1.292642 0.51177,0.292601 1.10976,0.438616 1.79396,0.438616 0.44385,0 0.84879,-0.06242 1.21426,-0.18781 0.36576,-0.130632 0.68159,-0.323962 0.94808,-0.579705 0.26618,-0.256029 0.46996,-0.572146 0.61104,-0.948063 l 2.2172,0.399432 c -0.17765,0.65285 -0.49639,1.224996 -0.95591,1.715875 -0.4543,0.485645 -1.02615,0.864461 -1.71558,1.135883 -0.68421,0.266476 -1.46507,0.399719 -2.34261,0.399719 z"
         id="path6"
         inkscape:connector-curvature="0"
         style="fill:#ffffff;stroke-width:0.29028484" />
    </g>
    <path
       style="fill:#ffffff;stroke-width:0.2734375"
       inkscape:connector-curvature="0"
       id="path8"
       d="M 66.569885,85.847916 H 65.35801 l 3.504922,-9.54543 h 1.193281 l 3.504921,9.54543 h -1.211875 l -2.852227,-8.03523 h -0.07465 z m 0.447344,-3.72859 h 4.884687 v 1.02539 h -4.884687 z m 8.981601,-0.57805 v 4.30664 h -1.100039 v -7.15914 h 1.062852 v 1.11863 h 0.09324 c 0.167617,-0.36339 0.422461,-0.6557 0.764258,-0.87609 0.341796,-0.22394 0.783125,-0.33578 1.323711,-0.33578 0.484804,0 0.908906,0.0995 1.272304,0.29832 0.363672,0.19578 0.646406,0.4941 0.848477,0.89496 0.201797,0.39758 0.302969,0.90098 0.302969,1.5102 v 4.5489 h -1.10004 v -4.47453 c 0,-0.56219 -0.146015,-1.00051 -0.438046,-1.31414 -0.292305,-0.31719 -0.692891,-0.47551 -1.202579,-0.47551 -0.351093,0 -0.665,0.076 -0.941445,0.22832 -0.273437,0.15231 -0.489453,0.37434 -0.648047,0.66664 -0.15832,0.29203 -0.237617,0.64614 -0.237617,1.06258 z m 9.486094,4.45567 c -0.646406,0 -1.213516,-0.15368 -1.701328,-0.46129 -0.484805,-0.30762 -0.863789,-0.73801 -1.137227,-1.29118 -0.27043,-0.55289 -0.405508,-1.19929 -0.405508,-1.93894 0,-0.74566 0.135078,-1.39672 0.405508,-1.95289 0.273438,-0.55617 0.652422,-0.98793 1.137227,-1.29555 0.487812,-0.30762 1.054922,-0.46156 1.701328,-0.46156 0.646133,0 1.211875,0.15394 1.696406,0.46156 0.487813,0.30762 0.86707,0.73938 1.137227,1.29555 0.273437,0.55617 0.410156,1.20723 0.410156,1.95289 0,0.73965 -0.136719,1.38605 -0.410156,1.93894 -0.270157,0.55317 -0.649414,0.98356 -1.137227,1.29118 -0.484531,0.30761 -1.050273,0.46129 -1.696406,0.46129 z m 0,-0.98793 c 0.49082,0 0.894961,-0.12578 1.211875,-0.37762 0.316914,-0.25156 0.551523,-0.5827 0.703555,-0.99285 0.152304,-0.41016 0.228593,-0.85449 0.228593,-1.33301 0,-0.47852 -0.07629,-0.92422 -0.228593,-1.33766 -0.152032,-0.41316 -0.386641,-0.7473 -0.703555,-1.00187 -0.316914,-0.25485 -0.721055,-0.38227 -1.211875,-0.38227 -0.491094,0 -0.894961,0.12742 -1.211875,0.38227 -0.316914,0.25457 -0.551524,0.58871 -0.703828,1.00187 -0.152305,0.41344 -0.228321,0.85914 -0.228321,1.33766 0,0.47852 0.07602,0.92285 0.228321,1.33301 0.152304,0.41015 0.386914,0.74129 0.703828,0.99285 0.316914,0.25184 0.720781,0.37762 1.211875,0.37762 z m 6.023008,-3.46774 v 4.30664 h -1.100039 v -7.15914 h 1.062578 v 1.11863 h 0.09324 c 0.167891,-0.36339 0.422734,-0.6557 0.764531,-0.87609 0.341797,-0.22394 0.782852,-0.33578 1.323711,-0.33578 0.484531,0 0.908906,0.0995 1.272305,0.29832 0.363672,0.19578 0.646406,0.4941 0.848203,0.89496 0.20207,0.39758 0.302969,0.90098 0.302969,1.5102 v 4.5489 h -1.099766 v -4.47453 c 0,-0.56219 -0.146016,-1.00051 -0.43832,-1.31414 -0.292031,-0.31719 -0.692891,-0.47551 -1.202305,-0.47551 -0.351094,0 -0.665,0.076 -0.941719,0.22832 -0.273437,0.15231 -0.489179,0.37434 -0.647773,0.66664 -0.15832,0.29203 -0.237617,0.64614 -0.237617,1.06258 z m 7.029804,6.99125 c -0.186484,0 -0.352734,-0.0156 -0.49875,-0.0465 -0.146015,-0.0282 -0.247187,-0.0561 -0.302968,-0.0839 l 0.279726,-0.96961 c 0.267149,0.0684 0.503125,0.0932 0.708203,0.0746 0.205078,-0.0186 0.386914,-0.11019 0.545508,-0.27508 0.161602,-0.16132 0.308983,-0.4241 0.442695,-0.7875 l 0.205078,-0.55945 -2.647422,-7.19633 h 1.193281 l 1.976133,5.705 h 0.0746 l 1.97614,-5.705 h 1.19328 l -3.03899,8.20313 c -0.13672,0.36968 -0.30597,0.67593 -0.50804,0.9182 -0.201803,0.24555 -0.436413,0.42738 -0.703835,0.54523 -0.26414,0.11813 -0.562188,0.17719 -0.894688,0.17719 z m 6.597234,-2.68461 v -7.15914 h 1.06285 v 1.11863 h 0.0932 c 0.14903,-0.38226 0.38993,-0.67894 0.72243,-0.89031 0.3325,-0.21437 0.73172,-0.32156 1.19765,-0.32156 0.4725,0 0.86543,0.10719 1.17934,0.32156 0.31691,0.21137 0.56383,0.50805 0.74101,0.89031 h 0.0746 c 0.18321,-0.36968 0.45828,-0.66335 0.82496,-0.88074 0.36668,-0.22066 0.80637,-0.33113 1.31907,-0.33113 0.64011,0 1.16347,0.20043 1.57062,0.60129 0.40715,0.39785 0.61059,1.01773 0.61059,1.85965 v 4.79144 h -1.10004 v -4.79144 c 0,-0.52828 -0.14438,-0.90563 -0.4334,-1.13258 -0.28902,-0.22668 -0.62918,-0.34016 -1.02074,-0.34016 -0.5034,0 -0.89332,0.15231 -1.16977,0.45664 -0.27672,0.30161 -0.4148,0.6836 -0.4148,1.1468 v 4.66074 h -1.11864 v -4.90328 c 0,-0.40687 -0.13207,-0.73473 -0.39621,-0.98328 -0.26414,-0.25184 -0.60429,-0.37762 -1.02074,-0.37762 -0.28574,0 -0.55316,0.076 -0.80172,0.22832 -0.24554,0.15231 -0.44433,0.36367 -0.59664,0.63383 -0.14902,0.26742 -0.22367,0.57641 -0.22367,0.9275 v 4.47453 z m 14.31609,0.14903 c -0.6464,0 -1.21351,-0.15368 -1.70132,-0.46129 -0.48481,-0.30762 -0.86379,-0.73801 -1.13723,-1.29118 -0.27043,-0.55289 -0.40551,-1.19929 -0.40551,-1.93894 0,-0.74566 0.13508,-1.39672 0.40551,-1.95289 0.27344,-0.55617 0.65242,-0.98793 1.13723,-1.29555 0.48781,-0.30762 1.05492,-0.46156 1.70132,-0.46156 0.64614,0 1.21161,0.15394 1.69641,0.46156 0.48781,0.30762 0.86707,0.73938 1.13723,1.29555 0.27343,0.55617 0.41015,1.20723 0.41015,1.95289 0,0.73965 -0.13672,1.38605 -0.41015,1.93894 -0.27016,0.55317 -0.64942,0.98356 -1.13723,1.29118 -0.4848,0.30761 -1.05027,0.46129 -1.69641,0.46129 z m 0,-0.98793 c 0.49083,0 0.89469,-0.12578 1.21161,-0.37762 0.31691,-0.25156 0.55152,-0.5827 0.70382,-0.99285 0.15231,-0.41016 0.22832,-0.85449 0.22832,-1.33301 0,-0.47852 -0.076,-0.92422 -0.22832,-1.33766 -0.1523,-0.41316 -0.38691,-0.7473 -0.70382,-1.00187 -0.31692,-0.25485 -0.72078,-0.38227 -1.21161,-0.38227 -0.49109,0 -0.89496,0.12742 -1.21187,0.38227 -0.31691,0.25457 -0.55152,0.58871 -0.70383,1.00187 -0.1523,0.41344 -0.22832,0.85914 -0.22832,1.33766 0,0.47852 0.076,0.92285 0.22832,1.33301 0.15231,0.41015 0.38692,0.74129 0.70383,0.99285 0.31691,0.25184 0.72078,0.37762 1.21187,0.37762 z m 9.43469,-2.08825 v -4.23199 h 1.10004 v 7.15914 h -1.10004 v -1.21187 h -0.0747 c -0.16789,0.36367 -0.42875,0.67265 -0.78312,0.9275 -0.3541,0.25183 -0.80145,0.37761 -1.34231,0.37761 -0.44734,0 -0.84519,-0.0979 -1.193,-0.29367 -0.34809,-0.19879 -0.62153,-0.49711 -0.82032,-0.89496 -0.19906,-0.40086 -0.29832,-0.90562 -0.29832,-1.51457 v -4.54918 h 1.10004 v 4.47453 c 0,0.522 0.14602,0.93844 0.43805,1.24907 0.29504,0.31062 0.67102,0.46621 1.12793,0.46621 0.27344,0 0.55152,-0.07 0.83426,-0.20973 0.28574,-0.14 0.525,-0.35438 0.71777,-0.6434 0.19578,-0.28902 0.29367,-0.65707 0.29367,-1.10469 z m 8.18563,-2.62855 -0.98821,0.27973 c -0.0621,-0.16489 -0.15367,-0.32485 -0.2748,-0.48016 -0.11813,-0.15859 -0.27973,-0.28902 -0.48481,-0.39156 -0.20507,-0.10254 -0.46757,-0.15367 -0.78777,-0.15367 -0.43805,0 -0.80308,0.10089 -1.09539,0.30269 -0.28875,0.19906 -0.4334,0.45227 -0.4334,0.75988 0,0.27344 0.0995,0.48946 0.29832,0.64778 0.19879,0.15859 0.50969,0.29066 0.93215,0.39621 l 1.06285,0.26113 c 0.64012,0.15531 1.11699,0.39293 1.4309,0.71313 0.31363,0.31691 0.47059,0.72543 0.47059,1.22582 0,0.41015 -0.11813,0.77656 -0.3541,1.09976 -0.23325,0.3232 -0.55946,0.57805 -0.97891,0.76453 -0.41945,0.18649 -0.90727,0.27946 -1.46344,0.27946 -0.73035,0 -1.33465,-0.15832 -1.81316,-0.47524 -0.47852,-0.31691 -0.78149,-0.77984 -0.90891,-1.38906 l 1.04426,-0.26086 c 0.0993,0.38527 0.28738,0.6743 0.56383,0.8668 0.27972,0.19277 0.64476,0.28902 1.09539,0.28902 0.51269,0 0.91957,-0.10883 1.22117,-0.32621 0.30434,-0.22067 0.45664,-0.48481 0.45664,-0.79242 0,-0.24856 -0.087,-0.45664 -0.26086,-0.62453 -0.17418,-0.1709 -0.44133,-0.29832 -0.80172,-0.38227 l -1.19328,-0.27945 c -0.6557,-0.15559 -1.13723,-0.39621 -1.44484,-0.7227 -0.30461,-0.32922 -0.45664,-0.74101 -0.45664,-1.23512 0,-0.40386 0.1132,-0.76125 0.34015,-1.07187 0.22996,-0.31063 0.54223,-0.55453 0.9368,-0.73172 0.39785,-0.17719 0.8482,-0.26578 1.3516,-0.26578 0.70848,0 1.26465,0.15531 1.66852,0.46621 0.40715,0.31063 0.69617,0.72078 0.86707,1.23047 z m 10.54867,0 -0.9882,0.27973 c -0.0621,-0.16489 -0.15368,-0.32485 -0.27481,-0.48016 -0.11812,-0.15859 -0.27973,-0.28902 -0.4848,-0.39156 -0.20508,-0.10254 -0.46758,-0.15367 -0.78778,-0.15367 -0.43804,0 -0.80308,0.10089 -1.09511,0.30269 -0.28903,0.19906 -0.43368,0.45227 -0.43368,0.75988 0,0.27344 0.0995,0.48946 0.29832,0.64778 0.19907,0.15859 0.50969,0.29066 0.93215,0.39621 l 1.06285,0.26113 c 0.64012,0.15531 1.117,0.39293 1.4309,0.71313 0.31364,0.31691 0.47059,0.72543 0.47059,1.22582 0,0.41015 -0.11813,0.77656 -0.3541,1.09976 -0.23297,0.3232 -0.55946,0.57805 -0.97891,0.76453 -0.41945,0.18649 -0.90726,0.27946 -1.46344,0.27946 -0.73007,0 -1.33465,-0.15832 -1.81316,-0.47524 -0.47852,-0.31691 -0.78149,-0.77984 -0.90891,-1.38906 l 1.04426,-0.26086 c 0.0993,0.38527 0.28738,0.6743 0.56383,0.8668 0.27973,0.19277 0.64476,0.28902 1.09539,0.28902 0.5127,0 0.91957,-0.10883 1.22117,-0.32621 0.30434,-0.22067 0.45664,-0.48481 0.45664,-0.79242 0,-0.24856 -0.087,-0.45664 -0.26086,-0.62453 -0.17418,-0.1709 -0.44133,-0.29832 -0.80172,-0.38227 l -1.19328,-0.27945 c -0.6557,-0.15559 -1.13722,-0.39621 -1.44484,-0.7227 -0.30461,-0.32922 -0.45664,-0.74101 -0.45664,-1.23512 0,-0.40386 0.1132,-0.76125 0.34015,-1.07187 0.22997,-0.31063 0.54223,-0.55453 0.9368,-0.73172 0.39785,-0.17719 0.8482,-0.26578 1.3516,-0.26578 0.70848,0 1.26465,0.15531 1.66879,0.46621 0.40688,0.31063 0.6959,0.72078 0.8668,1.23047 z m 1.78637,5.5557 v -7.15914 h 1.09976 v 7.15914 z m 0.55918,-8.35215 c -0.21438,0 -0.39922,-0.073 -0.55454,-0.21929 -0.1523,-0.14602 -0.22832,-0.32157 -0.22832,-0.52664 0,-0.20508 0.076,-0.38063 0.22832,-0.52664 0.15532,-0.14602 0.34016,-0.21903 0.55454,-0.21903 0.21437,0 0.39785,0.073 0.55015,0.21903 0.15531,0.14601 0.23297,0.32156 0.23297,0.52664 0,0.20507 -0.0777,0.38062 -0.23297,0.52664 -0.1523,0.14629 -0.33578,0.21929 -0.55015,0.21929 z m 5.44496,11.18606 c -0.53129,0 -0.98793,-0.0684 -1.3702,-0.20508 -0.38226,-0.13371 -0.70055,-0.3109 -0.95539,-0.53156 -0.25184,-0.21738 -0.45226,-0.45035 -0.60129,-0.69891 l 0.8761,-0.61523 c 0.0995,0.13043 0.22531,0.27945 0.37761,0.44734 0.15231,0.1709 0.36039,0.31856 0.62453,0.4427 0.26743,0.12742 0.61688,0.19113 1.04864,0.19113 0.57804,0 1.05492,-0.13973 1.4309,-0.41945 0.37597,-0.27973 0.5641,-0.71778 0.5641,-1.31442 v -1.45414 h -0.0932 c -0.0807,0.13043 -0.19578,0.29203 -0.3448,0.48481 -0.14602,0.18949 -0.35738,0.35875 -0.63383,0.50804 -0.27344,0.14602 -0.6434,0.21903 -1.10933,0.21903 -0.57805,0 -1.09704,-0.13672 -1.55668,-0.41016 -0.45692,-0.27344 -0.81895,-0.67129 -1.0861,-1.19328 -0.26414,-0.52199 -0.39621,-1.15582 -0.39621,-1.90149 0,-0.73335 0.12906,-1.37183 0.38692,-1.9157 0.25785,-0.54687 0.61687,-0.96933 1.07652,-1.26765 0.45992,-0.30161 0.99121,-0.45227 1.59414,-0.45227 0.46594,0 0.8359,0.0777 1.10934,0.23324 0.27644,0.15203 0.48781,0.32621 0.63382,0.52199 0.14903,0.1925 0.26414,0.3511 0.34481,0.47524 h 0.11183 v -1.13723 h 1.06286 v 7.36422 c 0,0.61523 -0.14,1.11563 -0.41946,1.5009 -0.27672,0.38828 -0.64941,0.67266 -1.11863,0.85285 -0.46621,0.1832 -0.9852,0.27508 -1.55695,0.27508 z m -0.0372,-3.93395 c 0.44133,0 0.81402,-0.1009 1.11863,-0.30297 0.30461,-0.20179 0.53594,-0.49246 0.69453,-0.87144 0.15832,-0.37926 0.23762,-0.83289 0.23762,-1.3609 0,-0.51598 -0.0777,-0.97125 -0.23297,-1.36582 -0.15531,-0.39457 -0.38527,-0.70383 -0.68988,-0.9275 -0.30434,-0.22367 -0.68031,-0.33551 -1.12793,-0.33551 -0.46594,0 -0.85449,0.11813 -1.16512,0.3541 -0.30762,0.23625 -0.53922,0.55317 -0.69453,0.95102 -0.1523,0.39758 -0.22832,0.83891 -0.22832,1.32371 0,0.49711 0.0777,0.9368 0.23297,1.31879 0.15859,0.37926 0.39156,0.67758 0.69918,0.89496 0.31062,0.21438 0.6959,0.32156 1.15582,0.32156 z m 6.24559,-3.2066 v 4.30664 h -1.10004 v -7.15914 h 1.06285 v 1.11863 h 0.0932 c 0.16762,-0.36339 0.42246,-0.6557 0.76426,-0.87609 0.34179,-0.22394 0.78312,-0.33578 1.32371,-0.33578 0.4848,0 0.9089,0.0995 1.2723,0.29832 0.36368,0.19578 0.64641,0.4941 0.84848,0.89496 0.2018,0.39758 0.30297,0.90098 0.30297,1.5102 v 4.5489 h -1.10004 v -4.47453 c 0,-0.56219 -0.14602,-1.00051 -0.43805,-1.31414 -0.2923,-0.31719 -0.69289,-0.47551 -1.20258,-0.47551 -0.35109,0 -0.665,0.076 -0.94144,0.22832 -0.27344,0.15231 -0.48945,0.37434 -0.64805,0.66664 -0.15832,0.29203 -0.23761,0.64614 -0.23761,1.06258 z m 8.68437,4.47453 c -0.45363,0 -0.86543,-0.0856 -1.23512,-0.25648 -0.36968,-0.17391 -0.66336,-0.4241 -0.88101,-0.75031 -0.21739,-0.3295 -0.32621,-0.72707 -0.32621,-1.19328 0,-0.41016 0.0809,-0.74266 0.24254,-0.99751 0.16132,-0.25785 0.37734,-0.45964 0.64777,-0.60566 0.27016,-0.14629 0.56848,-0.25484 0.89496,-0.32648 0.32922,-0.0744 0.66008,-0.13344 0.99258,-0.17692 0.43504,-0.0561 0.78777,-0.0979 1.0582,-0.12605 0.27344,-0.0309 0.47223,-0.0823 0.59637,-0.15367 0.12742,-0.0714 0.19113,-0.19579 0.19113,-0.37297 v -0.0372 c 0,-0.45992 -0.12578,-0.8173 -0.37734,-1.07215 -0.24883,-0.25457 -0.62617,-0.38199 -1.13258,-0.38199 -0.52527,0 -0.93707,0.11484 -1.23539,0.3448 -0.29805,0.22996 -0.50777,0.47551 -0.62918,0.73637 l -1.04399,-0.37269 c 0.18649,-0.43504 0.43504,-0.77383 0.74567,-1.0161 0.3139,-0.24555 0.6557,-0.41644 1.02539,-0.51269 0.37297,-0.0995 0.73965,-0.1493 1.10004,-0.1493 0.22996,0 0.4941,0.0282 0.79242,0.0839 0.30133,0.0528 0.59199,0.16324 0.87145,0.33085 0.28273,0.16789 0.51734,0.4211 0.70382,0.75989 0.18649,0.33851 0.27973,0.79215 0.27973,1.3609 v 4.71679 h -1.10004 v -0.96933 h -0.0558 c -0.0746,0.15531 -0.19906,0.32156 -0.37297,0.49847 -0.17391,0.17719 -0.40551,0.32785 -0.69453,0.45227 -0.28902,0.12414 -0.64148,0.18648 -1.05793,0.18648 z m 0.16789,-0.9882 c 0.43504,0 0.80145,-0.0853 1.09977,-0.25648 0.3016,-0.17063 0.52828,-0.39129 0.68058,-0.66172 0.15531,-0.27043 0.23297,-0.55453 0.23297,-0.85285 v -1.0068 c -0.0465,0.0558 -0.14902,0.10719 -0.30762,0.15367 -0.15531,0.0435 -0.3355,0.0826 -0.54058,0.11676 -0.20207,0.0309 -0.39922,0.0588 -0.59199,0.0837 -0.1895,0.0219 -0.34317,0.0405 -0.46129,0.0561 -0.28602,0.0372 -0.55317,0.0979 -0.80172,0.18184 -0.24555,0.0807 -0.44434,0.20344 -0.59664,0.36805 -0.14903,0.1616 -0.22367,0.38226 -0.22367,0.66199 0,0.38199 0.14136,0.67102 0.4241,0.8668 0.28574,0.19277 0.64777,0.28902 1.08609,0.28902 z m 6.22098,-8.72512 v 9.54543 h -1.10004 v -9.54543 z m 3.11472,0 v 9.54543 h -1.10004 v -9.54543 z m 2.01469,9.54543 v -7.15914 h 1.09977 v 7.15914 z m 0.55918,-8.35215 c -0.21437,0 -0.39922,-0.073 -0.55453,-0.21929 -0.1523,-0.14602 -0.22859,-0.32157 -0.22859,-0.52664 0,-0.20508 0.0763,-0.38063 0.22859,-0.52664 0.15531,-0.14602 0.34016,-0.21903 0.55453,-0.21903 0.21438,0 0.39785,0.073 0.54988,0.21903 0.15559,0.14601 0.23325,0.32156 0.23325,0.52664 0,0.20507 -0.0777,0.38062 -0.23325,0.52664 -0.15203,0.14629 -0.3355,0.21929 -0.54988,0.21929 z m 3.65531,4.04551 v 4.30664 h -1.10004 v -7.15914 h 1.06286 v 1.11863 h 0.093 c 0.1679,-0.36339 0.42274,-0.6557 0.76454,-0.87609 0.34179,-0.22394 0.78312,-0.33578 1.32371,-0.33578 0.4848,0 0.9089,0.0995 1.2723,0.29832 0.36367,0.19578 0.64641,0.4941 0.84848,0.89496 0.2018,0.39758 0.30269,0.90098 0.30269,1.5102 v 4.5489 h -1.09976 v -4.47453 c 0,-0.56219 -0.14602,-1.00051 -0.43832,-1.31414 -0.29203,-0.31719 -0.69289,-0.47551 -1.20231,-0.47551 -0.35109,0 -0.665,0.076 -0.94144,0.22832 -0.27344,0.15231 -0.48946,0.37434 -0.64805,0.66664 -0.15832,0.29203 -0.23762,0.64614 -0.23762,1.06258 z m 9.4675,7.14055 c -0.53156,0 -0.9882,-0.0684 -1.37047,-0.20508 -0.38226,-0.13371 -0.70054,-0.3109 -0.95539,-0.53156 -0.25183,-0.21738 -0.45226,-0.45035 -0.60128,-0.69891 l 0.87636,-0.61523 c 0.0993,0.13043 0.22504,0.27945 0.37735,0.44734 0.1523,0.1709 0.36039,0.31856 0.62453,0.4427 0.26742,0.12742 0.61687,0.19113 1.0489,0.19113 0.57778,0 1.05465,-0.13973 1.43063,-0.41945 0.37598,-0.27973 0.5641,-0.71778 0.5641,-1.31442 v -1.45414 h -0.0932 c -0.0807,0.13043 -0.19578,0.29203 -0.34481,0.48481 -0.14601,0.18949 -0.35738,0.35875 -0.6341,0.50804 -0.27344,0.14602 -0.64312,0.21903 -1.10906,0.21903 -0.57805,0 -1.09703,-0.13672 -1.55695,-0.41016 -0.45664,-0.27344 -0.81868,-0.67129 -1.08582,-1.19328 -0.26414,-0.52199 -0.39622,-1.15582 -0.39622,-1.90149 0,-0.73335 0.12907,-1.37183 0.38692,-1.9157 0.25785,-0.54687 0.61687,-0.96933 1.07652,-1.26765 0.45992,-0.30161 0.99121,-0.45227 1.59414,-0.45227 0.46594,0 0.8359,0.0777 1.10934,0.23324 0.27644,0.15203 0.48781,0.32621 0.63383,0.52199 0.14902,0.1925 0.26414,0.3511 0.3448,0.47524 h 0.11184 v -1.13723 h 1.06285 v 7.36422 c 0,0.61523 -0.14,1.11563 -0.41945,1.5009 -0.27672,0.38828 -0.64942,0.67266 -1.11864,0.85285 -0.46621,0.1832 -0.98519,0.27508 -1.55668,0.27508 z m -0.0375,-3.93395 c 0.44133,0 0.81403,-0.1009 1.11864,-0.30297 0.3046,-0.20179 0.53593,-0.49246 0.69453,-0.87144 0.15832,-0.37926 0.23761,-0.83289 0.23761,-1.3609 0,-0.51598 -0.0776,-0.97125 -0.23296,-1.36582 -0.15532,-0.39457 -0.38528,-0.70383 -0.68989,-0.9275 -0.30433,-0.22367 -0.68031,-0.33551 -1.12793,-0.33551 -0.46593,0 -0.85449,0.11813 -1.16511,0.3541 -0.30762,0.23625 -0.53922,0.55317 -0.69454,0.95102 -0.1523,0.39758 -0.22832,0.83891 -0.22832,1.32371 0,0.49711 0.0777,0.9368 0.23297,1.31879 0.1586,0.37926 0.39157,0.67758 0.69918,0.89496 0.31063,0.21438 0.6959,0.32156 1.15582,0.32156 z m 11.74551,1.24907 c -0.64641,0 -1.21352,-0.15368 -1.70133,-0.46129 -0.4848,-0.30762 -0.86379,-0.73801 -1.13722,-1.29118 -0.27043,-0.55289 -0.40551,-1.19929 -0.40551,-1.93894 0,-0.74566 0.13508,-1.39672 0.40551,-1.95289 0.27343,-0.55617 0.65242,-0.98793 1.13722,-1.29555 0.48781,-0.30762 1.05492,-0.46156 1.70133,-0.46156 0.64613,0 1.21188,0.15394 1.69641,0.46156 0.48781,0.30762 0.86707,0.73938 1.13722,1.29555 0.27344,0.55617 0.41016,1.20723 0.41016,1.95289 0,0.73965 -0.13672,1.38605 -0.41016,1.93894 -0.27015,0.55317 -0.64941,0.98356 -1.13722,1.29118 -0.48453,0.30761 -1.05028,0.46129 -1.69641,0.46129 z m 0,-0.98793 c 0.49082,0 0.89469,-0.12578 1.21188,-0.37762 0.31691,-0.25156 0.55152,-0.5827 0.70355,-0.99285 0.1523,-0.41016 0.22859,-0.85449 0.22859,-1.33301 0,-0.47852 -0.0763,-0.92422 -0.22859,-1.33766 -0.15203,-0.41316 -0.38664,-0.7473 -0.70355,-1.00187 -0.31719,-0.25485 -0.72106,-0.38227 -1.21188,-0.38227 -0.49109,0 -0.89496,0.12742 -1.21187,0.38227 -0.31692,0.25457 -0.55153,0.58871 -0.70383,1.00187 -0.15231,0.41344 -0.22832,0.85914 -0.22832,1.33766 0,0.47852 0.076,0.92285 0.22832,1.33301 0.1523,0.41015 0.38691,0.74129 0.70383,0.99285 0.31691,0.25184 0.72078,0.37762 1.21187,0.37762 z m 6.02301,-3.46774 v 4.30664 h -1.10004 v -7.15914 h 1.06258 v 1.11863 h 0.0932 c 0.16789,-0.36339 0.42273,-0.6557 0.76453,-0.87609 0.3418,-0.22394 0.78285,-0.33578 1.32371,-0.33578 0.48453,0 0.90863,0.0995 1.27231,0.29832 0.36367,0.19578 0.6464,0.4941 0.8482,0.89496 0.20207,0.39758 0.30297,0.90098 0.30297,1.5102 v 4.5489 h -1.10004 v -4.47453 c 0,-0.56219 -0.14602,-1.00051 -0.43805,-1.31414 -0.29203,-0.31719 -0.69289,-0.47551 -1.20258,-0.47551 -0.35109,0 -0.66472,0.076 -0.94144,0.22832 -0.27344,0.15231 -0.48918,0.37434 -0.64777,0.66664 -0.1586,0.29203 -0.23762,0.64614 -0.23762,1.06258 z m 10.41824,4.30664 v -9.54543 h 5.76078 v 1.02539 h -4.60496 v 3.2252 h 4.30664 v 1.02539 h -4.30664 v 3.24406 h 4.67934 v 1.02539 z m 10.80844,-7.15914 v 0.93215 h -3.71 v -0.93215 z m -2.62883,-1.71527 h 1.10004 v 6.82363 c 0,0.31063 0.0451,0.54387 0.13508,0.69918 0.0932,0.15231 0.21136,0.25484 0.35437,0.30762 0.14602,0.0498 0.29969,0.0747 0.46129,0.0747 0.12113,0 0.22067,-0.006 0.29832,-0.0189 0.0777,-0.0153 0.14,-0.0279 0.18649,-0.0372 l 0.22367,0.98821 c -0.0747,0.0279 -0.17856,0.0558 -0.31227,0.0837 -0.13344,0.0312 -0.30297,0.0467 -0.50804,0.0467 -0.31063,0 -0.61524,-0.0667 -0.91356,-0.20043 -0.29504,-0.13371 -0.54059,-0.33714 -0.73637,-0.61058 -0.1925,-0.27344 -0.28902,-0.61824 -0.28902,-1.03469 z m 5.53711,4.56777 v 4.30664 h -1.09977 v -9.54543 h 1.09977 v 3.50492 h 0.0932 c 0.16789,-0.36968 0.41945,-0.66335 0.75524,-0.88074 0.33851,-0.22066 0.78914,-0.33113 1.3516,-0.33113 0.48781,0 0.91492,0.0979 1.2816,0.29367 0.36668,0.19277 0.65105,0.48945 0.85312,0.89031 0.20508,0.39758 0.30762,0.90426 0.30762,1.5195 v 4.5489 h -1.10004 v -4.47453 c 0,-0.56848 -0.14765,-1.00816 -0.44269,-1.31906 -0.29231,-0.31363 -0.69782,-0.47059 -1.21653,-0.47059 -0.36066,0 -0.68359,0.076 -0.96961,0.22832 -0.28273,0.15231 -0.5064,0.37434 -0.67101,0.66664 -0.1616,0.29203 -0.24254,0.64614 -0.24254,1.06258 z m 9.65617,4.45567 c -0.68988,0 -1.28488,-0.15204 -1.785,-0.45664 -0.49711,-0.30762 -0.88101,-0.73637 -1.15117,-1.28653 -0.26742,-0.55289 -0.40086,-1.19629 -0.40086,-1.92937 0,-0.73336 0.13344,-1.37977 0.40086,-1.93895 0.27016,-0.56246 0.64613,-1.00051 1.12793,-1.31441 0.48453,-0.31692 1.05,-0.47551 1.69641,-0.47551 0.37296,0 0.74101,0.0623 1.10468,0.18648 0.3634,0.12442 0.69453,0.32622 0.99285,0.60594 0.29805,0.27645 0.53594,0.64313 0.71313,1.10004 0.17691,0.45664 0.26551,1.0191 0.26551,1.68711 v 0.46621 h -5.51852 v -0.95101 h 4.39988 c 0,-0.40387 -0.0807,-0.76426 -0.24226,-1.08118 -0.1586,-0.31691 -0.38527,-0.56711 -0.68059,-0.75031 -0.29203,-0.18348 -0.63683,-0.27508 -1.03468,-0.27508 -0.43805,0 -0.81731,0.10883 -1.13723,0.32621 -0.31692,0.21438 -0.56082,0.49411 -0.73172,0.83891 -0.1709,0.34508 -0.25648,0.71477 -0.25648,1.10934 v 0.63382 c 0,0.54086 0.0932,0.99914 0.27972,1.37512 0.18949,0.3727 0.45227,0.65707 0.78778,0.85285 0.3355,0.19278 0.72543,0.28903 1.16976,0.28903 0.28902,0 0.55016,-0.0405 0.78313,-0.12114 0.23597,-0.0839 0.43968,-0.20836 0.61058,-0.37297 0.1709,-0.16789 0.30297,-0.37597 0.39621,-0.62453 l 1.06258,0.29832 c -0.11183,0.36039 -0.29996,0.67731 -0.56383,0.95075 -0.26414,0.27043 -0.59062,0.48152 -0.9789,0.63382 -0.38828,0.1493 -0.82496,0.22368 -1.30977,0.22368 z m 4.6375,-0.14903 v -7.15914 h 1.06285 v 1.08145 h 0.0746 c 0.13043,-0.35438 0.36641,-0.64176 0.7082,-0.86242 0.3418,-0.22067 0.72735,-0.33086 1.1561,-0.33086 0.0807,0 0.18156,0.002 0.30297,0.005 0.12113,0.003 0.21273,0.008 0.2748,0.014 v 1.11863 c -0.0372,-0.009 -0.12277,-0.0232 -0.25621,-0.0418 -0.13043,-0.0219 -0.26879,-0.0328 -0.4148,-0.0328 -0.34809,0 -0.65872,0.073 -0.93215,0.2193 -0.27043,0.14274 -0.48481,0.3418 -0.6434,0.59637 -0.15531,0.25183 -0.23297,0.53922 -0.23297,0.86242 v 4.53031 z m 7.66719,0.14903 c -0.68988,0 -1.28488,-0.15204 -1.785,-0.45664 -0.49711,-0.30762 -0.88102,-0.73637 -1.15117,-1.28653 -0.26743,-0.55289 -0.40086,-1.19629 -0.40086,-1.92937 0,-0.73336 0.13343,-1.37977 0.40086,-1.93895 0.27015,-0.56246 0.64613,-1.00051 1.12793,-1.31441 0.48453,-0.31692 1.05,-0.47551 1.6964,-0.47551 0.37297,0 0.74102,0.0623 1.10469,0.18648 0.3634,0.12442 0.69453,0.32622 0.99285,0.60594 0.29805,0.27645 0.53594,0.64313 0.71313,1.10004 0.17691,0.45664 0.2655,1.0191 0.2655,1.68711 v 0.46621 h -5.51851 v -0.95101 h 4.39988 c 0,-0.40387 -0.0807,-0.76426 -0.24226,-1.08118 -0.1586,-0.31691 -0.38528,-0.56711 -0.68059,-0.75031 -0.29203,-0.18348 -0.63684,-0.27508 -1.03469,-0.27508 -0.43804,0 -0.8173,0.10883 -1.13722,0.32621 -0.31692,0.21438 -0.56082,0.49411 -0.73172,0.83891 -0.1709,0.34508 -0.25649,0.71477 -0.25649,1.10934 v 0.63382 c 0,0.54086 0.0933,0.99914 0.27973,1.37512 0.18949,0.3727 0.45227,0.65707 0.78777,0.85285 0.33551,0.19278 0.72543,0.28903 1.16977,0.28903 0.28902,0 0.55016,-0.0405 0.78312,-0.12114 0.23598,-0.0839 0.43969,-0.20836 0.61059,-0.37297 0.1709,-0.16789 0.30297,-0.37597 0.39621,-0.62453 l 1.06258,0.29832 c -0.11184,0.36039 -0.29996,0.67731 -0.56383,0.95075 -0.26414,0.27043 -0.59062,0.48152 -0.97891,0.63382 -0.38828,0.1493 -0.82496,0.22368 -1.30976,0.22368 z m 9.14922,-3.07618 v -4.23199 h 1.10004 v 7.15914 h -1.10004 v -1.21187 h -0.0744 c -0.16789,0.36367 -0.42875,0.67265 -0.78312,0.9275 -0.3541,0.25183 -0.80172,0.37761 -1.34231,0.37761 -0.44734,0 -0.84519,-0.0979 -1.19328,-0.29367 -0.34781,-0.19879 -0.62125,-0.49711 -0.82031,-0.89496 -0.19879,-0.40086 -0.29832,-0.90562 -0.29832,-1.51457 v -4.54918 h 1.10004 v 4.47453 c 0,0.522 0.14601,0.93844 0.43804,1.24907 0.29532,0.31062 0.67129,0.46621 1.12793,0.46621 0.27344,0 0.55153,-0.07 0.83454,-0.20973 0.28574,-0.14 0.525,-0.35438 0.71777,-0.6434 0.19551,-0.28902 0.2934,-0.65707 0.2934,-1.10469 z m 3.11472,2.92715 v -7.15914 h 1.06258 v 1.11863 h 0.0932 c 0.1493,-0.38226 0.38993,-0.67894 0.72243,-0.89031 0.3325,-0.21437 0.73199,-0.32156 1.19793,-0.32156 0.47222,0 0.86543,0.10719 1.17933,0.32156 0.31555,0.21137 0.56438,0.50805 0.74211,0.89031 h 0.0738 c 0.1832,-0.36968 0.45664,-0.66335 0.82578,-0.88074 0.36641,-0.22066 0.80391,-0.33113 1.31797,-0.33113 0.63984,0 1.16484,0.20043 1.56953,0.60129 0.40742,0.39785 0.6125,1.01773 0.6125,1.85965 v 4.79144 h -1.10195 v -4.79144 c 0,-0.52828 -0.14219,-0.90563 -0.43203,-1.13258 -0.28985,-0.22668 -0.62891,-0.34016 -1.01993,-0.34016 -0.50586,0 -0.89414,0.15231 -1.17031,0.45664 -0.27617,0.30161 -0.41562,0.6836 -0.41562,1.1468 v 4.66074 h -1.11864 v -4.90328 c 0,-0.40687 -0.13207,-0.73473 -0.39593,-0.98328 -0.26414,-0.25184 -0.60457,-0.37762 -1.02075,-0.37762 -0.28601,0 -0.55316,0.076 -0.80171,0.22832 -0.24555,0.15231 -0.44434,0.36367 -0.59665,0.63383 -0.14902,0.26742 -0.22367,0.57641 -0.22367,0.9275 v 4.47453 z m 12.20817,0.0747 c -0.22969,0 -0.42656,-0.0823 -0.59063,-0.24719 -0.16406,-0.16461 -0.24609,-0.36203 -0.24609,-0.59172 0,-0.22996 0.082,-0.42738 0.24609,-0.59199 0.16407,-0.16488 0.36094,-0.24719 0.59063,-0.24719 0.22969,0 0.4293,0.0823 0.59336,0.24719 0.16406,0.16461 0.24609,0.36203 0.24609,0.59199 0,0.15204 -0.0383,0.29204 -0.11484,0.41946 -0.0766,0.12742 -0.17774,0.22996 -0.30352,0.30762 -0.12578,0.0744 -0.26523,0.11183 -0.42109,0.11183 z" />
  </g>
</svg>
