<svg width="57" height="80" viewBox="0 0 57 80" fill="none" xmlns="http://www.w3.org/2000/svg">
<path d="M42.486 27.5443C42.3229 27.3483 42.0984 27.2133 41.8489 27.1611C41.5995 27.1089 41.3398 27.1427 41.1119 27.257L28.0584 33.7919L15.0048 27.257C14.7772 27.1428 14.5177 27.1089 14.2684 27.1608C14.0191 27.2128 13.7947 27.3475 13.6314 27.5432C13.4682 27.7388 13.3757 27.9839 13.369 28.2388C13.3624 28.4937 13.4418 28.7433 13.5946 28.9473L27.1544 47.0496C27.168 47.0677 27.1906 47.0745 27.2064 47.0926C27.2818 47.1818 27.3711 47.2582 27.4708 47.3189C27.5065 47.3467 27.5443 47.3716 27.5838 47.3936C27.731 47.468 27.8935 47.5067 28.0584 47.5067C28.2232 47.5067 28.3858 47.468 28.533 47.3936C28.5725 47.3716 28.6103 47.3467 28.646 47.3189C28.7457 47.2582 28.835 47.1818 28.9104 47.0926C28.9262 47.0745 28.9488 47.0677 28.9624 47.0496L42.5221 28.9473C42.6747 28.7435 42.7541 28.4941 42.7476 28.2395C42.741 27.9849 42.6488 27.74 42.486 27.5443ZM26.9284 35.756V42.9766L18.275 31.4363L26.9284 35.756ZM29.1884 42.9766V35.756L37.8418 31.4363L29.1884 42.9766Z" fill="#151616"/>
<path d="M13.4003 23.874C13.3992 23.9362 13.4037 23.9983 13.4139 24.0596C13.4252 24.0958 13.4523 24.1229 13.4658 24.1569C13.4712 24.1883 13.4788 24.2193 13.4884 24.2497C13.502 24.2791 13.5359 24.2904 13.5517 24.3175C13.6274 24.4431 13.7273 24.5523 13.8455 24.6389C13.8839 24.666 13.911 24.6977 13.9495 24.7203C13.9879 24.743 13.9766 24.7475 13.9924 24.7543L27.5522 31.5427H27.5838C27.7315 31.6155 27.8938 31.6534 28.0584 31.6534C28.223 31.6534 28.3854 31.6155 28.533 31.5427H28.5647L42.1244 24.7543C42.1576 24.7313 42.1893 24.7064 42.2194 24.6796C42.29 24.6353 42.3552 24.5829 42.4137 24.5235C42.4637 24.4723 42.5084 24.4162 42.5471 24.356C42.5761 24.3221 42.6033 24.2866 42.6284 24.2497C42.6442 24.2157 42.642 24.1818 42.6555 24.1501C42.6731 24.1209 42.689 24.0907 42.703 24.0596C42.7064 24.0189 42.7064 23.9781 42.703 23.9374C42.719 23.8593 42.7251 23.7794 42.7211 23.6998C42.7186 23.6336 42.7102 23.5677 42.6962 23.5029C42.6776 23.4247 42.6504 23.3488 42.6149 23.2767C42.6052 23.2404 42.5931 23.2049 42.5787 23.1703L29.0189 0.542325C29.0031 0.517434 28.9737 0.508383 28.9579 0.485755C28.8589 0.336392 28.7246 0.213869 28.5669 0.129113C28.4091 0.0443559 28.2329 0 28.0539 0C27.8749 0 27.6987 0.0443559 27.5409 0.129113C27.3832 0.213869 27.2489 0.336392 27.1499 0.485755C27.1341 0.508383 27.1047 0.517434 27.0889 0.542325L13.5291 23.1703C13.4389 23.3309 13.3893 23.5111 13.3845 23.6953C13.3845 23.7156 13.3687 23.7315 13.3687 23.7518C13.3766 23.7932 13.3872 23.834 13.4003 23.874V23.874ZM26.9284 28.7006L17.0253 23.7428L26.9284 18.785V28.7006ZM29.1884 18.785L39.0916 23.7428L29.1884 28.7006V18.785ZM29.1884 16.2552V5.19916L38.6509 20.9912L29.1884 16.2552ZM26.9284 16.2552L17.4637 20.9935L26.9284 5.19916V16.2552Z" fill="#151616"/>
<path d="M0 55.2907L2.99072 51.2631L14.6817 51.2631C19.3037 51.3973 21.3428 54.2167 21.7507 54.7537C23.6538 51.6658 31.9463 48.8465 37.5199 53.1426V51.2631H56.5517V60.7952H56.008V66.0311H56.5517V75.429L53.561 79.4567H34.5292V77.8456C25.1492 83.0815 17.1286 77.04 16.8568 72.2069C16.2042 72.8513 14.4098 73.3704 13.5942 73.5494V75.429L10.6034 79.4567H0V55.2907Z" fill="#282A2D"/>
<path d="M5.16578 72.6376V53.8907H13.3594C14.7682 53.8907 16.001 54.1653 17.0576 54.7145C18.1142 55.2637 18.9361 56.0357 19.5231 57.0304C20.1101 58.0251 20.4036 59.1876 20.4036 60.518C20.4036 61.8605 20.1008 63.0231 19.4953 64.0056C18.8959 64.9881 18.0524 65.7448 16.9649 66.2757C15.8835 66.8066 14.6199 67.0721 13.174 67.0721H10.3192V63.1176H12.1359C12.7414 63.1176 13.2574 63.0139 13.6838 62.8064C14.1163 62.5928 14.4469 62.2908 14.6755 61.9002C14.9103 61.5096 15.0277 61.0489 15.0277 60.518C15.0277 59.981 14.9103 59.5233 14.6755 59.1449C14.4469 58.7605 14.1163 58.4675 13.6838 58.2662C13.2574 58.0587 12.7414 57.9549 12.1359 57.9549H10.3192V72.6376H5.16578Z" fill="#FCFCFC"/>
<path d="M32.5271 59.7491C32.4777 59.1388 32.246 58.6628 31.832 58.3211C31.4241 57.9793 30.8031 57.8085 29.969 57.8085C29.4375 57.8085 29.0019 57.8725 28.6621 58.0007C28.3284 58.1227 28.0812 58.2906 27.9206 58.5042C27.7599 58.7177 27.6765 58.9618 27.6703 59.2365C27.6579 59.4622 27.6981 59.6667 27.7908 59.8498C27.8897 60.0267 28.0441 60.1884 28.2542 60.3349C28.4643 60.4753 28.7331 60.6034 29.0606 60.7194C29.3881 60.8353 29.7774 60.9391 30.2285 61.0306L31.7856 61.3601C32.8361 61.5798 33.7352 61.8697 34.4828 62.2297C35.2305 62.5898 35.8422 63.0139 36.318 63.5021C36.7938 63.9842 37.143 64.5273 37.3654 65.1315C37.594 65.7356 37.7115 66.3947 37.7176 67.1087C37.7115 68.3414 37.3994 69.3849 36.7815 70.2393C36.1636 71.0936 35.2799 71.7435 34.1306 72.189C32.9875 72.6345 31.6126 72.8572 30.006 72.8572C28.3562 72.8572 26.9164 72.6162 25.6868 72.1341C24.4633 71.652 23.5117 70.9105 22.832 69.9097C22.1585 68.9028 21.8186 67.6152 21.8125 66.0468H26.7064C26.7373 66.6205 26.8825 67.1026 27.142 67.4931C27.4015 67.8837 27.7661 68.1797 28.2357 68.3811C28.7115 68.5824 29.2769 68.6831 29.9319 68.6831C30.4818 68.6831 30.9422 68.616 31.3129 68.4817C31.6837 68.3475 31.9648 68.1614 32.1564 67.9234C32.3479 67.6854 32.4468 67.4138 32.453 67.1087C32.4468 66.8219 32.351 66.5717 32.1656 66.3581C31.9865 66.1384 31.6899 65.9431 31.2758 65.7722C30.8618 65.5953 30.3026 65.4305 29.5982 65.2779L27.7074 64.8752C26.0266 64.5151 24.7012 63.914 23.7311 63.0719C22.7671 62.2236 22.2883 61.0672 22.2944 59.6026C22.2883 58.4126 22.6096 57.3721 23.2584 56.4812C23.9134 55.5841 24.8186 54.8854 25.9741 54.385C27.1358 53.8846 28.4674 53.6344 29.969 53.6344C31.5014 53.6344 32.8268 53.8876 33.9452 54.3941C35.0637 54.9006 35.9257 55.6146 36.5312 56.5361C37.143 57.4515 37.4519 58.5225 37.4581 59.7491H32.5271Z" fill="#FCFCFC"/>
<path d="M39.678 72.6376V53.8907H53.3586V57.9915H44.8314V61.2137H52.6542V65.3145H44.8314V68.5367H53.3216V72.6376H39.678Z" fill="#FCFCFC"/>
</svg>
