<svg width="360" height="160" viewBox="0 0 360 160" fill="none" xmlns="http://www.w3.org/2000/svg">
<rect width="360" height="160" rx="4" fill="#E4CCFF"/>
<path d="M108.008 103.219V107.159L107.811 107.525V108.562L108.008 108.977V110.823H106.725V103.219H108.008ZM107.495 108.029C107.613 107.443 107.817 106.929 108.107 106.488C108.403 106.047 108.765 105.704 109.193 105.461C109.621 105.217 110.092 105.095 110.606 105.095C111.145 105.095 111.626 105.221 112.047 105.471C112.475 105.714 112.808 106.06 113.045 106.508C113.282 106.949 113.4 107.456 113.4 108.029C113.4 108.601 113.282 109.112 113.045 109.559C112.808 110 112.475 110.346 112.047 110.596C111.626 110.84 111.145 110.962 110.606 110.962C110.092 110.962 109.621 110.84 109.193 110.596C108.772 110.353 108.413 110.01 108.117 109.569C107.827 109.128 107.62 108.614 107.495 108.029ZM112.097 108.029C112.097 107.66 112.018 107.331 111.86 107.041C111.708 106.751 111.494 106.527 111.218 106.369C110.948 106.205 110.642 106.123 110.299 106.123C109.786 106.123 109.318 106.297 108.897 106.646C108.482 106.995 108.166 107.456 107.949 108.029C108.166 108.608 108.482 109.072 108.897 109.421C109.312 109.763 109.779 109.934 110.299 109.934C110.642 109.934 110.948 109.855 111.218 109.697C111.494 109.533 111.708 109.306 111.86 109.016C112.018 108.726 112.097 108.397 112.097 108.029Z" fill="black"/>
<path d="M115.111 105.313L115.753 105.194V110.823H114.469V105.194L115.111 105.313ZM115.111 104.493C114.86 104.493 114.656 104.427 114.498 104.296C114.347 104.157 114.271 103.98 114.271 103.762C114.271 103.545 114.347 103.371 114.498 103.239C114.656 103.101 114.86 103.031 115.111 103.031C115.361 103.031 115.562 103.101 115.713 103.239C115.871 103.371 115.95 103.545 115.95 103.762C115.95 103.98 115.871 104.157 115.713 104.296C115.562 104.427 115.361 104.493 115.111 104.493Z" fill="black"/>
<path d="M118.128 105.234L118.464 107.268V110.823H117.18V107.021L116.845 105.234H118.128ZM121.299 106.32C121.154 106.281 120.996 106.251 120.824 106.231C120.653 106.211 120.492 106.202 120.341 106.202C119.972 106.202 119.646 106.284 119.363 106.448C119.08 106.606 118.859 106.843 118.701 107.159C118.543 107.475 118.464 107.854 118.464 108.295L118.168 107.93C118.201 107.383 118.309 106.899 118.494 106.478C118.685 106.05 118.951 105.714 119.294 105.471C119.636 105.221 120.048 105.095 120.528 105.095C120.66 105.095 120.795 105.105 120.933 105.125C121.071 105.138 121.193 105.161 121.299 105.194V106.32Z" fill="black"/>
<path d="M126.912 108.7L127.198 108.038L126.921 107.278L127.336 103.219H128.66L128.156 107.949L128.442 110.823H127.129L126.912 108.7ZM127.504 108.029C127.379 108.614 127.168 109.128 126.872 109.569C126.582 110.01 126.224 110.353 125.796 110.596C125.374 110.84 124.907 110.962 124.393 110.962C123.853 110.962 123.369 110.84 122.942 110.596C122.52 110.346 122.191 110 121.954 109.559C121.717 109.112 121.598 108.601 121.598 108.029C121.598 107.456 121.717 106.949 121.954 106.508C122.191 106.06 122.52 105.714 122.942 105.471C123.369 105.221 123.853 105.095 124.393 105.095C124.907 105.095 125.378 105.217 125.805 105.461C126.233 105.704 126.592 106.047 126.882 106.488C127.178 106.929 127.386 107.443 127.504 108.029ZM122.902 108.029C122.902 108.397 122.978 108.726 123.129 109.016C123.287 109.306 123.501 109.533 123.771 109.697C124.048 109.855 124.357 109.934 124.699 109.934C125.22 109.934 125.687 109.763 126.102 109.421C126.517 109.072 126.833 108.608 127.05 108.029C126.833 107.456 126.513 106.995 126.092 106.646C125.677 106.297 125.213 106.123 124.699 106.123C124.357 106.123 124.048 106.205 123.771 106.369C123.501 106.527 123.287 106.751 123.129 107.041C122.978 107.331 122.902 107.66 122.902 108.029Z" fill="black"/>
<path d="M135.465 109.125C135.465 109.507 135.356 109.836 135.139 110.112C134.928 110.382 134.605 110.593 134.171 110.744C133.743 110.889 133.213 110.962 132.581 110.962C131.923 110.962 131.35 110.879 130.863 110.715C130.375 110.543 129.997 110.306 129.727 110.004C129.457 109.694 129.312 109.339 129.292 108.937H130.596C130.635 109.148 130.741 109.335 130.912 109.5C131.09 109.658 131.32 109.78 131.603 109.865C131.893 109.951 132.222 109.994 132.591 109.994C132.946 109.994 133.243 109.967 133.48 109.915C133.723 109.855 133.904 109.77 134.023 109.658C134.141 109.539 134.201 109.391 134.201 109.214C134.201 109.088 134.161 108.99 134.082 108.917C134.003 108.838 133.871 108.776 133.687 108.73C133.503 108.677 133.243 108.634 132.907 108.601L131.811 108.503C130.975 108.43 130.372 108.246 130.003 107.949C129.641 107.653 129.46 107.285 129.46 106.843C129.46 106.284 129.714 105.853 130.221 105.55C130.734 105.247 131.419 105.095 132.275 105.095C132.848 105.095 133.361 105.178 133.815 105.342C134.276 105.5 134.642 105.724 134.912 106.014C135.182 106.304 135.333 106.633 135.366 107.001H134.062C134.016 106.745 133.842 106.524 133.539 106.34C133.243 106.155 132.798 106.063 132.206 106.063C131.745 106.063 131.383 106.126 131.119 106.251C130.863 106.369 130.734 106.541 130.734 106.764C130.734 106.916 130.817 107.041 130.981 107.14C131.152 107.238 131.442 107.308 131.85 107.347L133.262 107.475C133.809 107.528 134.243 107.627 134.566 107.772C134.889 107.917 135.119 108.104 135.257 108.335C135.396 108.558 135.465 108.822 135.465 109.125Z" fill="black"/>
<path d="M142.21 110.962C141.539 110.962 140.943 110.84 140.423 110.596C139.909 110.346 139.511 110 139.228 109.559C138.945 109.118 138.803 108.608 138.803 108.029C138.803 107.449 138.945 106.939 139.228 106.498C139.511 106.057 139.909 105.714 140.423 105.471C140.943 105.221 141.539 105.095 142.21 105.095C142.882 105.095 143.474 105.221 143.988 105.471C144.508 105.714 144.91 106.057 145.193 106.498C145.476 106.939 145.617 107.449 145.617 108.029C145.617 108.608 145.476 109.118 145.193 109.559C144.91 110 144.508 110.346 143.988 110.596C143.474 110.84 142.882 110.962 142.21 110.962ZM142.21 109.954C142.638 109.954 143.01 109.879 143.326 109.727C143.642 109.569 143.886 109.345 144.057 109.056C144.228 108.766 144.314 108.424 144.314 108.029C144.314 107.64 144.228 107.301 144.057 107.011C143.886 106.722 143.642 106.498 143.326 106.34C143.01 106.182 142.638 106.103 142.21 106.103C141.782 106.103 141.41 106.182 141.094 106.34C140.778 106.498 140.535 106.722 140.364 107.011C140.192 107.301 140.107 107.64 140.107 108.029C140.107 108.424 140.192 108.766 140.364 109.056C140.535 109.345 140.778 109.569 141.094 109.727C141.41 109.879 141.782 109.954 142.21 109.954Z" fill="black"/>
<path d="M149.981 104.078C149.494 104.078 149.135 104.184 148.904 104.394C148.674 104.598 148.559 104.928 148.559 105.382V110.823H147.275V105.5C147.275 104.75 147.489 104.161 147.917 103.733C148.345 103.298 148.983 103.081 149.833 103.081C150.096 103.081 150.333 103.104 150.544 103.15C150.761 103.189 150.988 103.249 151.225 103.328V104.335C150.856 104.164 150.442 104.078 149.981 104.078ZM146.08 105.619H151.116V106.606H146.08V105.619Z" fill="black"/>
<path d="M159.19 108.749L159.447 108.029L159.19 107.317L159.407 105.234H160.731L160.434 108.029L160.731 110.823H159.407L159.19 108.749ZM159.802 108.029C159.677 108.614 159.467 109.128 159.17 109.569C158.881 110.01 158.522 110.353 158.094 110.596C157.672 110.84 157.205 110.962 156.691 110.962C156.152 110.962 155.668 110.84 155.24 110.596C154.818 110.346 154.489 110 154.252 109.559C154.015 109.112 153.897 108.601 153.897 108.029C153.897 107.456 154.015 106.949 154.252 106.508C154.489 106.06 154.818 105.714 155.24 105.471C155.668 105.221 156.152 105.095 156.691 105.095C157.205 105.095 157.676 105.217 158.104 105.461C158.532 105.704 158.89 106.047 159.18 106.488C159.476 106.929 159.684 107.443 159.802 108.029ZM155.2 108.029C155.2 108.397 155.276 108.726 155.427 109.016C155.585 109.306 155.799 109.533 156.069 109.697C156.346 109.855 156.655 109.934 156.998 109.934C157.518 109.934 157.985 109.763 158.4 109.421C158.815 109.072 159.131 108.608 159.348 108.029C159.131 107.456 158.811 106.995 158.39 106.646C157.975 106.297 157.511 106.123 156.998 106.123C156.655 106.123 156.346 106.205 156.069 106.369C155.799 106.527 155.585 106.751 155.427 107.041C155.276 107.331 155.2 107.66 155.2 108.029Z" fill="black"/>
<path d="M167.967 104.078C167.48 104.078 167.121 104.184 166.891 104.394C166.66 104.598 166.545 104.928 166.545 105.382V110.823H165.261V105.5C165.261 104.75 165.475 104.161 165.903 103.733C166.331 103.298 166.97 103.081 167.819 103.081C168.082 103.081 168.319 103.104 168.53 103.15C168.747 103.189 168.974 103.249 169.211 103.328V104.335C168.843 104.164 168.428 104.078 167.967 104.078ZM164.066 105.619H169.103V106.606H164.066V105.619Z" fill="black"/>
<path d="M172.675 110.962C172.023 110.962 171.441 110.84 170.927 110.596C170.42 110.346 170.022 110 169.732 109.559C169.449 109.112 169.308 108.598 169.308 108.019C169.308 107.446 169.443 106.939 169.712 106.498C169.989 106.057 170.371 105.714 170.858 105.471C171.345 105.221 171.898 105.095 172.517 105.095C173.129 105.095 173.666 105.237 174.127 105.52C174.594 105.797 174.953 106.192 175.203 106.705C175.453 107.212 175.579 107.805 175.579 108.483H170.315V107.505H174.937L174.295 107.87C174.275 107.502 174.186 107.186 174.028 106.922C173.877 106.659 173.669 106.458 173.406 106.32C173.143 106.175 172.836 106.103 172.488 106.103C172.112 106.103 171.783 106.178 171.5 106.33C171.217 106.481 170.996 106.695 170.838 106.972C170.687 107.248 170.611 107.571 170.611 107.94C170.611 108.354 170.703 108.713 170.888 109.016C171.072 109.319 171.339 109.553 171.688 109.717C172.037 109.875 172.448 109.954 172.922 109.954C173.357 109.954 173.794 109.888 174.236 109.757C174.683 109.618 175.078 109.428 175.421 109.184V110.112C175.072 110.376 174.654 110.583 174.166 110.734C173.679 110.886 173.182 110.962 172.675 110.962Z" fill="black"/>
<path d="M181.632 108.749L181.889 108.029L181.632 107.317L181.849 105.234H183.173L182.876 108.029L183.173 110.823H181.849L181.632 108.749ZM182.244 108.029C182.119 108.614 181.908 109.128 181.612 109.569C181.323 110.01 180.964 110.353 180.536 110.596C180.114 110.84 179.647 110.962 179.133 110.962C178.594 110.962 178.11 110.84 177.682 110.596C177.26 110.346 176.931 110 176.694 109.559C176.457 109.112 176.339 108.601 176.339 108.029C176.339 107.456 176.457 106.949 176.694 106.508C176.931 106.06 177.26 105.714 177.682 105.471C178.11 105.221 178.594 105.095 179.133 105.095C179.647 105.095 180.118 105.217 180.546 105.461C180.974 105.704 181.332 106.047 181.622 106.488C181.918 106.929 182.126 107.443 182.244 108.029ZM177.642 108.029C177.642 108.397 177.718 108.726 177.869 109.016C178.027 109.306 178.241 109.533 178.511 109.697C178.788 109.855 179.097 109.934 179.44 109.934C179.96 109.934 180.427 109.763 180.842 109.421C181.257 109.072 181.573 108.608 181.79 108.029C181.573 107.456 181.253 106.995 180.832 106.646C180.417 106.297 179.953 106.123 179.44 106.123C179.097 106.123 178.788 106.205 178.511 106.369C178.241 106.527 178.027 106.751 177.869 107.041C177.718 107.331 177.642 107.66 177.642 108.029Z" fill="black"/>
<path d="M183.776 105.639L184.971 105.332L185.504 103.772H186.255V105.234H188.852V106.221H186.255V108.641C186.255 108.957 186.298 109.207 186.383 109.391C186.475 109.569 186.614 109.701 186.798 109.786C186.982 109.865 187.229 109.905 187.539 109.905C187.822 109.905 188.075 109.875 188.299 109.816C188.523 109.757 188.74 109.665 188.951 109.539V110.596C188.76 110.695 188.506 110.781 188.19 110.853C187.881 110.925 187.572 110.962 187.262 110.962C186.479 110.962 185.899 110.774 185.524 110.399C185.155 110.017 184.971 109.497 184.971 108.838V106.221H183.776V105.639Z" fill="black"/>
<path d="M191.17 103.219V110.823H189.886V103.219H191.17ZM193.392 105.095C193.912 105.095 194.356 105.201 194.725 105.411C195.1 105.622 195.383 105.925 195.574 106.32C195.772 106.715 195.871 107.186 195.871 107.732V110.823H194.587V107.94C194.587 107.36 194.448 106.919 194.172 106.616C193.902 106.313 193.504 106.162 192.977 106.162C192.615 106.162 192.296 106.244 192.019 106.409C191.749 106.567 191.538 106.791 191.387 107.08C191.242 107.37 191.17 107.709 191.17 108.098L190.715 107.851C190.768 107.285 190.916 106.794 191.16 106.379C191.403 105.965 191.716 105.648 192.098 105.431C192.487 105.207 192.918 105.095 193.392 105.095Z" fill="black"/>
<path d="M200.209 110.962C199.557 110.962 198.975 110.84 198.461 110.596C197.954 110.346 197.556 110 197.266 109.559C196.983 109.112 196.842 108.598 196.842 108.019C196.842 107.446 196.977 106.939 197.247 106.498C197.523 106.057 197.905 105.714 198.392 105.471C198.879 105.221 199.432 105.095 200.051 105.095C200.663 105.095 201.2 105.237 201.661 105.52C202.128 105.797 202.487 106.192 202.737 106.705C202.988 107.212 203.113 107.805 203.113 108.483H197.849V107.505H202.471L201.829 107.87C201.809 107.502 201.72 107.186 201.562 106.922C201.411 106.659 201.203 106.458 200.94 106.32C200.677 106.175 200.37 106.103 200.022 106.103C199.646 106.103 199.317 106.178 199.034 106.33C198.751 106.481 198.53 106.695 198.372 106.972C198.221 107.248 198.145 107.571 198.145 107.94C198.145 108.354 198.237 108.713 198.422 109.016C198.606 109.319 198.873 109.553 199.222 109.717C199.571 109.875 199.982 109.954 200.456 109.954C200.891 109.954 201.328 109.888 201.77 109.757C202.217 109.618 202.612 109.428 202.955 109.184V110.112C202.606 110.376 202.188 110.583 201.7 110.734C201.213 110.886 200.716 110.962 200.209 110.962Z" fill="black"/>
<path d="M205.186 105.234L205.522 107.268V110.823H204.238V107.021L203.902 105.234H205.186ZM208.356 106.32C208.211 106.281 208.053 106.251 207.882 106.231C207.711 106.211 207.55 106.202 207.398 106.202C207.03 106.202 206.704 106.284 206.421 106.448C206.137 106.606 205.917 106.843 205.759 107.159C205.601 107.475 205.522 107.854 205.522 108.295L205.226 107.93C205.259 107.383 205.367 106.899 205.551 106.478C205.742 106.05 206.009 105.714 206.351 105.471C206.694 105.221 207.105 105.095 207.586 105.095C207.718 105.095 207.853 105.105 207.991 105.125C208.129 105.138 208.251 105.161 208.356 105.194V106.32Z" fill="black"/>
<path d="M212.773 103.219V107.159L212.575 107.525V108.562L212.773 108.977V110.823H211.489V103.219H212.773ZM212.259 108.029C212.378 107.443 212.582 106.929 212.871 106.488C213.168 106.047 213.53 105.704 213.958 105.461C214.386 105.217 214.856 105.095 215.37 105.095C215.91 105.095 216.39 105.221 216.812 105.471C217.24 105.714 217.572 106.06 217.809 106.508C218.046 106.949 218.165 107.456 218.165 108.029C218.165 108.601 218.046 109.112 217.809 109.559C217.572 110 217.24 110.346 216.812 110.596C216.39 110.84 215.91 110.962 215.37 110.962C214.856 110.962 214.386 110.84 213.958 110.596C213.536 110.353 213.178 110.01 212.881 109.569C212.592 109.128 212.384 108.614 212.259 108.029ZM216.861 108.029C216.861 107.66 216.782 107.331 216.624 107.041C216.473 106.751 216.259 106.527 215.982 106.369C215.712 106.205 215.406 106.123 215.064 106.123C214.55 106.123 214.083 106.297 213.661 106.646C213.247 106.995 212.931 107.456 212.713 108.029C212.931 108.608 213.247 109.072 213.661 109.421C214.076 109.763 214.544 109.934 215.064 109.934C215.406 109.934 215.712 109.855 215.982 109.697C216.259 109.533 216.473 109.306 216.624 109.016C216.782 108.726 216.861 108.397 216.861 108.029Z" fill="black"/>
<path d="M224.23 108.749L224.487 108.029L224.23 107.317L224.447 105.234H225.771L225.474 108.029L225.771 110.823H224.447L224.23 108.749ZM224.842 108.029C224.717 108.614 224.507 109.128 224.21 109.569C223.921 110.01 223.562 110.353 223.134 110.596C222.713 110.84 222.245 110.962 221.732 110.962C221.192 110.962 220.708 110.84 220.28 110.596C219.859 110.346 219.529 110 219.292 109.559C219.055 109.112 218.937 108.601 218.937 108.029C218.937 107.456 219.055 106.949 219.292 106.508C219.529 106.06 219.859 105.714 220.28 105.471C220.708 105.221 221.192 105.095 221.732 105.095C222.245 105.095 222.716 105.217 223.144 105.461C223.572 105.704 223.931 106.047 224.22 106.488C224.517 106.929 224.724 107.443 224.842 108.029ZM220.24 108.029C220.24 108.397 220.316 108.726 220.468 109.016C220.626 109.306 220.84 109.533 221.109 109.697C221.386 109.855 221.695 109.934 222.038 109.934C222.558 109.934 223.025 109.763 223.44 109.421C223.855 109.072 224.171 108.608 224.388 108.029C224.171 107.456 223.852 106.995 223.43 106.646C223.015 106.297 222.551 106.123 222.038 106.123C221.695 106.123 221.386 106.205 221.109 106.369C220.84 106.527 220.626 106.751 220.468 107.041C220.316 107.331 220.24 107.66 220.24 108.029Z" fill="black"/>
<path d="M228.023 105.234L228.359 107.248V110.823H227.075V107.061L226.74 105.234H228.023ZM230.581 105.095C231.101 105.095 231.546 105.201 231.914 105.411C232.29 105.622 232.573 105.925 232.764 106.32C232.961 106.715 233.06 107.186 233.06 107.732V110.823H231.776V107.94C231.776 107.36 231.638 106.919 231.361 106.616C231.091 106.313 230.693 106.162 230.166 106.162C229.804 106.162 229.485 106.244 229.209 106.409C228.939 106.567 228.728 106.791 228.576 107.08C228.432 107.37 228.359 107.709 228.359 108.098L227.905 107.851C227.958 107.285 228.106 106.794 228.349 106.379C228.593 105.965 228.906 105.648 229.288 105.431C229.676 105.207 230.107 105.095 230.581 105.095Z" fill="black"/>
<path d="M239.362 108.7L239.649 108.038L239.372 107.278L239.787 103.219H241.11L240.607 107.949L240.893 110.823H239.579L239.362 108.7ZM239.955 108.029C239.83 108.614 239.619 109.128 239.323 109.569C239.033 110.01 238.674 110.353 238.246 110.596C237.825 110.84 237.357 110.962 236.844 110.962C236.304 110.962 235.82 110.84 235.392 110.596C234.971 110.346 234.642 110 234.405 109.559C234.168 109.112 234.049 108.601 234.049 108.029C234.049 107.456 234.168 106.949 234.405 106.508C234.642 106.06 234.971 105.714 235.392 105.471C235.82 105.221 236.304 105.095 236.844 105.095C237.357 105.095 237.828 105.217 238.256 105.461C238.684 105.704 239.043 106.047 239.333 106.488C239.629 106.929 239.836 107.443 239.955 108.029ZM235.353 108.029C235.353 108.397 235.428 108.726 235.58 109.016C235.738 109.306 235.952 109.533 236.222 109.697C236.498 109.855 236.808 109.934 237.15 109.934C237.67 109.934 238.138 109.763 238.552 109.421C238.967 109.072 239.283 108.608 239.501 108.029C239.283 107.456 238.964 106.995 238.543 106.646C238.128 106.297 237.664 106.123 237.15 106.123C236.808 106.123 236.498 106.205 236.222 106.369C235.952 106.527 235.738 106.751 235.58 107.041C235.428 107.331 235.353 107.66 235.353 108.029Z" fill="black"/>
<path d="M243.878 105.639L245.073 105.332L245.607 103.772H246.357V105.234H248.954V106.221H246.357V108.641C246.357 108.957 246.4 109.207 246.485 109.391C246.578 109.569 246.716 109.701 246.9 109.786C247.085 109.865 247.331 109.905 247.641 109.905C247.924 109.905 248.178 109.875 248.401 109.816C248.625 109.757 248.842 109.665 249.053 109.539V110.596C248.862 110.695 248.609 110.781 248.293 110.853C247.983 110.925 247.674 110.962 247.364 110.962C246.581 110.962 246.002 110.774 245.626 110.399C245.258 110.017 245.073 109.497 245.073 108.838V106.221H243.878V105.639Z" fill="black"/>
<path d="M252.886 110.962C252.215 110.962 251.619 110.84 251.099 110.596C250.585 110.346 250.187 110 249.904 109.559C249.621 109.118 249.479 108.608 249.479 108.029C249.479 107.449 249.621 106.939 249.904 106.498C250.187 106.057 250.585 105.714 251.099 105.471C251.619 105.221 252.215 105.095 252.886 105.095C253.558 105.095 254.15 105.221 254.664 105.471C255.184 105.714 255.586 106.057 255.869 106.498C256.152 106.939 256.293 107.449 256.293 108.029C256.293 108.608 256.152 109.118 255.869 109.559C255.586 110 255.184 110.346 254.664 110.596C254.15 110.84 253.558 110.962 252.886 110.962ZM252.886 109.954C253.314 109.954 253.686 109.879 254.002 109.727C254.318 109.569 254.562 109.345 254.733 109.056C254.904 108.766 254.99 108.424 254.99 108.029C254.99 107.64 254.904 107.301 254.733 107.011C254.562 106.722 254.318 106.498 254.002 106.34C253.686 106.182 253.314 106.103 252.886 106.103C252.458 106.103 252.086 106.182 251.77 106.34C251.454 106.498 251.211 106.722 251.04 107.011C250.868 107.301 250.783 107.64 250.783 108.029C250.783 108.424 250.868 108.766 251.04 109.056C251.211 109.345 251.454 109.569 251.77 109.727C252.086 109.879 252.458 109.954 252.886 109.954Z" fill="black"/>
<path d="M262.413 108.463L262.463 108.285V107.209L262.413 107.011V105.234H263.697V109.332C263.697 110.03 263.549 110.622 263.253 111.11C262.956 111.603 262.542 111.972 262.008 112.216C261.482 112.466 260.873 112.591 260.181 112.591C259.687 112.591 259.227 112.525 258.799 112.394C258.377 112.262 257.969 112.061 257.574 111.791V110.725C257.956 111.027 258.358 111.245 258.779 111.376C259.207 111.515 259.648 111.584 260.102 111.584C260.853 111.584 261.426 111.399 261.821 111.031C262.216 110.662 262.413 110.135 262.413 109.451V108.463ZM259.727 110.389C259.22 110.389 258.759 110.28 258.344 110.063C257.936 109.839 257.614 109.526 257.377 109.125C257.14 108.723 257.021 108.262 257.021 107.742C257.021 107.222 257.14 106.761 257.377 106.36C257.614 105.958 257.936 105.648 258.344 105.431C258.759 105.207 259.22 105.095 259.727 105.095C260.319 105.095 260.859 105.244 261.347 105.54C261.834 105.83 262.212 106.185 262.482 106.606C262.759 107.021 262.897 107.403 262.897 107.752C262.897 108.114 262.759 108.503 262.482 108.917C262.212 109.332 261.834 109.681 261.347 109.964C260.866 110.247 260.326 110.389 259.727 110.389ZM260.122 109.441C260.603 109.441 261.037 109.302 261.426 109.026C261.814 108.749 262.16 108.321 262.463 107.742C262.16 107.156 261.811 106.725 261.416 106.448C261.027 106.172 260.596 106.034 260.122 106.034C259.747 106.034 259.421 106.106 259.144 106.251C258.874 106.396 258.667 106.597 258.522 106.853C258.384 107.11 258.315 107.406 258.315 107.742C258.315 108.078 258.384 108.374 258.522 108.631C258.667 108.888 258.874 109.088 259.144 109.233C259.421 109.372 259.747 109.441 260.122 109.441Z" fill="black"/>
<path d="M268.085 110.962C267.433 110.962 266.85 110.84 266.337 110.596C265.83 110.346 265.431 110 265.142 109.559C264.859 109.112 264.717 108.598 264.717 108.019C264.717 107.446 264.852 106.939 265.122 106.498C265.398 106.057 265.78 105.714 266.268 105.471C266.755 105.221 267.308 105.095 267.927 105.095C268.539 105.095 269.076 105.237 269.536 105.52C270.004 105.797 270.363 106.192 270.613 106.705C270.863 107.212 270.988 107.805 270.988 108.483H265.724V107.505H270.346L269.704 107.87C269.684 107.502 269.596 107.186 269.438 106.922C269.286 106.659 269.079 106.458 268.815 106.32C268.552 106.175 268.246 106.103 267.897 106.103C267.522 106.103 267.193 106.178 266.909 106.33C266.626 106.481 266.406 106.695 266.248 106.972C266.096 107.248 266.021 107.571 266.021 107.94C266.021 108.354 266.113 108.713 266.297 109.016C266.482 109.319 266.748 109.553 267.097 109.717C267.446 109.875 267.858 109.954 268.332 109.954C268.766 109.954 269.204 109.888 269.645 109.757C270.093 109.618 270.488 109.428 270.83 109.184V110.112C270.481 110.376 270.063 110.583 269.576 110.734C269.089 110.886 268.592 110.962 268.085 110.962Z" fill="black"/>
<path d="M271.297 105.639L272.492 105.332L273.025 103.772H273.775V105.234H276.373V106.221H273.775V108.641C273.775 108.957 273.818 109.207 273.904 109.391C273.996 109.569 274.134 109.701 274.319 109.786C274.503 109.865 274.75 109.905 275.059 109.905C275.342 109.905 275.596 109.875 275.82 109.816C276.043 109.757 276.261 109.665 276.471 109.539V110.596C276.28 110.695 276.027 110.781 275.711 110.853C275.402 110.925 275.092 110.962 274.783 110.962C273.999 110.962 273.42 110.774 273.045 110.399C272.676 110.017 272.492 109.497 272.492 108.838V106.221H271.297V105.639Z" fill="black"/>
<path d="M278.69 103.219V110.823H277.407V103.219H278.69ZM280.912 105.095C281.432 105.095 281.877 105.201 282.246 105.411C282.621 105.622 282.904 105.925 283.095 106.32C283.292 106.715 283.391 107.186 283.391 107.732V110.823H282.107V107.94C282.107 107.36 281.969 106.919 281.693 106.616C281.423 106.313 281.024 106.162 280.498 106.162C280.135 106.162 279.816 106.244 279.54 106.409C279.27 106.567 279.059 106.791 278.908 107.08C278.763 107.37 278.69 107.709 278.69 108.098L278.236 107.851C278.289 107.285 278.437 106.794 278.68 106.379C278.924 105.965 279.237 105.648 279.619 105.431C280.007 105.207 280.438 105.095 280.912 105.095Z" fill="black"/>
<path d="M287.73 110.962C287.078 110.962 286.495 110.84 285.982 110.596C285.475 110.346 285.077 110 284.787 109.559C284.504 109.112 284.362 108.598 284.362 108.019C284.362 107.446 284.497 106.939 284.767 106.498C285.044 106.057 285.425 105.714 285.913 105.471C286.4 105.221 286.953 105.095 287.572 105.095C288.184 105.095 288.721 105.237 289.181 105.52C289.649 105.797 290.008 106.192 290.258 106.705C290.508 107.212 290.633 107.805 290.633 108.483H285.37V107.505H289.991L289.349 107.87C289.33 107.502 289.241 107.186 289.083 106.922C288.931 106.659 288.724 106.458 288.461 106.32C288.197 106.175 287.891 106.103 287.542 106.103C287.167 106.103 286.838 106.178 286.555 106.33C286.271 106.481 286.051 106.695 285.893 106.972C285.741 107.248 285.666 107.571 285.666 107.94C285.666 108.354 285.758 108.713 285.942 109.016C286.127 109.319 286.393 109.553 286.742 109.717C287.091 109.875 287.503 109.954 287.977 109.954C288.411 109.954 288.849 109.888 289.29 109.757C289.738 109.618 290.133 109.428 290.475 109.184V110.112C290.126 110.376 289.708 110.583 289.221 110.734C288.734 110.886 288.237 110.962 287.73 110.962Z" fill="black"/>
<path d="M292.707 105.234L293.042 107.268V110.823H291.759V107.021L291.423 105.234H292.707ZM295.877 106.32C295.732 106.281 295.574 106.251 295.403 106.231C295.232 106.211 295.07 106.202 294.919 106.202C294.55 106.202 294.224 106.284 293.941 106.448C293.658 106.606 293.437 106.843 293.279 107.159C293.121 107.475 293.042 107.854 293.042 108.295L292.746 107.93C292.779 107.383 292.888 106.899 293.072 106.478C293.263 106.05 293.53 105.714 293.872 105.471C294.214 105.221 294.626 105.095 295.106 105.095C295.238 105.095 295.373 105.105 295.511 105.125C295.65 105.138 295.771 105.161 295.877 105.194V106.32Z" fill="black"/>
<path d="M296.13 110.902C295.979 110.902 295.84 110.866 295.715 110.794C295.597 110.721 295.501 110.626 295.429 110.507C295.356 110.382 295.32 110.244 295.32 110.093C295.32 109.941 295.356 109.806 295.429 109.688C295.501 109.563 295.597 109.464 295.715 109.391C295.84 109.319 295.979 109.283 296.13 109.283C296.281 109.283 296.416 109.319 296.535 109.391C296.66 109.464 296.759 109.563 296.831 109.688C296.904 109.806 296.94 109.941 296.94 110.093C296.94 110.244 296.904 110.382 296.831 110.507C296.759 110.626 296.66 110.721 296.535 110.794C296.416 110.866 296.281 110.902 296.13 110.902Z" fill="black"/>
<path d="M39 81.0371L46.3251 77.7689L49.297 80.5389L46.3251 95.4303L56.3812 90.9464C56.3812 90.9464 58.5289 80.1116 59.1966 78.0023L61.3389 77.4892L64.1422 75.1998L61.3389 73.0864L59.1966 72.6626C57.9157 68.2505 56.3812 61.3167 56.3812 61.3167L46.3251 55.7321L49.297 69.4402L46.3251 72.6626L39.5608 69.4402L39 81.0371Z" fill="black"/>
<path d="M86.2135 98.0021L79.7324 93.3094L80.6482 89.3585L95.0197 84.4832L86.1245 78.0395C86.1245 78.0395 75.6752 81.5993 73.5166 82.0767L72.0043 80.4831L68.6249 79.2062L68.1934 82.6833L68.8946 84.7452C65.7144 88.0563 60.4777 92.8466 60.4777 92.8466L60.6578 104.322L71.0414 94.905L75.3124 95.8612L75.8959 103.313L86.2135 98.0021Z" fill="black"/>
<path d="M85.8628 53.915L79.4567 58.7097L80.4349 62.6456L94.8816 67.293L86.0894 73.8766C86.0894 73.8766 75.5852 70.4825 73.4193 70.0392L71.9324 71.6566L68.5736 72.9868L68.0872 69.5169L68.7557 67.4442C65.5235 64.1837 60.2118 59.4768 60.2118 59.4768L60.2104 48L70.7415 57.2517L74.9969 56.228L75.4625 48.7677L85.8628 53.915Z" fill="black"/>
<path d="M113.006 61.2073V76.1723L112.105 77.9352V82.7929L113.006 84.5949V91.3723H106.464V61.2073H113.006ZM110.695 80.2465C111.086 77.896 111.844 75.8327 112.967 74.0568C114.116 72.2809 115.526 70.9097 117.198 69.9434C118.895 68.9771 120.776 68.4939 122.839 68.4939C124.98 68.4939 126.887 68.9901 128.558 69.9826C130.256 70.9489 131.575 72.3331 132.515 74.1352C133.455 75.9111 133.925 77.9482 133.925 80.2465C133.925 82.5448 133.455 84.5819 132.515 86.3578C131.575 88.1338 130.256 89.518 128.558 90.5104C126.887 91.4767 124.98 91.9599 122.839 91.9599C120.776 91.9599 118.908 91.4767 117.237 90.5104C115.565 89.5441 114.155 88.186 113.006 86.4362C111.883 84.6602 111.112 82.597 110.695 80.2465ZM127.266 80.2465C127.266 78.9668 126.991 77.8176 126.443 76.7991C125.921 75.7805 125.176 74.997 124.21 74.4486C123.27 73.874 122.212 73.5867 121.037 73.5867C119.209 73.5867 117.537 74.2004 116.022 75.4279C114.534 76.6554 113.437 78.2616 112.732 80.2465C113.437 82.2314 114.534 83.8376 116.022 85.0651C117.511 86.2664 119.183 86.8671 121.037 86.8671C122.212 86.8671 123.27 86.5929 124.21 86.0444C125.176 85.4699 125.921 84.6864 126.443 83.6939C126.991 82.6754 127.266 81.5262 127.266 80.2465Z" fill="black"/>
<path d="M157.228 83.2238L158.286 80.2465L157.228 77.3084L158.168 69.0816H164.946L163.653 80.2465L164.946 91.3723H158.168L157.228 83.2238ZM159.892 80.2465C159.474 82.597 158.704 84.6602 157.581 86.4362C156.458 88.186 155.047 89.5441 153.35 90.5104C151.678 91.4767 149.811 91.9599 147.748 91.9599C145.606 91.9599 143.686 91.4767 141.989 90.5104C140.317 89.518 139.012 88.1338 138.071 86.3578C137.157 84.5819 136.7 82.5448 136.7 80.2465C136.7 77.9482 137.157 75.9111 138.071 74.1352C139.012 72.3331 140.317 70.9489 141.989 69.9826C143.686 68.9901 145.606 68.4939 147.748 68.4939C149.811 68.4939 151.691 68.9771 153.389 69.9434C155.086 70.9097 156.497 72.2809 157.62 74.0568C158.743 75.8327 159.5 77.896 159.892 80.2465ZM143.321 80.2465C143.321 81.5262 143.582 82.6754 144.104 83.6939C144.653 84.6864 145.397 85.4699 146.337 86.0444C147.304 86.5929 148.387 86.8671 149.589 86.8671C151.417 86.8671 153.075 86.2664 154.564 85.0651C156.053 83.8376 157.163 82.2314 157.894 80.2465C157.163 78.2616 156.04 76.6554 154.525 75.4279C153.036 74.2004 151.391 73.5867 149.589 73.5867C148.387 73.5867 147.304 73.874 146.337 74.4486C145.397 74.997 144.653 75.7805 144.104 76.7991C143.582 77.8176 143.321 78.9668 143.321 80.2465Z" fill="black"/>
<path d="M174.843 69.0816L176.253 77.5826V91.3723H169.711V76.6032L168.301 69.0816H174.843ZM184.754 68.4939C186.843 68.4939 188.632 68.9248 190.121 69.7867C191.636 70.6224 192.785 71.8238 193.569 73.3908C194.352 74.9578 194.744 76.8252 194.744 78.9929V91.3723H188.202V79.9723C188.202 77.9874 187.718 76.4726 186.752 75.4279C185.786 74.3833 184.375 73.8609 182.521 73.8609C181.268 73.8609 180.158 74.1482 179.191 74.7228C178.251 75.2712 177.52 76.0417 176.997 77.0341C176.501 78.0266 176.253 79.2149 176.253 80.5991L174.098 79.463C174.36 77.1647 174.973 75.1929 175.94 73.5475C176.932 71.9022 178.186 70.6486 179.701 69.7867C181.215 68.9248 182.9 68.4939 184.754 68.4939Z" fill="black"/>
<path d="M218.939 82.9496L220.193 80.2857L218.979 77.0341L220.741 61.2073H227.519L225.364 79.7764L226.657 91.3723H219.88L218.939 82.9496ZM221.486 80.2465C221.068 82.597 220.297 84.6602 219.174 86.4362C218.051 88.186 216.641 89.5441 214.944 90.5104C213.272 91.4767 211.405 91.9599 209.341 91.9599C207.2 91.9599 205.28 91.4767 203.583 90.5104C201.911 89.518 200.605 88.1338 199.665 86.3578C198.751 84.5819 198.294 82.5448 198.294 80.2465C198.294 77.9482 198.751 75.9111 199.665 74.1352C200.605 72.3331 201.911 70.9489 203.583 69.9826C205.28 68.9901 207.2 68.4939 209.341 68.4939C211.405 68.4939 213.285 68.9771 214.983 69.9434C216.68 70.9097 218.091 72.2809 219.214 74.0568C220.337 75.8327 221.094 77.896 221.486 80.2465ZM204.915 80.2465C204.915 81.5262 205.176 82.6754 205.698 83.6939C206.247 84.6864 206.991 85.4699 207.931 86.0444C208.897 86.5929 209.981 86.8671 211.183 86.8671C213.011 86.8671 214.669 86.2664 216.158 85.0651C217.647 83.8376 218.757 82.2314 219.488 80.2465C218.757 78.2616 217.634 76.6554 216.119 75.4279C214.63 74.2004 212.985 73.5867 211.183 73.5867C209.981 73.5867 208.897 73.874 207.931 74.4486C206.991 74.997 206.247 75.7805 205.698 76.7991C205.176 77.8176 204.915 78.9668 204.915 80.2465Z" fill="black"/>
<path d="M250.384 83.2238L251.442 80.2465L250.384 77.3084L251.324 69.0816H258.101L256.809 80.2465L258.101 91.3723H251.324L250.384 83.2238ZM253.048 80.2465C252.63 82.597 251.86 84.6602 250.737 86.4362C249.614 88.186 248.203 89.5441 246.506 90.5104C244.834 91.4767 242.967 91.9599 240.904 91.9599C238.762 91.9599 236.842 91.4767 235.145 90.5104C233.473 89.518 232.167 88.1338 231.227 86.3578C230.313 84.5819 229.856 82.5448 229.856 80.2465C229.856 77.9482 230.313 75.9111 231.227 74.1352C232.167 72.3331 233.473 70.9489 235.145 69.9826C236.842 68.9901 238.762 68.4939 240.904 68.4939C242.967 68.4939 244.847 68.9771 246.545 69.9434C248.242 70.9097 249.653 72.2809 250.776 74.0568C251.899 75.8327 252.656 77.896 253.048 80.2465ZM236.477 80.2465C236.477 81.5262 236.738 82.6754 237.26 83.6939C237.809 84.6864 238.553 85.4699 239.493 86.0444C240.46 86.5929 241.543 86.8671 242.745 86.8671C244.573 86.8671 246.231 86.2664 247.72 85.0651C249.209 83.8376 250.319 82.2314 251.05 80.2465C250.319 78.2616 249.196 76.6554 247.681 75.4279C246.192 74.2004 244.547 73.5867 242.745 73.5867C241.543 73.5867 240.46 73.874 239.493 74.4486C238.553 74.997 237.809 75.7805 237.26 76.7991C236.738 77.8176 236.477 78.9668 236.477 80.2465Z" fill="black"/>
<path d="M282.025 82.9496L283.279 80.2857L282.064 77.0341L283.827 61.2073H290.605L288.45 79.7764L289.743 91.3723H282.966L282.025 82.9496ZM284.572 80.2465C284.154 82.597 283.383 84.6602 282.26 86.4362C281.137 88.186 279.727 89.5441 278.029 90.5104C276.358 91.4767 274.491 91.9599 272.427 91.9599C270.286 91.9599 268.366 91.4767 266.669 90.5104C264.997 89.518 263.691 88.1338 262.751 86.3578C261.837 84.5819 261.38 82.5448 261.38 80.2465C261.38 77.9482 261.837 75.9111 262.751 74.1352C263.691 72.3331 264.997 70.9489 266.669 69.9826C268.366 68.9901 270.286 68.4939 272.427 68.4939C274.491 68.4939 276.371 68.9771 278.069 69.9434C279.766 70.9097 281.177 72.2809 282.3 74.0568C283.423 75.8327 284.18 77.896 284.572 80.2465ZM268.001 80.2465C268.001 81.5262 268.262 82.6754 268.784 83.6939C269.333 84.6864 270.077 85.4699 271.017 86.0444C271.983 86.5929 273.067 86.8671 274.269 86.8671C276.097 86.8671 277.755 86.2664 279.244 85.0651C280.733 83.8376 281.842 82.2314 282.574 80.2465C281.842 78.2616 280.719 76.6554 279.205 75.4279C277.716 74.2004 276.071 73.5867 274.269 73.5867C273.067 73.5867 271.983 73.874 271.017 74.4486C270.077 74.997 269.333 75.7805 268.784 76.7991C268.262 77.8176 268.001 78.9668 268.001 80.2465Z" fill="black"/>
<path d="M313.47 83.2238L314.528 80.2465L313.47 77.3084L314.41 69.0816H321.187L319.895 80.2465L321.187 91.3723H314.41L313.47 83.2238ZM316.134 80.2465C315.716 82.597 314.945 84.6602 313.822 86.4362C312.699 88.186 311.289 89.5441 309.592 90.5104C307.92 91.4767 306.053 91.9599 303.989 91.9599C301.848 91.9599 299.928 91.4767 298.231 90.5104C296.559 89.518 295.253 88.1338 294.313 86.3578C293.399 84.5819 292.942 82.5448 292.942 80.2465C292.942 77.9482 293.399 75.9111 294.313 74.1352C295.253 72.3331 296.559 70.9489 298.231 69.9826C299.928 68.9901 301.848 68.4939 303.989 68.4939C306.053 68.4939 307.933 68.9771 309.631 69.9434C311.328 70.9097 312.739 72.2809 313.862 74.0568C314.985 75.8327 315.742 77.896 316.134 80.2465ZM299.563 80.2465C299.563 81.5262 299.824 82.6754 300.346 83.6939C300.895 84.6864 301.639 85.4699 302.579 86.0444C303.545 86.5929 304.629 86.8671 305.831 86.8671C307.659 86.8671 309.317 86.2664 310.806 85.0651C312.295 83.8376 313.405 82.2314 314.136 80.2465C313.405 78.2616 312.282 76.6554 310.767 75.4279C309.278 74.2004 307.633 73.5867 305.831 73.5867C304.629 73.5867 303.545 73.874 302.579 74.4486C301.639 74.997 300.895 75.7805 300.346 76.7991C299.824 77.8176 299.563 78.9668 299.563 80.2465Z" fill="black"/>
</svg>
