<svg width="360" height="160" viewBox="0 0 360 160" fill="none" xmlns="http://www.w3.org/2000/svg">
<g clip-path="url(#clip0_810_2230)">
<rect width="360" height="160" rx="4" fill="#151616"/>
<rect x="71.2725" y="27" width="13.8102" height="194.83" rx="6.90508" fill="url(#paint0_linear_810_2230)"/>
<rect width="13.7844" height="195.194" rx="6.89222" transform="matrix(0.500933 0.865486 -0.866563 0.499068 159.148 69.8396)" fill="url(#paint1_linear_810_2230)"/>
<rect width="13.7844" height="195.194" rx="6.89222" transform="matrix(0.500933 -0.865486 0.866563 0.499068 -9.99512 82.0409)" fill="url(#paint2_linear_810_2230)"/>
<ellipse cx="159.447" cy="38.2365" rx="11.2644" ry="11.2365" fill="#FAFBFC"/>
<ellipse cx="159.447" cy="38.2365" rx="11.2644" ry="11.2365" fill="url(#paint3_radial_810_2230)"/>
<path d="M141.442 110V100.2H145.138C145.81 100.2 146.421 100.321 146.972 100.564C147.532 100.797 148.017 101.133 148.428 101.572C148.839 102.011 149.156 102.529 149.38 103.126C149.604 103.723 149.716 104.381 149.716 105.1C149.716 105.819 149.604 106.481 149.38 107.088C149.156 107.685 148.839 108.203 148.428 108.642C148.027 109.071 147.546 109.407 146.986 109.65C146.426 109.883 145.81 110 145.138 110H141.442ZM142.534 109.132L142.408 108.936H145.068C145.581 108.936 146.053 108.847 146.482 108.67C146.921 108.483 147.294 108.222 147.602 107.886C147.919 107.541 148.162 107.135 148.33 106.668C148.507 106.201 148.596 105.679 148.596 105.1C148.596 104.521 148.507 103.999 148.33 103.532C148.162 103.065 147.919 102.664 147.602 102.328C147.285 101.983 146.911 101.721 146.482 101.544C146.053 101.357 145.581 101.264 145.068 101.264H142.366L142.534 101.096V109.132ZM151.706 110V102.692H152.756V110H151.706ZM152.224 101.11C151.963 101.11 151.762 101.045 151.622 100.914C151.492 100.774 151.426 100.587 151.426 100.354C151.426 100.121 151.496 99.934 151.636 99.794C151.776 99.654 151.972 99.584 152.224 99.584C152.476 99.584 152.672 99.654 152.812 99.794C152.952 99.9247 153.022 100.111 153.022 100.354C153.022 100.578 152.952 100.76 152.812 100.9C152.672 101.04 152.476 101.11 152.224 101.11ZM157.443 110.14C156.818 110.14 156.258 110.023 155.763 109.79C155.269 109.557 154.877 109.249 154.587 108.866L155.329 108.222C155.6 108.549 155.917 108.796 156.281 108.964C156.655 109.132 157.07 109.216 157.527 109.216C157.761 109.216 157.971 109.193 158.157 109.146C158.344 109.09 158.507 109.011 158.647 108.908C158.787 108.805 158.895 108.684 158.969 108.544C159.044 108.404 159.081 108.25 159.081 108.082C159.081 107.774 158.946 107.517 158.675 107.312C158.554 107.228 158.381 107.144 158.157 107.06C157.933 106.967 157.663 106.878 157.345 106.794C156.823 106.645 156.389 106.495 156.043 106.346C155.698 106.187 155.427 106.005 155.231 105.8C155.091 105.632 154.984 105.45 154.909 105.254C154.844 105.058 154.811 104.843 154.811 104.61C154.811 104.311 154.872 104.036 154.993 103.784C155.124 103.532 155.301 103.313 155.525 103.126C155.759 102.93 156.029 102.785 156.337 102.692C156.655 102.589 156.995 102.538 157.359 102.538C157.705 102.538 158.045 102.585 158.381 102.678C158.717 102.771 159.03 102.907 159.319 103.084C159.609 103.261 159.856 103.471 160.061 103.714L159.417 104.414C159.24 104.227 159.044 104.059 158.829 103.91C158.615 103.761 158.386 103.644 158.143 103.56C157.91 103.476 157.667 103.434 157.415 103.434C157.191 103.434 156.981 103.462 156.785 103.518C156.599 103.574 156.435 103.653 156.295 103.756C156.165 103.849 156.062 103.966 155.987 104.106C155.922 104.246 155.889 104.4 155.889 104.568C155.889 104.708 155.917 104.834 155.973 104.946C156.029 105.058 156.109 105.156 156.211 105.24C156.342 105.343 156.524 105.441 156.757 105.534C157 105.618 157.299 105.707 157.653 105.8C158.064 105.912 158.409 106.029 158.689 106.15C158.979 106.262 159.217 106.397 159.403 106.556C159.655 106.743 159.833 106.957 159.935 107.2C160.047 107.443 160.103 107.718 160.103 108.026C160.103 108.437 159.987 108.801 159.753 109.118C159.529 109.435 159.217 109.687 158.815 109.874C158.414 110.051 157.957 110.14 157.443 110.14ZM164.829 110.14C164.138 110.14 163.522 109.977 162.981 109.65C162.439 109.314 162.01 108.861 161.693 108.292C161.385 107.713 161.231 107.06 161.231 106.332C161.231 105.604 161.385 104.955 161.693 104.386C162.01 103.807 162.439 103.355 162.981 103.028C163.522 102.701 164.143 102.538 164.843 102.538C165.468 102.538 166.037 102.664 166.551 102.916C167.064 103.159 167.475 103.499 167.783 103.938L167.167 104.694C166.989 104.461 166.775 104.255 166.523 104.078C166.28 103.901 166.014 103.765 165.725 103.672C165.445 103.569 165.165 103.518 164.885 103.518C164.39 103.518 163.947 103.644 163.555 103.896C163.163 104.139 162.85 104.47 162.617 104.89C162.393 105.31 162.281 105.791 162.281 106.332C162.281 106.873 162.393 107.359 162.617 107.788C162.85 108.208 163.163 108.539 163.555 108.782C163.947 109.025 164.385 109.146 164.871 109.146C165.151 109.146 165.426 109.104 165.697 109.02C165.967 108.927 166.224 108.796 166.467 108.628C166.709 108.46 166.933 108.25 167.139 107.998L167.755 108.754C167.437 109.174 167.013 109.51 166.481 109.762C165.949 110.014 165.398 110.14 164.829 110.14ZM172.352 110.14C171.624 110.14 170.975 109.977 170.406 109.65C169.846 109.323 169.402 108.871 169.076 108.292C168.758 107.713 168.6 107.055 168.6 106.318C168.6 105.59 168.758 104.941 169.076 104.372C169.402 103.803 169.846 103.355 170.406 103.028C170.975 102.701 171.624 102.538 172.352 102.538C173.07 102.538 173.71 102.701 174.27 103.028C174.839 103.355 175.282 103.803 175.6 104.372C175.926 104.941 176.09 105.59 176.09 106.318C176.09 107.055 175.926 107.713 175.6 108.292C175.282 108.871 174.839 109.323 174.27 109.65C173.71 109.977 173.07 110.14 172.352 110.14ZM172.352 109.146C172.865 109.146 173.322 109.025 173.724 108.782C174.125 108.53 174.438 108.194 174.662 107.774C174.886 107.345 174.998 106.859 174.998 106.318C174.998 105.777 174.886 105.296 174.662 104.876C174.438 104.456 174.125 104.129 173.724 103.896C173.322 103.653 172.865 103.532 172.352 103.532C171.838 103.532 171.376 103.653 170.966 103.896C170.564 104.129 170.247 104.461 170.014 104.89C169.79 105.31 169.682 105.786 169.692 106.318C169.682 106.859 169.79 107.345 170.014 107.774C170.247 108.194 170.564 108.53 170.966 108.782C171.376 109.025 171.838 109.146 172.352 109.146ZM179.685 110L176.605 102.692H177.767L180.203 108.67L179.923 108.824L182.597 102.692H183.717L180.441 110H179.685ZM187.965 110.14C187.237 110.14 186.588 109.981 186.019 109.664C185.459 109.347 185.02 108.903 184.703 108.334C184.385 107.765 184.227 107.111 184.227 106.374C184.227 105.805 184.315 105.291 184.493 104.834C184.67 104.367 184.917 103.961 185.235 103.616C185.561 103.271 185.949 103.005 186.397 102.818C186.845 102.622 187.33 102.524 187.853 102.524C188.347 102.524 188.795 102.613 189.197 102.79C189.607 102.967 189.957 103.215 190.247 103.532C190.545 103.84 190.769 104.209 190.919 104.638C191.068 105.067 191.133 105.539 191.115 106.052L191.101 106.542H185.011L184.857 105.66H190.303L190.051 105.898V105.562C190.032 105.226 189.934 104.904 189.757 104.596C189.579 104.279 189.327 104.022 189.001 103.826C188.683 103.63 188.301 103.532 187.853 103.532C187.33 103.532 186.877 103.639 186.495 103.854C186.112 104.059 185.818 104.367 185.613 104.778C185.407 105.189 185.305 105.697 185.305 106.304C185.305 106.883 185.417 107.387 185.641 107.816C185.865 108.236 186.182 108.563 186.593 108.796C187.013 109.029 187.517 109.146 188.105 109.146C188.45 109.146 188.791 109.09 189.127 108.978C189.472 108.857 189.85 108.623 190.261 108.278L190.807 109.034C190.592 109.249 190.335 109.44 190.037 109.608C189.738 109.767 189.411 109.897 189.057 110C188.702 110.093 188.338 110.14 187.965 110.14ZM192.606 110V102.692H193.656L193.684 104.638L193.572 104.372C193.675 104.045 193.838 103.742 194.062 103.462C194.295 103.182 194.571 102.958 194.888 102.79C195.205 102.622 195.555 102.538 195.938 102.538C196.097 102.538 196.246 102.552 196.386 102.58C196.526 102.599 196.643 102.627 196.736 102.664L196.442 103.84C196.321 103.784 196.195 103.747 196.064 103.728C195.943 103.7 195.826 103.686 195.714 103.686C195.397 103.686 195.112 103.742 194.86 103.854C194.608 103.966 194.393 104.125 194.216 104.33C194.039 104.526 193.903 104.755 193.81 105.016C193.717 105.277 193.67 105.557 193.67 105.856V110H192.606ZM202.76 110V100.774H203.81V110H202.76ZM201.108 103.7V102.692H205.658V103.7H201.108ZM206.948 110V99.64H207.998V104.288L207.788 104.498C207.89 104.115 208.082 103.779 208.362 103.49C208.642 103.191 208.968 102.958 209.342 102.79C209.724 102.622 210.112 102.538 210.504 102.538C211.064 102.538 211.53 102.645 211.904 102.86C212.277 103.075 212.552 103.406 212.73 103.854C212.916 104.302 213.01 104.871 213.01 105.562V110H211.946V105.618C211.946 105.133 211.88 104.736 211.75 104.428C211.628 104.111 211.437 103.877 211.176 103.728C210.914 103.579 210.588 103.509 210.196 103.518C209.888 103.518 209.598 103.574 209.328 103.686C209.057 103.789 208.824 103.933 208.628 104.12C208.432 104.307 208.278 104.521 208.166 104.764C208.054 105.007 207.998 105.268 207.998 105.548V110H207.48C207.414 110 207.34 110 207.256 110C207.172 110 207.069 110 206.948 110ZM218.234 110.14C217.506 110.14 216.858 109.981 216.288 109.664C215.728 109.347 215.29 108.903 214.972 108.334C214.655 107.765 214.496 107.111 214.496 106.374C214.496 105.805 214.585 105.291 214.762 104.834C214.94 104.367 215.187 103.961 215.504 103.616C215.831 103.271 216.218 103.005 216.666 102.818C217.114 102.622 217.6 102.524 218.122 102.524C218.617 102.524 219.065 102.613 219.466 102.79C219.877 102.967 220.227 103.215 220.516 103.532C220.815 103.84 221.039 104.209 221.188 104.638C221.338 105.067 221.403 105.539 221.384 106.052L221.37 106.542H215.28L215.126 105.66H220.572L220.32 105.898V105.562C220.302 105.226 220.204 104.904 220.026 104.596C219.849 104.279 219.597 104.022 219.27 103.826C218.953 103.63 218.57 103.532 218.122 103.532C217.6 103.532 217.147 103.639 216.764 103.854C216.382 104.059 216.088 104.367 215.882 104.778C215.677 105.189 215.574 105.697 215.574 106.304C215.574 106.883 215.686 107.387 215.91 107.816C216.134 108.236 216.452 108.563 216.862 108.796C217.282 109.029 217.786 109.146 218.374 109.146C218.72 109.146 219.06 109.09 219.396 108.978C219.742 108.857 220.12 108.623 220.53 108.278L221.076 109.034C220.862 109.249 220.605 109.44 220.306 109.608C220.008 109.767 219.681 109.897 219.326 110C218.972 110.093 218.608 110.14 218.234 110.14ZM229.389 110.14C228.829 110.14 228.353 110.028 227.961 109.804C227.579 109.571 227.285 109.235 227.079 108.796C226.883 108.357 226.785 107.811 226.785 107.158V102.692H227.849V106.948C227.849 107.443 227.915 107.858 228.045 108.194C228.185 108.521 228.391 108.768 228.661 108.936C228.941 109.104 229.282 109.188 229.683 109.188C229.991 109.188 230.276 109.137 230.537 109.034C230.799 108.922 231.027 108.773 231.223 108.586C231.419 108.399 231.573 108.18 231.685 107.928C231.797 107.676 231.853 107.41 231.853 107.13V102.692H232.903V110H231.867L231.825 108.46L231.993 108.376C231.881 108.703 231.695 109.001 231.433 109.272C231.172 109.533 230.859 109.743 230.495 109.902C230.141 110.061 229.772 110.14 229.389 110.14ZM234.948 110V102.692H235.984L236.026 104.218L235.858 104.288C235.951 103.971 236.133 103.681 236.404 103.42C236.674 103.159 236.996 102.949 237.37 102.79C237.752 102.622 238.144 102.538 238.546 102.538C239.087 102.538 239.54 102.645 239.904 102.86C240.268 103.075 240.543 103.406 240.73 103.854C240.916 104.302 241.01 104.871 241.01 105.562V110H239.946V105.618C239.946 105.133 239.88 104.736 239.75 104.428C239.628 104.111 239.437 103.877 239.176 103.728C238.914 103.579 238.592 103.509 238.21 103.518C237.892 103.518 237.598 103.574 237.328 103.686C237.057 103.789 236.824 103.933 236.628 104.12C236.432 104.307 236.278 104.521 236.166 104.764C236.054 105.007 235.998 105.268 235.998 105.548V110H235.48C235.414 110 235.34 110 235.256 110C235.172 110 235.069 110 234.948 110ZM246.234 110.14C245.506 110.14 244.858 109.981 244.288 109.664C243.728 109.347 243.29 108.903 242.972 108.334C242.655 107.765 242.496 107.111 242.496 106.374C242.496 105.805 242.585 105.291 242.762 104.834C242.94 104.367 243.187 103.961 243.504 103.616C243.831 103.271 244.218 103.005 244.666 102.818C245.114 102.622 245.6 102.524 246.122 102.524C246.617 102.524 247.065 102.613 247.466 102.79C247.877 102.967 248.227 103.215 248.516 103.532C248.815 103.84 249.039 104.209 249.188 104.638C249.338 105.067 249.403 105.539 249.384 106.052L249.37 106.542H243.28L243.126 105.66H248.572L248.32 105.898V105.562C248.302 105.226 248.204 104.904 248.026 104.596C247.849 104.279 247.597 104.022 247.27 103.826C246.953 103.63 246.57 103.532 246.122 103.532C245.6 103.532 245.147 103.639 244.764 103.854C244.382 104.059 244.088 104.367 243.882 104.778C243.677 105.189 243.574 105.697 243.574 106.304C243.574 106.883 243.686 107.387 243.91 107.816C244.134 108.236 244.452 108.563 244.862 108.796C245.282 109.029 245.786 109.146 246.374 109.146C246.72 109.146 247.06 109.09 247.396 108.978C247.742 108.857 248.12 108.623 248.53 108.278L249.076 109.034C248.862 109.249 248.605 109.44 248.306 109.608C248.008 109.767 247.681 109.897 247.326 110C246.972 110.093 246.608 110.14 246.234 110.14ZM255.805 110L253.271 106.738L253.145 106.584L250.107 102.692H251.437L253.928 105.898L254.069 106.08L257.121 110H255.805ZM250.051 110L253.033 106.15L253.663 106.906L251.311 110H250.051ZM254.139 106.416L253.537 105.674L255.665 102.692H256.939L254.139 106.416ZM258.368 113.08V102.692H259.418L259.446 104.47L259.25 104.498C259.334 104.143 259.516 103.821 259.796 103.532C260.076 103.233 260.416 102.995 260.818 102.818C261.219 102.641 261.644 102.552 262.092 102.552C262.745 102.552 263.328 102.715 263.842 103.042C264.364 103.369 264.78 103.817 265.088 104.386C265.396 104.955 265.55 105.609 265.55 106.346C265.55 107.074 265.4 107.723 265.102 108.292C264.803 108.861 264.392 109.314 263.87 109.65C263.347 109.977 262.759 110.14 262.106 110.14C261.648 110.14 261.214 110.047 260.804 109.86C260.393 109.673 260.043 109.431 259.754 109.132C259.464 108.824 259.273 108.493 259.18 108.138H259.432V113.08H258.368ZM261.938 109.132C262.432 109.132 262.871 109.011 263.254 108.768C263.636 108.525 263.94 108.194 264.164 107.774C264.388 107.354 264.5 106.878 264.5 106.346C264.5 105.805 264.388 105.324 264.164 104.904C263.94 104.484 263.636 104.153 263.254 103.91C262.871 103.667 262.432 103.546 261.938 103.546C261.443 103.546 261 103.667 260.608 103.91C260.225 104.143 259.922 104.47 259.698 104.89C259.474 105.31 259.362 105.791 259.362 106.332C259.362 106.873 259.474 107.354 259.698 107.774C259.922 108.194 260.225 108.525 260.608 108.768C261 109.011 261.443 109.132 261.938 109.132ZM270.297 110.14C269.569 110.14 268.92 109.981 268.351 109.664C267.791 109.347 267.352 108.903 267.035 108.334C266.717 107.765 266.559 107.111 266.559 106.374C266.559 105.805 266.647 105.291 266.825 104.834C267.002 104.367 267.249 103.961 267.567 103.616C267.893 103.271 268.281 103.005 268.729 102.818C269.177 102.622 269.662 102.524 270.185 102.524C270.679 102.524 271.127 102.613 271.529 102.79C271.939 102.967 272.289 103.215 272.579 103.532C272.877 103.84 273.101 104.209 273.251 104.638C273.4 105.067 273.465 105.539 273.447 106.052L273.433 106.542H267.343L267.189 105.66H272.635L272.383 105.898V105.562C272.364 105.226 272.266 104.904 272.089 104.596C271.911 104.279 271.659 104.022 271.333 103.826C271.015 103.63 270.633 103.532 270.185 103.532C269.662 103.532 269.209 103.639 268.827 103.854C268.444 104.059 268.15 104.367 267.945 104.778C267.739 105.189 267.637 105.697 267.637 106.304C267.637 106.883 267.749 107.387 267.973 107.816C268.197 108.236 268.514 108.563 268.925 108.796C269.345 109.029 269.849 109.146 270.437 109.146C270.782 109.146 271.123 109.09 271.459 108.978C271.804 108.857 272.182 108.623 272.593 108.278L273.139 109.034C272.924 109.249 272.667 109.44 272.369 109.608C272.07 109.767 271.743 109.897 271.389 110C271.034 110.093 270.67 110.14 270.297 110.14ZM278.018 110.14C277.327 110.14 276.711 109.977 276.17 109.65C275.629 109.314 275.199 108.861 274.882 108.292C274.574 107.713 274.42 107.06 274.42 106.332C274.42 105.604 274.574 104.955 274.882 104.386C275.199 103.807 275.629 103.355 276.17 103.028C276.711 102.701 277.332 102.538 278.032 102.538C278.657 102.538 279.227 102.664 279.74 102.916C280.253 103.159 280.664 103.499 280.972 103.938L280.356 104.694C280.179 104.461 279.964 104.255 279.712 104.078C279.469 103.901 279.203 103.765 278.914 103.672C278.634 103.569 278.354 103.518 278.074 103.518C277.579 103.518 277.136 103.644 276.744 103.896C276.352 104.139 276.039 104.47 275.806 104.89C275.582 105.31 275.47 105.791 275.47 106.332C275.47 106.873 275.582 107.359 275.806 107.788C276.039 108.208 276.352 108.539 276.744 108.782C277.136 109.025 277.575 109.146 278.06 109.146C278.34 109.146 278.615 109.104 278.886 109.02C279.157 108.927 279.413 108.796 279.656 108.628C279.899 108.46 280.123 108.25 280.328 107.998L280.944 108.754C280.627 109.174 280.202 109.51 279.67 109.762C279.138 110.014 278.587 110.14 278.018 110.14ZM283.315 110V100.774H284.365V110H283.315ZM281.663 103.7V102.692H286.213V103.7H281.663ZM290.654 110.14C289.926 110.14 289.277 109.981 288.708 109.664C288.148 109.347 287.709 108.903 287.392 108.334C287.075 107.765 286.916 107.111 286.916 106.374C286.916 105.805 287.005 105.291 287.182 104.834C287.359 104.367 287.607 103.961 287.924 103.616C288.251 103.271 288.638 103.005 289.086 102.818C289.534 102.622 290.019 102.524 290.542 102.524C291.037 102.524 291.485 102.613 291.886 102.79C292.297 102.967 292.647 103.215 292.936 103.532C293.235 103.84 293.459 104.209 293.608 104.638C293.757 105.067 293.823 105.539 293.804 106.052L293.79 106.542H287.7L287.546 105.66H292.992L292.74 105.898V105.562C292.721 105.226 292.623 104.904 292.446 104.596C292.269 104.279 292.017 104.022 291.69 103.826C291.373 103.63 290.99 103.532 290.542 103.532C290.019 103.532 289.567 103.639 289.184 103.854C288.801 104.059 288.507 104.367 288.302 104.778C288.097 105.189 287.994 105.697 287.994 106.304C287.994 106.883 288.106 107.387 288.33 107.816C288.554 108.236 288.871 108.563 289.282 108.796C289.702 109.029 290.206 109.146 290.794 109.146C291.139 109.146 291.48 109.09 291.816 108.978C292.161 108.857 292.539 108.623 292.95 108.278L293.496 109.034C293.281 109.249 293.025 109.44 292.726 109.608C292.427 109.767 292.101 109.897 291.746 110C291.391 110.093 291.027 110.14 290.654 110.14ZM298.263 110.14C297.601 110.14 297.003 109.977 296.471 109.65C295.949 109.323 295.533 108.875 295.225 108.306C294.927 107.727 294.777 107.074 294.777 106.346C294.777 105.609 294.931 104.955 295.239 104.386C295.547 103.807 295.963 103.355 296.485 103.028C297.008 102.701 297.596 102.538 298.249 102.538C298.613 102.538 298.963 102.594 299.299 102.706C299.645 102.818 299.953 102.977 300.223 103.182C300.494 103.378 300.718 103.607 300.895 103.868C301.073 104.12 301.18 104.386 301.217 104.666L300.895 104.554V99.64H301.945V110H300.909L300.881 108.18L301.147 108.082C301.11 108.343 301.003 108.6 300.825 108.852C300.657 109.095 300.443 109.314 300.181 109.51C299.92 109.706 299.621 109.86 299.285 109.972C298.959 110.084 298.618 110.14 298.263 110.14ZM298.417 109.174C298.903 109.174 299.337 109.053 299.719 108.81C300.102 108.567 300.401 108.231 300.615 107.802C300.839 107.373 300.951 106.883 300.951 106.332C300.951 105.781 300.839 105.296 300.615 104.876C300.401 104.447 300.102 104.111 299.719 103.868C299.337 103.616 298.903 103.49 298.417 103.49C297.913 103.49 297.47 103.616 297.087 103.868C296.714 104.111 296.415 104.447 296.191 104.876C295.977 105.296 295.869 105.781 295.869 106.332C295.869 106.873 295.977 107.359 296.191 107.788C296.406 108.217 296.705 108.558 297.087 108.81C297.47 109.053 297.913 109.174 298.417 109.174ZM304.565 110.14C304.313 110.14 304.117 110.065 303.977 109.916C303.846 109.767 303.781 109.552 303.781 109.272C303.781 109.02 303.851 108.815 303.991 108.656C304.14 108.488 304.331 108.404 304.565 108.404C304.817 108.404 305.008 108.483 305.139 108.642C305.279 108.791 305.349 109.001 305.349 109.272C305.349 109.533 305.274 109.743 305.125 109.902C304.985 110.061 304.798 110.14 304.565 110.14Z" fill="#FCFCFC"/>
<path d="M155.012 94.36C153.044 94.36 151.232 94.036 149.576 93.388C147.92 92.74 146.48 91.84 145.256 90.688C144.056 89.512 143.12 88.132 142.448 86.548C141.8 84.94 141.476 83.176 141.476 81.256C141.476 79.36 141.812 77.62 142.484 76.036C143.18 74.428 144.14 73.036 145.364 71.86C146.588 70.684 148.04 69.772 149.72 69.124C151.4 68.476 153.236 68.152 155.228 68.152C156.428 68.152 157.592 68.308 158.72 68.62C159.872 68.908 160.952 69.34 161.96 69.916C162.968 70.492 163.868 71.212 164.66 72.076L160.376 77.044C159.968 76.588 159.512 76.18 159.008 75.82C158.504 75.46 157.928 75.184 157.28 74.992C156.656 74.776 155.96 74.668 155.192 74.668C154.304 74.668 153.464 74.824 152.672 75.136C151.904 75.424 151.232 75.856 150.656 76.432C150.08 77.008 149.624 77.704 149.288 78.52C148.976 79.336 148.82 80.272 148.82 81.328C148.82 82.336 148.976 83.248 149.288 84.064C149.624 84.856 150.092 85.54 150.692 86.116C151.316 86.668 152.048 87.1 152.888 87.412C153.752 87.724 154.712 87.88 155.768 87.88C156.512 87.88 157.208 87.772 157.856 87.556C158.528 87.34 159.14 87.052 159.692 86.692C160.244 86.332 160.736 85.936 161.168 85.504L164.552 90.868C163.952 91.54 163.136 92.14 162.104 92.668C161.096 93.196 159.968 93.616 158.72 93.928C157.496 94.216 156.26 94.36 155.012 94.36ZM167.762 94V67.36H174.314V78.7L172.946 79.132C173.186 78.22 173.654 77.416 174.35 76.72C175.046 76 175.874 75.436 176.834 75.028C177.794 74.62 178.802 74.416 179.858 74.416C181.298 74.416 182.51 74.716 183.494 75.316C184.502 75.892 185.258 76.768 185.762 77.944C186.29 79.096 186.554 80.512 186.554 82.192V94H179.858V82.732C179.858 82.108 179.762 81.592 179.57 81.184C179.378 80.752 179.09 80.428 178.706 80.212C178.322 79.996 177.866 79.9 177.338 79.924C176.93 79.924 176.546 79.984 176.186 80.104C175.85 80.224 175.55 80.416 175.286 80.68C175.022 80.92 174.818 81.196 174.674 81.508C174.554 81.82 174.494 82.168 174.494 82.552V94H171.146C170.33 94 169.634 94 169.058 94C168.506 94 168.074 94 167.762 94ZM198.23 94.324C196.646 94.324 195.218 93.904 193.946 93.064C192.698 92.2 191.702 91.024 190.958 89.536C190.238 88.024 189.878 86.308 189.878 84.388C189.878 82.42 190.238 80.692 190.958 79.204C191.678 77.716 192.674 76.552 193.946 75.712C195.218 74.848 196.682 74.416 198.338 74.416C199.226 74.416 200.042 74.536 200.786 74.776C201.53 75.016 202.178 75.364 202.73 75.82C203.282 76.276 203.762 76.792 204.17 77.368C204.578 77.944 204.914 78.568 205.178 79.24L203.81 79.168V74.812H210.398V94H203.666V89.32L205.142 89.392C204.926 90.088 204.602 90.736 204.17 91.336C203.762 91.936 203.258 92.464 202.658 92.92C202.058 93.352 201.386 93.7 200.642 93.964C199.922 94.204 199.118 94.324 198.23 94.324ZM200.138 88.816C200.906 88.816 201.566 88.648 202.118 88.312C202.67 87.952 203.09 87.436 203.378 86.764C203.69 86.092 203.846 85.3 203.846 84.388C203.846 83.452 203.69 82.648 203.378 81.976C203.09 81.304 202.67 80.8 202.118 80.464C201.566 80.104 200.906 79.924 200.138 79.924C199.37 79.924 198.71 80.104 198.158 80.464C197.63 80.8 197.222 81.304 196.934 81.976C196.646 82.648 196.502 83.452 196.502 84.388C196.502 85.3 196.646 86.092 196.934 86.764C197.222 87.436 197.63 87.952 198.158 88.312C198.71 88.648 199.37 88.816 200.138 88.816ZM215.434 94V74.812H221.698L221.986 78.7L220.618 79.132C220.858 78.22 221.326 77.416 222.022 76.72C222.718 76 223.546 75.436 224.506 75.028C225.466 74.62 226.474 74.416 227.53 74.416C228.97 74.416 230.182 74.716 231.166 75.316C232.174 75.892 232.93 76.768 233.434 77.944C233.962 79.096 234.226 80.512 234.226 82.192V94H227.53V82.732C227.53 82.108 227.434 81.592 227.242 81.184C227.05 80.752 226.762 80.428 226.378 80.212C225.994 79.996 225.538 79.9 225.01 79.924C224.602 79.924 224.218 79.984 223.858 80.104C223.522 80.224 223.222 80.416 222.958 80.68C222.694 80.92 222.49 81.196 222.346 81.508C222.226 81.82 222.166 82.168 222.166 82.552V94H218.818C218.002 94 217.306 94 216.73 94C216.178 94 215.746 94 215.434 94ZM238.954 94V74.812H245.218L245.506 78.7L244.138 79.132C244.378 78.22 244.846 77.416 245.542 76.72C246.238 76 247.066 75.436 248.026 75.028C248.986 74.62 249.994 74.416 251.05 74.416C252.49 74.416 253.702 74.716 254.686 75.316C255.694 75.892 256.45 76.768 256.954 77.944C257.482 79.096 257.746 80.512 257.746 82.192V94H251.05V82.732C251.05 82.108 250.954 81.592 250.762 81.184C250.57 80.752 250.282 80.428 249.898 80.212C249.514 79.996 249.058 79.9 248.53 79.924C248.122 79.924 247.738 79.984 247.378 80.104C247.042 80.224 246.742 80.416 246.478 80.68C246.214 80.92 246.01 81.196 245.866 81.508C245.746 81.82 245.686 82.168 245.686 82.552V94H242.338C241.522 94 240.826 94 240.25 94C239.698 94 239.266 94 238.954 94ZM271.725 94.36C269.541 94.36 267.657 93.94 266.073 93.1C264.489 92.236 263.265 91.06 262.401 89.572C261.537 88.06 261.105 86.344 261.105 84.424C261.105 82.984 261.345 81.652 261.825 80.428C262.305 79.204 262.977 78.148 263.841 77.26C264.705 76.348 265.725 75.652 266.901 75.172C268.101 74.668 269.409 74.416 270.825 74.416C272.217 74.416 273.477 74.656 274.605 75.136C275.757 75.616 276.741 76.3 277.557 77.188C278.397 78.076 279.033 79.12 279.465 80.32C279.921 81.52 280.125 82.84 280.077 84.28L280.041 85.792H264.921L264.093 82.444H274.677L274.029 83.164V82.48C274.029 81.952 273.885 81.496 273.597 81.112C273.333 80.704 272.973 80.392 272.517 80.176C272.061 79.96 271.545 79.852 270.969 79.852C270.153 79.852 269.469 80.02 268.917 80.356C268.389 80.668 267.981 81.124 267.693 81.724C267.405 82.324 267.261 83.044 267.261 83.884C267.261 84.844 267.453 85.672 267.837 86.368C268.245 87.064 268.833 87.604 269.601 87.988C270.393 88.372 271.353 88.564 272.481 88.564C273.225 88.564 273.873 88.468 274.425 88.276C275.001 88.084 275.613 87.748 276.261 87.268L279.357 91.624C278.517 92.296 277.665 92.836 276.801 93.244C275.961 93.628 275.121 93.904 274.281 94.072C273.441 94.264 272.589 94.36 271.725 94.36ZM283.603 94V67.36H290.299V94H283.603ZM317.551 94V73.588L321.907 73.624L312.403 85.216L311.215 83.848H328.387V89.572H308.371L305.491 84.172L318.595 68.512H324.427V94H317.551Z" fill="white"/>
</g>
<defs>
<linearGradient id="paint0_linear_810_2230" x1="78.1775" y1="27" x2="78.1775" y2="221.83" gradientUnits="userSpaceOnUse">
<stop stop-color="#8F00FF"/>
<stop offset="0.239583" stop-color="#E5F344"/>
<stop offset="0.473958" stop-color="#37FF4B"/>
<stop offset="0.71875" stop-color="#4D89FF"/>
<stop offset="1" stop-color="#FB2BFF"/>
</linearGradient>
<linearGradient id="paint1_linear_810_2230" x1="6.89222" y1="0" x2="6.89222" y2="195.194" gradientUnits="userSpaceOnUse">
<stop stop-color="#8F00FF"/>
<stop offset="0.239583" stop-color="#E5F344"/>
<stop offset="0.473958" stop-color="#37FF4B"/>
<stop offset="0.71875" stop-color="#4D89FF"/>
<stop offset="1" stop-color="#FB2BFF"/>
</linearGradient>
<linearGradient id="paint2_linear_810_2230" x1="6.89222" y1="0" x2="6.89222" y2="195.194" gradientUnits="userSpaceOnUse">
<stop stop-color="#8F00FF"/>
<stop offset="0.239583" stop-color="#E5F344"/>
<stop offset="0.473958" stop-color="#37FF4B"/>
<stop offset="0.71875" stop-color="#4D89FF"/>
<stop offset="1" stop-color="#FB2BFF"/>
</linearGradient>
<radialGradient id="paint3_radial_810_2230" cx="0" cy="0" r="1" gradientUnits="userSpaceOnUse" gradientTransform="translate(159.447 38.2365) rotate(90) scale(11.2365 11.2644)">
<stop offset="0.359375" stop-color="#E5F344"/>
<stop offset="1" stop-color="#37FF4B"/>
</radialGradient>
<clipPath id="clip0_810_2230">
<rect width="360" height="160" rx="4" fill="white"/>
</clipPath>
</defs>
</svg>
