<svg width="360" height="160" viewBox="0 0 360 160" fill="none" xmlns="http://www.w3.org/2000/svg">
<rect width="360" height="160" fill="url(#paint0_linear_55_2217)"/>
<path d="M107.477 123.5C131.218 123.5 150.463 104.248 150.463 80.5001C150.463 56.7516 131.218 37.4998 107.477 37.4998C83.7375 37.4998 64.4922 56.7516 64.4922 80.5001C64.4922 104.248 83.7375 123.5 107.477 123.5Z" fill="#0B0B0B"/>
<path fill-rule="evenodd" clip-rule="evenodd" d="M107.566 104.69C121.65 104.69 138.479 95.9184 138.479 80.2348H139.985C139.63 98.1335 125.37 112.665 107.566 112.665C89.8509 112.665 75.5018 98.2218 75.1475 80.7665C75.1994 78.1002 75.5435 75.5065 76.1501 73.0213C75.5628 71.599 75.2387 70.0405 75.2387 68.4063C75.2387 62.2594 79.8231 57.1837 85.7582 56.4137C91.4472 51.0694 99.0378 47.8052 107.566 47.8052C119.347 47.8052 129.71 54.0076 135.645 64.0199H130.773C124.573 58.3491 115.804 55.7797 107.566 55.7797C102.916 55.7797 98.2052 56.5822 93.8844 58.2435C97.2143 60.3974 99.4178 64.1444 99.4178 68.4063C99.4178 75.0857 94.0053 80.5 87.3283 80.5C83.1542 80.5 79.4742 78.384 77.3018 75.1655C76.8654 76.8082 76.6533 78.4981 76.6533 80.2348C76.6533 96.007 93.5713 104.69 107.566 104.69Z" fill="white"/>
<path d="M178.563 113.726C192.183 113.726 201.084 103.751 201.084 88.8047C201.084 73.7646 192.183 63.79 178.563 63.79C164.943 63.79 156.042 73.7646 156.042 88.8047C156.042 103.751 164.943 113.726 178.563 113.726ZM178.595 105.828C169.693 105.828 165.541 98.0557 165.541 88.7733C165.541 79.5228 169.693 71.6562 178.595 71.6562C187.433 71.6562 191.585 79.5228 191.585 88.7733C191.585 98.0557 187.433 105.828 178.595 105.828ZM227.903 113.726C239.321 113.726 246.713 106.866 247.751 97.4578H238.597C237.402 102.681 233.345 105.765 227.966 105.765C220.008 105.765 214.881 99.1256 214.881 88.5846C214.881 78.2328 220.102 71.7195 227.966 71.7195C233.943 71.7195 237.591 75.4952 238.597 80.0263H247.751C246.744 70.2719 238.786 63.79 227.809 63.79C214.189 63.79 205.382 74.0476 205.382 88.8047C205.382 103.373 213.875 113.726 227.903 113.726ZM274.129 113.726C287.749 113.726 296.651 103.751 296.651 88.8047C296.651 73.7646 287.749 63.79 274.129 63.79C260.51 63.79 251.608 73.7646 251.608 88.8047C251.608 103.751 260.51 113.726 274.129 113.726ZM274.161 105.828C265.259 105.828 261.107 98.0557 261.107 88.7733C261.107 79.5228 265.259 71.6562 274.161 71.6562C283 71.6562 287.151 79.5228 287.151 88.7733C287.151 98.0557 283 105.828 274.161 105.828Z" fill="black"/>
<defs>
<linearGradient id="paint0_linear_55_2217" x1="-6.5" y1="160" x2="360" y2="15" gradientUnits="userSpaceOnUse">
<stop stop-color="#ACEB78"/>
<stop offset="1" stop-color="#FFAA97"/>
</linearGradient>
</defs>
</svg>
