<svg width="33" height="26" viewBox="0 0 33 26" fill="none" xmlns="http://www.w3.org/2000/svg">
<path d="M27.4888 2.91418C25.4677 1.98683 23.3004 1.3036 21.0344 0.912286C20.9931 0.904734 20.9519 0.923607 20.9306 0.961355C20.6519 1.4571 20.3432 2.10384 20.127 2.61218C17.6897 2.24729 15.2649 2.24729 12.8777 2.61218C12.6614 2.09254 12.3415 1.4571 12.0615 0.961355C12.0402 0.924867 11.999 0.905993 11.9577 0.912286C9.69294 1.30235 7.52566 1.98558 5.50335 2.91418C5.48584 2.92173 5.47084 2.93432 5.46088 2.95067C1.35 9.09223 0.223856 15.0828 0.776304 20.9992C0.778803 21.0281 0.795052 21.0558 0.81755 21.0734C3.52979 23.0652 6.15706 24.2744 8.73554 25.0759C8.7768 25.0885 8.82053 25.0734 8.84679 25.0394C9.45673 24.2065 10.0004 23.3282 10.4666 22.4046C10.4941 22.3505 10.4679 22.2864 10.4116 22.265C9.54922 21.9378 8.72803 21.539 7.93811 21.086C7.87563 21.0495 7.87063 20.9601 7.92811 20.9174C8.09434 20.7928 8.26061 20.6632 8.41934 20.5323C8.44805 20.5084 8.48807 20.5034 8.52183 20.5185C13.7113 22.8878 19.3295 22.8878 24.4578 20.5185C24.4915 20.5021 24.5316 20.5072 24.5615 20.5311C24.7203 20.6619 24.8865 20.7928 25.054 20.9174C25.1115 20.9601 25.1077 21.0495 25.0452 21.086C24.2553 21.5478 23.4341 21.9378 22.5705 22.2637C22.5142 22.2851 22.4892 22.3505 22.5167 22.4046C22.9929 23.3269 23.5366 24.2052 24.1353 25.0382C24.1603 25.0734 24.2053 25.0885 24.2466 25.0759C26.8376 24.2744 29.4648 23.0652 32.177 21.0734C32.2008 21.0558 32.2158 21.0294 32.2183 21.0004C32.8795 14.1605 31.1109 8.21901 27.53 2.95192C27.5212 2.93432 27.5063 2.92173 27.4888 2.91418ZM11.2416 17.3967C9.67919 17.3967 8.39182 15.9624 8.39182 14.2008C8.39182 12.4392 9.65422 11.0048 11.2416 11.0048C12.8414 11.0048 14.1163 12.4518 14.0913 14.2008C14.0913 15.9624 12.8289 17.3967 11.2416 17.3967ZM21.778 17.3967C20.2157 17.3967 18.9283 15.9624 18.9283 14.2008C18.9283 12.4392 20.1907 11.0048 21.778 11.0048C23.3779 11.0048 24.6528 12.4518 24.6278 14.2008C24.6278 15.9624 23.3779 17.3967 21.778 17.3967Z" fill="#282A2D"/>
</svg>
