<?xml version="1.0" encoding="UTF-8" standalone="no"?>
<!-- Created with Inkscape (http://www.inkscape.org/) -->

<svg
   width="24.354912mm"
   height="39.464851mm"
   viewBox="0 0 24.354912 39.464851"
   version="1.1"
   id="svg1277"
   inkscape:version="1.1.2 (0a00cf5339, 2022-02-04)"
   sodipodi:docname="eth-logo-blue.svg"
   xmlns:inkscape="http://www.inkscape.org/namespaces/inkscape"
   xmlns:sodipodi="http://sodipodi.sourceforge.net/DTD/sodipodi-0.dtd"
   xmlns="http://www.w3.org/2000/svg"
   xmlns:svg="http://www.w3.org/2000/svg">
  <sodipodi:namedview
     id="namedview1279"
     pagecolor="#ffffff"
     bordercolor="#666666"
     borderopacity="1.0"
     inkscape:pageshadow="2"
     inkscape:pageopacity="0.0"
     inkscape:pagecheckerboard="0"
     inkscape:document-units="mm"
     showgrid="false"
     inkscape:zoom="2.1997092"
     inkscape:cx="-78.192154"
     inkscape:cy="147.06489"
     inkscape:window-width="3774"
     inkscape:window-height="2096"
     inkscape:window-x="0"
     inkscape:window-y="0"
     inkscape:window-maximized="1"
     inkscape:current-layer="layer1"
     fit-margin-top="0"
     fit-margin-left="0"
     fit-margin-right="0"
     fit-margin-bottom="0" />
  <defs
     id="defs1274" />
  <g
     inkscape:label="Layer 1"
     inkscape:groupmode="layer"
     id="layer1"
     transform="translate(-92.822544,-128.76757)">
    <g
       id="g1468"
       transform="translate(-0.14096858,-6.5988166)">
      <g
         style="fill:none"
         id="g1411"
         transform="matrix(0.26458333,0,0,0.26458333,92.963513,135.36639)">
        <path
           d="m 0.0990773,74.8785 c -0.003466,0.1949 0.0107467,0.3897 0.0424617,0.5819 0.035385,0.1136 0.120311,0.1988 0.162773,0.3052 0.016884,0.0985 0.040529,0.1957 0.070768,0.291 0.042462,0.0923 0.148616,0.1277 0.198154,0.2129 0.237048,0.3938 0.549776,0.7363 0.920006,1.0078 0.12031,0.0851 0.20524,0.1845 0.32554,0.2555 0.12031,0.071 0.08493,0.0851 0.13447,0.1064 L 44.4151,98.9303 h 0.0991 c 0.4623,0.2285 0.9708,0.3474 1.4862,0.3474 0.5154,0 1.0239,-0.1189 1.4861,-0.3474 h 0.0991 L 90.0475,77.6392 c 0.1038,-0.0719 0.2031,-0.1501 0.2973,-0.2342 0.2212,-0.1388 0.4254,-0.3032 0.6086,-0.4897 0.1565,-0.1604 0.2964,-0.3364 0.4175,-0.5251 0.091,-0.1064 0.1761,-0.2178 0.2548,-0.3336 0.0495,-0.1065 0.0424,-0.2129 0.0849,-0.3123 0.0551,-0.0916 0.1047,-0.1864 0.1486,-0.2839 0.0106,-0.1275 0.0106,-0.2557 0,-0.3832 0.0502,-0.245 0.0693,-0.4954 0.0566,-0.7452 C 91.908,74.1243 91.8819,73.9177 91.838,73.7146 91.7799,73.4692 91.6944,73.2311 91.5832,73.0049 91.5529,72.8913 91.5151,72.7798 91.47,72.6713 L 49.0081,1.70095 C 48.9586,1.62288 48.8666,1.59449 48.817,1.52352 48.5072,1.05506 48.0865,0.670779 47.5926,0.404948 47.0986,0.139118 46.5468,0 45.9862,0 45.4257,0 44.8738,0.139118 44.3799,0.404948 43.886,0.670779 43.4653,1.05506 43.1554,1.52352 43.1059,1.59449 43.0139,1.62288 42.9644,1.70095 L 0.502466,72.6713 C 0.220065,73.175 0.0645848,73.7402 0.0495387,74.3178 0.0495387,74.3817 0,74.4314 0,74.4952 0.0249646,74.625 0.0580556,74.753 0.0990773,74.8785 Z M 42.4619,90.0165 11.4506,74.4669 42.4619,58.9173 Z m 7.077,-31.0992 31.0113,15.5496 -31.0113,15.5496 z m 0,-7.9345 V 16.3066 l 29.6313,49.5303 z m -7.077,0 L 12.8235,65.844 42.4619,16.3066 Z"
           fill="#243f5f"
           id="path1402" />
      </g>
      <g
         style="fill:none"
         id="g1422"
         transform="matrix(0.26458333,0,0,0.26458333,92.976762,157.89791)">
        <path
           d="M 91.1797,1.38995 C 90.6689,0.775196 89.9659,0.351623 89.1848,0.188005 88.4037,0.0243872 87.5904,0.130333 86.8769,0.488631 L 46.0002,20.9849 5.12359,0.488631 C 4.41072,0.130439 3.59811,0.0241912 2.81749,0.187118 2.03687,0.350045 1.33401,0.772597 0.822832,1.38626 0.311658,1.99993 0.0221425,2.76874 0.00121924,3.56807 -0.019704,4.36741 0.229192,5.1504 0.707557,5.79011 L 43.1695,62.5664 c 0.0424,0.0568 0.1132,0.0781 0.1627,0.1348 0.2362,0.2797 0.5158,0.5194 0.828,0.7097 0.1118,0.087 0.2301,0.1653 0.3539,0.2342 C 44.9749,63.8784 45.484,64 46.0002,64 c 0.5163,0 1.0253,-0.1216 1.4862,-0.3549 0.1237,-0.0689 0.242,-0.1472 0.3539,-0.2342 0.3122,-0.1903 0.5918,-0.43 0.828,-0.7097 0.0495,-0.0567 0.1203,-0.078 0.1627,-0.1348 L 91.2929,5.79011 C 91.7707,5.15094 92.0194,4.36882 91.9988,3.5703 91.9783,2.77178 91.6897,2.00356 91.1797,1.38995 Z M 42.4618,27.1451 V 49.7917 L 15.364,13.5968 Z m 7.0769,22.6466 V 27.1451 L 76.6365,13.5968 Z"
           fill="#243f5f"
           id="path1413" />
      </g>
    </g>
  </g>
</svg>
