<svg width="248" height="400" viewBox="0 0 248 400" fill="none" xmlns="http://www.w3.org/2000/svg">
                    <path d="M245.471 231.919C244.096 230.269 242.203 229.132 240.101 228.693C237.998 228.253 235.808 228.538 233.887 229.5L123.841 284.523L13.7936 229.5C11.8744 228.538 9.68673 228.253 7.58517 228.69C5.48361 229.128 3.59137 230.262 2.2152 231.909C0.839037 233.557 0.0596114 235.621 0.00328241 237.767C-0.0530466 239.912 0.617023 242.014 1.90486 243.732L116.22 396.151C116.334 396.304 116.524 396.361 116.658 396.513C117.293 397.264 118.046 397.908 118.887 398.419C119.188 398.652 119.506 398.862 119.839 399.047C121.08 399.674 122.451 400 123.841 400C125.23 400 126.601 399.674 127.842 399.047C128.175 398.862 128.493 398.652 128.794 398.419C129.635 397.908 130.388 397.264 131.023 396.513C131.157 396.361 131.347 396.304 131.461 396.151L245.776 243.732C247.062 242.016 247.732 239.916 247.677 237.773C247.621 235.629 246.844 233.567 245.471 231.919ZM114.314 301.061V361.857L41.3625 264.69L114.314 301.061ZM133.367 361.857V301.061L206.319 264.69L133.367 361.857Z" fill="#fff" />
                    <path d="M0.266733 201.016C0.257402 201.539 0.295665 202.062 0.381049 202.578C0.476311 202.883 0.704945 203.112 0.819259 203.398C0.864715 203.662 0.92837 203.923 1.00978 204.179C1.12409 204.426 1.40988 204.522 1.54325 204.75C2.18142 205.807 3.02334 206.727 4.02007 207.456C4.34396 207.684 4.57259 207.951 4.89648 208.142C5.22037 208.332 5.12511 208.37 5.25848 208.427L119.573 265.585H119.84C121.084 266.198 122.453 266.517 123.841 266.517C125.228 266.517 126.597 266.198 127.842 265.585H128.109L242.423 208.427C242.703 208.234 242.97 208.025 243.224 207.799C243.819 207.426 244.369 206.985 244.862 206.484C245.283 206.053 245.66 205.581 245.986 205.074C246.231 204.789 246.46 204.49 246.672 204.179C246.805 203.893 246.786 203.607 246.901 203.34C247.049 203.095 247.182 202.84 247.301 202.578C247.329 202.236 247.329 201.892 247.301 201.55C247.436 200.892 247.487 200.22 247.453 199.549C247.432 198.991 247.362 198.437 247.244 197.891C247.087 197.233 246.857 196.594 246.558 195.986C246.476 195.681 246.374 195.382 246.253 195.091L131.938 4.5663C131.805 4.35672 131.557 4.28051 131.424 4.08999C130.59 2.83237 129.457 1.80075 128.127 1.08711C126.798 0.373471 125.312 0 123.803 0C122.294 0 120.808 0.373471 119.478 1.08711C118.148 1.80075 117.016 2.83237 116.182 4.08999C116.048 4.28051 115.801 4.35672 115.667 4.5663L1.35273 195.091C0.592452 196.443 0.173873 197.96 0.133367 199.511C0.133367 199.682 0 199.816 0 199.987C0.0672089 200.335 0.156296 200.679 0.266733 201.016ZM114.315 241.655L30.8269 199.911L114.315 158.167V241.655ZM133.367 158.167L216.855 199.911L133.367 241.655V158.167ZM133.367 136.866V43.7762L213.14 176.743L133.367 136.866ZM114.315 136.866L34.523 176.762L114.315 43.7762V136.866Z" fill="#fff" />
                </svg>