<svg width="33" height="32" viewBox="0 0 33 32" fill="none" xmlns="http://www.w3.org/2000/svg">
<path d="M16.5 0C7.66 0 0.5 7.16 0.5 16C0.5 23.08 5.08 29.06 11.44 31.18C12.24 31.32 12.54 30.84 12.54 30.42C12.54 30.04 12.52 28.78 12.52 27.44C8.5 28.18 7.46 26.46 7.14 25.56C6.96 25.1 6.18 23.68 5.5 23.3C4.94 23 4.14 22.26 5.48 22.24C6.74 22.22 7.64 23.4 7.94 23.88C9.38 26.3 11.68 25.62 12.6 25.2C12.74 24.16 13.16 23.46 13.62 23.06C10.06 22.66 6.34 21.28 6.34 15.16C6.34 13.42 6.96 11.98 7.98 10.86C7.82 10.46 7.26 8.82 8.14 6.62C8.14 6.62 9.48 6.2 12.54 8.26C13.82 7.9 15.18 7.72 16.54 7.72C17.9 7.72 19.26 7.9 20.54 8.26C23.6 6.18 24.94 6.62 24.94 6.62C25.82 8.82 25.26 10.46 25.1 10.86C26.12 11.98 26.74 13.4 26.74 15.16C26.74 21.3 23 22.66 19.44 23.06C20.02 23.56 20.52 24.52 20.52 26.02C20.52 28.16 20.5 29.88 20.5 30.42C20.5 30.84 20.8 31.34 21.6 31.18C24.7765 30.108 27.5367 28.0667 29.4921 25.3435C31.4474 22.6204 32.4994 19.3525 32.5 16C32.5 7.16 25.34 0 16.5 0Z" fill="#282A2D"/>
</svg>
