<svg width="300" height="180" viewBox="0 0 300 180" fill="none" xmlns="http://www.w3.org/2000/svg">
<g clip-path="url(#clip0_621_642)">
<ellipse cx="162" cy="159.5" rx="91" ry="6.5" fill="#373A3E"/>
<path d="M155.069 12.2883C177.766 12.5404 191.132 22.8803 193.906 28.9329C195.357 32.0971 196.118 35.1235 198.315 36.7508C200.321 38.2363 203.525 38.5561 209.542 36.7508C222.152 32.968 234.005 22.3759 243.084 30.9504C252.163 39.5249 261.746 58.4393 259.728 62.7266C258.114 66.1564 254.684 66.5094 253.171 66.2572C251.574 69.3676 247.321 77.9085 243.084 87.1891C238.847 96.4698 218.957 129.053 209.542 144.184C188.274 147.547 142.812 153.616 131.111 150.994C116.484 147.715 94.7951 124.261 90.0034 114.174C85.2118 104.086 76.6373 78.8668 73.8632 72.562C71.0891 66.2572 64.7843 62.7266 59.9926 62.7266C55.201 62.7266 44.1046 56.4218 53.94 45.3253C63.7755 34.2289 80.9245 31.4548 95.5516 34.9855C107.253 37.81 112.364 37.3393 113.457 36.7508C115.979 29.2692 127.832 13.9023 155.069 12.2883Z" fill="#ECE5D8"/>
<path d="M253.171 66.2572C254.684 66.5094 258.114 66.1564 259.728 62.7266C261.746 58.4393 252.163 39.5249 243.084 30.9504C234.005 22.3759 222.152 32.968 209.542 36.7508C203.525 38.5561 200.321 38.2363 198.315 36.7508M253.171 66.2572C251.574 69.3676 247.321 77.9085 243.084 87.1891C238.847 96.4698 218.957 129.053 209.542 144.184C188.274 147.547 142.812 153.616 131.111 150.994C116.484 147.715 94.7951 124.261 90.0034 114.174C85.2118 104.086 76.6373 78.8668 73.8632 72.562C71.0891 66.2572 64.7843 62.7266 59.9926 62.7266M253.171 66.2572C252.415 63.2309 250.145 55.7661 247.119 50.117C243.336 43.0556 236.779 41.5425 228.204 41.5425C221.345 41.5425 208.484 46.0819 202.912 48.3516M59.9926 62.7266C55.201 62.7266 44.1046 56.4218 53.94 45.3253C63.7755 34.2289 80.9245 31.4548 95.5516 34.9855C107.253 37.81 112.364 37.3393 113.457 36.7508M59.9926 62.7266C59.9926 60.1206 61.2536 53.5972 66.2974 48.3516C72.6021 41.7947 90.0034 41.5425 96.3082 42.0469C101.352 42.4504 106.355 45.5775 108.226 47.0907M113.457 36.7508C115.979 29.2692 127.832 13.9023 155.069 12.2883C177.766 12.5404 191.132 22.8803 193.906 28.9329C195.357 32.0971 196.118 35.1235 198.315 36.7508M113.457 36.7508C112.193 38.9921 109.923 43.2605 108.226 47.0907M198.315 36.7508C199.456 39.5471 201.26 44.0517 202.912 48.3516M209.542 67.5182C209.038 66.2572 207.726 62.6761 206.516 58.4393C205.925 56.3707 204.487 52.4543 202.912 48.3516M102.361 71.5533C103.201 66.7616 105.185 56.1191 106.396 51.8823C106.779 50.5419 107.441 48.8632 108.226 47.0907" stroke="#413318" stroke-width="2" stroke-linecap="round"/>
<path d="M225.178 63.7353L165.409 88.7023L95.0472 69.2835L96.3082 146.706L165.409 180.5L225.178 146.706V63.7353Z" fill="#243F5F"/>
<path d="M172.722 101.816C167.073 96.3689 165.829 82.5656 165.913 76.3449L141.198 78.1102C140.442 79.8756 141.198 86.6848 142.964 93.9983C144.729 101.312 149.521 111.147 156.582 120.226C163.643 129.305 172.722 128.549 180.54 128.044C188.358 127.54 186.088 126.027 189.367 125.522C192.645 125.018 196.68 122.748 197.689 118.209C198.698 113.669 198.194 110.895 192.645 112.408C187.097 113.921 179.784 108.625 172.722 101.816Z" fill="#ECE5D8"/>
<path d="M165.913 76.3449C165.829 82.5656 167.073 96.3689 172.722 101.816C179.784 108.625 187.097 113.921 192.645 112.408C198.194 110.895 198.698 113.669 197.689 118.209C196.68 122.748 192.645 125.018 189.367 125.522C186.088 126.027 188.358 127.54 180.54 128.044C176.949 128.276 173.092 128.561 169.287 127.921M141.198 78.1102C140.442 79.8756 141.198 86.6848 142.964 93.9983C143.289 95.3483 143.718 96.7843 144.246 98.2856M169.287 127.921C169.287 126.701 169.791 123.656 171.809 121.235C173.826 118.814 176.852 116.359 178.113 115.435M169.287 127.921C165.572 127.297 161.906 125.792 158.585 122.496M158.585 122.496C157.902 121.818 157.233 121.064 156.582 120.226C154.197 117.16 152.071 114.008 150.233 110.895M158.585 122.496C159.462 120.983 161.872 117.553 164.495 115.939C167.118 114.325 169.287 112.913 170.043 112.408M150.233 110.895C151.961 108.962 156.324 104.893 159.956 104.086C163.587 103.279 166.008 103.077 166.765 103.077M150.233 110.895C147.634 106.493 145.61 102.171 144.246 98.2856M144.246 98.2856C145.736 97.1927 149.703 94.9062 153.651 94.5027C157.598 94.0992 162.021 94.8389 163.738 95.2593" stroke="#413318" stroke-width="2" stroke-linecap="round"/>
<path d="M245.614 142.419C245.614 152.986 236.827 161.594 225.935 161.594C220.616 161.594 214.302 157.979 209.252 152.832C204.261 147.747 200.789 141.456 200.708 136.298C203.651 128.787 207.155 125.638 211.135 124.261C213.184 123.552 215.423 123.289 217.901 123.212C219.454 123.163 221.046 123.187 222.726 123.212C223.758 123.228 224.824 123.244 225.935 123.244C236.827 123.244 245.614 131.852 245.614 142.419Z" fill="#ECE5D8" stroke="#413318" stroke-width="2"/>
<path d="M211.763 129.378L210.325 125.424C210.182 125.029 209.804 124.756 209.388 124.816C206.376 125.246 203.565 128.458 200.755 133.845C198.464 138.235 200.809 142.369 202.492 144.155C202.668 144.341 202.915 144.437 203.172 144.437H204.959C205.629 144.437 206.109 143.791 205.917 143.149L205.069 140.322C204.913 139.804 205.197 139.257 205.71 139.086L208.368 138.2C208.897 138.024 209.18 137.449 208.997 136.923L207.634 133.007C207.455 132.492 207.722 131.928 208.233 131.74L211.169 130.658C211.686 130.468 211.951 129.896 211.763 129.378Z" fill="#413318"/>
<path d="M76.7235 143.488C76.7235 154.055 85.511 162.663 96.4032 162.663C101.722 162.663 108.036 159.047 113.086 153.901C118.077 148.816 121.549 142.524 121.63 137.367C118.687 129.855 115.183 126.706 111.203 125.329C109.154 124.62 106.915 124.358 104.437 124.28C102.884 124.232 101.292 124.256 99.6119 124.281C98.5797 124.296 97.514 124.312 96.4032 124.312C85.511 124.312 76.7235 132.921 76.7235 143.488Z" fill="#ECE5D8" stroke="#413318" stroke-width="2"/>
<path d="M110.575 130.447L112.013 126.493C112.156 126.097 112.534 125.825 112.95 125.884C115.962 126.315 118.773 129.527 121.583 134.913C123.873 139.303 121.529 143.437 119.846 145.223C119.67 145.41 119.423 145.505 119.166 145.505H117.379C116.709 145.505 116.229 144.86 116.421 144.218L117.269 141.391C117.424 140.873 117.14 140.326 116.628 140.155L113.97 139.269C113.441 139.092 113.158 138.518 113.341 137.991L114.703 134.075C114.883 133.56 114.616 132.997 114.105 132.808L111.169 131.727C110.652 131.536 110.387 130.964 110.575 130.447Z" fill="#413318"/>
<ellipse cx="133.475" cy="70.7967" rx="4.79164" ry="5.54821" fill="#20190C"/>
<path d="M171.052 72.562C171.556 70.8808 173.574 67.5686 177.609 67.7704C181.644 67.9721 183.493 70.0401 183.914 71.0489" stroke="#20190C" stroke-width="5" stroke-linecap="round"/>
</g>
<defs>
<clipPath id="clip0_621_642">
<rect width="300" height="180" fill="white"/>
</clipPath>
</defs>
</svg>
