<svg width="300" height="180" viewBox="0 0 300 180" fill="none" xmlns="http://www.w3.org/2000/svg">
<ellipse cx="150" cy="163.5" rx="82" ry="10.5" fill="#373A3E"/>
<path d="M192.013 120.952C189.422 113.177 182.628 101.433 179.555 96.5325C162.361 97.0309 127.477 98.4761 125.483 100.27C122.992 102.513 119.752 109.24 116.513 115.719C113.922 120.902 110.37 132.362 108.376 137.595C103.808 139.256 93.0904 143.527 91.097 146.119C88.6053 149.358 89.3528 158.827 93.5888 163.312C96.9776 166.9 105.965 169.126 110.034 169.79C115.018 167.631 125.583 163.312 127.975 163.312C130.965 163.312 150.152 165.554 163.607 163.312C174.372 161.518 183.043 159.574 186.033 158.827C188.027 160.737 193.459 165.056 199.239 167.049C206.466 169.541 209.954 169.292 213.193 168.046C215.785 167.049 217.429 156.003 217.928 150.604L195.003 139.64C195.087 136.65 194.605 128.726 192.013 120.952Z" fill="#ECE5D8"/>
<path d="M108.376 137.595C103.808 139.256 93.0904 143.527 91.097 146.119C88.6053 149.358 89.3528 158.827 93.5888 163.312C96.9776 166.9 105.965 169.126 110.034 169.79C115.018 167.631 125.583 163.312 127.975 163.312C130.965 163.312 150.152 165.554 163.607 163.312C174.372 161.518 183.043 159.574 186.033 158.827C188.027 160.737 193.459 165.056 199.239 167.049C206.466 169.541 209.954 169.292 213.193 168.046C215.785 167.049 217.429 156.003 217.928 150.604L195.003 139.64C195.087 136.65 194.605 128.726 192.013 120.952C189.422 113.177 182.628 101.433 179.555 96.5325C162.361 97.0309 127.477 98.4761 125.483 100.27C122.992 102.513 119.752 109.24 116.513 115.719C113.922 120.902 110.37 132.362 108.376 137.595ZM108.376 137.595C108.654 140.152 108.775 146.216 111.367 148.808C113.958 151.399 120.088 153.874 122.829 154.788" stroke="#413318" stroke-width="2"/>
<path d="M163 124.5C172.2 122.1 179.167 108.833 181.5 102.5L119.5 110C121.667 112.167 127.3 117.3 132.5 120.5C139 124.5 151.5 127.5 163 124.5Z" fill="#243F5F"/>
<path d="M221.167 158.328C225.403 150.853 226.4 134.407 218.177 132.165C205.718 128.925 199.489 146.866 197.744 154.092C196 161.318 199.489 169.043 204.971 170.538C210.452 172.033 216.931 165.803 221.167 158.328Z" fill="#ECE5D8" stroke="#413318" stroke-width="2"/>
<path d="M99.3198 140.387C95.0838 138.145 88.8544 134.656 82.8742 138.643C77.6415 145.122 78.389 151.6 84.6184 160.571C90.8478 169.541 103.307 175.521 107.543 172.531C111.779 169.541 112.277 162.066 111.28 156.584C110.284 151.102 103.556 142.63 99.3198 140.387Z" fill="#ECE5D8" stroke="#413318" stroke-width="2"/>
<path d="M187.528 151.351C187.528 144.972 185.036 133.078 183.791 127.929C177.034 125.869 163.09 123.385 161.365 129.922C161.78 133.66 162.361 142.73 161.365 149.109C160.119 157.082 157.129 168.793 162.611 170.288C168.092 171.784 179.804 169.541 181.548 168.793C183.292 168.046 187.528 159.325 187.528 151.351Z" fill="#ECE5D8"/>
<path d="M183.791 127.929C185.036 133.078 187.528 144.972 187.528 151.351C187.528 159.325 183.292 168.046 181.548 168.793C179.804 169.541 168.092 171.784 162.611 170.289C157.129 168.793 160.119 157.082 161.365 149.109C162.361 142.73 161.78 133.66 161.365 129.922" stroke="#413318" stroke-width="2"/>
<path d="M133.706 16.547C149.155 14.0552 159.87 14.3044 166.348 19.2879C172.827 24.2714 178.807 34.4876 186.781 38.7236C194.754 42.9596 210.452 48.9398 213.692 58.4085C215.117 62.5761 214.291 66.4439 212.657 69.728C210.578 73.9053 207.191 77.1379 205.469 78.841L190.269 92.2965C189.021 94.5247 187.04 97.6137 184.178 100.731C179.037 106.329 171.055 112.018 159.371 112.978C141.181 114.473 127.726 113.227 120.5 110.985C114.719 109.191 110.45 104.755 109.038 102.762C106.795 101.516 100.267 97.9279 92.0937 93.5424C83.9208 89.1569 79.718 86.2332 78.6382 85.3195C75.6481 83.9906 69.9669 79.439 71.1629 71.864C72.658 62.3953 78.3891 53.6742 86.6119 46.1989C93.1901 40.2187 104.303 34.2384 109.038 31.9959C109.287 28.0921 114.569 19.5371 133.706 16.547Z" fill="#ECE5D8"/>
<path d="M109.038 102.762C110.45 104.755 114.719 109.191 120.5 110.985C127.726 113.227 141.181 114.473 159.371 112.978C171.055 112.018 179.037 106.329 184.178 100.731M109.038 102.762C106.795 101.516 100.267 97.9279 92.0937 93.5424C83.9208 89.1569 79.718 86.2332 78.6382 85.3195M109.038 102.762C108.178 96.9478 106.975 82.6284 109.038 71.864C111.616 58.4085 115.689 46.1989 112.363 46.1989C109.038 46.1989 88.7777 57.308 83.708 68.0745C79.6522 76.6877 78.6382 83.16 78.6382 85.3195M78.6382 85.3195C75.6481 83.9906 69.9669 79.439 71.1629 71.864C72.658 62.3953 78.3891 53.6742 86.6119 46.1989C93.1901 40.2187 104.303 34.2384 109.038 31.9959C109.287 28.0921 114.569 19.5371 133.706 16.547C149.155 14.0552 159.87 14.3044 166.348 19.2879C172.827 24.2714 178.807 34.4876 186.781 38.7236C194.754 42.9596 210.452 48.9398 213.692 58.4085C216.931 67.8772 208.545 75.799 205.469 78.841L190.269 92.2965C189.021 94.5247 187.04 97.6138 184.178 100.731M184.178 100.731C185.074 89.714 185.82 65.8257 181.634 58.4085C177.448 50.9914 174.076 44.4858 172.913 42.1602C180.222 45.5171 196.336 53.4665 202.316 58.4085C208.296 63.3505 211.406 67.3927 212.706 69.8187" stroke="#413318" stroke-width="2"/>
<path d="M160.814 93.9888C161.212 90.002 159.485 83.8556 158.571 81.2808L137.391 88.5069C137.308 89.5036 137.192 92.7429 137.391 97.7264C137.64 103.956 143.62 112.179 148.106 115.916C152.591 119.654 158.571 117.411 164.053 114.172C168.438 111.581 170.199 106.78 170.531 104.703C169.618 105.119 167.043 105.949 164.053 105.949C160.315 105.949 160.315 98.9723 160.814 93.9888Z" fill="#ECE5D8"/>
<path d="M158.571 81.2808C159.485 83.8556 161.212 90.002 160.814 93.9888C160.315 98.9723 160.315 105.949 164.053 105.949C167.043 105.949 169.618 105.119 170.531 104.703C170.199 106.78 168.438 111.581 164.053 114.172C158.571 117.411 152.591 119.654 148.106 115.916M148.106 115.916C148.816 114.587 150.886 111.531 153.477 109.936C156.069 108.341 157.953 107.444 158.571 107.195M148.106 115.916C146.369 114.47 144.409 112.351 142.645 109.936M137.391 88.5069C137.308 89.5036 137.192 92.7429 137.391 97.7264C137.544 101.545 139.85 106.112 142.645 109.936M142.645 109.936C143.431 108.773 145.853 106.099 149.241 104.703C152.63 103.308 156.301 103.125 157.713 103.208M139.274 103.208C140.769 101.713 144.457 98.5238 147.248 97.7264C150.039 96.9291 154.391 97.3942 156.218 97.7264" stroke="#413318" stroke-width="2" stroke-linecap="round" stroke-linejoin="round"/>
<path d="M122.493 127.929C124.885 128.726 129.47 135.072 131.464 138.145L122.493 145.371C121.496 142.464 119.354 136.002 118.756 133.411C118.008 130.171 119.503 126.932 122.493 127.929Z" fill="#ECE5D8" stroke="#413318" stroke-width="2"/>
<path d="M128.224 136.151C122.443 139.74 120.666 144.125 120.5 145.869C119.254 155.587 130.218 160.322 135.201 161.069C140.185 161.817 145.168 155.836 146.414 151.351C147.66 146.866 144.421 147.115 141.929 145.122C140.968 144.353 140.563 143.622 140.557 142.827C140.546 141.581 141.516 140.181 142.86 138.239L142.926 138.145C145.168 134.906 144.919 132.912 142.926 131.666C140.932 130.42 135.45 131.666 128.224 136.151Z" fill="#ECE5D8"/>
<path d="M140.557 142.827C140.546 141.561 141.548 140.135 142.926 138.145C145.168 134.906 144.919 132.912 142.926 131.666C140.932 130.42 135.45 131.666 128.224 136.151C122.443 139.74 120.666 144.125 120.5 145.869C119.254 155.587 130.218 160.322 135.201 161.069C140.185 161.817 145.168 155.836 146.414 151.351C147.66 146.866 144.421 147.115 141.929 145.122C140.968 144.353 140.563 143.622 140.557 142.827ZM140.557 142.827L138.278 147.313" stroke="#413318" stroke-width="2"/>
<circle cx="131.301" cy="81.2809" r="3.98682" fill="#20190C"/>
<path d="M163.411 72.5758C161.952 73.4535 158.424 77.1284 156.72 78.8788C158.616 79.5424 167.973 78.0684 168.663 77.6876C169.353 77.3069 168.9 74.8563 167.43 75.1278L164.98 75.5802C165.119 74.9632 167.526 73.4703 167.223 72.6322C166.706 71.2073 165.236 71.4788 163.411 72.5758Z" fill="#20190C"/>
<path d="M183.129 169.738C183.129 170.977 181.456 171.981 179.392 171.981C177.327 171.981 175.654 170.977 175.654 169.738C175.654 168.5 177.327 166.001 179.392 166.001C181.456 166.001 183.129 168.5 183.129 169.738Z" fill="#20190C"/>
<path d="M226.304 141.09C225.411 141.948 223.527 141.436 222.098 139.947C220.668 138.459 220.233 136.556 221.126 135.698C222.02 134.84 224.981 134.317 226.411 135.805C227.841 137.294 227.197 140.232 226.304 141.09Z" fill="#20190C"/>
<path d="M176.152 170.735C176.152 171.974 174.479 172.978 172.415 172.978C170.35 172.978 168.677 171.974 168.677 170.735C168.677 169.496 170.35 166.997 172.415 166.997C174.479 166.997 176.152 169.496 176.152 170.735Z" fill="#20190C"/>
<path d="M222.828 133.923C222.458 135.105 220.562 135.564 218.591 134.949C216.621 134.333 215.323 132.876 215.692 131.694C216.062 130.511 218.404 128.625 220.375 129.24C222.345 129.856 223.197 132.74 222.828 133.923Z" fill="#20190C"/>
<path d="M168.179 170.735C168.179 171.974 166.505 172.978 164.441 172.978C162.377 172.978 160.703 171.974 160.703 170.735C160.703 169.496 162.377 166.997 164.441 166.997C166.505 166.997 168.179 169.496 168.179 170.735Z" fill="#20190C"/>
<path d="M215.522 132.86C215.522 134.099 213.849 135.103 211.784 135.103C209.72 135.103 208.047 134.099 208.047 132.86C208.047 131.622 209.72 129.123 211.784 129.123C213.849 129.123 215.522 131.622 215.522 132.86Z" fill="#20190C"/>
<path d="M78.6795 146.074C79.5728 146.932 81.4561 146.42 82.8858 144.931C84.3156 143.442 84.7504 141.54 83.857 140.682C82.9637 139.824 80.002 139.3 78.5723 140.789C77.1426 142.278 77.7861 145.216 78.6795 146.074Z" fill="#20190C"/>
<path d="M82.1558 138.906C82.5251 140.088 84.4218 140.548 86.3921 139.932C88.3625 139.317 89.6604 137.859 89.2911 136.677C88.9218 135.495 86.5794 133.608 84.609 134.224C82.6387 134.839 81.7865 137.724 82.1558 138.906Z" fill="#20190C"/>
<path d="M89.4614 137.844C89.4614 139.082 91.1348 140.086 93.1991 140.086C95.2633 140.086 96.9367 139.082 96.9367 137.844C96.9367 136.605 95.2633 134.106 93.1991 134.106C91.1348 134.106 89.4614 136.605 89.4614 137.844Z" fill="#20190C"/>
<g clip-path="url(#clip0_621_590)">
<path d="M237.575 28.8085C236.157 25.7459 232.522 24.5062 229.363 25.7302L228.126 26.2085L227.685 24.9579C226.565 21.7641 223.255 19.807 220.006 20.7214C216.282 21.7728 214.256 25.8044 215.51 29.3798L219.833 41.6801C220.112 42.4744 220.977 42.8723 221.762 42.568L233.917 37.8531C237.453 36.4827 239.199 32.3218 237.575 28.8085Z" fill="#ECE5D8"/>
</g>
<defs>
<clipPath id="clip0_621_590">
<rect width="24" height="24" fill="white" transform="translate(219.117 17.0817) rotate(24.7173)"/>
</clipPath>
</defs>
</svg>
