<svg width="300" height="180" viewBox="0 0 300 180" fill="none" xmlns="http://www.w3.org/2000/svg">
<ellipse cx="150" cy="164.5" rx="73" ry="6.5" fill="#373A3E"/>
<path d="M102.934 146.694V167.083C102.934 167.083 135.378 168.5 149.5 168.5C163.622 168.5 195.046 167.083 195.046 167.083C195.605 166.843 196.581 165.5 196.005 162.046C195.43 158.592 194.326 147.653 193.846 142.616C195.925 143.655 201.522 145.638 207.279 145.255C214.476 144.775 220.233 139.497 219.993 121.267C219.753 103.036 209.918 89.8432 206.32 85.7654C203.441 82.5031 195.525 76.4102 191.927 73.7716C192.567 65.5359 193.846 48.1049 193.846 44.2669C193.846 40.4289 193.207 37.3905 192.887 36.351C194.326 35.3915 197.588 32.8008 199.124 30.1142C201.043 26.756 196.485 22.1983 192.887 20.999C190.008 20.0395 184.171 22.838 181.613 24.3572C179.134 23.2378 171.442 20.5192 160.504 18.6002C149.565 16.6812 135.637 17.3209 130.039 17.8806C129.16 17.2409 126.681 15.6737 123.803 14.5223C120.205 13.0831 116.367 14.5223 115.407 20.0394C114.639 24.4532 115.727 29.0748 116.367 30.8338C116.287 33.7923 115.983 40.8127 115.407 45.2264C114.831 49.6401 113.088 58.8993 112.289 62.9772C106.772 68.8141 94.5859 82.9348 89.9803 92.7217C84.2233 104.955 83.5036 113.111 87.5815 122.466C90.8438 129.95 100.775 132.781 105.332 133.261C104.533 134.94 102.934 139.977 102.934 146.694Z" fill="#ECE5D8"/>
<path d="M105.332 133.261C104.533 134.94 102.934 139.977 102.934 146.694C102.934 153.41 102.934 164.445 102.934 167.083C102.934 167.083 135.378 168.5 149.5 168.5C163.622 168.5 195.046 167.083 195.046 167.083C195.605 166.843 196.581 165.5 196.005 162.046C195.43 158.592 194.326 147.653 193.846 142.616M105.332 133.261C100.775 132.781 90.8438 129.95 87.5815 122.466C83.5036 113.111 84.2233 104.955 89.9803 92.7217C94.5859 82.9348 106.772 68.8141 112.289 62.9772C113.088 58.8993 114.831 49.6401 115.407 45.2264C115.983 40.8127 116.287 33.7923 116.367 30.8338C115.727 29.0748 114.639 24.4532 115.407 20.0394C116.367 14.5223 120.205 13.0831 123.803 14.5223C126.681 15.6737 129.16 17.2409 130.039 17.8806M105.332 133.261C108.451 134.14 116.223 134.844 122.363 130.622C130.039 125.345 138.915 116.469 147.79 111.192C156.666 105.915 161.703 104.716 165.541 104.716C169.379 104.716 171.058 104.236 169.379 101.837C167.7 99.4383 165.781 97.5193 169.379 98.7186C172.977 99.918 175.616 104.716 177.055 104.716C178.494 104.716 179.454 97.999 175.376 95.3604C171.298 92.7217 166.74 88.8838 163.622 88.8838C160.504 88.8838 147.55 87.2046 136.996 88.8838C128.552 90.2271 123.723 92.0021 122.363 92.7217M130.039 17.8806C135.637 17.3209 149.565 16.6812 160.504 18.6002C171.442 20.5192 179.134 23.2378 181.613 24.3572C184.171 22.838 190.008 20.0395 192.887 20.999C196.485 22.1983 201.043 26.756 199.124 30.1142C197.588 32.8008 194.326 35.3915 192.887 36.351M130.039 17.8806C131.079 19.08 133.206 21.7666 133.398 22.918M192.887 36.351C193.207 37.3905 193.846 40.4289 193.846 44.2669C193.846 48.1049 192.567 65.5359 191.927 73.7716C195.525 76.4102 203.441 82.5031 206.32 85.7654C209.918 89.8433 219.753 103.036 219.993 121.267C220.233 139.497 214.476 144.775 207.279 145.255C201.522 145.638 195.925 143.655 193.846 142.616M192.887 36.351C192.887 35.3915 192.455 33.0407 190.728 31.3136C189.001 29.5865 187.45 28.3552 186.89 27.9554M193.846 142.616C188.969 139.577 180.125 131.342 183.772 122.706C188.329 111.912 197.444 113.111 200.803 115.03C203.489 116.565 207.199 123.506 208.719 126.784" stroke="#413318" stroke-width="2" stroke-linecap="round" stroke-linejoin="round"/>
<ellipse cx="152.645" cy="56.2181" rx="3.35826" ry="3.83801" fill="#20190C"/>
<ellipse cx="177.592" cy="57.6573" rx="2.87851" ry="3.83801" fill="#20190C"/>
<path d="M166.063 61.3772C171.326 61.4154 175.551 64.306 175.538 66.1607C175.524 68.0154 171.247 69.4879 165.983 69.4497C160.72 69.4116 156.464 67.8771 156.478 66.0224C156.491 64.1678 160.8 61.339 166.063 61.3772Z" fill="#20190C"/>
<path d="M162 73.4892C162.72 72.9294 164.687 71.7141 166.798 71.3303C168.908 70.9465 171.675 72.6096 172.794 73.4892" stroke="#20190C" stroke-width="2" stroke-linecap="round"/>
<path d="M200.62 101.555L182.869 97.2368L164.399 141.614L183.589 143.293L186.947 136.576C185.988 135.297 183.877 131.971 183.109 128.9C182.15 125.062 184.308 120.505 187.427 116.667C189.922 113.596 193.744 113.309 195.343 113.548L200.62 101.555Z" fill="#243F5F" stroke="#20190C" stroke-width="2" stroke-linecap="round"/>
</svg>
