<svg width="300" height="180" viewBox="0 0 300 180" fill="none" xmlns="http://www.w3.org/2000/svg">
<g clip-path="url(#clip0_627_1120)">
<path d="M150.313 110.953L154.683 72.7302L128.856 78.0673M43.199 138.386L48.1894 94.7362L72.6708 89.6774M72.6708 89.6774L67.9265 131.174M72.6708 89.6774L103.028 83.4044M103.028 83.4044L98.4247 123.665M103.028 83.4044L128.856 78.0673M128.856 78.0673L124.288 118.017" stroke="#20190C" stroke-width="5" stroke-linecap="round" stroke-linejoin="round"/>
<path d="M159.803 179.5L271.895 135.803L180.227 105.168L28 140.315H75.7341L62.6725 156.227L107.794 151.24L94.9702 166.676L139.142 160.739L129.168 175.938L165.265 170.476L159.803 179.5Z" fill="#243F5F"/>
<path d="M129.643 121.317C127.553 117.517 130.514 101.051 132.255 93.2936L162.89 105.405L160.516 131.291C151.095 129.549 131.733 125.116 129.643 121.317Z" fill="#ECE5D8" stroke="#413318" stroke-width="2"/>
<path d="M90.3432 48.3175C92.8099 52.7275 106.77 77.7876 113.441 89.7664C116.252 90.4511 120.461 86.1851 122.214 83.9664C117.959 70.6886 108.47 43.8219 107.439 41.0993C105.91 37.0648 100.717 31.0113 94.6994 33.7853C88.6817 36.5592 87.2599 42.8051 90.3432 48.3175Z" fill="#413318"/>
<path d="M108.373 36.9245L106.09 42.0615C105.795 42.7256 104.913 42.8631 104.429 42.3202L101.173 38.6617C100.678 38.1054 100.943 37.2227 101.663 37.0307L107.201 35.5523C108.013 35.3355 108.714 36.1565 108.373 36.9245Z" fill="#DACCB1"/>
<path d="M115.396 51.4917L111.484 55.529C110.979 56.051 110.103 55.8762 109.836 55.2002L108.038 50.6444C107.765 49.9518 108.317 49.2142 109.059 49.2815L114.768 49.8C115.605 49.876 115.98 50.8881 115.396 51.4917Z" fill="#DACCB1"/>
<path d="M118.518 64.0128L113.777 67.0329C113.164 67.4234 112.352 67.0503 112.25 66.3308L111.558 61.4824C111.452 60.7453 112.161 60.1559 112.867 60.3933L118.3 62.2216C119.096 62.4896 119.227 63.5612 118.518 64.0128Z" fill="#DACCB1"/>
<path d="M85.2876 43.4207L90.3233 45.9188C90.9743 46.2417 91.7416 45.7843 91.767 45.058L91.9388 40.1635C91.965 39.4193 91.1978 38.9087 90.5214 39.22L85.3139 41.6164C84.5504 41.9678 84.5347 43.0472 85.2876 43.4207Z" fill="#DACCB1"/>
<path d="M90.9205 55.5929L96.5077 56.2112C97.23 56.2911 97.7937 55.5982 97.5684 54.9072L96.05 50.251C95.8192 49.5431 94.9234 49.3267 94.3949 49.8512L90.3261 53.8892C89.7295 54.4813 90.0852 55.5005 90.9205 55.5929Z" fill="#DACCB1"/>
<path d="M97.5125 68.8941L103.094 68.2249C103.815 68.1384 104.207 67.3354 103.83 66.7138L101.292 62.5251C100.906 61.8883 99.9846 61.8815 99.5893 62.5125L96.546 67.3704C96.0998 68.0826 96.678 68.9942 97.5125 68.8941Z" fill="#DACCB1"/>
<ellipse cx="162.663" cy="145.175" rx="51.2963" ry="9.02436" transform="rotate(-7.11542 162.663 145.175)" fill="#373A3E"/>
<path d="M117.719 90.6813C117.719 93.0123 116.509 95.1892 114.638 96.8107C112.765 98.4348 110.32 99.4181 108.032 99.4181C103.515 99.4181 99.77 95.5542 99.77 90.6813C99.77 88.092 100.257 85.0979 101.322 82.7904C102.393 80.4688 103.908 79.0947 105.894 79.0947C106.954 79.0947 108.231 79.4737 109.59 80.1899C110.938 80.9003 112.306 81.9108 113.531 83.0914C116.03 85.5008 117.719 88.4015 117.719 90.6813Z" fill="#ECE5D8" stroke="#413318" stroke-width="2"/>
<path d="M155.03 16.3567C175.216 15.8818 185.665 37.7302 189.94 48.6544C194.215 59.5786 197.302 87.1267 196.827 95.6761C196.447 102.516 194.927 106.6 194.215 107.788C197.856 112.458 205.662 123.129 207.751 128.449C210.364 135.098 205.377 139.373 202.527 140.085C200.247 140.655 188.278 137.315 182.578 135.573C178.145 137.631 167.664 142.27 161.205 144.36C153.13 146.972 137.694 150.297 133.894 150.297C130.094 150.297 122.732 139.61 122.97 133.198C123.207 126.786 125.345 121.799 130.807 119.899C136.269 117.999 148.618 114.675 153.13 113.012C153.179 112.991 153.228 112.97 153.278 112.949C150.455 113.825 138.416 117.068 129.382 113.012C120.073 108.833 113.629 103.83 111.571 101.851C108.721 98.1301 104.731 88.9791 111.571 82.1395C118.41 75.3 125.028 76.7566 127.482 78.3398C124.236 75.8858 119.978 70.4079 117.508 61.4785C114.421 50.3168 122.543 36.5594 125.345 30.1308C129.382 20.8689 147.114 17.1484 155.03 16.3567Z" fill="#ECE5D8"/>
<path d="M194.215 107.788C194.927 106.6 196.447 102.516 196.827 95.6761C197.302 87.1267 194.215 59.5786 189.94 48.6544C185.665 37.7302 175.216 15.8818 155.03 16.3567C147.114 17.1484 129.382 20.8689 125.345 30.1308C122.543 36.5594 114.421 50.3168 117.508 61.4785C119.978 70.4079 124.236 75.8858 127.482 78.3398M194.215 107.788C197.856 112.458 205.662 123.129 207.751 128.449C210.364 135.098 205.377 139.373 202.527 140.085C200.247 140.655 188.278 137.315 182.578 135.573C178.145 137.631 167.664 142.27 161.205 144.36C153.13 146.972 137.694 150.297 133.894 150.297C130.094 150.297 122.732 139.61 122.97 133.198C123.207 126.786 125.345 121.799 130.807 119.899C136.269 117.999 148.618 114.675 153.13 113.012M194.215 107.788C192.481 113.092 188.634 124.649 187.114 128.449M153.13 113.012C157.642 111.35 141.019 118.237 129.382 113.012C120.073 108.833 113.629 103.83 111.571 101.851C108.721 98.1301 104.731 88.9791 111.571 82.1395C118.41 75.3 125.028 76.7566 127.482 78.3398M153.13 113.012C157.175 111.271 165.788 107.788 167.878 107.788M127.482 78.3398C131.931 78.5007 142.248 79.4858 147.929 82.1395C153.61 84.7933 157.104 86.7233 158.141 87.3566" stroke="#413318" stroke-width="2" stroke-linecap="round"/>
<path d="M158.937 58.1461C157.987 52.684 154.424 39.1475 143.738 37.7226C129.964 37.7226 124.976 49.3593 123.789 56.0088C122.602 62.6583 123.666 74.2753 129.405 77.1448C133.68 79.2821 149.354 79.9946 153.154 79.2821C157.309 78.5029 159.886 63.6083 158.937 58.1461Z" fill="#20190C"/>
<ellipse cx="156.241" cy="37.7226" rx="1.89986" ry="2.37483" fill="#20190C"/>
<ellipse cx="127.268" cy="38.1976" rx="1.89986" ry="2.37483" fill="#20190C"/>
<path d="M149.354 49.8342L153.866 46.272C151.016 41.9973 145.554 38.4351 139.38 39.1475C134.44 39.7175 130.672 44.1346 129.405 46.272L132.968 50.5467L137.717 43.6597L142.229 50.5467L146.742 44.6096L149.354 49.8342Z" fill="#ECE5D8"/>
<path d="M139.617 77.8572C144.557 78.4272 151.175 78.0947 153.866 77.8572C154.816 74.6275 153.47 70.8119 152.679 69.3078L150.779 74.5325L148.166 70.7327L144.367 74.5325L142.229 69.3078L136.767 74.5325L132.968 69.3078L131.543 73.5825L127.268 70.7327L128.455 75.2449C130.118 75.8782 134.677 77.2873 139.617 77.8572Z" fill="#ECE5D8"/>
<path d="M167.658 6.90486C168.017 6.61834 168.551 6.83607 168.608 7.29185L170.336 21.2838C170.391 21.729 169.946 22.0689 169.531 21.8996L156.785 16.7037C156.37 16.5344 156.29 15.9807 156.641 15.7009L167.658 6.90486Z" fill="#20190C"/>
<path d="M195.804 36.1881C196.262 36.1666 196.567 36.6562 196.346 37.0583L189.538 49.4043C189.322 49.7971 188.763 49.8119 188.525 49.4311L181.25 37.7472C181.013 37.3665 181.273 36.8712 181.721 36.8502L195.804 36.1881Z" fill="#20190C"/>
<path d="M204.862 71.3924C205.302 71.5253 205.425 72.0887 205.082 72.3936L194.541 81.7552C194.205 82.053 193.673 81.8801 193.577 81.442L190.624 67.9986C190.528 67.5605 190.938 67.1806 191.368 67.3105L204.862 71.3924Z" fill="#20190C"/>
<path d="M265.483 138.415V99.9432L240.429 108.179M162.178 177.838V133.903L185.926 126.096M185.926 126.096V167.863M185.926 126.096L215.374 116.416M215.374 116.416V156.939M215.374 116.416L240.429 108.179M240.429 108.179V148.39" stroke="#20190C" stroke-width="5" stroke-linecap="round" stroke-linejoin="round"/>
</g>
<defs>
<clipPath id="clip0_627_1120">
<rect width="300" height="180" fill="white"/>
</clipPath>
</defs>
</svg>
