<svg width="300" height="180" viewBox="0 0 300 180" fill="none" xmlns="http://www.w3.org/2000/svg">
<ellipse cx="151.5" cy="168.443" rx="78.5" ry="7" fill="#373A3E"/>
<ellipse cx="114.111" cy="48.358" rx="6.43874" ry="10.4451" transform="rotate(-12.7722 114.111 48.358)" fill="#20190C"/>
<ellipse cx="83.1558" cy="53.6315" rx="6.43874" ry="10.4451" transform="rotate(-16.0347 83.1558 53.6315)" fill="#20190C"/>
<rect x="81.6479" y="50.9521" width="30.5854" height="6.86799" transform="rotate(-7.35856 81.6479 50.9521)" fill="#20190C"/>
<path d="M168.618 12.9213C164.268 12.349 154.119 13.9229 149.588 14.7814C147.919 11.9197 143.121 6.94042 137.283 9.91655C131.445 12.8927 130.749 19.837 131.13 22.9371C129.938 24.7972 127.153 29.5762 125.55 33.8114C123.547 39.1055 120.542 52.8415 120.542 59.1372C120.542 65.4328 120.542 66.8636 116.679 65.5759C112.816 64.2881 110.24 54.2723 107.665 48.6921C105.089 43.1118 98.7935 37.8178 95.3595 48.6921C91.9255 59.5664 97.6488 74.304 103.515 82.8889C108.208 89.7569 116.822 94.431 120.542 95.9095C119.779 96.9588 118.253 100.431 118.253 105.925V118.087C114.723 123.429 107.665 135.458 107.665 140.838C107.665 146.218 114.723 156.052 118.253 160.297C117.204 160.774 114.79 161.728 113.531 161.728C111.957 161.728 107.522 165.734 115.105 167.022C122.688 168.31 143.292 166.736 144.58 165.734C145.841 164.754 143.81 162.95 142.516 161.801L142.434 161.728C141.146 160.583 139.286 154.86 139.143 151.998C139 149.136 142.72 140.838 149.588 139.407C156.456 137.976 168.618 140.838 169.906 143.985C170.936 146.504 173.483 155.909 174.628 160.297C173.96 161.155 172.453 163.445 171.766 165.734C170.907 168.596 179.492 168.31 187.219 168.739C194.945 169.168 201.384 168.023 201.384 165.734C201.384 163.903 196.805 161.346 194.516 160.297C196.185 156.338 199.152 146.904 197.664 140.838C196.176 134.771 190.081 127.912 187.219 125.242C188.411 122.618 190.796 116.285 190.796 111.935C190.796 106.498 192.084 101.776 194.516 102.348C196.949 102.921 201.813 98.1988 201.384 95.9095C201.041 94.078 191.798 70.6315 187.219 59.1372C187.839 57.6586 189.422 53.4997 190.796 48.6921C192.17 43.8845 192.99 35.5284 193.228 31.9514C194.564 29.9959 196.433 24.9117 193.228 20.2185C190.023 15.5254 183.976 17.023 181.352 18.3585C178.92 16.7845 172.968 13.4936 168.618 12.9213Z" fill="#ECE5D8"/>
<path d="M149.588 14.7814C154.119 13.9229 164.268 12.349 168.618 12.9213C172.968 13.4936 178.92 16.7845 181.352 18.3585C183.976 17.023 190.023 15.5254 193.228 20.2185C196.433 24.9117 194.564 29.9959 193.228 31.9514C192.99 35.5284 192.17 43.8845 190.796 48.6921C189.422 53.4997 187.839 57.6586 187.219 59.1372C191.798 70.6315 201.041 94.0781 201.384 95.9095C201.813 98.1988 196.949 102.921 194.516 102.348C192.084 101.776 190.796 106.498 190.796 111.935C190.796 116.285 188.411 122.618 187.219 125.242C190.081 127.912 196.176 134.771 197.664 140.838C199.152 146.904 196.185 156.338 194.516 160.297C196.805 161.346 201.384 163.903 201.384 165.734C201.384 168.023 194.945 169.168 187.219 168.739C179.492 168.31 170.907 168.596 171.766 165.734C172.453 163.445 173.96 161.155 174.628 160.297C173.483 155.909 170.936 146.504 169.906 143.985C168.618 140.838 156.456 137.976 149.588 139.407C142.72 140.838 139 149.136 139.143 151.998C139.286 154.86 141.146 160.583 142.434 161.728C143.722 162.872 145.868 164.733 144.58 165.734C143.292 166.736 122.688 168.31 115.105 167.022C107.522 165.734 111.957 161.728 113.531 161.728C114.79 161.728 117.204 160.774 118.253 160.297C114.723 156.052 107.665 146.218 107.665 140.838C107.665 135.458 114.723 123.429 118.253 118.087M149.588 14.7814C147.919 11.9197 143.121 6.94042 137.283 9.91655C131.445 12.8927 130.749 19.837 131.13 22.9371C129.938 24.7972 127.153 29.5762 125.55 33.8114C123.547 39.1055 120.542 52.8415 120.542 59.1372C120.542 65.4328 120.542 66.8636 116.679 65.5759C112.816 64.2881 110.24 54.2723 107.665 48.6921C105.089 43.1118 98.7935 37.8178 95.3595 48.6921C91.9255 59.5664 97.6488 74.304 103.515 82.8889C108.208 89.7569 116.822 94.431 120.542 95.9095M149.588 14.7814L151.305 18.3585M118.253 118.087C118.253 116.323 118.253 111.42 118.253 105.925C118.253 100.431 119.779 96.9588 120.542 95.9095M118.253 118.087C118.73 119.947 120.141 124.154 121.973 126.1M120.542 95.9095C120.685 95.528 121.172 94.6218 121.973 94.0494" stroke="#413318" stroke-width="2" stroke-linecap="round"/>
<ellipse cx="208.032" cy="84.6237" rx="6.43874" ry="10.4451" transform="rotate(-11.546 208.032 84.6237)" fill="#20190C"/>
<ellipse cx="176.84" cy="96.3565" rx="6.43874" ry="10.4451" transform="rotate(-11.546 176.84 96.3565)" fill="#20190C"/>
<rect x="178.672" y="92.1791" width="29.9653" height="6.86799" transform="rotate(-20.262 178.672 92.1791)" fill="#20190C"/>
<path d="M202.94 95.2968C202.94 95.9441 202.65 96.7457 202.031 97.6334C201.421 98.5093 200.542 99.394 199.502 100.187C197.395 101.792 194.814 102.882 192.779 102.882C188.445 102.882 185.338 100.118 185.338 97.1568C185.338 96.4674 185.614 95.5692 186.184 94.5624C186.746 93.57 187.553 92.5441 188.508 91.6169C190.458 89.7251 192.831 88.4272 194.783 88.4272C196.826 88.4272 198.888 89.3451 200.449 90.7196C202.025 92.1084 202.94 93.8242 202.94 95.2968Z" fill="#ECE5D8" stroke="#413318" stroke-width="2"/>
<path d="M143.831 73.2443C132.384 71.1839 123.656 63.1808 120.508 59.2222V63.0854C125.513 71.2253 134.842 83.0499 135.675 85.5495C136.705 88.6401 136.104 97.6162 135.675 101.718C136.104 101.289 137.278 100.173 138.537 99.1424C140.111 97.8546 149.268 90.2712 156.708 85.5495C162.661 81.7721 180.889 69.9057 189.188 64.8024L186.899 59.2222C184.371 62.0838 179.001 68.1506 174.308 71.2412C168.441 75.1044 158.139 75.8198 143.831 73.2443Z" fill="#243F5F"/>
<ellipse cx="154.705" cy="43.0538" rx="2.28933" ry="2.86166" fill="#20190C"/>
<ellipse cx="176.74" cy="44.1985" rx="2.28933" ry="2.86166" fill="#20190C"/>
<path d="M166.152 46.5727C169.241 46.9133 171.146 49.2542 171.007 50.511C170.869 51.7677 168.252 52.5104 165.163 52.1697C162.074 51.8291 159.682 50.5342 159.821 49.2775C159.96 48.0207 163.063 46.232 166.152 46.5727Z" fill="#20190C"/>
<path d="M166.009 51.2095C165.913 52.3542 165.637 54.8438 165.293 55.6451M165.293 55.6451C164.864 56.6467 161.573 58.6498 159.856 58.3637M165.293 55.6451C165.818 56.6467 167.268 58.6785 168.87 58.7929C170.473 58.9074 171.303 57.696 171.589 57.5052" stroke="#20190C" stroke-width="3" stroke-linecap="round"/>
</svg>
