<svg width="300" height="180" viewBox="0 0 300 180" fill="none" xmlns="http://www.w3.org/2000/svg">
<ellipse cx="133" cy="173.5" rx="73" ry="6.5" fill="#373A3E"/>
<path d="M236.525 1.61177C237.318 0.7456 238.682 0.7456 239.475 1.61177L243.71 6.23772C244.184 6.75618 244.896 6.98748 245.585 6.84697L251.729 5.59333C252.88 5.3586 253.984 6.16089 254.116 7.32765L254.823 13.5589C254.902 14.2573 255.342 14.8629 255.982 15.154L261.69 17.7515C262.759 18.2379 263.18 19.536 262.602 20.5577L259.51 26.0142C259.164 26.6257 259.164 27.3743 259.51 27.9858L262.602 33.4423C263.18 34.464 262.759 35.7621 261.69 36.2485L255.982 38.846C255.342 39.1371 254.902 39.7427 254.823 40.4411L254.116 46.6724C253.984 47.8391 252.88 48.6414 251.729 48.4067L245.585 47.153C244.896 47.0125 244.184 47.2438 243.71 47.7623L239.475 52.3882C238.682 53.2544 237.318 53.2544 236.525 52.3882L232.29 47.7623C231.816 47.2438 231.104 47.0125 230.415 47.153L224.271 48.4067C223.12 48.6414 222.016 47.8391 221.884 46.6724L221.177 40.4411C221.098 39.7427 220.658 39.1371 220.018 38.846L214.31 36.2485C213.241 35.7621 212.82 34.464 213.398 33.4423L216.49 27.9858C216.836 27.3743 216.836 26.6257 216.49 26.0142L213.398 20.5577C212.82 19.536 213.241 18.2379 214.31 17.7515L220.018 15.154C220.658 14.8629 221.098 14.2573 221.177 13.5589L221.884 7.32764C222.016 6.16089 223.12 5.3586 224.271 5.59333L230.415 6.84697C231.104 6.98748 231.816 6.75618 232.29 6.23772L236.525 1.61177Z" fill="#ECE5D8"/>
<path d="M234.151 35.5976L226.351 27.7976C225.883 27.329 225.883 26.5692 226.351 26.1006L228.048 24.4035C228.517 23.9349 229.277 23.9349 229.746 24.4035L235 29.6579L246.254 18.4035C246.723 17.9349 247.483 17.9349 247.952 18.4035L249.649 20.1006C250.117 20.5692 250.117 21.329 249.649 21.7976L235.849 35.5977C235.38 36.0663 234.62 36.0663 234.151 35.5976Z" fill="#243F5F"/>
<path d="M184.137 61.8863C180.458 64.8761 169.955 72.3314 165.164 75.6854L128.941 73.3855C118.304 77.7936 95.1908 87.7021 87.8313 92.0718L87.6358 92.1878C78.5141 97.6034 70.2929 102.484 70.0075 111.333C69.72 120.245 77.7695 122.257 82.0817 119.957C85.5315 118.118 94.2517 114.783 98.1806 113.345C97.7973 114.783 97.0307 118.75 97.0307 123.12C97.0307 127.489 101.247 135.481 103.355 138.931C102.685 138.452 100.71 137.091 98.1806 135.481C95.0184 133.469 86.6814 131.457 83.2316 135.481C79.7818 139.506 81.5067 148.131 86.6814 153.018C91.856 157.905 110.83 163.942 119.742 166.242C128.654 168.542 135.833 162.792 141.295 158.192C146.757 153.593 151.077 149.856 156.252 151.293C161.426 152.73 168.901 158.767 178.963 158.192C189.025 157.618 188.45 148.131 185.575 141.806C183.275 136.746 174.459 131.073 170.338 128.869C171.009 127.719 172.523 124.327 173.213 119.957C173.903 115.588 172.926 108.362 172.351 105.296C177.046 101.559 187.587 92.8193 192.187 87.7596C197.937 81.435 199.087 75.6854 198.224 67.3484C197.362 59.0115 188.737 58.149 184.137 61.8863Z" fill="#ECE5D8"/>
<path d="M172.351 105.296C177.046 101.559 187.587 92.8193 192.187 87.7596C197.937 81.435 199.087 75.6854 198.224 67.3484C197.362 59.0115 188.737 58.149 184.137 61.8863C180.458 64.8761 169.955 72.3314 165.164 75.6854L128.941 73.3855C118.304 77.7936 95.1908 87.7021 87.8313 92.0718C78.6318 97.534 70.295 102.421 70.0075 111.333C69.72 120.245 77.7695 122.257 82.0817 119.957C85.5315 118.118 94.2517 114.783 98.1806 113.345M172.351 105.296C172.926 108.362 173.903 115.588 173.213 119.957C172.523 124.327 171.009 127.719 170.338 128.869C174.459 131.073 183.275 136.746 185.575 141.806C188.45 148.131 189.025 157.618 178.963 158.192C168.901 158.767 161.426 152.73 156.252 151.293C151.077 149.856 146.757 153.593 141.295 158.192C135.833 162.792 128.654 168.542 119.742 166.242C110.83 163.942 91.856 157.905 86.6814 153.018C81.5067 148.131 79.7818 139.506 83.2316 135.481C86.6814 131.457 95.0184 133.469 98.1806 135.481C100.71 137.091 102.685 138.452 103.355 138.931M172.351 105.296C172.442 102.891 172.395 97.0478 171.481 92.9197M103.355 138.931C101.247 135.481 97.0307 127.489 97.0307 123.12C97.0307 118.75 97.7973 114.783 98.1806 113.345M103.355 138.931L109.097 141.806M98.1806 113.345L107.085 109.881" stroke="#413318" stroke-width="2" stroke-linecap="round"/>
<path d="M153.09 107.596C158.609 101.386 163.439 88.9096 165.164 83.4474C159.222 83.1599 145.902 82.7575 140.153 83.4474C134.403 84.1374 111.501 89.4845 100.768 92.0719C103.259 95.9049 109.392 104.089 113.992 106.158C118.592 108.228 132.774 115.262 139.29 118.52C141.59 117.466 147.57 113.805 153.09 107.596Z" fill="#243F5F"/>
<path d="M171.201 58.724C170.741 52.9744 168.901 40.996 168.038 35.7256C171.776 24.5138 168.038 15.6019 161.714 13.302C156.654 11.4622 148.49 18.4767 145.04 22.214C140.536 22.5014 130.206 23.4789 124.916 25.0888C119.626 26.6987 112.164 30.0572 110.822 31.1113C103.252 27.1824 87.1914 23.8238 82.3617 30.2634C77.532 36.703 82.5605 43.5834 84.0938 48.0872C83.998 49.6205 84.1513 54.5268 85.5312 61.8863C87.2561 71.0857 93.0057 86.2503 100.768 92.0718C106.517 96.3841 123.953 104.081 137.853 100.409C153.089 96.3841 158.551 90.0595 164.589 83.7349C170.626 77.4103 171.776 65.9111 171.201 58.724Z" fill="#ECE5D8"/>
<path d="M84.0938 48.0872C83.998 49.6205 84.1513 54.5268 85.5312 61.8863C87.2561 71.0857 93.0057 86.2503 100.768 92.0718C106.517 96.3841 123.953 104.081 137.853 100.409C153.089 96.3841 158.551 90.0595 164.589 83.7349C170.626 77.4103 171.776 65.9111 171.201 58.724C170.741 52.9744 168.901 40.996 168.038 35.7256C171.776 24.5138 168.038 15.6019 161.714 13.302C156.654 11.4622 148.49 18.4767 145.04 22.214M84.0938 48.0872C82.5605 43.5834 77.532 36.703 82.3617 30.2634C87.1914 23.8238 103.252 27.1824 110.822 31.1113C112.164 30.0572 119.626 26.6987 124.916 25.0888C130.206 23.4789 140.536 22.5014 145.04 22.214M84.0938 48.0872L85.5312 44.048M145.04 22.214L141.303 26.5262" stroke="#413318" stroke-width="2" stroke-linecap="round" stroke-linejoin="round"/>
<path d="M157.682 71.3587L128.079 80.8602C123.939 82.2401 125.779 85.9564 128.078 86.8973C132.295 88.6222 141.065 92.0574 148.195 89.7575C157.107 86.8827 161.426 76.548 161.139 73.6732C160.909 71.3733 159.119 71.1671 157.682 71.3587Z" fill="#20190C"/>
<path d="M145.895 81.4205C148.351 80.6531 151.968 80.3551 154.814 80.2703C156.349 80.2246 157.206 81.8705 156.191 83.0224C153.438 86.1475 150.095 88.2905 148.482 88.895C145.417 90.0444 141.289 89.7471 137.968 89.194C136.3 88.9162 135.899 86.8441 137.321 85.9287C140.05 84.171 143.503 82.1681 145.895 81.4205Z" fill="#ECE5D8"/>
<ellipse cx="156.827" cy="50.0996" rx="2.87481" ry="4.02474" fill="#20190C"/>
<ellipse cx="143.321" cy="63.575" rx="6.49995" ry="7.96145" transform="rotate(74.2201 143.321 63.575)" fill="#20190C"/>
<ellipse cx="122.329" cy="59.8739" rx="3.44977" ry="4.02474" fill="#20190C"/>
</svg>
