<svg width="360" height="160" viewBox="0 0 360 160" fill="none" xmlns="http://www.w3.org/2000/svg">
<rect width="360" height="160" fill="#4865FF"/>
<path fill-rule="evenodd" clip-rule="evenodd" d="M79.1491 60.2018C79.9107 59.4906 80.2914 58.6024 80.2914 57.5363C80.2914 56.4703 79.9107 55.607 79.1491 54.947C78.3876 54.2362 77.55 53.8809 76.6362 53.8809C75.7222 53.8809 74.8845 54.2362 74.123 54.947C73.3614 55.607 72.9807 56.4703 72.9807 57.5363C72.9807 58.6024 73.3614 59.4906 74.123 60.2018C74.8845 60.8618 75.7222 61.1918 76.6362 61.1918C77.55 61.1918 78.3876 60.8618 79.1491 60.2018ZM79.3086 69.4578H68.4452L50.6987 99.4239H79.3086V69.4578ZM95.5737 65.2378C95.5395 64.7839 95.5005 64.3492 95.4564 63.9333H90.5064C90.608 65.1516 90.6841 66.5223 90.735 68.0456C90.7857 69.5685 90.8111 70.8125 90.8111 71.7772V99.5731H95.9895V81.2964C95.9895 78.9102 96.2941 76.8541 96.9033 75.1276C97.5125 73.3507 98.3247 71.9039 99.3402 70.7871C100.356 69.6192 101.498 68.7563 102.767 68.1977C104.087 67.6391 105.433 67.3602 106.803 67.3602C108.682 67.3602 110.23 67.6649 111.449 68.2738C112.718 68.8831 113.708 69.7464 114.419 70.8632C115.18 71.9293 115.713 73.224 116.018 74.7468C116.323 76.2701 116.475 77.9709 116.475 79.8491V99.5731H121.653V77.717C121.653 73.3 120.511 69.7464 118.226 67.0556C115.992 64.3648 112.617 63.0194 108.098 63.0194C105.559 63.0194 103.148 63.6794 100.863 64.9994C98.5787 66.2684 96.9288 67.9438 95.9133 70.0252H95.761C95.761 69.2638 95.7355 68.2992 95.6849 67.1316C95.6559 66.4674 95.6187 65.8361 95.5737 65.2378ZM141.077 68.2738H151.129V63.9333H141.077V53.8809H135.898V63.9333H128.511V68.2738H135.898V90.5109C135.898 92.491 136.177 94.0899 136.736 95.3086C137.345 96.5268 138.107 97.4915 139.021 98.2024C139.935 98.9133 140.925 99.3953 141.991 99.6493C142.962 99.8808 143.89 100.007 144.777 100.027C144.864 100.029 144.951 100.03 145.037 100.03C145.826 100.03 146.569 99.9838 147.265 99.8907C147.599 99.8462 147.922 99.7912 148.235 99.7254C149.25 99.5731 150.215 99.3191 151.129 98.9639L150.901 94.4707C150.484 94.679 150.049 94.8615 149.597 95.0179C149.279 95.1277 148.952 95.2249 148.616 95.3086C147.855 95.5114 147.118 95.6132 146.408 95.6132C145.646 95.6132 144.935 95.5372 144.275 95.3846C143.615 95.1818 143.031 94.8518 142.524 94.3946C142.243 94.0828 142.001 93.7041 141.796 93.258C141.668 92.9778 141.555 92.6714 141.458 92.3385C141.204 91.4752 141.077 90.3842 141.077 89.0637V68.2738ZM183.143 70.7111C185.173 72.894 186.265 75.6608 186.417 79.0117H162.124C162.226 77.4884 162.607 76.0415 163.267 74.6708C163.926 73.2493 164.815 72.0053 165.932 70.9392C167.049 69.8224 168.343 68.9592 169.816 68.3503C171.288 67.6902 172.888 67.3602 174.614 67.3602C178.32 67.3602 181.163 68.477 183.143 70.7111ZM191.672 81.8292V80.687C191.672 78.2502 191.291 75.9655 190.53 73.8333C189.819 71.7007 188.753 69.8478 187.331 68.2738C185.91 66.6495 184.133 65.3802 182 64.4662C179.868 63.5015 177.406 63.0194 174.614 63.0194C172.075 63.0194 169.714 63.5015 167.531 64.4662C165.348 65.3802 163.444 66.6749 161.82 68.3503C160.195 70.0252 158.926 72.0053 158.012 74.2901C157.098 76.5748 156.641 79.0624 156.641 81.7531C156.641 84.444 157.098 86.9315 158.012 89.2163C158.976 91.501 160.271 93.4806 161.896 95.156C163.521 96.8315 165.45 98.1517 167.684 99.1162C169.968 100.03 172.431 100.487 175.07 100.487C178.015 100.487 180.756 99.9033 183.295 98.7354C185.884 97.5676 188.245 95.6386 190.377 92.9478L186.493 89.9016C185.478 91.5263 183.98 92.9732 182 94.2425C180.071 95.4607 177.761 96.07 175.07 96.07C173.243 96.07 171.542 95.74 169.968 95.08C168.394 94.3692 167.024 93.4303 165.856 92.2624C164.688 91.0945 163.774 89.7237 163.114 88.1502C162.454 86.5762 162.099 84.9007 162.048 83.1239H191.596C191.646 82.6671 191.672 82.2353 191.672 81.8292ZM202.735 68.0456C202.785 69.5685 202.811 70.8125 202.811 71.7772V99.5731H207.989V81.2964C207.989 78.9102 208.268 76.8794 208.827 75.2041C209.436 73.4779 210.198 72.0818 211.112 71.0153C212.076 69.8985 213.193 69.0863 214.462 68.5785C215.731 68.071 217.052 67.817 218.422 67.817C219.133 67.817 219.844 67.8677 220.555 67.9691C221.265 68.071 221.773 68.1724 222.078 68.2738L222.763 63.4001C222.204 63.2479 221.646 63.1461 221.088 63.0954C220.58 63.0447 219.996 63.0194 219.336 63.0194C216.798 63.0194 214.513 63.6794 212.482 64.9994C210.451 66.2684 208.928 67.9438 207.913 70.0252H207.761C207.761 69.2638 207.735 68.2992 207.685 67.1316C207.634 65.9641 207.557 64.8976 207.456 63.9333H202.506C202.607 65.1516 202.684 66.5223 202.735 68.0456ZM252.826 70.7111C254.857 72.894 255.949 75.6608 256.101 79.0117H231.808C231.91 77.4884 232.29 76.0415 232.95 74.6708C233.61 73.2493 234.499 72.0053 235.616 70.9392C236.733 69.8224 238.027 68.9592 239.5 68.3503C240.972 67.6902 242.571 67.3602 244.297 67.3602C248.003 67.3602 250.846 68.477 252.826 70.7111ZM261.356 81.8292V80.687C261.356 78.2502 260.975 75.9655 260.213 73.8333C259.502 71.7007 258.436 69.8478 257.015 68.2738C255.594 66.6495 253.816 65.3802 251.684 64.4662C249.552 63.5015 247.089 63.0194 244.297 63.0194C241.759 63.0194 239.398 63.5015 237.215 64.4662C235.032 65.3802 233.128 66.6749 231.503 68.3503C229.879 70.0252 228.61 72.0053 227.696 74.2901C226.782 76.5748 226.325 79.0624 226.325 81.7531C226.325 84.444 226.782 86.9315 227.696 89.2163C228.66 91.501 229.955 93.4806 231.58 95.156C233.204 96.8315 235.133 98.1517 237.367 99.1162C239.652 100.03 242.114 100.487 244.754 100.487C247.699 100.487 250.44 99.9033 252.979 98.7354C255.568 97.5676 257.929 95.6386 260.061 92.9478L256.177 89.9016C255.162 91.5263 253.664 92.9732 251.684 94.2425C249.755 95.4607 247.445 96.07 244.754 96.07C242.926 96.07 241.226 95.74 239.652 95.08C238.078 94.3692 236.707 93.4303 235.54 92.2624C234.372 91.0945 233.458 89.7237 232.798 88.1502C232.138 86.5762 231.783 84.9007 231.732 83.1239H261.28C261.33 82.6671 261.356 82.2353 261.356 81.8292ZM272.494 117.85H277.673V93.5571H277.901C279.373 95.7911 281.328 97.517 283.765 98.7354C286.253 99.9033 288.766 100.487 291.304 100.487C294.097 100.487 296.61 100.005 298.844 99.0401C301.128 98.0756 303.057 96.7554 304.631 95.08C306.256 93.4046 307.5 91.4245 308.363 89.1402C309.277 86.8555 309.734 84.3933 309.734 81.7531C309.734 79.1131 309.277 76.6508 308.363 74.3661C307.5 72.0818 306.256 70.1017 304.631 68.4263C303.057 66.7509 301.128 65.4309 298.844 64.4662C296.61 63.5015 294.097 63.0194 291.304 63.0194C288.766 63.0194 286.253 63.6287 283.765 64.8469C281.328 66.0148 279.373 67.7663 277.901 70.1017H277.673V63.9333H272.494V117.85ZM303.337 76.1941C303.946 77.9202 304.251 79.7731 304.251 81.7531C304.251 83.7332 303.946 85.6115 303.337 87.3887C302.728 89.1148 301.839 90.6377 300.671 91.9578C299.554 93.2267 298.158 94.2425 296.483 95.0039C294.808 95.7146 292.904 96.07 290.771 96.07C288.791 96.07 286.964 95.7146 285.288 95.0039C283.613 94.2425 282.166 93.2267 280.948 91.9578C279.729 90.6888 278.764 89.1909 278.054 87.4648C277.393 85.688 277.064 83.7839 277.064 81.7531C277.064 79.7224 277.393 77.8437 278.054 76.1176C278.764 74.3408 279.729 72.8179 280.948 71.5485C282.166 70.2285 283.613 69.2131 285.288 68.5024C286.964 67.7409 288.791 67.3602 290.771 67.3602C292.904 67.3602 294.808 67.7409 296.483 68.5024C298.158 69.2638 299.554 70.3046 300.671 71.6246C301.839 72.894 302.728 74.4168 303.337 76.1941Z" fill="white"/>
</svg>
