<?xml version="1.0" encoding="UTF-8" standalone="no"?>
<svg
   xmlns:dc="http://purl.org/dc/elements/1.1/"
   xmlns:cc="http://creativecommons.org/ns#"
   xmlns:rdf="http://www.w3.org/1999/02/22-rdf-syntax-ns#"
   xmlns:svg="http://www.w3.org/2000/svg"
   xmlns="http://www.w3.org/2000/svg"
   xmlns:sodipodi="http://sodipodi.sourceforge.net/DTD/sodipodi-0.dtd"
   xmlns:inkscape="http://www.inkscape.org/namespaces/inkscape"
   width="350"
   height="150"
   viewBox="0 0 350 150"
   version="1.1"
   id="svg8"
   sodipodi:docname="interep.svg"
   style="fill:none"
   inkscape:version="0.92.5 (2060ec1f9f, 2020-04-08)">
  <metadata
     id="metadata14">
    <rdf:RDF>
      <cc:Work
         rdf:about="">
        <dc:format>image/svg+xml</dc:format>
        <dc:type
           rdf:resource="http://purl.org/dc/dcmitype/StillImage" />
      </cc:Work>
    </rdf:RDF>
  </metadata>
  <defs
     id="defs12" />
  <sodipodi:namedview
     pagecolor="#ffffff"
     bordercolor="#666666"
     borderopacity="1"
     objecttolerance="10"
     gridtolerance="10"
     guidetolerance="10"
     inkscape:pageopacity="0"
     inkscape:pageshadow="2"
     inkscape:window-width="2560"
     inkscape:window-height="1025"
     id="namedview10"
     showgrid="false"
     inkscape:zoom="1.8296388"
     inkscape:cx="105.68732"
     inkscape:cy="58.153279"
     inkscape:window-x="0"
     inkscape:window-y="421"
     inkscape:window-maximized="1"
     inkscape:current-layer="svg8" />
  <rect
     width="350"
     height="150"
     id="rect2"
     x="0"
     y="0"
     style="fill:#1d1d1d;stroke-width:0.25315392" />
  <g
     id="g831"
     transform="translate(-0.136581,-15.22047)">
    <path
       style="clip-rule:evenodd;fill:#f8f8f8;fill-rule:evenodd;stroke-width:0.2734375"
       inkscape:connector-curvature="0"
       id="path4"
       d="m 111.26773,62.25844 c 0.48153,-0.44926 0.72215,-1.01063 0.72215,-1.68438 0,-0.67375 -0.24062,-1.21926 -0.72215,-1.63625 -0.48097,-0.44926 -1.01035,-0.67375 -1.58785,-0.67375 -0.57777,0 -1.10715,0.22449 -1.58812,0.67375 -0.48153,0.41699 -0.72188,0.9625 -0.72188,1.63625 0,0.67375 0.24035,1.23512 0.72188,1.68438 0.48097,0.41726 1.01035,0.62562 1.58812,0.62562 0.5775,0 1.10688,-0.20836 1.58785,-0.62562 z m 0.1009,5.84937 h -6.86492 L 93.288672,87.04473 h 18.079958 z m 10.27852,-2.66683 c -0.0216,-0.28684 -0.0462,-0.56164 -0.0741,-0.82442 h -3.12813 c 0.0643,0.77 0.11238,1.63625 0.14465,2.59875 0.032,0.9625 0.0481,1.74864 0.0481,2.35813 v 17.56562 h 3.27222 v -11.55 c 0,-1.50773 0.1925,-2.80711 0.5775,-3.8984 0.385,-1.12273 0.89824,-2.03711 1.54,-2.74285 0.64176,-0.73801 1.36363,-1.28324 2.16563,-1.63625 0.83425,-0.35301 1.68437,-0.52937 2.55062,-0.52937 1.18699,0 2.16563,0.1925 2.93563,0.5775 0.80199,0.385 1.42789,0.93051 1.87687,1.63625 0.48125,0.67375 0.81813,1.49187 1.01063,2.45437 0.1925,0.9625 0.28875,2.03739 0.28875,3.22438 v 12.46437 h 3.2725 V 73.32719 c 0,-2.79125 -0.72188,-5.03699 -2.16563,-6.7375 -1.41176,-1.70051 -3.54512,-2.55063 -6.40062,-2.55063 -1.60426,0 -3.12813,0.41699 -4.57188,1.25125 -1.44375,0.80199 -2.48637,1.86074 -3.12812,3.17598 h -0.0962 c 0,-0.48098 -0.0161,-1.09074 -0.0481,-1.82848 -0.0183,-0.41972 -0.0418,-0.81867 -0.0703,-1.19683 z m 28.75551,1.91871 h 6.3525 v -2.74313 h -6.3525 v -6.3525 h -3.2725 v 6.3525 h -4.66813 v 2.74313 h 4.66813 v 14.0525 c 0,1.25125 0.17636,2.26187 0.52937,3.03187 0.385,0.77 0.86625,1.37949 1.44375,1.82875 0.5775,0.44926 1.20313,0.75387 1.87688,0.91438 0.61359,0.14629 1.20039,0.22586 1.76066,0.23871 0.055,0.001 0.10992,0.002 0.16434,0.002 0.49875,0 0.96796,-0.0293 1.4082,-0.088 0.21109,-0.0282 0.41535,-0.0629 0.61305,-0.10446 0.64148,-0.0963 1.25125,-0.25676 1.82875,-0.48125 l -0.14438,-2.83937 c -0.26359,0.13152 -0.53812,0.24691 -0.82387,0.34562 -0.20097,0.0695 -0.40769,0.13098 -0.61988,0.18375 -0.48125,0.12824 -0.94664,0.1925 -1.39562,0.1925 -0.48125,0 -0.93051,-0.0481 -1.3475,-0.14437 -0.41727,-0.12824 -0.78614,-0.33688 -1.10688,-0.62563 -0.17746,-0.19715 -0.33058,-0.4364 -0.45965,-0.71832 -0.0809,-0.17719 -0.1523,-0.37078 -0.2141,-0.58105 -0.16051,-0.54551 -0.24062,-1.23512 -0.24062,-2.06965 z m 26.58332,1.54 c 1.28324,1.37949 1.97312,3.12812 2.06937,5.24562 h -15.35187 c 0.0642,-0.9625 0.30488,-1.87687 0.72187,-2.74312 0.41699,-0.89824 0.97863,-1.68438 1.68438,-2.35813 0.70574,-0.70574 1.52386,-1.25125 2.45437,-1.63625 0.93051,-0.41699 1.94113,-0.62562 3.03188,-0.62562 2.34199,0 4.13875,0.70574 5.39,2.1175 z m 5.39,7.02625 v -0.72188 c 0,-1.54 -0.24063,-2.98375 -0.72188,-4.33125 -0.44926,-1.3475 -1.12301,-2.51863 -2.02125,-3.51312 -0.89824,-1.02649 -2.02125,-1.82875 -3.36875,-2.40625 -1.3475,-0.60977 -2.90363,-0.91438 -4.66812,-0.91438 -1.60426,0 -3.09614,0.30461 -4.47563,0.91438 -1.37949,0.5775 -2.58262,1.39562 -3.60937,2.45437 -1.02676,1.05848 -1.82875,2.31 -2.40625,3.75375 -0.5775,1.44375 -0.86625,3.01574 -0.86625,4.71625 0,1.70051 0.28875,3.2725 0.86625,4.71625 0.60949,1.44375 1.42761,2.69473 2.45437,3.75375 1.02676,1.05875 2.24574,1.89301 3.6575,2.5025 1.44375,0.5775 2.99988,0.86625 4.66813,0.86625 1.86074,0 3.59324,-0.36886 5.1975,-1.10687 1.63625,-0.73801 3.12812,-1.95699 4.47562,-3.6575 l -2.45437,-1.925 c -0.64176,1.02676 -1.58813,1.94113 -2.83938,2.74312 -1.21926,0.77 -2.67887,1.155 -4.37937,1.155 -1.155,0 -2.22989,-0.20863 -3.22438,-0.62562 -0.99449,-0.44926 -1.86074,-1.04262 -2.59875,-1.78063 -0.73801,-0.73801 -1.31551,-1.60426 -1.7325,-2.59875 -0.41699,-0.99476 -0.64176,-2.05351 -0.67375,-3.17625 h 18.6725 c 0.032,-0.28875 0.0481,-0.56164 0.0481,-0.81812 z m 6.99097,-8.71063 c 0.032,0.9625 0.0481,1.74864 0.0481,2.35813 v 17.56562 h 3.2725 v -11.55 c 0,-1.50773 0.17637,-2.79125 0.52937,-3.85 0.385,-1.09074 0.86625,-1.97312 1.44375,-2.64687 0.6095,-0.70574 1.31524,-1.21899 2.1175,-1.54 0.802,-0.32074 1.63625,-0.48125 2.5025,-0.48125 0.44899,0 0.89825,0.032 1.3475,0.0963 0.44899,0.0643 0.77,0.12824 0.9625,0.1925 l 0.43313,-3.08 c -0.35301,-0.0962 -0.70602,-0.16051 -1.05875,-0.1925 -0.32102,-0.032 -0.68988,-0.0481 -1.10688,-0.0481 -1.60425,0 -3.048,0.41699 -4.33125,1.25125 -1.28351,0.80199 -2.24601,1.86074 -2.8875,3.17598 h -0.0962 c 0,-0.48098 -0.0161,-1.09074 -0.0481,-1.82848 -0.0323,-0.73773 -0.0804,-1.41176 -0.14438,-2.02125 h -3.12812 c 0.064,0.77 0.11211,1.63625 0.14437,2.59875 z m 31.65532,1.68438 c 1.28324,1.37949 1.97312,3.12812 2.06937,5.24562 h -15.35215 c 0.0645,-0.9625 0.30516,-1.87687 0.72215,-2.74312 0.41699,-0.89824 0.97863,-1.68438 1.68438,-2.35813 0.70574,-0.70574 1.52386,-1.25125 2.45437,-1.63625 0.93051,-0.41699 1.94113,-0.62562 3.03188,-0.62562 2.34199,0 4.13875,0.70574 5.39,2.1175 z m 5.39,7.02625 v -0.72188 c 0,-1.54 -0.24063,-2.98375 -0.72188,-4.33125 -0.44926,-1.3475 -1.12301,-2.51863 -2.02125,-3.51312 -0.89824,-1.02649 -2.02125,-1.82875 -3.36875,-2.40625 -1.3475,-0.60977 -2.90363,-0.91438 -4.66812,-0.91438 -1.60426,0 -3.09614,0.30461 -4.47563,0.91438 -1.37949,0.5775 -2.58262,1.39562 -3.60937,2.45437 -1.02676,1.05848 -1.82875,2.31 -2.40625,3.75375 -0.5775,1.44375 -0.86625,3.01574 -0.86625,4.71625 0,1.70051 0.28875,3.2725 0.86625,4.71625 0.60949,1.44375 1.42761,2.69473 2.45437,3.75375 1.02676,1.05875 2.24574,1.89301 3.6575,2.5025 1.44375,0.5775 2.99988,0.86625 4.66813,0.86625 1.86074,0 3.59324,-0.36886 5.1975,-1.10687 1.63625,-0.73801 3.12812,-1.95699 4.47562,-3.6575 l -2.45437,-1.925 c -0.64176,1.02676 -1.58813,1.94113 -2.83938,2.74312 -1.21926,0.77 -2.67887,1.155 -4.37937,1.155 -1.155,0 -2.22989,-0.20863 -3.22438,-0.62562 -0.99449,-0.44926 -1.86074,-1.04262 -2.59875,-1.78063 -0.73801,-0.73801 -1.31551,-1.60426 -1.7325,-2.59875 -0.41699,-0.99476 -0.64176,-2.05351 -0.67375,-3.17625 h 18.6725 c 0.032,-0.28875 0.0481,-0.56164 0.0481,-0.81812 z m 7.0391,22.76312 h 3.27222 V 83.33719 h 0.14465 c 0.93024,1.41176 2.16563,2.5025 3.70563,3.2725 1.57199,0.73801 3.16011,1.10687 4.76437,1.10687 1.76449,0 3.35262,-0.30488 4.76438,-0.91437 1.44375,-0.60949 2.66273,-1.44375 3.6575,-2.5025 1.02648,-1.05875 1.81261,-2.31 2.35812,-3.75375 0.5775,-1.44375 0.86625,-2.99961 0.86625,-4.66813 0,-1.66851 -0.28875,-3.22437 -0.86625,-4.66812 -0.54551,-1.44375 -1.33164,-2.695 -2.35812,-3.75375 -0.99477,-1.05875 -2.21375,-1.89301 -3.6575,-2.5025 -1.41176,-0.60977 -2.99989,-0.91438 -4.76438,-0.91438 -1.60426,0 -3.19238,0.385 -4.76437,1.155 -1.54,0.73801 -2.77539,1.84489 -3.70563,3.32063 h -0.14465 v -3.89813 h -3.27222 z m 19.49062,-26.32437 c 0.385,1.09101 0.5775,2.26187 0.5775,3.51312 0,1.25125 -0.1925,2.43824 -0.5775,3.56125 -0.385,1.09102 -0.94664,2.05324 -1.68437,2.8875 -0.70602,0.80199 -1.58813,1.44375 -2.64688,1.925 -1.05875,0.44926 -2.26187,0.67375 -3.60937,0.67375 -1.25125,0 -2.40625,-0.22449 -3.465,-0.67375 -1.05875,-0.48125 -1.97313,-1.12301 -2.74313,-1.925 -0.77,-0.80199 -1.37976,-1.74863 -1.82875,-2.83937 -0.41726,-1.12274 -0.62562,-2.32614 -0.62562,-3.60938 0,-1.28324 0.20836,-2.47051 0.62562,-3.56125 0.44899,-1.12301 1.05875,-2.08523 1.82875,-2.8875 0.77,-0.83426 1.68438,-1.47574 2.74313,-1.925 1.05875,-0.48125 2.21375,-0.72187 3.465,-0.72187 1.3475,0 2.55062,0.24062 3.60937,0.72187 1.05875,0.48125 1.94086,1.13887 2.64688,1.97313 0.73773,0.80199 1.29937,1.76449 1.68437,2.8875 z" />
    <path
       style="fill:#f8f8f8;stroke-width:0.2734375"
       inkscape:connector-curvature="0"
       id="path6"
       d="m 109.39715,119.49219 h -1.21188 l 3.50493,-9.54543 h 1.19328 l 3.50492,9.54543 h -1.21188 l -2.85222,-8.03524 h -0.0746 z m 0.44734,-3.7286 h 4.88469 v 1.02539 h -4.88469 z m 8.9816,-0.57804 v 4.30664 h -1.10004 v -7.15914 h 1.06286 v 1.11863 h 0.093 c 0.1679,-0.3634 0.42274,-0.6557 0.76454,-0.87609 0.34179,-0.22395 0.78312,-0.33579 1.32371,-0.33579 0.4848,0 0.9089,0.0995 1.2723,0.29833 0.36367,0.19578 0.64641,0.4941 0.84848,0.89496 0.2018,0.39757 0.30269,0.90097 0.30269,1.51019 v 4.54891 h -1.09976 v -4.47453 c 0,-0.56219 -0.14602,-1.00051 -0.43832,-1.31414 -0.29203,-0.31719 -0.69289,-0.47551 -1.20231,-0.47551 -0.35109,0 -0.665,0.076 -0.94144,0.22832 -0.27344,0.1523 -0.48946,0.37433 -0.64805,0.66664 -0.15832,0.29203 -0.23762,0.64613 -0.23762,1.06258 z m 9.69118,-2.8525 v 0.93215 h -3.71 v -0.93215 z m -2.62883,-1.71528 h 1.10004 v 6.82364 c 0,0.31062 0.0451,0.54386 0.13507,0.69918 0.0933,0.1523 0.21137,0.25484 0.35438,0.30761 0.14602,0.0498 0.29969,0.0746 0.46129,0.0746 0.12113,0 0.22066,-0.006 0.29832,-0.0189 0.0777,-0.0153 0.13973,-0.0279 0.18648,-0.0372 l 0.22368,0.9882 c -0.0746,0.0279 -0.17856,0.0558 -0.31227,0.0837 -0.13371,0.0312 -0.30297,0.0468 -0.50805,0.0468 -0.31062,0 -0.61523,-0.0667 -0.91355,-0.20043 -0.29504,-0.13371 -0.54059,-0.33715 -0.73637,-0.61059 -0.19277,-0.27343 -0.28902,-0.61824 -0.28902,-1.03468 z m 4.2834,8.87442 v -7.15914 h 1.10003 v 7.15914 z m 0.55918,-8.35215 c -0.21438,0 -0.39922,-0.073 -0.55454,-0.2193 -0.1523,-0.14601 -0.22832,-0.32156 -0.22832,-0.52664 0,-0.20508 0.076,-0.38062 0.22832,-0.52664 0.15532,-0.14601 0.34016,-0.21902 0.55454,-0.21902 0.21437,0 0.39785,0.073 0.55015,0.21902 0.15531,0.14602 0.23297,0.32156 0.23297,0.52664 0,0.20508 -0.0777,0.38063 -0.23297,0.52664 -0.1523,0.14629 -0.33578,0.2193 -0.55015,0.2193 z m 7.62644,2.79644 -0.9882,0.27973 c -0.0621,-0.16488 -0.15367,-0.32484 -0.27481,-0.48016 -0.11812,-0.15859 -0.27972,-0.28902 -0.4848,-0.39156 -0.20508,-0.10254 -0.46758,-0.15367 -0.78778,-0.15367 -0.43804,0 -0.80308,0.1009 -1.09539,0.3027 -0.28875,0.19906 -0.43339,0.45226 -0.43339,0.75988 0,0.27344 0.0995,0.48945 0.29832,0.64777 0.19879,0.1586 0.50968,0.29067 0.93214,0.39621 l 1.06286,0.26114 c 0.64011,0.15531 1.11699,0.39293 1.43089,0.71312 0.31364,0.31691 0.47059,0.72543 0.47059,1.22582 0,0.41016 -0.11812,0.77656 -0.3541,1.09977 -0.23324,0.3232 -0.55945,0.57804 -0.97891,0.76453 -0.41945,0.18648 -0.90726,0.27945 -1.46343,0.27945 -0.73036,0 -1.33465,-0.15832 -1.81317,-0.47523 -0.47851,-0.31692 -0.78148,-0.77985 -0.9089,-1.38907 l 1.04425,-0.26086 c 0.0993,0.38528 0.28739,0.6743 0.56383,0.8668 0.27973,0.19277 0.64477,0.28902 1.09539,0.28902 0.5127,0 0.91957,-0.10882 1.22117,-0.32621 0.30434,-0.22066 0.45664,-0.4848 0.45664,-0.79242 0,-0.24855 -0.087,-0.45664 -0.26086,-0.62453 -0.17418,-0.1709 -0.44132,-0.29832 -0.80171,-0.38226 l -1.19329,-0.27946 c -0.6557,-0.15558 -1.13722,-0.39621 -1.44484,-0.72269 -0.30461,-0.32922 -0.45664,-0.74102 -0.45664,-1.23512 0,-0.40387 0.1132,-0.76125 0.34016,-1.07188 0.22996,-0.31062 0.54222,-0.55453 0.93679,-0.73171 0.39786,-0.17719 0.84821,-0.26579 1.3516,-0.26579 0.70848,0 1.26465,0.15532 1.66852,0.46622 0.40715,0.31062 0.69617,0.72078 0.86707,1.23046 z m 2.49457,8.24032 c -0.18621,0 -0.35246,-0.0156 -0.49848,-0.0465 -0.14601,-0.0282 -0.24718,-0.0561 -0.30296,-0.0839 l 0.27945,-0.96961 c 0.26742,0.0684 0.5034,0.0932 0.70848,0.0747 0.20507,-0.0186 0.38691,-0.1102 0.5455,-0.27508 0.16161,-0.16133 0.30899,-0.4241 0.4427,-0.7875 l 0.20508,-0.55946 -2.64743,-7.19632 h 1.19329 l 1.97613,5.705 h 0.0746 l 1.97613,-5.705 h 1.19328 l -3.03898,8.20312 c -0.13672,0.36969 -0.30598,0.67594 -0.50805,0.91821 -0.20207,0.24554 -0.43668,0.42738 -0.70383,0.54523 -0.26414,0.11812 -0.56246,0.17719 -0.89496,0.17719 z m 6.7468,-2.68461 v -9.54543 h 1.09976 v 3.52351 h 0.0933 c 0.0809,-0.12414 0.19277,-0.28273 0.33578,-0.47523 0.14601,-0.19578 0.3541,-0.36996 0.62453,-0.52199 0.27344,-0.15559 0.64312,-0.23325 1.10933,-0.23325 0.60266,0 1.13395,0.15067 1.59387,0.45227 0.45992,0.30133 0.81867,0.72844 1.0768,1.2816 0.25785,0.55317 0.38664,1.20559 0.38664,1.95754 0,0.75824 -0.12879,1.41531 -0.38664,1.97176 -0.25813,0.55289 -0.61524,0.98164 -1.07215,1.28625 -0.45664,0.30133 -0.98328,0.45199 -1.57992,0.45199 -0.45992,0 -0.82824,-0.076 -1.10469,-0.22832 -0.27644,-0.15531 -0.48945,-0.33086 -0.63848,-0.52664 -0.14929,-0.19879 -0.26414,-0.3634 -0.34507,-0.4941 h -0.13043 v 1.10004 z m 1.08117,-3.57957 c 0,0.54058 0.0793,1.01773 0.23789,1.4309 0.15832,0.41015 0.38992,0.73171 0.69426,0.96468 0.30461,0.22996 0.67758,0.34508 1.11863,0.34508 0.45992,0 0.84383,-0.12113 1.15145,-0.36367 0.31062,-0.24527 0.54359,-0.57477 0.6989,-0.98793 0.1586,-0.41645 0.23789,-0.87938 0.23789,-1.38906 0,-0.5034 -0.0777,-0.95703 -0.23324,-1.3609 -0.15203,-0.40715 -0.38363,-0.72871 -0.69426,-0.96496 -0.30761,-0.23926 -0.69453,-0.35875 -1.16074,-0.35875 -0.44734,0 -0.82332,0.11347 -1.12793,0.34015 -0.30433,0.22368 -0.5343,0.53758 -0.68961,0.94145 -0.15558,0.40086 -0.23324,0.86871 -0.23324,1.40301 z m 6.92152,3.57957 v -7.15914 h 1.10004 v 7.15914 z m 0.55918,-8.35215 c -0.21437,0 -0.39922,-0.073 -0.55453,-0.2193 -0.1523,-0.14601 -0.22832,-0.32156 -0.22832,-0.52664 0,-0.20508 0.076,-0.38062 0.22832,-0.52664 0.15531,-0.14601 0.34016,-0.21902 0.55453,-0.21902 0.21438,0 0.39785,0.073 0.55016,0.21902 0.15531,0.14602 0.23297,0.32156 0.23297,0.52664 0,0.20508 -0.0777,0.38063 -0.23297,0.52664 -0.15231,0.14629 -0.33578,0.2193 -0.55016,0.2193 z m 3.65532,-1.19328 v 9.54543 h -1.10004 v -9.54543 z m 7.81293,9.71332 c -0.45364,0 -0.86543,-0.0856 -1.23512,-0.25649 -0.36996,-0.1739 -0.66363,-0.4241 -0.88102,-0.75031 -0.21738,-0.32949 -0.32621,-0.72707 -0.32621,-1.19328 0,-0.41016 0.0807,-0.74266 0.24227,-0.9975 0.1616,-0.25785 0.37761,-0.45965 0.64777,-0.60566 0.27043,-0.14629 0.56875,-0.25485 0.89496,-0.32649 0.32949,-0.0744 0.66035,-0.13344 0.99285,-0.17691 0.43504,-0.0561 0.78778,-0.0979 1.05793,-0.12606 0.27344,-0.0309 0.47223,-0.0823 0.59664,-0.15367 0.12743,-0.0714 0.19114,-0.19578 0.19114,-0.37297 v -0.0372 c 0,-0.45992 -0.12579,-0.8173 -0.37762,-1.07214 -0.24856,-0.25457 -0.62617,-0.382 -1.13258,-0.382 -0.525,0 -0.9368,0.11485 -1.23512,0.34481 -0.29832,0.22996 -0.50804,0.47551 -0.62918,0.73637 l -1.04398,-0.3727 c 0.18648,-0.43504 0.43504,-0.77383 0.74566,-1.01609 0.31391,-0.24555 0.65571,-0.41645 1.02539,-0.5127 0.37297,-0.0995 0.73965,-0.1493 1.10004,-0.1493 0.22996,0 0.4941,0.0282 0.79243,0.084 0.30132,0.0528 0.59171,0.16324 0.87144,0.33086 0.28273,0.16789 0.51734,0.42109 0.70383,0.75988 0.18648,0.33852 0.27973,0.79215 0.27973,1.3609 v 4.7168 h -1.10004 v -0.96934 h -0.0561 c -0.0744,0.15531 -0.19879,0.32156 -0.37269,0.49848 -0.17418,0.17719 -0.40551,0.32785 -0.69453,0.45226 -0.28903,0.12414 -0.64176,0.18649 -1.05793,0.18649 z m 0.16761,-0.98821 c 0.43504,0 0.80172,-0.0853 1.10004,-0.25648 0.30133,-0.17062 0.52828,-0.39129 0.68059,-0.66172 0.15531,-0.27043 0.23297,-0.55453 0.23297,-0.85285 v -1.0068 c -0.0468,0.0558 -0.1493,0.10719 -0.30762,0.15368 -0.15531,0.0435 -0.33551,0.0826 -0.54059,0.11675 -0.20207,0.0309 -0.39949,0.0588 -0.59199,0.0837 -0.18949,0.0219 -0.34344,0.0405 -0.46156,0.0561 -0.28574,0.0372 -0.55289,0.0979 -0.80145,0.18184 -0.24554,0.0807 -0.44433,0.20343 -0.59664,0.36804 -0.14929,0.1616 -0.22367,0.38227 -0.22367,0.66199 0,0.382 0.14137,0.67102 0.4241,0.8668 0.28574,0.19277 0.64778,0.28902 1.08582,0.28902 z m 10.19211,-4.73539 -0.98793,0.27973 c -0.0623,-0.16488 -0.15394,-0.32484 -0.27508,-0.48016 -0.11812,-0.15859 -0.27972,-0.28902 -0.4848,-0.39156 -0.20508,-0.10254 -0.46758,-0.15367 -0.7875,-0.15367 -0.43832,0 -0.80336,0.1009 -1.09539,0.3027 -0.28902,0.19906 -0.4334,0.45226 -0.4334,0.75988 0,0.27344 0.0993,0.48945 0.29832,0.64777 0.19879,0.1586 0.50941,0.29067 0.93215,0.39621 l 1.06258,0.26114 c 0.64011,0.15531 1.11699,0.39293 1.4309,0.71312 0.3139,0.31691 0.47085,0.72543 0.47085,1.22582 0,0.41016 -0.11812,0.77656 -0.35437,1.09977 -0.23297,0.3232 -0.55918,0.57804 -0.97863,0.76453 -0.41946,0.18648 -0.90754,0.27945 -1.46371,0.27945 -0.73008,0 -1.33438,-0.15832 -1.81289,-0.47523 -0.47852,-0.31692 -0.78149,-0.77985 -0.90891,-1.38907 l 1.04398,-0.26086 c 0.0995,0.38528 0.28739,0.6743 0.56411,0.8668 0.27945,0.19277 0.64449,0.28902 1.09511,0.28902 0.5127,0 0.91985,-0.10882 1.22117,-0.32621 0.30461,-0.22066 0.45692,-0.4848 0.45692,-0.79242 0,-0.24855 -0.0872,-0.45664 -0.26113,-0.62453 -0.17391,-0.1709 -0.44133,-0.29832 -0.80172,-0.38226 l -1.19301,-0.27946 c -0.6557,-0.15558 -1.1375,-0.39621 -1.44512,-0.72269 -0.30433,-0.32922 -0.45664,-0.74102 -0.45664,-1.23512 0,-0.40387 0.11348,-0.76125 0.34016,-1.07188 0.22996,-0.31062 0.54222,-0.55453 0.93679,-0.73171 0.39786,-0.17719 0.84848,-0.26579 1.35188,-0.26579 0.70848,0 1.26465,0.15532 1.66851,0.46622 0.40715,0.31062 0.6959,0.72078 0.8668,1.23046 z m 7.58461,5.7236 c -0.45363,0 -0.86543,-0.0856 -1.23512,-0.25649 -0.36996,-0.1739 -0.66363,-0.4241 -0.88101,-0.75031 -0.21738,-0.32949 -0.32621,-0.72707 -0.32621,-1.19328 0,-0.41016 0.0807,-0.74266 0.24226,-0.9975 0.1616,-0.25785 0.37762,-0.45965 0.64778,-0.60566 0.27043,-0.14629 0.56875,-0.25485 0.89496,-0.32649 0.32949,-0.0744 0.66035,-0.13344 0.99285,-0.17691 0.43504,-0.0561 0.78777,-0.0979 1.05793,-0.12606 0.27344,-0.0309 0.47223,-0.0823 0.59664,-0.15367 0.12742,-0.0714 0.19113,-0.19578 0.19113,-0.37297 v -0.0372 c 0,-0.45992 -0.12578,-0.8173 -0.37762,-1.07214 -0.24855,-0.25457 -0.62617,-0.382 -1.13257,-0.382 -0.525,0 -0.9368,0.11485 -1.23512,0.34481 -0.29832,0.22996 -0.50805,0.47551 -0.62918,0.73637 l -1.04398,-0.3727 c 0.18648,-0.43504 0.43503,-0.77383 0.74566,-1.01609 0.31391,-0.24555 0.6557,-0.41645 1.02539,-0.5127 0.37297,-0.0995 0.73965,-0.1493 1.10004,-0.1493 0.22996,0 0.4941,0.0282 0.79242,0.084 0.30133,0.0528 0.59172,0.16324 0.87145,0.33086 0.28273,0.16789 0.51734,0.42109 0.70382,0.75988 0.18649,0.33852 0.27973,0.79215 0.27973,1.3609 v 4.7168 h -1.10004 v -0.96934 h -0.056 c -0.0744,0.15531 -0.19879,0.32156 -0.3727,0.49848 -0.17418,0.17719 -0.40551,0.32785 -0.69453,0.45226 -0.28902,0.12414 -0.64176,0.18649 -1.05793,0.18649 z m 0.16762,-0.98821 c 0.43504,0 0.80172,-0.0853 1.10004,-0.25648 0.30133,-0.17062 0.52828,-0.39129 0.68058,-0.66172 0.15532,-0.27043 0.23297,-0.55453 0.23297,-0.85285 v -1.0068 c -0.0468,0.0558 -0.14929,0.10719 -0.30762,0.15368 -0.15531,0.0435 -0.3355,0.0826 -0.54058,0.11675 -0.20207,0.0309 -0.39949,0.0588 -0.59199,0.0837 -0.1895,0.0219 -0.34344,0.0405 -0.46157,0.0561 -0.28574,0.0372 -0.55289,0.0979 -0.80144,0.18184 -0.24555,0.0807 -0.44434,0.20343 -0.59664,0.36804 -0.1493,0.1616 -0.22367,0.38227 -0.22367,0.66199 0,0.382 0.14136,0.67102 0.4241,0.8668 0.28574,0.19277 0.64777,0.28902 1.08582,0.28902 z m 13.88351,-4.73539 -0.98793,0.27973 c -0.0623,-0.16488 -0.15394,-0.32484 -0.27507,-0.48016 -0.11813,-0.15859 -0.27973,-0.28902 -0.48481,-0.39156 -0.20508,-0.10254 -0.46758,-0.15367 -0.7875,-0.15367 -0.43832,0 -0.80336,0.1009 -1.09539,0.3027 -0.28902,0.19906 -0.4334,0.45226 -0.4334,0.75988 0,0.27344 0.0993,0.48945 0.29832,0.64777 0.19879,0.1586 0.50942,0.29067 0.93215,0.39621 l 1.06258,0.26114 c 0.64012,0.15531 1.11699,0.39293 1.4309,0.71312 0.3139,0.31691 0.47086,0.72543 0.47086,1.22582 0,0.41016 -0.11813,0.77656 -0.35438,1.09977 -0.23297,0.3232 -0.55918,0.57804 -0.97863,0.76453 -0.41945,0.18648 -0.90754,0.27945 -1.46371,0.27945 -0.73008,0 -1.33438,-0.15832 -1.81289,-0.47523 -0.47852,-0.31692 -0.78149,-0.77985 -0.90891,-1.38907 l 1.04399,-0.26086 c 0.0995,0.38528 0.28738,0.6743 0.5641,0.8668 0.27945,0.19277 0.64449,0.28902 1.09511,0.28902 0.5127,0 0.91985,-0.10882 1.22118,-0.32621 0.30461,-0.22066 0.45691,-0.4848 0.45691,-0.79242 0,-0.24855 -0.0872,-0.45664 -0.26113,-0.62453 -0.17391,-0.1709 -0.44133,-0.29832 -0.80172,-0.38226 l -1.19301,-0.27946 c -0.6557,-0.15558 -1.1375,-0.39621 -1.44512,-0.72269 -0.30433,-0.32922 -0.45664,-0.74102 -0.45664,-1.23512 0,-0.40387 0.11348,-0.76125 0.34016,-1.07188 0.22996,-0.31062 0.54223,-0.55453 0.9368,-0.73171 0.39785,-0.17719 0.84847,-0.26579 1.35187,-0.26579 0.70848,0 1.26465,0.15532 1.66852,0.46622 0.40715,0.31062 0.6959,0.72078 0.86679,1.23046 z m 4.78789,5.70473 c -0.6896,0 -1.28488,-0.15203 -1.785,-0.45664 -0.4971,-0.30762 -0.88101,-0.73637 -1.15117,-1.28652 -0.26742,-0.55289 -0.40086,-1.19629 -0.40086,-1.92938 0,-0.73336 0.13344,-1.37976 0.40086,-1.93894 0.27016,-0.56246 0.64614,-1.00051 1.12793,-1.31442 0.48453,-0.31691 1.05028,-0.47551 1.69641,-0.47551 0.37297,0 0.74101,0.0624 1.10469,0.18649 0.36367,0.12441 0.69453,0.32621 0.99285,0.60594 0.29832,0.27644 0.53594,0.64312 0.71312,1.10004 0.17692,0.45664 0.26551,1.0191 0.26551,1.68711 v 0.46621 h -5.51852 v -0.95102 h 4.39989 c 0,-0.40387 -0.0807,-0.76426 -0.24227,-1.08117 -0.15859,-0.31692 -0.38527,-0.56711 -0.68058,-0.75031 -0.29204,-0.18348 -0.63684,-0.27508 -1.03469,-0.27508 -0.43805,0 -0.81703,0.10883 -1.13723,0.32621 -0.31691,0.21437 -0.56082,0.4941 -0.73172,0.83891 -0.1709,0.34507 -0.25621,0.71476 -0.25621,1.10933 v 0.63383 c 0,0.54086 0.093,0.99914 0.27946,1.37512 0.18949,0.37269 0.45226,0.65707 0.78777,0.85285 0.33551,0.19277 0.72543,0.28902 1.16976,0.28902 0.28903,0 0.55016,-0.0405 0.78313,-0.12113 0.23625,-0.0839 0.43969,-0.20836 0.61059,-0.37297 0.17089,-0.16789 0.30296,-0.37598 0.39621,-0.62453 l 1.06257,0.29832 c -0.11183,0.36039 -0.29968,0.6773 -0.56382,0.95074 -0.26414,0.27043 -0.59036,0.48152 -0.97891,0.63383 -0.38828,0.1493 -0.82496,0.22367 -1.30977,0.22367 z m 4.63778,-0.14902 v -7.15914 h 1.06258 v 1.08144 h 0.0746 c 0.13043,-0.35437 0.36668,-0.64176 0.70848,-0.86242 0.3418,-0.22066 0.72707,-0.33086 1.15582,-0.33086 0.0807,0 0.18184,0.002 0.30297,0.005 0.12113,0.003 0.21273,0.008 0.2748,0.0139 v 1.11864 c -0.0372,-0.009 -0.1225,-0.0232 -0.25621,-0.0418 -0.13043,-0.0219 -0.26879,-0.0328 -0.4148,-0.0328 -0.34809,0 -0.65871,0.073 -0.93215,0.2193 -0.27043,0.14273 -0.4848,0.34179 -0.64312,0.59636 -0.15559,0.25184 -0.23325,0.53922 -0.23325,0.86242 v 4.53032 z m 10.95527,-7.15914 -2.64742,7.15914 h -1.11863 l -2.64743,-7.15914 h 1.19329 l 1.97613,5.705 h 0.0746 l 1.97613,-5.705 z m 1.45195,7.15914 v -7.15914 h 1.09977 v 7.15914 z m 0.55918,-8.35215 c -0.21437,0 -0.39921,-0.073 -0.55453,-0.2193 -0.1523,-0.14601 -0.22859,-0.32156 -0.22859,-0.52664 0,-0.20508 0.0763,-0.38062 0.22859,-0.52664 0.15532,-0.14601 0.34016,-0.21902 0.55453,-0.21902 0.21438,0 0.39786,0.073 0.54989,0.21902 0.15558,0.14602 0.23324,0.32156 0.23324,0.52664 0,0.20508 -0.0777,0.38063 -0.23324,0.52664 -0.15203,0.14629 -0.33551,0.2193 -0.54989,0.2193 z m 5.46383,8.50117 c -0.67129,0 -1.24933,-0.15832 -1.73386,-0.47523 -0.48481,-0.31692 -0.85778,-0.7536 -1.11864,-1.30977 -0.26113,-0.55617 -0.39156,-1.19164 -0.39156,-1.90641 0,-0.72707 0.13371,-1.36855 0.40086,-1.92472 0.27016,-0.55945 0.64613,-0.99586 1.12793,-1.30977 0.4848,-0.31691 1.05027,-0.47551 1.69641,-0.47551 0.50339,0 0.95703,0.0933 1.36117,0.27973 0.40386,0.18649 0.73472,0.44734 0.99258,0.78313 0.25812,0.3355 0.41808,0.72707 0.48015,1.17441 h -1.10004 c -0.0839,-0.32621 -0.27015,-0.61523 -0.55918,-0.8668 -0.28601,-0.25484 -0.67129,-0.38226 -1.15582,-0.38226 -0.42902,0 -0.805,0.11183 -1.12793,0.33551 -0.32019,0.22066 -0.57039,0.53293 -0.75058,0.93679 -0.17692,0.40086 -0.26551,0.87172 -0.26551,1.41231 0,0.55316 0.087,1.03468 0.26086,1.44484 0.17719,0.41016 0.42574,0.72871 0.74566,0.95567 0.32321,0.22667 0.70246,0.34015 1.1375,0.34015 0.28574,0 0.54524,-0.0498 0.77821,-0.1493 0.23296,-0.0992 0.43039,-0.24226 0.59199,-0.42875 0.1616,-0.18648 0.27644,-0.41015 0.3448,-0.67101 h 1.10004 c -0.0621,0.42246 -0.21601,0.80308 -0.46129,1.14187 -0.24254,0.33551 -0.5641,0.60266 -0.96496,0.80172 -0.39758,0.19578 -0.86078,0.2934 -1.38879,0.2934 z m 7.42465,0 c -0.68988,0 -1.28488,-0.15203 -1.785,-0.45664 -0.49738,-0.30762 -0.88101,-0.73637 -1.15144,-1.28652 -0.26715,-0.55289 -0.40086,-1.19629 -0.40086,-1.92938 0,-0.73336 0.13371,-1.37976 0.40086,-1.93894 0.27043,-0.56246 0.6464,-1.00051 1.12793,-1.31442 0.4848,-0.31691 1.05027,-0.47551 1.69667,-0.47551 0.37297,0 0.74102,0.0624 1.10469,0.18649 0.3634,0.12441 0.69426,0.32621 0.99258,0.60594 0.29832,0.27644 0.53621,0.64312 0.71313,1.10004 0.17718,0.45664 0.26578,1.0191 0.26578,1.68711 v 0.46621 h -5.51852 v -0.95102 h 4.39988 c 0,-0.40387 -0.0807,-0.76426 -0.24226,-1.08117 -0.1586,-0.31692 -0.38528,-0.56711 -0.68059,-0.75031 -0.29203,-0.18348 -0.63711,-0.27508 -1.03469,-0.27508 -0.43804,0 -0.8173,0.10883 -1.13722,0.32621 -0.31692,0.21437 -0.56082,0.4941 -0.73172,0.83891 -0.1709,0.34507 -0.25648,0.71476 -0.25648,1.10933 v 0.63383 c 0,0.54086 0.0932,0.99914 0.27972,1.37512 0.18949,0.37269 0.45199,0.65707 0.78778,0.85285 0.3355,0.19277 0.72542,0.28902 1.16976,0.28902 0.28902,0 0.54988,-0.0405 0.78313,-0.12113 0.23597,-0.0839 0.43968,-0.20836 0.61058,-0.37297 0.1709,-0.16789 0.30297,-0.37598 0.39594,-0.62453 l 1.06285,0.29832 c -0.11183,0.36039 -0.29996,0.6773 -0.5641,0.95074 -0.26414,0.27043 -0.59035,0.48152 -0.97863,0.63383 -0.38856,0.1493 -0.82496,0.22367 -1.30977,0.22367 z m 5.43922,-0.0744 c -0.22996,0 -0.42711,-0.0823 -0.59199,-0.24719 -0.16461,-0.16461 -0.24692,-0.36203 -0.24692,-0.59172 0,-0.22996 0.0823,-0.42738 0.24692,-0.59199 0.16488,-0.16489 0.36203,-0.24719 0.59199,-0.24719 0.22996,0 0.42738,0.0823 0.59199,0.24719 0.16461,0.16461 0.24692,0.36203 0.24692,0.59199 0,0.15203 -0.0388,0.29203 -0.11649,0.41945 -0.0746,0.12742 -0.17555,0.22996 -0.30297,0.30762 -0.12414,0.0744 -0.26414,0.11184 -0.41945,0.11184 z" />
  </g>
</svg>
