<svg width="1280" height="640" viewBox="0 0 1280 640" fill="none" xmlns="http://www.w3.org/2000/svg">
<rect width="1280" height="640" fill="#1D1D1D"/>
<path fill-rule="evenodd" clip-rule="evenodd" d="M406.922 227.688C408.683 226.045 409.563 223.992 409.563 221.528C409.563 219.064 408.683 217.069 406.922 215.544C405.163 213.901 403.227 213.08 401.115 213.08C399.002 213.08 397.066 213.901 395.307 215.544C393.546 217.069 392.667 219.064 392.667 221.528C392.667 223.992 393.546 226.045 395.307 227.688C397.066 229.214 399.002 229.976 401.115 229.976C403.227 229.976 405.163 229.214 406.922 227.688ZM407.291 249.08H382.185L341.17 318.335H407.291V249.08ZM444.881 239.327C444.802 238.278 444.712 237.273 444.61 236.312H433.17C433.405 239.128 433.581 242.296 433.699 245.816C433.816 249.336 433.875 252.211 433.875 254.44V318.68H445.842V276.44C445.842 270.926 446.546 266.174 447.954 262.183C449.362 258.077 451.239 254.733 453.586 252.152C455.933 249.453 458.573 247.459 461.506 246.168C464.557 244.877 467.666 244.232 470.834 244.232C475.175 244.232 478.754 244.936 481.57 246.344C484.503 247.752 486.792 249.747 488.434 252.328C490.194 254.792 491.426 257.784 492.13 261.304C492.834 264.824 493.186 268.755 493.186 273.096V318.68H505.154V268.168C505.154 257.96 502.514 249.747 497.234 243.528C492.071 237.309 484.269 234.2 473.826 234.2C467.959 234.2 462.386 235.725 457.106 238.776C451.826 241.709 448.013 245.581 445.666 250.391H445.314C445.314 248.632 445.255 246.402 445.138 243.704C445.071 242.169 444.985 240.71 444.881 239.327ZM550.044 246.344H573.276V236.312H550.044V213.08H538.076V236.312H521.004V246.344H538.076V297.736C538.076 302.312 538.721 306.008 540.012 308.824C541.42 311.64 543.18 313.869 545.292 315.512C547.404 317.155 549.692 318.269 552.156 318.856C554.4 319.391 556.546 319.682 558.595 319.729C558.796 319.734 558.997 319.736 559.196 319.736C561.02 319.736 562.736 319.629 564.346 319.414C565.118 319.311 565.865 319.184 566.588 319.032C568.934 318.68 571.164 318.093 573.276 317.272L572.748 306.888C571.784 307.369 570.78 307.791 569.735 308.152C569 308.406 568.244 308.631 567.468 308.824C565.708 309.293 564.006 309.528 562.364 309.528C560.604 309.528 558.961 309.352 557.436 309C555.91 308.531 554.561 307.768 553.388 306.712C552.739 305.991 552.179 305.116 551.707 304.085C551.411 303.437 551.15 302.729 550.924 301.96C550.337 299.965 550.044 297.443 550.044 294.391V246.344ZM647.263 251.976C651.956 257.021 654.479 263.416 654.831 271.16H598.687C598.922 267.64 599.802 264.296 601.327 261.128C602.852 257.843 604.906 254.968 607.487 252.504C610.068 249.923 613.06 247.928 616.463 246.52C619.866 244.995 623.562 244.232 627.551 244.232C636.116 244.232 642.687 246.813 647.263 251.976ZM666.975 277.672V275.032C666.975 269.4 666.095 264.12 664.335 259.192C662.692 254.264 660.228 249.981 656.943 246.344C653.658 242.59 649.551 239.656 644.623 237.544C639.695 235.314 634.004 234.2 627.551 234.2C621.684 234.2 616.228 235.314 611.183 237.544C606.138 239.656 601.738 242.648 597.983 246.52C594.228 250.391 591.295 254.968 589.183 260.248C587.071 265.528 586.015 271.277 586.015 277.496C586.015 283.715 587.071 289.464 589.183 294.744C591.412 300.024 594.404 304.599 598.159 308.472C601.914 312.344 606.372 315.395 611.535 317.624C616.815 319.736 622.506 320.792 628.607 320.792C635.412 320.792 641.748 319.443 647.615 316.744C653.599 314.045 659.055 309.587 663.983 303.368L655.007 296.328C652.66 300.083 649.199 303.427 644.623 306.36C640.164 309.176 634.826 310.584 628.607 310.584C624.383 310.584 620.452 309.821 616.815 308.296C613.178 306.653 610.01 304.483 607.311 301.784C604.612 299.085 602.5 295.917 600.975 292.28C599.45 288.642 598.628 284.77 598.511 280.664H666.799C666.916 279.608 666.975 278.61 666.975 277.672ZM692.542 245.816C692.659 249.336 692.718 252.211 692.718 254.44V318.68H704.686V276.44C704.686 270.926 705.331 266.232 706.622 262.36C708.03 258.371 709.79 255.144 711.902 252.68C714.131 250.099 716.712 248.222 719.646 247.048C722.579 245.875 725.63 245.288 728.798 245.288C730.44 245.288 732.083 245.405 733.726 245.64C735.368 245.875 736.542 246.109 737.246 246.344L738.83 235.08C737.539 234.728 736.248 234.493 734.958 234.376C733.784 234.259 732.435 234.2 730.91 234.2C725.043 234.2 719.763 235.725 715.07 238.776C710.376 241.709 706.856 245.581 704.51 250.391H704.158C704.158 248.632 704.099 246.402 703.982 243.704C703.864 241.006 703.688 238.541 703.454 236.312H692.014C692.248 239.128 692.424 242.296 692.542 245.816ZM808.31 251.976C813.003 257.021 815.526 263.416 815.878 271.16H759.733C759.969 267.64 760.849 264.296 762.374 261.128C763.899 257.843 765.953 254.968 768.534 252.504C771.115 249.923 774.107 247.928 777.51 246.52C780.913 244.995 784.609 244.232 788.598 244.232C797.163 244.232 803.734 246.813 808.31 251.976ZM828.022 277.672V275.032C828.022 269.4 827.142 264.12 825.382 259.192C823.739 254.264 821.275 249.981 817.99 246.344C814.705 242.59 810.598 239.656 805.67 237.544C800.742 235.314 795.051 234.2 788.598 234.2C782.731 234.2 777.275 235.314 772.23 237.544C767.185 239.656 762.785 242.648 759.03 246.52C755.275 250.391 752.342 254.968 750.23 260.248C748.118 265.528 747.062 271.277 747.062 277.496C747.062 283.715 748.118 289.464 750.23 294.744C752.459 300.024 755.451 304.599 759.206 308.472C762.961 312.344 767.419 315.395 772.582 317.624C777.862 319.736 783.553 320.792 789.654 320.792C796.459 320.792 802.795 319.443 808.662 316.744C814.646 314.045 820.102 309.587 825.03 303.368L816.054 296.328C813.707 300.083 810.246 303.427 805.67 306.36C801.211 309.176 795.873 310.584 789.654 310.584C785.43 310.584 781.499 309.821 777.862 308.296C774.225 306.653 771.057 304.483 768.358 301.784C765.659 299.085 763.547 295.917 762.022 292.28C760.497 288.642 759.675 284.77 759.558 280.664H827.846C827.963 279.608 828.022 278.61 828.022 277.672ZM853.765 360.92H865.732V304.776H866.261C869.663 309.939 874.181 313.928 879.813 316.744C885.562 319.443 891.37 320.792 897.237 320.792C903.69 320.792 909.498 319.677 914.661 317.448C919.941 315.219 924.399 312.168 928.037 308.296C931.791 304.424 934.666 299.848 936.661 294.568C938.773 289.288 939.829 283.598 939.829 277.496C939.829 271.394 938.773 265.704 936.661 260.424C934.666 255.144 931.791 250.568 928.037 246.696C924.399 242.824 919.941 239.773 914.661 237.544C909.498 235.314 903.69 234.2 897.237 234.2C891.37 234.2 885.562 235.608 879.813 238.424C874.181 241.123 869.663 245.171 866.261 250.568H865.732V236.312H853.765V360.92ZM925.045 264.648C926.453 268.638 927.157 272.92 927.157 277.496C927.157 282.072 926.453 286.413 925.045 290.52C923.637 294.51 921.583 298.029 918.885 301.08C916.303 304.013 913.077 306.36 909.205 308.12C905.333 309.763 900.933 310.584 896.005 310.584C891.429 310.584 887.205 309.763 883.333 308.12C879.461 306.36 876.117 304.013 873.301 301.08C870.485 298.147 868.255 294.685 866.613 290.696C865.087 286.59 864.325 282.189 864.325 277.496C864.325 272.803 865.087 268.461 866.613 264.472C868.255 260.365 870.485 256.846 873.301 253.912C876.117 250.861 879.461 248.515 883.333 246.872C887.205 245.112 891.429 244.232 896.005 244.232C900.933 244.232 905.333 245.112 909.205 246.872C913.077 248.632 916.303 251.037 918.885 254.088C921.583 257.021 923.637 260.541 925.045 264.648Z" fill="#F8F8F8"/>
<path d="M400.081 437H395.649L408.467 402.091H412.831L425.649 437H421.217L410.786 407.614H410.513L400.081 437ZM401.717 423.364H419.581V427.114H401.717V423.364ZM434.564 421.25V437H430.541V410.818H434.428V414.909H434.768C435.382 413.58 436.314 412.511 437.564 411.705C438.814 410.886 440.428 410.477 442.405 410.477C444.178 410.477 445.729 410.841 447.058 411.568C448.388 412.284 449.422 413.375 450.161 414.841C450.899 416.295 451.268 418.136 451.268 420.364V437H447.246V420.636C447.246 418.58 446.712 416.977 445.643 415.83C444.575 414.67 443.109 414.091 441.246 414.091C439.962 414.091 438.814 414.369 437.803 414.926C436.803 415.483 436.013 416.295 435.433 417.364C434.854 418.432 434.564 419.727 434.564 421.25ZM470.006 410.818V414.227H456.438V410.818H470.006ZM460.392 404.545H464.415V429.5C464.415 430.636 464.58 431.489 464.909 432.057C465.25 432.614 465.682 432.989 466.205 433.182C466.739 433.364 467.301 433.455 467.892 433.455C468.335 433.455 468.699 433.432 468.983 433.386C469.267 433.33 469.494 433.284 469.665 433.25L470.483 436.864C470.21 436.966 469.83 437.068 469.341 437.17C468.852 437.284 468.233 437.341 467.483 437.341C466.347 437.341 465.233 437.097 464.142 436.608C463.063 436.119 462.165 435.375 461.449 434.375C460.744 433.375 460.392 432.114 460.392 430.591V404.545ZM476.057 437V410.818H480.08V437H476.057ZM478.102 406.455C477.318 406.455 476.642 406.188 476.074 405.653C475.517 405.119 475.239 404.477 475.239 403.727C475.239 402.977 475.517 402.335 476.074 401.801C476.642 401.267 477.318 401 478.102 401C478.886 401 479.557 401.267 480.114 401.801C480.682 402.335 480.966 402.977 480.966 403.727C480.966 404.477 480.682 405.119 480.114 405.653C479.557 406.188 478.886 406.455 478.102 406.455ZM505.993 416.682L502.379 417.705C502.152 417.102 501.817 416.517 501.374 415.949C500.942 415.369 500.351 414.892 499.601 414.517C498.851 414.142 497.891 413.955 496.72 413.955C495.118 413.955 493.783 414.324 492.714 415.062C491.658 415.79 491.129 416.716 491.129 417.841C491.129 418.841 491.493 419.631 492.22 420.21C492.947 420.79 494.084 421.273 495.629 421.659L499.516 422.614C501.857 423.182 503.601 424.051 504.749 425.222C505.896 426.381 506.47 427.875 506.47 429.705C506.47 431.205 506.038 432.545 505.175 433.727C504.322 434.909 503.129 435.841 501.595 436.523C500.061 437.205 498.277 437.545 496.243 437.545C493.572 437.545 491.362 436.966 489.612 435.807C487.862 434.648 486.754 432.955 486.288 430.727L490.107 429.773C490.47 431.182 491.158 432.239 492.169 432.943C493.192 433.648 494.527 434 496.175 434C498.05 434 499.538 433.602 500.641 432.807C501.754 432 502.311 431.034 502.311 429.909C502.311 429 501.993 428.239 501.357 427.625C500.72 427 499.743 426.534 498.425 426.227L494.061 425.205C491.663 424.636 489.902 423.756 488.777 422.562C487.663 421.358 487.107 419.852 487.107 418.045C487.107 416.568 487.521 415.261 488.351 414.125C489.192 412.989 490.334 412.097 491.777 411.449C493.232 410.801 494.879 410.477 496.72 410.477C499.311 410.477 501.345 411.045 502.822 412.182C504.311 413.318 505.368 414.818 505.993 416.682ZM515.116 446.818C514.435 446.818 513.827 446.761 513.293 446.648C512.759 446.545 512.389 446.443 512.185 446.341L513.207 442.795C514.185 443.045 515.048 443.136 515.798 443.068C516.548 443 517.213 442.665 517.793 442.062C518.384 441.472 518.923 440.511 519.412 439.182L520.162 437.136L510.48 410.818H514.844L522.071 431.682H522.344L529.571 410.818H533.935L522.821 440.818C522.321 442.17 521.702 443.29 520.963 444.176C520.224 445.074 519.366 445.739 518.389 446.17C517.423 446.602 516.332 446.818 515.116 446.818ZM539.79 437V402.091H543.812V414.977H544.153C544.449 414.523 544.858 413.943 545.381 413.239C545.915 412.523 546.676 411.886 547.665 411.33C548.665 410.761 550.017 410.477 551.722 410.477C553.926 410.477 555.869 411.028 557.551 412.131C559.233 413.233 560.545 414.795 561.489 416.818C562.432 418.841 562.903 421.227 562.903 423.977C562.903 426.75 562.432 429.153 561.489 431.188C560.545 433.21 559.239 434.778 557.568 435.892C555.898 436.994 553.972 437.545 551.79 437.545C550.108 437.545 548.761 437.267 547.75 436.71C546.739 436.142 545.96 435.5 545.415 434.784C544.869 434.057 544.449 433.455 544.153 432.977H543.676V437H539.79ZM543.744 423.909C543.744 425.886 544.034 427.631 544.614 429.142C545.193 430.642 546.04 431.818 547.153 432.67C548.267 433.511 549.631 433.932 551.244 433.932C552.926 433.932 554.33 433.489 555.455 432.602C556.591 431.705 557.443 430.5 558.011 428.989C558.591 427.466 558.881 425.773 558.881 423.909C558.881 422.068 558.597 420.409 558.028 418.932C557.472 417.443 556.625 416.267 555.489 415.403C554.364 414.528 552.949 414.091 551.244 414.091C549.608 414.091 548.233 414.506 547.119 415.335C546.006 416.153 545.165 417.301 544.597 418.778C544.028 420.244 543.744 421.955 543.744 423.909ZM569.057 437V410.818H573.08V437H569.057ZM571.102 406.455C570.318 406.455 569.642 406.188 569.074 405.653C568.517 405.119 568.239 404.477 568.239 403.727C568.239 402.977 568.517 402.335 569.074 401.801C569.642 401.267 570.318 401 571.102 401C571.886 401 572.557 401.267 573.114 401.801C573.682 402.335 573.966 402.977 573.966 403.727C573.966 404.477 573.682 405.119 573.114 405.653C572.557 406.188 571.886 406.455 571.102 406.455ZM584.47 402.091V437H580.447V402.091H584.47ZM613.043 437.614C611.384 437.614 609.878 437.301 608.526 436.676C607.173 436.04 606.099 435.125 605.304 433.932C604.509 432.727 604.111 431.273 604.111 429.568C604.111 428.068 604.406 426.852 604.997 425.92C605.588 424.977 606.378 424.239 607.366 423.705C608.355 423.17 609.446 422.773 610.639 422.511C611.844 422.239 613.054 422.023 614.27 421.864C615.861 421.659 617.151 421.506 618.139 421.403C619.139 421.29 619.866 421.102 620.321 420.841C620.787 420.58 621.02 420.125 621.02 419.477V419.341C621.02 417.659 620.56 416.352 619.639 415.42C618.73 414.489 617.349 414.023 615.497 414.023C613.577 414.023 612.071 414.443 610.98 415.284C609.889 416.125 609.122 417.023 608.679 417.977L604.861 416.614C605.543 415.023 606.452 413.784 607.588 412.898C608.736 412 609.986 411.375 611.338 411.023C612.702 410.659 614.043 410.477 615.361 410.477C616.202 410.477 617.168 410.58 618.259 410.784C619.361 410.977 620.423 411.381 621.446 411.994C622.48 412.608 623.338 413.534 624.02 414.773C624.702 416.011 625.043 417.67 625.043 419.75V437H621.02V433.455H620.815C620.543 434.023 620.088 434.631 619.452 435.278C618.815 435.926 617.969 436.477 616.912 436.932C615.855 437.386 614.565 437.614 613.043 437.614ZM613.656 434C615.247 434 616.588 433.688 617.679 433.062C618.781 432.438 619.611 431.631 620.168 430.642C620.736 429.653 621.02 428.614 621.02 427.523V423.841C620.849 424.045 620.474 424.233 619.895 424.403C619.327 424.562 618.668 424.705 617.918 424.83C617.179 424.943 616.457 425.045 615.753 425.136C615.06 425.216 614.497 425.284 614.065 425.341C613.02 425.477 612.043 425.699 611.134 426.006C610.236 426.301 609.509 426.75 608.952 427.352C608.406 427.943 608.134 428.75 608.134 429.773C608.134 431.17 608.651 432.227 609.685 432.943C610.73 433.648 612.054 434 613.656 434ZM650.93 416.682L647.317 417.705C647.089 417.102 646.754 416.517 646.311 415.949C645.879 415.369 645.288 414.892 644.538 414.517C643.788 414.142 642.828 413.955 641.658 413.955C640.055 413.955 638.72 414.324 637.652 415.062C636.595 415.79 636.067 416.716 636.067 417.841C636.067 418.841 636.43 419.631 637.158 420.21C637.885 420.79 639.021 421.273 640.567 421.659L644.453 422.614C646.794 423.182 648.538 424.051 649.686 425.222C650.834 426.381 651.408 427.875 651.408 429.705C651.408 431.205 650.976 432.545 650.112 433.727C649.26 434.909 648.067 435.841 646.533 436.523C644.999 437.205 643.214 437.545 641.18 437.545C638.51 437.545 636.3 436.966 634.55 435.807C632.8 434.648 631.692 432.955 631.226 430.727L635.044 429.773C635.408 431.182 636.095 432.239 637.107 432.943C638.129 433.648 639.464 434 641.112 434C642.987 434 644.476 433.602 645.578 432.807C646.692 432 647.249 431.034 647.249 429.909C647.249 429 646.93 428.239 646.294 427.625C645.658 427 644.68 426.534 643.362 426.227L638.999 425.205C636.601 424.636 634.839 423.756 633.714 422.562C632.601 421.358 632.044 419.852 632.044 418.045C632.044 416.568 632.459 415.261 633.288 414.125C634.129 412.989 635.271 412.097 636.714 411.449C638.169 410.801 639.817 410.477 641.658 410.477C644.249 410.477 646.283 411.045 647.76 412.182C649.249 413.318 650.305 414.818 650.93 416.682ZM678.668 437.614C677.009 437.614 675.503 437.301 674.151 436.676C672.798 436.04 671.724 435.125 670.929 433.932C670.134 432.727 669.736 431.273 669.736 429.568C669.736 428.068 670.031 426.852 670.622 425.92C671.213 424.977 672.003 424.239 672.991 423.705C673.98 423.17 675.071 422.773 676.264 422.511C677.469 422.239 678.679 422.023 679.895 421.864C681.486 421.659 682.776 421.506 683.764 421.403C684.764 421.29 685.491 421.102 685.946 420.841C686.412 420.58 686.645 420.125 686.645 419.477V419.341C686.645 417.659 686.185 416.352 685.264 415.42C684.355 414.489 682.974 414.023 681.122 414.023C679.202 414.023 677.696 414.443 676.605 415.284C675.514 416.125 674.747 417.023 674.304 417.977L670.486 416.614C671.168 415.023 672.077 413.784 673.213 412.898C674.361 412 675.611 411.375 676.963 411.023C678.327 410.659 679.668 410.477 680.986 410.477C681.827 410.477 682.793 410.58 683.884 410.784C684.986 410.977 686.048 411.381 687.071 411.994C688.105 412.608 688.963 413.534 689.645 414.773C690.327 416.011 690.668 417.67 690.668 419.75V437H686.645V433.455H686.44C686.168 434.023 685.713 434.631 685.077 435.278C684.44 435.926 683.594 436.477 682.537 436.932C681.48 437.386 680.19 437.614 678.668 437.614ZM679.281 434C680.872 434 682.213 433.688 683.304 433.062C684.406 432.438 685.236 431.631 685.793 430.642C686.361 429.653 686.645 428.614 686.645 427.523V423.841C686.474 424.045 686.099 424.233 685.52 424.403C684.952 424.562 684.293 424.705 683.543 424.83C682.804 424.943 682.082 425.045 681.378 425.136C680.685 425.216 680.122 425.284 679.69 425.341C678.645 425.477 677.668 425.699 676.759 426.006C675.861 426.301 675.134 426.75 674.577 427.352C674.031 427.943 673.759 428.75 673.759 429.773C673.759 431.17 674.276 432.227 675.31 432.943C676.355 433.648 677.679 434 679.281 434ZM730.055 416.682L726.442 417.705C726.214 417.102 725.879 416.517 725.436 415.949C725.004 415.369 724.413 414.892 723.663 414.517C722.913 414.142 721.953 413.955 720.783 413.955C719.18 413.955 717.845 414.324 716.777 415.062C715.72 415.79 715.192 416.716 715.192 417.841C715.192 418.841 715.555 419.631 716.283 420.21C717.01 420.79 718.146 421.273 719.692 421.659L723.578 422.614C725.919 423.182 727.663 424.051 728.811 425.222C729.959 426.381 730.533 427.875 730.533 429.705C730.533 431.205 730.101 432.545 729.237 433.727C728.385 434.909 727.192 435.841 725.658 436.523C724.124 437.205 722.339 437.545 720.305 437.545C717.635 437.545 715.425 436.966 713.675 435.807C711.925 434.648 710.817 432.955 710.351 430.727L714.169 429.773C714.533 431.182 715.22 432.239 716.232 432.943C717.254 433.648 718.589 434 720.237 434C722.112 434 723.601 433.602 724.703 432.807C725.817 432 726.374 431.034 726.374 429.909C726.374 429 726.055 428.239 725.419 427.625C724.783 427 723.805 426.534 722.487 426.227L718.124 425.205C715.726 424.636 713.964 423.756 712.839 422.562C711.726 421.358 711.169 419.852 711.169 418.045C711.169 416.568 711.584 415.261 712.413 414.125C713.254 412.989 714.396 412.097 715.839 411.449C717.294 410.801 718.942 410.477 720.783 410.477C723.374 410.477 725.408 411.045 726.885 412.182C728.374 413.318 729.43 414.818 730.055 416.682ZM747.565 437.545C745.043 437.545 742.866 436.989 741.037 435.875C739.219 434.75 737.815 433.182 736.827 431.17C735.849 429.148 735.361 426.795 735.361 424.114C735.361 421.432 735.849 419.068 736.827 417.023C737.815 414.966 739.19 413.364 740.952 412.216C742.724 411.057 744.793 410.477 747.156 410.477C748.52 410.477 749.866 410.705 751.196 411.159C752.526 411.614 753.736 412.352 754.827 413.375C755.918 414.386 756.787 415.727 757.435 417.398C758.082 419.068 758.406 421.125 758.406 423.568V425.273H738.224V421.795H754.315C754.315 420.318 754.02 419 753.429 417.841C752.849 416.682 752.02 415.767 750.94 415.097C749.872 414.426 748.611 414.091 747.156 414.091C745.554 414.091 744.168 414.489 742.997 415.284C741.838 416.068 740.946 417.091 740.321 418.352C739.696 419.614 739.384 420.966 739.384 422.409V424.727C739.384 426.705 739.724 428.381 740.406 429.756C741.099 431.119 742.06 432.159 743.287 432.875C744.514 433.58 745.94 433.932 747.565 433.932C748.622 433.932 749.577 433.784 750.429 433.489C751.293 433.182 752.037 432.727 752.662 432.125C753.287 431.511 753.77 430.75 754.111 429.841L757.997 430.932C757.588 432.25 756.901 433.409 755.935 434.409C754.969 435.398 753.776 436.17 752.355 436.727C750.935 437.273 749.338 437.545 747.565 437.545ZM764.526 437V410.818H768.412V414.773H768.685C769.162 413.477 770.026 412.426 771.276 411.619C772.526 410.812 773.935 410.409 775.503 410.409C775.798 410.409 776.168 410.415 776.611 410.426C777.054 410.437 777.389 410.455 777.616 410.477V414.568C777.48 414.534 777.168 414.483 776.679 414.415C776.202 414.335 775.696 414.295 775.162 414.295C773.889 414.295 772.753 414.562 771.753 415.097C770.764 415.619 769.98 416.347 769.401 417.278C768.832 418.199 768.548 419.25 768.548 420.432V437H764.526ZM804.591 410.818L794.909 437H790.818L781.136 410.818H785.5L792.727 431.682H793L800.227 410.818H804.591ZM809.901 437V410.818H813.923V437H809.901ZM811.946 406.455C811.162 406.455 810.486 406.188 809.918 405.653C809.361 405.119 809.082 404.477 809.082 403.727C809.082 402.977 809.361 402.335 809.918 401.801C810.486 401.267 811.162 401 811.946 401C812.73 401 813.401 401.267 813.957 401.801C814.526 402.335 814.81 402.977 814.81 403.727C814.81 404.477 814.526 405.119 813.957 405.653C813.401 406.188 812.73 406.455 811.946 406.455ZM831.928 437.545C829.473 437.545 827.359 436.966 825.587 435.807C823.814 434.648 822.45 433.051 821.496 431.017C820.541 428.983 820.064 426.659 820.064 424.045C820.064 421.386 820.553 419.04 821.53 417.006C822.518 414.96 823.893 413.364 825.655 412.216C827.428 411.057 829.496 410.477 831.859 410.477C833.7 410.477 835.359 410.818 836.837 411.5C838.314 412.182 839.524 413.136 840.467 414.364C841.411 415.591 841.996 417.023 842.223 418.659H838.2C837.893 417.466 837.212 416.409 836.155 415.489C835.109 414.557 833.7 414.091 831.928 414.091C830.359 414.091 828.984 414.5 827.803 415.318C826.632 416.125 825.717 417.267 825.058 418.744C824.411 420.21 824.087 421.932 824.087 423.909C824.087 425.932 824.405 427.693 825.041 429.193C825.689 430.693 826.598 431.858 827.768 432.688C828.95 433.517 830.337 433.932 831.928 433.932C832.973 433.932 833.922 433.75 834.774 433.386C835.626 433.023 836.348 432.5 836.939 431.818C837.53 431.136 837.95 430.318 838.2 429.364H842.223C841.996 430.909 841.433 432.301 840.536 433.54C839.649 434.767 838.473 435.744 837.007 436.472C835.553 437.188 833.859 437.545 831.928 437.545ZM859.081 437.545C856.558 437.545 854.382 436.989 852.553 435.875C850.734 434.75 849.331 433.182 848.342 431.17C847.365 429.148 846.876 426.795 846.876 424.114C846.876 421.432 847.365 419.068 848.342 417.023C849.331 414.966 850.706 413.364 852.467 412.216C854.24 411.057 856.308 410.477 858.672 410.477C860.036 410.477 861.382 410.705 862.712 411.159C864.041 411.614 865.251 412.352 866.342 413.375C867.433 414.386 868.303 415.727 868.95 417.398C869.598 419.068 869.922 421.125 869.922 423.568V425.273H849.74V421.795H865.831C865.831 420.318 865.536 419 864.945 417.841C864.365 416.682 863.536 415.767 862.456 415.097C861.388 414.426 860.126 414.091 858.672 414.091C857.07 414.091 855.683 414.489 854.513 415.284C853.354 416.068 852.462 417.091 851.837 418.352C851.212 419.614 850.899 420.966 850.899 422.409V424.727C850.899 426.705 851.24 428.381 851.922 429.756C852.615 431.119 853.575 432.159 854.803 432.875C856.03 433.58 857.456 433.932 859.081 433.932C860.138 433.932 861.092 433.784 861.945 433.489C862.808 433.182 863.553 432.727 864.178 432.125C864.803 431.511 865.286 430.75 865.626 429.841L869.513 430.932C869.104 432.25 868.416 433.409 867.45 434.409C866.484 435.398 865.291 436.17 863.871 436.727C862.45 437.273 860.854 437.545 859.081 437.545ZM878.973 437.273C878.132 437.273 877.411 436.972 876.808 436.369C876.206 435.767 875.905 435.045 875.905 434.205C875.905 433.364 876.206 432.642 876.808 432.04C877.411 431.437 878.132 431.136 878.973 431.136C879.814 431.136 880.536 431.437 881.138 432.04C881.74 432.642 882.041 433.364 882.041 434.205C882.041 434.761 881.899 435.273 881.615 435.739C881.342 436.205 880.973 436.58 880.507 436.864C880.053 437.136 879.541 437.273 878.973 437.273Z" fill="#F8F8F8"/>
</svg>
