<svg width="360" height="160" viewBox="0 0 360 160" fill="none" xmlns="http://www.w3.org/2000/svg">
<rect width="360" height="160" fill="#151616"/>
<rect width="360" height="160" fill="url(#paint0_linear_50_2051)"/>
<path d="M131.42 64.7811H131.228L127.975 71.2884L119.298 87.0461L110.813 71.3522L107.432 64.3346H107.241V93.9999H98.118V49.47H108.389L119.298 70.3314H119.426L130.208 49.47H140.543V93.9999H131.42V64.7811ZM181.415 93.9999L178.225 83.4097H163.36L160.17 93.9999H150.346L165.019 49.47H177.013L191.494 93.9999H181.415ZM170.888 58.2739H170.569L165.657 75.1799H175.864L170.888 58.2739ZM219.239 94.7654C216.22 94.7654 213.498 94.2976 211.073 93.3619C208.649 92.3837 206.586 90.9589 204.885 89.0876C203.184 87.1737 201.865 84.8132 200.93 82.0062C199.994 79.1566 199.526 75.8392 199.526 72.0539C199.526 68.3112 199.994 64.9938 200.93 62.1017C201.865 59.1671 203.184 56.7215 204.885 54.7651C206.586 52.7662 208.649 51.2563 211.073 50.2356C213.498 49.2148 216.22 48.7045 219.239 48.7045C223.365 48.7045 226.767 49.5551 229.447 51.2563C232.126 52.915 234.274 55.5519 235.89 59.1671L227.533 63.5052C226.937 61.6339 226.002 60.1453 224.726 59.0395C223.492 57.8911 221.664 57.317 219.239 57.317C216.39 57.317 214.093 58.2526 212.349 60.124C210.648 61.9528 209.798 64.6323 209.798 68.1623V75.3075C209.798 78.8376 210.648 81.5383 212.349 83.4097C214.093 85.2385 216.39 86.1529 219.239 86.1529C221.621 86.1529 223.514 85.515 224.917 84.239C226.363 82.9206 227.427 81.3469 228.107 79.5181L236.018 84.1114C234.359 87.5139 232.169 90.1508 229.447 92.0222C226.767 93.851 223.365 94.7654 219.239 94.7654ZM244.675 93.9999V86.2805H250.416V57.1894H244.675V49.47H265.855V57.1894H260.113V86.2805H265.855V93.9999H244.675Z" fill="#FCFCFC"/>
<rect x="77.5517" y="32.748" width="206.7" height="75.4392" stroke="#FCFCFC" stroke-width="7.49607"/>
<path d="M79.3098 122.828H79.2732L78.6508 124.073L76.9911 127.087L75.3681 124.085L74.7213 122.742H74.6847V128.417H72.9397V119.899H74.9044L76.9911 123.889H77.0155L79.0779 119.899H81.0548V128.417H79.3098V122.828ZM83.7437 121.327C83.3776 121.327 83.1091 121.245 82.9382 121.083C82.7755 120.912 82.6942 120.696 82.6942 120.436V120.167C82.6942 119.907 82.7755 119.696 82.9382 119.533C83.1091 119.362 83.3776 119.277 83.7437 119.277C84.1097 119.277 84.3742 119.362 84.5369 119.533C84.7077 119.696 84.7931 119.907 84.7931 120.167V120.436C84.7931 120.696 84.7077 120.912 84.5369 121.083C84.3742 121.245 84.1097 121.327 83.7437 121.327ZM82.8406 122.01H84.6467V128.417H82.8406V122.01ZM86.3324 128.417V122.01H88.1385V123.096H88.2117C88.3256 122.763 88.5249 122.474 88.8096 122.23C89.0944 121.986 89.4889 121.864 89.9934 121.864C90.6523 121.864 91.1486 122.083 91.4822 122.523C91.8238 122.962 91.9947 123.588 91.9947 124.402V128.417H90.1886V124.548C90.1886 124.134 90.1235 123.828 89.9934 123.633C89.8632 123.43 89.6313 123.328 89.2978 123.328C89.1513 123.328 89.009 123.348 88.8706 123.389C88.7323 123.422 88.6062 123.479 88.4923 123.56C88.3866 123.641 88.3012 123.743 88.2361 123.865C88.171 123.979 88.1385 124.113 88.1385 124.268V128.417H86.3324ZM94.5049 121.327C94.1388 121.327 93.8704 121.245 93.6995 121.083C93.5368 120.912 93.4555 120.696 93.4555 120.436V120.167C93.4555 119.907 93.5368 119.696 93.6995 119.533C93.8704 119.362 94.1388 119.277 94.5049 119.277C94.871 119.277 95.1354 119.362 95.2982 119.533C95.469 119.696 95.5544 119.907 95.5544 120.167V120.436C95.5544 120.696 95.469 120.912 95.2982 121.083C95.1354 121.245 94.871 121.327 94.5049 121.327ZM93.6019 122.01H95.408V128.417H93.6019V122.01ZM97.0937 128.417V122.01H98.8997V123.096H98.973C99.0869 122.755 99.2821 122.466 99.5587 122.23C99.8353 121.986 100.214 121.864 100.694 121.864C101.133 121.864 101.507 121.974 101.816 122.193C102.125 122.413 102.349 122.734 102.488 123.157H102.524C102.581 122.978 102.666 122.811 102.78 122.657C102.902 122.494 103.049 122.356 103.22 122.242C103.391 122.128 103.582 122.039 103.793 121.974C104.005 121.9 104.233 121.864 104.477 121.864C105.095 121.864 105.567 122.083 105.892 122.523C106.226 122.962 106.393 123.588 106.393 124.402V128.417H104.586V124.548C104.586 123.735 104.294 123.328 103.708 123.328C103.439 123.328 103.195 123.405 102.976 123.56C102.756 123.715 102.646 123.95 102.646 124.268V128.417H100.84V124.548C100.84 123.735 100.547 123.328 99.9614 123.328C99.8313 123.328 99.7011 123.348 99.5709 123.389C99.4489 123.422 99.335 123.479 99.2292 123.56C99.1316 123.641 99.0502 123.743 98.9852 123.865C98.9282 123.979 98.8997 124.113 98.8997 124.268V128.417H97.0937ZM112.733 128.417C112.407 128.417 112.135 128.315 111.915 128.112C111.704 127.908 111.569 127.636 111.512 127.294H111.439C111.342 127.709 111.126 128.026 110.792 128.246C110.459 128.458 110.048 128.563 109.56 128.563C108.917 128.563 108.425 128.392 108.083 128.051C107.742 127.709 107.571 127.258 107.571 126.696C107.571 126.021 107.815 125.521 108.303 125.195C108.799 124.862 109.47 124.695 110.317 124.695H111.329V124.292C111.329 123.983 111.248 123.739 111.085 123.56C110.923 123.373 110.65 123.279 110.268 123.279C109.91 123.279 109.625 123.357 109.414 123.511C109.202 123.666 109.027 123.841 108.889 124.036L107.815 123.084C108.075 122.702 108.401 122.405 108.791 122.193C109.19 121.974 109.727 121.864 110.402 121.864C111.313 121.864 111.997 122.063 112.452 122.462C112.908 122.86 113.136 123.442 113.136 124.207V127.013H113.733V128.417H112.733ZM110.231 127.306C110.532 127.306 110.788 127.241 111 127.111C111.22 126.981 111.329 126.769 111.329 126.477V125.72H110.451C109.743 125.72 109.389 125.96 109.389 126.44V126.623C109.389 126.859 109.462 127.034 109.609 127.148C109.755 127.253 109.963 127.306 110.231 127.306ZM116.74 128.417C116.121 128.417 115.666 128.266 115.373 127.965C115.088 127.664 114.946 127.229 114.946 126.66V119.386H116.752V127.013H117.557V128.417H116.74ZM126.869 128.417L126.259 126.391H123.416L122.805 128.417H120.926L123.733 119.899H126.027L128.797 128.417H126.869ZM124.856 121.583H124.795L123.855 124.817H125.807L124.856 121.583ZM129.878 128.417V122.01H131.684V123.096H131.757C131.871 122.763 132.071 122.474 132.355 122.23C132.64 121.986 133.035 121.864 133.539 121.864C134.198 121.864 134.694 122.083 135.028 122.523C135.37 122.962 135.54 123.588 135.54 124.402V128.417H133.734V124.548C133.734 124.134 133.669 123.828 133.539 123.633C133.409 123.43 133.177 123.328 132.843 123.328C132.697 123.328 132.555 123.348 132.416 123.389C132.278 123.422 132.152 123.479 132.038 123.56C131.932 123.641 131.847 123.743 131.782 123.865C131.717 123.979 131.684 124.113 131.684 124.268V128.417H129.878ZM139.393 128.417C138.767 128.417 138.291 128.258 137.965 127.941C137.648 127.624 137.489 127.16 137.489 126.55V123.414H136.586V122.01H137.038C137.282 122.01 137.449 121.953 137.538 121.839C137.628 121.717 137.672 121.546 137.672 121.327V120.277H139.295V122.01H140.564V123.414H139.295V127.013H140.467V128.417H139.393ZM142.722 121.327C142.356 121.327 142.088 121.245 141.917 121.083C141.754 120.912 141.673 120.696 141.673 120.436V120.167C141.673 119.907 141.754 119.696 141.917 119.533C142.088 119.362 142.356 119.277 142.722 119.277C143.088 119.277 143.353 119.362 143.515 119.533C143.686 119.696 143.772 119.907 143.772 120.167V120.436C143.772 120.696 143.686 120.912 143.515 121.083C143.353 121.245 143.088 121.327 142.722 121.327ZM141.819 122.01H143.625V128.417H141.819V122.01ZM145.116 125.574V123.816H148.74V125.574H145.116ZM153.95 128.563C153.373 128.563 152.852 128.474 152.388 128.295C151.925 128.108 151.53 127.835 151.205 127.477C150.879 127.111 150.627 126.66 150.448 126.123C150.269 125.578 150.18 124.943 150.18 124.219C150.18 123.503 150.269 122.868 150.448 122.315C150.627 121.754 150.879 121.286 151.205 120.912C151.53 120.529 151.925 120.241 152.388 120.045C152.852 119.85 153.373 119.753 153.95 119.753C154.74 119.753 155.39 119.915 155.903 120.241C156.415 120.558 156.826 121.062 157.135 121.754L155.537 122.584C155.423 122.226 155.244 121.941 155 121.729C154.764 121.51 154.414 121.4 153.95 121.4C153.405 121.4 152.966 121.579 152.632 121.937C152.307 122.287 152.144 122.799 152.144 123.475V124.841C152.144 125.517 152.307 126.033 152.632 126.391C152.966 126.741 153.405 126.916 153.95 126.916C154.406 126.916 154.768 126.794 155.037 126.55C155.313 126.298 155.517 125.997 155.647 125.647L157.16 126.525C156.843 127.176 156.424 127.681 155.903 128.039C155.39 128.388 154.74 128.563 153.95 128.563ZM160.96 128.563C160.488 128.563 160.065 128.486 159.69 128.331C159.324 128.177 159.011 127.953 158.751 127.66C158.499 127.367 158.303 127.013 158.165 126.599C158.027 126.184 157.958 125.72 157.958 125.207C157.958 124.695 158.027 124.231 158.165 123.816C158.303 123.401 158.499 123.051 158.751 122.767C159.011 122.474 159.324 122.25 159.69 122.096C160.065 121.941 160.488 121.864 160.96 121.864C161.431 121.864 161.85 121.941 162.217 122.096C162.591 122.25 162.904 122.474 163.156 122.767C163.417 123.051 163.616 123.401 163.754 123.816C163.892 124.231 163.962 124.695 163.962 125.207C163.962 125.72 163.892 126.184 163.754 126.599C163.616 127.013 163.417 127.367 163.156 127.66C162.904 127.953 162.591 128.177 162.217 128.331C161.85 128.486 161.431 128.563 160.96 128.563ZM160.96 127.136C161.318 127.136 161.594 127.026 161.789 126.806C161.985 126.586 162.082 126.273 162.082 125.866V124.561C162.082 124.154 161.985 123.841 161.789 123.621C161.594 123.401 161.318 123.291 160.96 123.291C160.602 123.291 160.325 123.401 160.13 123.621C159.935 123.841 159.837 124.154 159.837 124.561V125.866C159.837 126.273 159.935 126.586 160.13 126.806C160.325 127.026 160.602 127.136 160.96 127.136ZM167.042 128.417C166.424 128.417 165.968 128.266 165.676 127.965C165.391 127.664 165.248 127.229 165.248 126.66V119.386H167.055V127.013H167.86V128.417H167.042ZM170.641 128.417C170.023 128.417 169.567 128.266 169.275 127.965C168.99 127.664 168.847 127.229 168.847 126.66V119.386H170.654V127.013H171.459V128.417H170.641ZM176.325 127.343H176.264C176.207 127.506 176.13 127.66 176.032 127.807C175.942 127.953 175.825 128.083 175.678 128.197C175.532 128.311 175.357 128.401 175.153 128.466C174.958 128.531 174.73 128.563 174.47 128.563C173.811 128.563 173.311 128.348 172.969 127.917C172.635 127.477 172.469 126.851 172.469 126.037V122.01H174.275V125.879C174.275 126.269 174.344 126.57 174.482 126.782C174.62 126.993 174.856 127.099 175.19 127.099C175.328 127.099 175.467 127.079 175.605 127.038C175.743 126.997 175.865 126.94 175.971 126.867C176.077 126.786 176.162 126.688 176.227 126.574C176.292 126.46 176.325 126.326 176.325 126.171V122.01H178.131V128.417H176.325V127.343ZM181.984 128.563C181.365 128.563 180.845 128.466 180.422 128.27C179.998 128.067 179.62 127.782 179.287 127.416L180.348 126.342C180.576 126.595 180.828 126.794 181.105 126.94C181.382 127.087 181.695 127.16 182.045 127.16C182.403 127.16 182.651 127.107 182.789 127.001C182.927 126.887 182.996 126.737 182.996 126.55C182.996 126.249 182.781 126.07 182.35 126.013L181.654 125.927C180.214 125.748 179.494 125.089 179.494 123.95C179.494 123.641 179.551 123.361 179.665 123.108C179.787 122.848 179.954 122.628 180.165 122.449C180.385 122.262 180.645 122.12 180.946 122.022C181.255 121.917 181.601 121.864 181.984 121.864C182.317 121.864 182.61 121.888 182.862 121.937C183.123 121.978 183.35 122.043 183.546 122.132C183.749 122.214 183.932 122.319 184.095 122.449C184.266 122.572 184.432 122.71 184.595 122.864L183.558 123.926C183.354 123.723 183.123 123.564 182.862 123.45C182.61 123.328 182.35 123.267 182.081 123.267C181.772 123.267 181.552 123.316 181.422 123.414C181.292 123.511 181.227 123.641 181.227 123.804C181.227 123.975 181.272 124.109 181.361 124.207C181.459 124.296 181.638 124.361 181.898 124.402L182.618 124.5C184.026 124.687 184.729 125.329 184.729 126.428C184.729 126.737 184.664 127.022 184.534 127.282C184.404 127.542 184.217 127.77 183.973 127.965C183.737 128.152 183.448 128.299 183.106 128.405C182.773 128.51 182.398 128.563 181.984 128.563ZM186.864 121.327C186.498 121.327 186.229 121.245 186.058 121.083C185.896 120.912 185.814 120.696 185.814 120.436V120.167C185.814 119.907 185.896 119.696 186.058 119.533C186.229 119.362 186.498 119.277 186.864 119.277C187.23 119.277 187.494 119.362 187.657 119.533C187.828 119.696 187.913 119.907 187.913 120.167V120.436C187.913 120.696 187.828 120.912 187.657 121.083C187.494 121.245 187.23 121.327 186.864 121.327ZM185.961 122.01H187.767V128.417H185.961V122.01ZM192.052 128.563C191.58 128.563 191.157 128.486 190.783 128.331C190.416 128.177 190.103 127.953 189.843 127.66C189.591 127.367 189.395 127.013 189.257 126.599C189.119 126.184 189.05 125.72 189.05 125.207C189.05 124.695 189.119 124.231 189.257 123.816C189.395 123.401 189.591 123.051 189.843 122.767C190.103 122.474 190.416 122.25 190.783 122.096C191.157 121.941 191.58 121.864 192.052 121.864C192.524 121.864 192.943 121.941 193.309 122.096C193.683 122.25 193.996 122.474 194.248 122.767C194.509 123.051 194.708 123.401 194.846 123.816C194.985 124.231 195.054 124.695 195.054 125.207C195.054 125.72 194.985 126.184 194.846 126.599C194.708 127.013 194.509 127.367 194.248 127.66C193.996 127.953 193.683 128.177 193.309 128.331C192.943 128.486 192.524 128.563 192.052 128.563ZM192.052 127.136C192.41 127.136 192.686 127.026 192.882 126.806C193.077 126.586 193.174 126.273 193.174 125.866V124.561C193.174 124.154 193.077 123.841 192.882 123.621C192.686 123.401 192.41 123.291 192.052 123.291C191.694 123.291 191.417 123.401 191.222 123.621C191.027 123.841 190.929 124.154 190.929 124.561V125.866C190.929 126.273 191.027 126.586 191.222 126.806C191.417 127.026 191.694 127.136 192.052 127.136ZM196.341 128.417V122.01H198.147V123.096H198.22C198.334 122.763 198.533 122.474 198.818 122.23C199.103 121.986 199.497 121.864 200.002 121.864C200.661 121.864 201.157 122.083 201.49 122.523C201.832 122.962 202.003 123.588 202.003 124.402V128.417H200.197V124.548C200.197 124.134 200.132 123.828 200.002 123.633C199.871 123.43 199.64 123.328 199.306 123.328C199.16 123.328 199.017 123.348 198.879 123.389C198.741 123.422 198.614 123.479 198.501 123.56C198.395 123.641 198.309 123.743 198.244 123.865C198.179 123.979 198.147 124.113 198.147 124.268V128.417H196.341ZM206.262 128.417V126.94H207.361V121.376H206.262V119.899H210.314V121.376H209.215V126.94H210.314V128.417H206.262ZM211.762 128.417V122.01H213.568V123.096H213.641C213.755 122.763 213.954 122.474 214.239 122.23C214.524 121.986 214.918 121.864 215.423 121.864C216.082 121.864 216.578 122.083 216.911 122.523C217.253 122.962 217.424 123.588 217.424 124.402V128.417H215.618V124.548C215.618 124.134 215.553 123.828 215.423 123.633C215.292 123.43 215.061 123.328 214.727 123.328C214.581 123.328 214.438 123.348 214.3 123.389C214.162 123.422 214.035 123.479 213.922 123.56C213.816 123.641 213.73 123.743 213.665 123.865C213.6 123.979 213.568 124.113 213.568 124.268V128.417H211.762ZM219.348 123.414H218.445V122.01H219.348V121.254C219.348 120.635 219.511 120.172 219.836 119.862C220.162 119.545 220.638 119.386 221.264 119.386H222.436V120.79H221.154V122.01H222.436V123.414H221.154V128.417H219.348V123.414ZM223.44 128.417V122.01H225.247V123.401H225.308C225.34 123.222 225.397 123.051 225.478 122.889C225.56 122.718 225.666 122.567 225.796 122.437C225.934 122.307 226.097 122.205 226.284 122.132C226.471 122.051 226.691 122.01 226.943 122.01H227.26V123.694H226.809C226.28 123.694 225.885 123.763 225.625 123.902C225.373 124.04 225.247 124.296 225.247 124.67V128.417H223.44ZM232.942 128.417C232.617 128.417 232.344 128.315 232.125 128.112C231.913 127.908 231.779 127.636 231.722 127.294H231.649C231.551 127.709 231.335 128.026 231.002 128.246C230.668 128.458 230.258 128.563 229.769 128.563C229.127 128.563 228.634 128.392 228.293 128.051C227.951 127.709 227.78 127.258 227.78 126.696C227.78 126.021 228.024 125.521 228.512 125.195C229.009 124.862 229.68 124.695 230.526 124.695H231.539V124.292C231.539 123.983 231.458 123.739 231.295 123.56C231.132 123.373 230.86 123.279 230.477 123.279C230.119 123.279 229.834 123.357 229.623 123.511C229.411 123.666 229.237 123.841 229.098 124.036L228.024 123.084C228.285 122.702 228.61 122.405 229.001 122.193C229.399 121.974 229.936 121.864 230.611 121.864C231.523 121.864 232.206 122.063 232.662 122.462C233.117 122.86 233.345 123.442 233.345 124.207V127.013H233.943V128.417H232.942ZM230.441 127.306C230.742 127.306 230.998 127.241 231.209 127.111C231.429 126.981 231.539 126.769 231.539 126.477V125.72H230.66C229.952 125.72 229.599 125.96 229.599 126.44V126.623C229.599 126.859 229.672 127.034 229.818 127.148C229.965 127.253 230.172 127.306 230.441 127.306ZM237.327 128.563C236.709 128.563 236.188 128.466 235.765 128.27C235.342 128.067 234.964 127.782 234.63 127.416L235.692 126.342C235.92 126.595 236.172 126.794 236.449 126.94C236.725 127.087 237.039 127.16 237.388 127.16C237.746 127.16 237.994 127.107 238.133 127.001C238.271 126.887 238.34 126.737 238.34 126.55C238.34 126.249 238.125 126.07 237.693 126.013L236.998 125.927C235.558 125.748 234.838 125.089 234.838 123.95C234.838 123.641 234.895 123.361 235.009 123.108C235.131 122.848 235.298 122.628 235.509 122.449C235.729 122.262 235.989 122.12 236.29 122.022C236.599 121.917 236.945 121.864 237.327 121.864C237.661 121.864 237.954 121.888 238.206 121.937C238.466 121.978 238.694 122.043 238.889 122.132C239.093 122.214 239.276 122.319 239.438 122.449C239.609 122.572 239.776 122.71 239.939 122.864L238.902 123.926C238.698 123.723 238.466 123.564 238.206 123.45C237.954 123.328 237.693 123.267 237.425 123.267C237.116 123.267 236.896 123.316 236.766 123.414C236.636 123.511 236.571 123.641 236.571 123.804C236.571 123.975 236.615 124.109 236.705 124.207C236.803 124.296 236.982 124.361 237.242 124.402L237.962 124.5C239.369 124.687 240.073 125.329 240.073 126.428C240.073 126.737 240.008 127.022 239.878 127.282C239.748 127.542 239.561 127.77 239.316 127.965C239.081 128.152 238.792 128.299 238.45 128.405C238.116 128.51 237.742 128.563 237.327 128.563ZM243.455 128.417C242.828 128.417 242.352 128.258 242.027 127.941C241.709 127.624 241.551 127.16 241.551 126.55V123.414H240.648V122.01H241.099C241.343 122.01 241.51 121.953 241.6 121.839C241.689 121.717 241.734 121.546 241.734 121.327V120.277H243.357V122.01H244.626V123.414H243.357V127.013H244.528V128.417H243.455ZM245.881 128.417V122.01H247.687V123.401H247.748C247.78 123.222 247.837 123.051 247.919 122.889C248 122.718 248.106 122.567 248.236 122.437C248.374 122.307 248.537 122.205 248.724 122.132C248.911 122.051 249.131 122.01 249.383 122.01H249.7V123.694H249.249C248.72 123.694 248.325 123.763 248.065 123.902C247.813 124.04 247.687 124.296 247.687 124.67V128.417H245.881ZM254.597 127.343H254.536C254.479 127.506 254.402 127.66 254.305 127.807C254.215 127.953 254.097 128.083 253.951 128.197C253.804 128.311 253.629 128.401 253.426 128.466C253.231 128.531 253.003 128.563 252.743 128.563C252.084 128.563 251.583 128.348 251.242 127.917C250.908 127.477 250.741 126.851 250.741 126.037V122.01H252.547V125.879C252.547 126.269 252.616 126.57 252.755 126.782C252.893 126.993 253.129 127.099 253.463 127.099C253.601 127.099 253.739 127.079 253.877 127.038C254.016 126.997 254.138 126.94 254.244 126.867C254.349 126.786 254.435 126.688 254.5 126.574C254.565 126.46 254.597 126.326 254.597 126.171V122.01H256.404V128.417H254.597V127.343ZM260.671 128.563C260.191 128.563 259.764 128.486 259.39 128.331C259.015 128.169 258.702 127.945 258.45 127.66C258.198 127.367 258.007 127.013 257.876 126.599C257.746 126.184 257.681 125.72 257.681 125.207C257.681 124.695 257.746 124.235 257.876 123.828C258.007 123.414 258.198 123.06 258.45 122.767C258.702 122.474 259.015 122.25 259.39 122.096C259.764 121.941 260.191 121.864 260.671 121.864C261.322 121.864 261.863 122.01 262.294 122.303C262.733 122.596 263.047 123.007 263.234 123.536L261.769 124.17C261.712 123.926 261.594 123.719 261.415 123.548C261.236 123.377 260.988 123.291 260.671 123.291C260.305 123.291 260.028 123.414 259.841 123.658C259.654 123.894 259.561 124.215 259.561 124.622V125.818C259.561 126.224 259.654 126.546 259.841 126.782C260.028 127.018 260.305 127.136 260.671 127.136C260.996 127.136 261.253 127.05 261.44 126.879C261.635 126.7 261.777 126.468 261.867 126.184L263.27 126.794C263.059 127.404 262.729 127.851 262.282 128.136C261.843 128.421 261.306 128.563 260.671 128.563ZM266.634 128.417C266.007 128.417 265.531 128.258 265.206 127.941C264.889 127.624 264.73 127.16 264.73 126.55V123.414H263.827V122.01H264.278C264.522 122.01 264.689 121.953 264.779 121.839C264.868 121.717 264.913 121.546 264.913 121.327V120.277H266.536V122.01H267.805V123.414H266.536V127.013H267.707V128.417H266.634ZM272.843 127.343H272.782C272.725 127.506 272.648 127.66 272.55 127.807C272.46 127.953 272.342 128.083 272.196 128.197C272.05 128.311 271.875 128.401 271.671 128.466C271.476 128.531 271.248 128.563 270.988 128.563C270.329 128.563 269.829 128.348 269.487 127.917C269.153 127.477 268.987 126.851 268.987 126.037V122.01H270.793V125.879C270.793 126.269 270.862 126.57 271 126.782C271.138 126.993 271.374 127.099 271.708 127.099C271.846 127.099 271.984 127.079 272.123 127.038C272.261 126.997 272.383 126.94 272.489 126.867C272.595 126.786 272.68 126.688 272.745 126.574C272.81 126.46 272.843 126.326 272.843 126.171V122.01H274.649V128.417H272.843V127.343ZM276.329 128.417V122.01H278.135V123.401H278.196C278.229 123.222 278.286 123.051 278.367 122.889C278.449 122.718 278.554 122.567 278.685 122.437C278.823 122.307 278.986 122.205 279.173 122.132C279.36 122.051 279.579 122.01 279.832 122.01H280.149V123.694H279.697C279.169 123.694 278.774 123.763 278.514 123.902C278.261 124.04 278.135 124.296 278.135 124.67V128.417H276.329ZM283.876 128.563C283.388 128.563 282.953 128.486 282.57 128.331C282.188 128.169 281.862 127.945 281.594 127.66C281.334 127.367 281.134 127.013 280.996 126.599C280.866 126.184 280.801 125.72 280.801 125.207C280.801 124.703 280.866 124.247 280.996 123.841C281.126 123.426 281.317 123.072 281.57 122.779C281.83 122.486 282.147 122.262 282.521 122.108C282.896 121.945 283.323 121.864 283.803 121.864C284.332 121.864 284.783 121.953 285.157 122.132C285.54 122.311 285.849 122.551 286.085 122.852C286.329 123.153 286.504 123.503 286.609 123.902C286.723 124.292 286.78 124.703 286.78 125.134V125.671H282.668V125.769C282.668 126.192 282.782 126.529 283.01 126.782C283.237 127.026 283.595 127.148 284.083 127.148C284.458 127.148 284.763 127.075 284.999 126.928C285.235 126.773 285.454 126.59 285.658 126.379L286.561 127.502C286.276 127.835 285.902 128.096 285.438 128.283C284.982 128.47 284.462 128.563 283.876 128.563ZM283.839 123.194C283.473 123.194 283.184 123.316 282.973 123.56C282.77 123.796 282.668 124.113 282.668 124.512V124.609H284.913V124.5C284.913 124.109 284.824 123.796 284.645 123.56C284.474 123.316 284.205 123.194 283.839 123.194Z" fill="#FCFCFC"/>
<defs>
<linearGradient id="paint0_linear_50_2051" x1="180" y1="0" x2="180" y2="160" gradientUnits="userSpaceOnUse">
<stop stop-color="#3F6EA6"/>
<stop offset="1" stop-color="#08458E"/>
</linearGradient>
</defs>
</svg>
