<svg width="56" height="80" viewBox="0 0 56 80" fill="none" xmlns="http://www.w3.org/2000/svg">
<path d="M52.9329 28.2497C52.9329 29.1611 52.2887 29.9179 51.4379 30.0928C51.3164 30.1173 51.1908 30.1295 51.0612 30.1295H44.8099C43.7728 30.1295 42.9342 30.9717 42.9342 32.0133V38.2915C42.9342 38.9425 42.606 39.5121 42.1077 39.8539C41.9092 39.9882 41.6823 40.0858 41.4392 40.1387C41.3177 40.1631 41.1921 40.1753 41.0624 40.1753H34.8112C33.774 40.1753 32.9354 41.0176 32.9354 42.0592V48.3374C32.9354 49.379 32.0968 50.2212 31.0596 50.2212H24.8084C23.7713 50.2212 22.9326 49.379 22.9326 48.3374V42.0592C22.9326 41.0176 23.7713 40.1753 24.8084 40.1753H31.0596C32.0968 40.1753 32.9354 39.3331 32.9354 38.2915V32.0133C32.9354 30.9717 33.774 30.1295 34.8112 30.1295H41.0624C42.0996 30.1295 42.9382 29.2872 42.9382 28.2456V20.0836C42.9382 14.55 38.4817 10.0581 32.9719 10.0418C27.4661 10.0621 23.0056 14.55 23.0056 20.0836V28.2456C23.0056 29.2872 22.1669 30.1295 21.1298 30.1295H14.8786C13.8414 30.1295 13.0028 30.9717 13.0028 32.0133V48.3374C13.0028 49.379 12.1642 50.2212 11.127 50.2212H4.87577C3.83863 50.2212 3 49.379 3 48.3374V32.0133C3 30.9717 3.83863 30.1295 4.87577 30.1295H11.127C12.1642 30.1295 13.0028 29.2872 13.0028 28.2456V20.047C13.0028 8.97578 21.9401 0 32.9678 0C43.9956 0 52.9329 8.97577 52.9329 20.051V28.2497Z" fill="#030C0C"/>
<path d="M3.00363 80V58.0083H6.18296V60.2615H6.68662C7.08535 59.5633 7.68344 58.9392 8.4809 58.3892C9.29934 57.8391 10.464 57.5641 11.975 57.5641C13.2761 57.5641 14.4618 57.8814 15.5321 58.5161C16.6234 59.1508 17.4943 60.0711 18.1448 61.277C18.8164 62.4617 19.1521 63.9003 19.1521 65.5928V66.0688C19.1521 67.7613 18.8269 69.2104 18.1763 70.4163C17.5257 71.6011 16.6548 72.5108 15.5636 73.1455C14.4723 73.7801 13.2761 74.0975 11.975 74.0975C10.9677 74.0975 10.1178 73.9705 9.42526 73.7167C8.73273 73.4628 8.17661 73.1455 7.75689 72.7647C7.33718 72.3627 7.00141 71.9501 6.74958 71.527H6.24592V80H3.00363ZM11.0307 71.2414C12.4577 71.2414 13.6224 70.7866 14.5248 69.8769C15.4272 68.9672 15.8784 67.6661 15.8784 65.9736V65.688C15.8784 64.0167 15.4167 62.7261 14.4933 61.8164C13.5909 60.9067 12.4367 60.4519 11.0307 60.4519C9.64561 60.4519 8.49139 60.9067 7.56802 61.8164C6.66564 62.7261 6.21444 64.0167 6.21444 65.688V65.9736C6.21444 67.6661 6.66564 68.9672 7.56802 69.8769C8.49139 70.7866 9.64561 71.2414 11.0307 71.2414Z" fill="#030C0C"/>
<path d="M28.8987 74.0975C26.926 74.0975 25.2891 73.6532 23.988 72.7647C22.6869 71.8761 21.8894 70.5327 21.5956 68.7344L24.6176 68.0046C24.7855 68.872 25.0688 69.5595 25.4675 70.0673C25.8662 70.575 26.3594 70.9347 26.947 71.1462C27.5556 71.3578 28.2061 71.4636 28.8987 71.4636C29.927 71.4636 30.7139 71.2626 31.2596 70.8606C31.8262 70.4586 32.1095 69.9403 32.1095 69.3056C32.1095 68.671 31.8472 68.2055 31.3225 67.9094C30.7979 67.6132 30.0214 67.3699 28.9931 67.1795L27.9228 66.9891C26.8736 66.7987 25.9187 66.5236 25.0583 66.164C24.1979 65.8043 23.5158 65.3072 23.0122 64.6725C22.5085 64.0378 22.2567 63.2233 22.2567 62.229C22.2567 60.748 22.8023 59.6056 23.8936 58.8017C24.9848 57.9766 26.4329 57.5641 28.2376 57.5641C29.9794 57.5641 31.4065 57.966 32.5187 58.77C33.6519 59.5527 34.3864 60.6211 34.7222 61.9751L31.7003 62.8319C31.5114 61.8799 31.1127 61.2135 30.5041 60.8327C29.8955 60.4307 29.14 60.2297 28.2376 60.2297C27.3562 60.2297 26.6637 60.399 26.16 60.7375C25.6564 61.0548 25.4046 61.5097 25.4046 62.102C25.4046 62.7367 25.6459 63.2021 26.1286 63.4983C26.6322 63.7945 27.3038 64.0167 28.1432 64.1647L29.2449 64.3551C30.3572 64.5455 31.375 64.81 32.2984 65.1485C33.2217 65.487 33.9457 65.9736 34.4704 66.6083C35.016 67.2429 35.2888 68.0892 35.2888 69.147C35.2888 70.7125 34.7117 71.929 33.5575 72.7964C32.4033 73.6638 30.8503 74.0975 28.8987 74.0975Z" fill="#030C0C"/>
<path d="M45.5631 74.0975C43.9892 74.0975 42.6146 73.7696 41.4394 73.1137C40.2642 72.4367 39.3409 71.4953 38.6693 70.2894C38.0188 69.0624 37.6935 67.6449 37.6935 66.037V65.6562C37.6935 64.0272 38.0188 62.6098 38.6693 61.4039C39.3199 60.1768 40.2223 59.2354 41.3765 58.5796C42.5517 57.9026 43.9053 57.5641 45.4372 57.5641C46.9272 57.5641 48.2283 57.9026 49.3406 58.5796C50.4738 59.2354 51.3552 60.1557 51.9848 61.3404C52.6143 62.5251 52.9291 63.9109 52.9291 65.4976V66.7352H40.9987C41.0407 68.1103 41.4919 69.2104 42.3523 70.0355C43.2337 70.8395 44.325 71.2414 45.6261 71.2414C46.8433 71.2414 47.7561 70.9664 48.3647 70.4163C48.9943 69.8663 49.477 69.2316 49.8127 68.5123L52.4884 69.9086C52.1946 70.501 51.7644 71.1251 51.1978 71.7809C50.6522 72.4367 49.9282 72.9868 49.0258 73.4311C48.1234 73.8753 46.9692 74.0975 45.5631 74.0975ZM41.0302 64.2282H49.6239C49.5399 63.0435 49.1202 62.1232 48.3647 61.4674C47.6092 60.7904 46.6229 60.4519 45.4057 60.4519C44.1886 60.4519 43.1917 60.7904 42.4153 61.4674C41.6598 62.1232 41.1981 63.0435 41.0302 64.2282Z" fill="#030C0C"/>
</svg>
