<svg width="1326" height="571" viewBox="0 0 1326 571" fill="none" xmlns="http://www.w3.org/2000/svg">
<g clip-path="url(#clip0_588_2165)">
<g filter="url(#filter0_d_588_2165)">
<path fill-rule="evenodd" clip-rule="evenodd" d="M454.743 628.037C534.016 628.037 598.279 563.774 598.279 484.501C598.279 405.228 534.016 340.965 454.743 340.965C375.47 340.965 311.207 405.228 311.207 484.501C311.207 563.774 375.47 628.037 454.743 628.037ZM454.742 557.755C495.199 557.755 527.997 524.958 527.997 484.501C527.997 444.044 495.199 411.247 454.742 411.247C414.285 411.247 381.488 444.044 381.488 484.501C381.488 524.958 414.285 557.755 454.742 557.755Z" fill="#53D3E0"/>
<path d="M592.279 484.501C592.279 560.46 530.702 622.037 454.743 622.037V634.037C537.33 634.037 604.279 567.087 604.279 484.501H592.279ZM454.743 346.965C530.702 346.965 592.279 408.542 592.279 484.501H604.279C604.279 401.914 537.33 334.965 454.743 334.965V346.965ZM317.207 484.501C317.207 408.542 378.784 346.965 454.743 346.965V334.965C372.157 334.965 305.207 401.914 305.207 484.501H317.207ZM454.743 622.037C378.784 622.037 317.207 560.46 317.207 484.501H305.207C305.207 567.087 372.157 634.037 454.743 634.037V622.037ZM521.997 484.501C521.997 521.644 491.886 551.755 454.742 551.755V563.755C498.513 563.755 533.997 528.272 533.997 484.501H521.997ZM454.742 417.247C491.886 417.247 521.997 447.357 521.997 484.501H533.997C533.997 440.73 498.513 405.247 454.742 405.247V417.247ZM387.488 484.501C387.488 447.357 417.599 417.247 454.742 417.247V405.247C410.971 405.247 375.488 440.73 375.488 484.501H387.488ZM454.742 551.755C417.599 551.755 387.488 521.644 387.488 484.501H375.488C375.488 528.272 410.971 563.755 454.742 563.755V551.755Z" fill="#282A2D"/>
<path d="M311.207 484.831C311.207 432.94 341.48 383.175 395.366 346.483C448.071 310.596 519.142 290.089 593.536 289.207C596.3 289.175 598.543 291.419 598.543 294.183L598.543 484.831L311.207 484.831Z" fill="#CBF2F6"/>
<path fill-rule="evenodd" clip-rule="evenodd" d="M305 491.038L305 484.831C305 430.357 336.779 378.867 391.872 341.353C445.748 304.667 518.059 283.895 593.463 283.001C599.728 282.927 604.751 288.007 604.751 294.183L604.751 491.038L305 491.038ZM317.566 478.624L592.336 478.624L592.336 295.431C519.417 296.519 450.095 316.727 398.859 351.614C348.394 385.977 319.873 431.509 317.566 478.624Z" fill="#282A2D"/>
</g>
<g filter="url(#filter1_d_588_2165)">
<path fill-rule="evenodd" clip-rule="evenodd" d="M953 491C874.023 491 810 426.977 810 348C810 269.023 874.023 205 953 205C1031.98 205 1096 269.023 1096 348C1096 426.977 1031.98 491 953 491ZM910.371 328.222C910.371 342.954 917.827 355.943 929.167 363.609V428.951C929.167 431.241 931.023 433.097 933.312 433.097H972.688C974.978 433.097 976.834 431.241 976.834 428.951V363.582C988.151 355.912 995.589 342.937 995.589 328.222C995.589 304.658 976.513 285.555 952.98 285.555C929.448 285.555 910.371 304.658 910.371 328.222Z" fill="#A6E275"/>
<path d="M929.167 363.609L932.528 358.639L935.167 360.423V363.609H929.167ZM976.834 363.582H970.834V360.401L973.467 358.615L976.834 363.582ZM816 348C816 423.663 877.337 485 953 485V497C870.71 497 804 430.29 804 348H816ZM953 211C877.337 211 816 272.337 816 348H804C804 265.71 870.71 199 953 199V211ZM1090 348C1090 272.337 1028.66 211 953 211V199C1035.29 199 1102 265.71 1102 348H1090ZM953 485C1028.66 485 1090 423.663 1090 348H1102C1102 430.29 1035.29 497 953 497V485ZM925.806 368.58C912.885 359.844 904.371 345.028 904.371 328.222H916.371C916.371 340.881 922.77 352.042 932.528 358.639L925.806 368.58ZM923.167 428.951V363.609H935.167V428.951H923.167ZM933.312 439.097C927.709 439.097 923.167 434.554 923.167 428.951H935.167C935.167 427.927 934.337 427.097 933.312 427.097V439.097ZM972.688 439.097H933.312V427.097H972.688V439.097ZM982.834 428.951C982.834 434.554 978.291 439.097 972.688 439.097V427.097C971.664 427.097 970.834 427.927 970.834 428.951H982.834ZM982.834 363.582V428.951H970.834V363.582H982.834ZM1001.59 328.222C1001.59 345.008 993.096 359.809 980.2 368.549L973.467 358.615C983.206 352.015 989.589 340.866 989.589 328.222H1001.59ZM952.98 279.555C979.834 279.555 1001.59 301.352 1001.59 328.222H989.589C989.589 307.964 973.191 291.555 952.98 291.555V279.555ZM904.371 328.222C904.371 301.352 926.126 279.555 952.98 279.555V291.555C932.769 291.555 916.371 307.964 916.371 328.222H904.371Z" fill="#282A2D"/>
</g>
<g filter="url(#filter2_d_588_2165)">
<path d="M440.297 262.832C434.213 257.646 434.668 248.11 441.219 243.527L672.745 81.5711C679.04 77.1674 687.789 79.5996 690.909 86.6204L947.905 665.023C953.184 676.904 938.713 687.713 928.818 679.278L440.297 262.832Z" fill="#FF9C92"/>
</g>
<path fill-rule="evenodd" clip-rule="evenodd" d="M683.183 90.0533C682.222 87.8919 679.529 87.1431 677.591 88.4988L446.065 250.455C444.048 251.866 443.908 254.801 445.781 256.398L934.303 672.844C935.244 673.646 936.045 673.829 936.676 673.826C937.4 673.822 938.235 673.561 938.992 672.995C939.749 672.43 940.237 671.704 940.446 671.01C940.628 670.406 940.681 669.586 940.179 668.456L683.183 90.0533ZM667.899 74.6434C678.551 67.1918 693.356 71.3073 698.635 83.1876L955.631 661.59C964.564 681.695 940.076 699.985 923.333 685.712L434.812 269.266C424.517 260.49 425.288 244.354 436.373 236.6L667.899 74.6434Z" fill="#282A2D"/>
<g filter="url(#filter3_d_588_2165)">
<path d="M781.12 174.726C781.534 171.108 778.711 167.934 775.07 167.923L653.208 167.569C648.781 167.556 645.812 172.11 647.609 176.156L744.513 394.25C747.039 399.934 755.453 398.645 756.162 392.465L781.12 174.726Z" fill="#FFE1DE"/>
</g>
<path fill-rule="evenodd" clip-rule="evenodd" d="M656.806 176.034L772.421 176.37L748.743 382.948L656.806 176.034ZM653.233 159.114C642.678 159.084 635.597 169.943 639.883 179.589L736.787 397.682C742.809 411.236 762.872 408.163 764.561 393.428L789.519 175.689C790.508 167.063 783.776 159.494 775.094 159.469L653.233 159.114Z" fill="#282A2D"/>
</g>
<defs>
<filter id="filter0_d_588_2165" x="251.777" y="283" width="352.973" height="380.067" filterUnits="userSpaceOnUse" color-interpolation-filters="sRGB">
<feFlood flood-opacity="0" result="BackgroundImageFix"/>
<feColorMatrix in="SourceAlpha" type="matrix" values="0 0 0 0 0 0 0 0 0 0 0 0 0 0 0 0 0 0 127 0" result="hardAlpha"/>
<feOffset dx="-53.2226" dy="29.0305"/>
<feComposite in2="hardAlpha" operator="out"/>
<feColorMatrix type="matrix" values="0 0 0 0 0.156863 0 0 0 0 0.164706 0 0 0 0 0.176471 0 0 0 1 0"/>
<feBlend mode="normal" in2="BackgroundImageFix" result="effect1_dropShadow_588_2165"/>
<feBlend mode="normal" in="SourceGraphic" in2="effect1_dropShadow_588_2165" result="shape"/>
</filter>
<filter id="filter1_d_588_2165" x="758.401" y="199" width="343.599" height="322.872" filterUnits="userSpaceOnUse" color-interpolation-filters="sRGB">
<feFlood flood-opacity="0" result="BackgroundImageFix"/>
<feColorMatrix in="SourceAlpha" type="matrix" values="0 0 0 0 0 0 0 0 0 0 0 0 0 0 0 0 0 0 127 0" result="hardAlpha"/>
<feOffset dx="-45.5992" dy="24.8723"/>
<feComposite in2="hardAlpha" operator="out"/>
<feColorMatrix type="matrix" values="0 0 0 0 0.156863 0 0 0 0 0.164706 0 0 0 0 0.176471 0 0 0 1 0"/>
<feBlend mode="normal" in2="BackgroundImageFix" result="effect1_dropShadow_588_2165"/>
<feBlend mode="normal" in="SourceGraphic" in2="effect1_dropShadow_588_2165" result="shape"/>
</filter>
<filter id="filter2_d_588_2165" x="388.328" y="79.3617" width="560.702" height="628.925" filterUnits="userSpaceOnUse" color-interpolation-filters="sRGB">
<feFlood flood-opacity="0" result="BackgroundImageFix"/>
<feColorMatrix in="SourceAlpha" type="matrix" values="0 0 0 0 0 0 0 0 0 0 0 0 0 0 0 0 0 0 127 0" result="hardAlpha"/>
<feOffset dx="-47.6781" dy="26.0062"/>
<feComposite in2="hardAlpha" operator="out"/>
<feColorMatrix type="matrix" values="0 0 0 0 0.156863 0 0 0 0 0.164706 0 0 0 0 0.176471 0 0 0 1 0"/>
<feBlend mode="normal" in2="BackgroundImageFix" result="effect1_dropShadow_588_2165"/>
<feBlend mode="normal" in="SourceGraphic" in2="effect1_dropShadow_588_2165" result="shape"/>
</filter>
<filter id="filter3_d_588_2165" x="599.398" y="167.569" width="181.762" height="256.318" filterUnits="userSpaceOnUse" color-interpolation-filters="sRGB">
<feFlood flood-opacity="0" result="BackgroundImageFix"/>
<feColorMatrix in="SourceAlpha" type="matrix" values="0 0 0 0 0 0 0 0 0 0 0 0 0 0 0 0 0 0 127 0" result="hardAlpha"/>
<feOffset dx="-47.6781" dy="26.0062"/>
<feComposite in2="hardAlpha" operator="out"/>
<feColorMatrix type="matrix" values="0 0 0 0 0.156863 0 0 0 0 0.164706 0 0 0 0 0.176471 0 0 0 1 0"/>
<feBlend mode="normal" in2="BackgroundImageFix" result="effect1_dropShadow_588_2165"/>
<feBlend mode="normal" in="SourceGraphic" in2="effect1_dropShadow_588_2165" result="shape"/>
</filter>
<clipPath id="clip0_588_2165">
<rect width="1326" height="571" fill="white"/>
</clipPath>
</defs>
</svg>
