<svg width="360" height="160" viewBox="0 0 360 160" fill="none" xmlns="http://www.w3.org/2000/svg">
<g clip-path="url(#clip0_55_2228)">
<rect width="360" height="160" rx="4" fill="#CBF2F6"/>
<path fill-rule="evenodd" clip-rule="evenodd" d="M22.2608 84.6367C20.4971 97.3766 19.9986 109.956 20.6582 122.215C21.4987 127.18 22.541 132.154 23.79 137.126C34.9471 170.97 57.1461 202.96 89.2372 227.299C103.796 238.341 119.323 246.998 135.267 253.312C163.801 257.629 194.558 255.24 224.823 244.997C237.444 240.725 249.303 235.316 260.295 228.955C259.863 227.907 259.836 226.691 260.32 225.567C261.272 223.353 263.838 222.33 266.051 223.282C266.694 223.558 267.236 223.971 267.659 224.471C276.432 218.852 284.593 212.61 292.083 205.85C307.219 183.077 317.793 155.965 321.924 126.12C323.688 113.382 324.186 100.803 323.527 88.5452C321.478 76.4406 318.229 64.278 313.71 52.2368C304.241 27.003 290.223 5.03463 273.221 -12.8416C272.832 -13.1417 272.441 -13.4407 272.048 -13.7385C244.826 -34.3848 214.221 -46.6919 183.831 -50.9383C158.221 -48.9637 132.055 -41.5033 107.299 -28.0974C93.1165 -20.4177 80.3156 -11.2844 69.0255 -1.05413C68.5168 0.126919 67.5485 0.968634 66.4195 1.35183C52.2574 14.6738 40.5915 29.7507 31.694 45.8326C27.3393 58.104 24.1362 71.0888 22.2608 84.6367ZM69.382 -2.71653C80.4805 -12.6299 93.001 -21.4923 106.823 -28.9767C130.228 -41.6512 154.905 -49.0414 179.2 -51.5232C179.033 -51.5421 178.866 -51.5607 178.699 -51.5791C161.908 -50.5696 144.794 -47.2959 127.835 -41.5559C104.326 -33.5992 83.4597 -21.6967 65.9195 -7.04952C66.1965 -6.99076 66.4719 -6.90403 66.742 -6.78789C68.4137 -6.06907 69.4063 -4.42957 69.382 -2.71653ZM60.6646 -2.4901C60.7711 -0.908459 61.7389 0.558792 63.2952 1.22802C63.7654 1.43019 64.2515 1.54327 64.7346 1.57477C52.4704 13.2814 42.1 26.3097 33.8064 40.1655C38.3415 28.5626 43.9197 17.6433 50.3838 7.54183C53.6529 4.08708 57.082 0.739254 60.6646 -2.4901ZM64.436 -7.10428C62.9682 -6.9051 61.6384 -5.96316 61.0107 -4.50331C60.9346 -4.3264 60.8711 -4.14724 60.8199 -3.96683C58.2403 -1.66942 55.7383 0.688865 53.3164 3.10383C64.1445 -12.7695 77.2099 -26.4697 91.856 -37.4355C116.236 -49.3134 144.209 -54.2894 172.761 -52.1302C157.774 -50.7651 142.58 -47.6023 127.514 -42.5031C103.519 -34.3816 82.2491 -22.1606 64.436 -7.10428ZM225.143 245.944C237.818 241.654 249.733 236.22 260.779 229.829C261.226 230.455 261.845 230.972 262.605 231.298C262.621 231.305 262.637 231.312 262.653 231.319C258.99 233.624 255.222 235.829 251.351 237.925C221.97 253.835 190.604 261.371 160.539 261.301C153.452 259.609 146.39 257.474 139.398 254.893C166.88 258.381 196.247 255.724 225.143 245.944ZM268.336 229.013C267.582 230.768 265.813 231.774 264.01 231.642C260.071 234.15 256.008 236.54 251.827 238.804C223.686 254.043 193.708 261.643 164.765 262.258C185.153 266.616 205.669 267.327 225.226 264.475C247.642 254.02 267.784 237.752 283.932 217.137C279.02 221.212 273.854 225.087 268.444 228.737C268.411 228.83 268.375 228.922 268.336 229.013ZM268.211 225.301C268.534 225.933 268.703 226.641 268.691 227.362C275.067 223.015 281.097 218.354 286.765 213.421C287.798 212.028 288.814 210.616 289.811 209.186C283.103 214.987 275.889 220.382 268.211 225.301ZM130.873 252.592C116.255 246.414 102.033 238.259 88.6329 228.096C60.2794 206.592 39.5905 179.119 27.3787 149.645C28.335 152.61 29.3666 155.569 30.4745 158.522C42.8089 191.391 62.8624 218.72 87.1737 238.682C92.814 241.377 98.6513 243.763 104.654 245.828C105.457 245.69 106.308 245.775 107.112 246.121C107.669 246.36 108.15 246.701 108.543 247.113C115.779 249.408 123.24 251.242 130.873 252.592ZM103.173 246.37C98.8332 244.843 94.5803 243.147 90.4268 241.289C93.926 244.026 97.5078 246.613 101.162 249.046C101.218 248.83 101.29 248.616 101.381 248.405C101.762 247.52 102.401 246.824 103.173 246.37ZM108.554 253.134C108.899 252.77 109.187 252.34 109.397 251.852C109.886 250.716 109.854 249.486 109.407 248.43C117.679 250.988 126.237 252.949 135.003 254.28C142.002 257.047 149.082 259.365 156.196 261.238C139.688 260.796 123.623 258.051 108.554 253.134ZM101.297 251.641C101.697 252.723 102.522 253.645 103.666 254.137C104.859 254.65 106.155 254.589 107.245 254.077C130.939 268.322 157.311 276.258 183.884 276.561C172.286 278.051 160.404 278.045 148.419 276.386C115.838 271.875 87.3002 255.813 65.4859 232.213C76.3672 240.265 88.4248 246.768 101.297 251.641ZM101.025 250.153C101.026 250.259 101.03 250.364 101.039 250.469C86.7996 245.009 73.5781 237.535 61.8732 228.164C59.3773 225.267 56.9779 222.267 54.6797 219.171C64.3337 227.178 75.0798 234.005 86.6483 239.54C91.2939 243.349 96.0941 246.891 101.025 250.153ZM83.4166 236.826C60.3713 217.002 41.3966 190.474 29.5382 158.873C26.8625 151.743 24.6296 144.569 22.8255 137.388C22.4022 136.103 21.9947 134.815 21.6031 133.525C25.0877 164.209 35.8732 192.492 52.1939 215.729C61.5685 223.963 72.0659 231.033 83.4166 236.826ZM49.0173 212.853C32.9839 188.741 22.7294 159.591 20.0694 128.159C16.8019 115.976 14.9452 103.622 14.5527 91.3568C7.67087 123.776 11.3928 157.346 27.5153 187.119C27.7657 187.582 28.0186 188.043 28.2739 188.501C34.2251 197.418 41.1964 205.56 49.0173 212.853ZM34.899 199.192C39.9139 205.389 45.4555 211.14 51.4538 216.416C53.4295 219.224 55.4857 221.96 57.6194 224.617C49.0764 217.197 41.4315 208.705 34.899 199.192ZM27.4383 189.056C20.9822 179.38 15.7165 168.794 11.856 157.388C8.76365 148.252 6.70729 138.986 5.62704 129.694C4.90872 129.77 4.16164 129.668 3.4509 129.362C1.23737 128.41 0.214533 125.844 1.16633 123.631C1.83768 122.069 3.31211 121.101 4.89949 120.999C3.70912 97.8171 8.47023 74.6743 18.2546 53.1749C21.641 38.6784 27.3271 24.7323 35.412 11.8207C51.4483 -19.6109 77.4041 -44.5497 111.088 -57.1897C124.827 -62.3455 138.945 -65.1142 153.069 -65.695C166.978 -68.2321 181.363 -68.6322 195.903 -66.6194C218.605 -63.4766 239.344 -54.7757 257.238 -41.8568C288.85 -29.9188 315.562 -8.1496 332.014 22.232C347.331 50.5179 351.535 82.1718 346.168 113.034C349.362 148.149 340.717 183.063 318.991 211.708C301.652 234.571 278.22 250.486 251.837 259.231C245.893 262.573 239.641 265.493 233.097 267.948C219.354 273.105 205.233 275.874 191.105 276.454C177.199 278.989 162.818 279.389 148.282 277.376C113.627 272.579 83.5477 254.831 61.1815 228.897C47.6786 218.073 36.1784 204.736 27.4383 189.056ZM12.8032 157.068C9.72306 147.967 7.67867 138.735 6.61048 129.474C7.72509 129.085 8.67915 128.247 9.18223 127.077C10.134 124.864 9.11119 122.298 6.89766 121.346C6.57289 121.207 6.24053 121.109 5.9068 121.052C4.7919 99.6219 8.79985 78.2111 17.1942 58.1114C15.3272 67.6258 14.4301 77.3503 14.4756 87.1512C7.19506 117.51 9.14694 149.072 21.8277 177.795C18.2837 171.234 15.2569 164.317 12.8032 157.068ZM19.2134 53.4867C16.9641 63.1439 15.7411 73.0485 15.5158 83.0553C16.1468 80.7019 16.8334 78.3569 17.5748 76.0221C18.3602 66.1664 19.9355 56.5147 22.26 47.1747C21.1959 49.2616 20.18 51.3662 19.2134 53.4867ZM24.3126 43.281C21.7673 52.5156 19.9676 62.0808 18.9553 71.8683C22.0892 62.8437 26.0446 53.9918 30.7801 45.4243C35.0618 33.3772 40.449 22.0113 46.7774 11.469C37.9694 21.354 30.4332 32.0422 24.3126 43.281ZM49.5963 6.92432C40.2134 16.8495 32.1405 27.6529 25.5333 39.0653C28.364 29.743 31.9653 20.7826 36.2929 12.2993C38.3952 8.94469 40.6606 5.66096 43.0908 2.45678C55.1313 -13.4188 70.1424 -25.9259 87.0547 -34.9818C72.7138 -23.4894 60.0122 -9.3343 49.5963 6.92432ZM204.709 -52.3333C196.178 -53.0109 187.494 -53.1023 178.723 -52.5794C149.806 -55.7483 121.254 -51.6615 96.1463 -40.5379C113.461 -52.6241 132.813 -60.9673 153.18 -64.6949C176.016 -65.6201 198.882 -60.7867 220.178 -51.0382C215.079 -51.6956 209.917 -52.1286 204.709 -52.3333ZM204.668 -51.3372C211.767 -50.7718 218.757 -49.7982 225.6 -48.4329C241.069 -40.6442 255.613 -30.2318 268.597 -17.5321C243.643 -35.4931 216.051 -46.6649 188.477 -51.2367C193.911 -51.5159 199.314 -51.5479 204.668 -51.3372ZM229.27 -47.66C240.817 -45.0994 251.917 -41.4142 262.375 -36.6861C279.522 -22.9526 293.755 -5.16938 304.188 15.3377C295.375 4.89909 285.252 -4.83497 273.873 -13.602C260.575 -27.5688 245.461 -39.0534 229.27 -47.66ZM259.168 -39.1812C250.375 -42.9036 241.16 -45.9062 231.632 -48.1435C240.267 -46.4115 248.67 -44.0128 256.751 -40.9688C257.563 -40.3816 258.368 -39.7857 259.168 -39.1812ZM266.03 -34.9787C282.974 -20.648 296.912 -2.30849 306.955 18.6916C328.642 45.5907 341.835 76.8589 345.653 108.189C348.447 87.6994 346.736 66.7056 339.854 46.3729C327.462 9.76031 300.45 -18.3727 266.03 -34.9787ZM344.149 57.6055C343.212 53.7368 342.098 49.8831 340.801 46.0523C327.886 7.89353 299.242 -21.084 262.917 -37.5392C262.053 -38.2297 261.182 -38.91 260.304 -39.58C290.216 -27.4632 315.41 -6.32972 331.134 22.7082C337.191 33.8923 341.497 45.6122 344.149 57.6055ZM345.07 112.062C342.031 80.9406 329.646 49.6926 308.765 22.5974C317.751 42.639 323.249 64.9579 324.52 88.4345C329.702 119.116 327.217 149.445 318.162 176.514C332.053 156.817 341.328 134.797 345.07 112.062ZM317.024 179.803C317.447 179.227 317.866 178.649 318.281 178.07C317.846 178.707 317.406 179.343 316.962 179.977L317.024 179.803ZM314.837 182.83L314.748 183.062C307.638 192.758 299.438 201.916 290.219 210.341C291.108 209.076 291.983 207.798 292.843 206.505C301.028 199.108 308.415 191.093 314.926 182.598L314.837 182.83ZM316.13 179.334C309.932 187.753 302.879 195.724 295.046 203.115C309.128 180.906 318.961 154.817 322.915 126.257C324.269 116.477 324.88 106.788 324.797 97.2624C328.313 126.003 325.112 154.17 316.13 179.334ZM23.3835 42.8952C22.374 44.7511 21.4028 46.622 20.4707 48.5067C22.8432 39.7923 26.0714 31.304 30.177 23.1517C27.5243 29.5284 25.2545 36.1237 23.3835 42.8952ZM15.4797 87.2623C15.5418 98.9593 16.9544 110.767 19.6718 122.457L19.6647 122.326C17.2795 108.204 16.5186 94.1566 17.2749 80.4676C16.6249 82.7247 16.0262 84.9901 15.4797 87.2623ZM42.294 1.85248C55.5516 -15.6277 72.3703 -29.0468 91.3465 -38.305C107.871 -50.662 126.397 -59.5651 146 -64.2131C134.358 -63.12 122.767 -60.5042 111.439 -56.2534C81.4327 -44.9934 57.5809 -23.8771 41.4859 2.92903C41.7532 2.56921 42.0226 2.21036 42.294 1.85248ZM314.646 51.8854C305.946 28.6994 293.414 8.24416 278.255 -8.83554C288.701 -0.243202 298 9.18623 306.105 19.2262C314.902 37.6472 320.688 58.1307 322.852 79.7615C320.841 70.4498 318.116 61.1308 314.646 51.8854ZM315.639 183.532C330.623 163.067 340.789 140.22 345.462 116.817C347.717 150.455 338.986 183.69 318.194 211.104C302.052 232.388 280.569 247.618 256.325 256.594C283.567 239.863 303.897 214.028 315.639 183.532ZM313.339 186.605C300.837 217 279.615 242.434 251.443 258.304C244.063 260.746 236.45 262.625 228.673 263.933C251.319 252.743 271.524 235.617 287.498 214.105C297.188 205.662 305.828 196.425 313.339 186.605ZM222.037 265.916C202.038 268.406 181.122 267.227 160.422 262.297C143.113 262.247 126.228 259.691 110.39 254.77C135.382 269.176 163.209 276.577 190.994 275.454C201.67 273.501 212.067 270.28 222.037 265.916ZM246.785 260.808C239.865 262.835 232.761 264.382 225.527 265.443C216.724 269.539 207.573 272.745 198.174 274.973C209.82 273.88 221.414 271.264 232.745 267.012C237.588 265.195 242.27 263.121 246.785 260.808ZM28.8006 51.2896C25.408 61.8975 22.8624 72.9982 21.2702 84.4996C19.9161 94.2812 19.3044 103.971 19.3875 113.497C17.8464 100.898 17.5959 88.4094 18.5572 76.2356C21.2548 67.7536 24.6805 59.4074 28.8006 51.2896ZM253.612 -43.1753C243.96 -46.5526 233.88 -49.0299 223.519 -50.5739C203.47 -60.242 181.947 -65.5576 160.29 -65.8022C171.891 -67.2941 183.777 -67.2884 195.766 -65.6288C217.016 -62.6871 236.546 -54.8314 253.612 -43.1753ZM202.44 205.433C256.692 187.07 285.786 128.205 267.424 73.9525C249.061 19.7003 190.196 -9.39407 135.943 8.96834C81.6913 27.3308 52.5968 86.1965 70.9593 140.449C89.3217 194.701 148.187 223.795 202.44 205.433ZM202.76 206.38C257.536 187.841 286.91 128.407 268.371 73.6319C249.832 18.8566 190.398 -10.5183 135.623 8.02113C80.8475 26.5606 51.4726 85.994 70.0121 140.769C88.5515 195.545 147.985 224.92 202.76 206.38ZM203.918 -34.2354C206.132 -33.2836 208.698 -34.3064 209.65 -36.5199C210.601 -38.7335 209.579 -41.2995 207.365 -42.2513C205.152 -43.2031 202.586 -42.1802 201.634 -39.9667C200.682 -37.7532 201.705 -35.1871 203.918 -34.2354ZM319.092 133.063C318.14 135.276 315.574 136.299 313.36 135.347C311.147 134.396 310.124 131.83 311.076 129.616C312.028 127.403 314.594 126.38 316.807 127.332C319.021 128.283 320.043 130.849 319.092 133.063ZM332.141 47.4932C334.354 48.445 336.92 47.4222 337.872 45.2086C338.824 42.9951 337.801 40.4291 335.588 39.4773C333.374 38.5255 330.808 39.5483 329.856 41.7619C328.905 43.9754 329.927 46.5414 332.141 47.4932Z" fill="#64D7E3"/>
<path d="M110.125 44.4844L109.891 54.4219L102.906 54.7031L101.125 76.9219L91.2344 77.4375L91.2812 55.2188L84.2969 55.5938L84.5781 44.5312L110.125 44.4844ZM138.883 55.4062C138.883 56.625 138.773 57.7344 138.555 58.7344C138.352 59.7188 138.023 60.625 137.57 61.4531C137.117 62.2812 136.531 63.0469 135.812 63.75C135.094 64.4531 134.227 65.125 133.211 65.7656L138.789 75.7031L128.242 77.7656L124.633 67.7812L121.727 67.875L121.305 77.625H111.227C111.305 74.0625 111.375 70.5156 111.438 66.9844C111.516 63.4531 111.602 59.9062 111.695 56.3438C111.727 54.5469 111.758 52.7656 111.789 51C111.82 49.2344 111.883 47.4531 111.977 45.6562C113.07 45.25 114.148 44.9141 115.211 44.6484C116.273 44.3828 117.336 44.1797 118.398 44.0391C119.477 43.8828 120.562 43.7812 121.656 43.7344C122.766 43.6719 123.898 43.6406 125.055 43.6406C126.836 43.6406 128.555 43.8906 130.211 44.3906C131.883 44.875 133.359 45.6094 134.641 46.5938C135.922 47.5781 136.945 48.8047 137.711 50.2734C138.492 51.7422 138.883 53.4531 138.883 55.4062ZM128.383 56.1562C128.383 55.5 128.289 54.8984 128.102 54.3516C127.93 53.8047 127.664 53.3359 127.305 52.9453C126.961 52.5391 126.523 52.2266 125.992 52.0078C125.477 51.7734 124.867 51.6562 124.164 51.6562C123.852 51.6562 123.547 51.6797 123.25 51.7266C122.953 51.7578 122.664 51.8125 122.383 51.8906L122.008 60.6094H122.57C123.242 60.6094 123.922 60.5234 124.609 60.3516C125.312 60.1797 125.938 59.9141 126.484 59.5547C127.047 59.1953 127.5 58.7344 127.844 58.1719C128.203 57.6094 128.383 56.9375 128.383 56.1562ZM168.461 45C167.758 50.5 167.156 55.9766 166.656 61.4297C166.156 66.8672 165.68 72.3438 165.227 77.8594L155.617 78.5625L156.039 74.9531C155.727 75.3125 155.359 75.625 154.938 75.8906C154.531 76.1562 154.094 76.375 153.625 76.5469C153.156 76.7031 152.672 76.8203 152.172 76.8984C151.672 76.9609 151.195 76.9844 150.742 76.9688C149.68 76.9531 148.68 76.75 147.742 76.3594C146.805 75.9531 145.945 75.4219 145.164 74.7656C144.383 74.0938 143.68 73.3203 143.055 72.4453C142.43 71.5547 141.898 70.625 141.461 69.6562C141.039 68.6719 140.711 67.6719 140.477 66.6562C140.258 65.6406 140.148 64.6562 140.148 63.7031C140.148 62.2969 140.172 60.8438 140.219 59.3438C140.281 57.8281 140.383 56.3125 140.523 54.7969C140.664 53.2812 140.844 51.7812 141.062 50.2969C141.297 48.8125 141.586 47.3906 141.93 46.0312C143.836 46.125 145.75 46.2109 147.672 46.2891C149.594 46.3672 151.508 46.3906 153.414 46.3594C153.055 47.7188 152.695 49.0859 152.336 50.4609C151.992 51.8203 151.68 53.1953 151.398 54.5859C151.117 55.9609 150.891 57.3438 150.719 58.7344C150.547 60.125 150.461 61.5312 150.461 62.9531C150.461 63.2812 150.477 63.75 150.508 64.3594C150.539 64.9688 150.617 65.5703 150.742 66.1641C150.883 66.7578 151.086 67.2812 151.352 67.7344C151.633 68.1719 152.023 68.3906 152.523 68.3906C153.117 68.3906 153.648 68.1406 154.117 67.6406C154.586 67.125 155 66.4375 155.359 65.5781C155.719 64.7188 156.023 63.7266 156.273 62.6016C156.539 61.4766 156.758 60.3047 156.93 59.0859C157.117 57.8516 157.266 56.6094 157.375 55.3594C157.484 54.1094 157.562 52.9375 157.609 51.8438C157.672 50.7344 157.711 49.7422 157.727 48.8672C157.758 47.9922 157.773 47.3125 157.773 46.8281C157.773 46.5156 157.766 46.2109 157.75 45.9141C157.734 45.6172 157.711 45.3125 157.68 45C158.695 45.0312 159.703 45.0547 160.703 45.0703C161.703 45.0859 162.711 45.0938 163.727 45.0938C164.508 45.0938 165.289 45.0938 166.07 45.0938C166.867 45.0781 167.664 45.0469 168.461 45ZM193.656 66C193.656 68.1406 193.281 69.9922 192.531 71.5547C191.797 73.1016 190.781 74.3828 189.484 75.3984C188.203 76.3984 186.695 77.1406 184.961 77.625C183.242 78.0938 181.391 78.3281 179.406 78.3281C178.641 78.3281 177.797 78.2266 176.875 78.0234C175.969 77.8203 175.047 77.5703 174.109 77.2734C173.172 76.9609 172.266 76.6328 171.391 76.2891C170.531 75.9297 169.766 75.5938 169.094 75.2812L170.125 66.0938C171.453 66.8906 172.922 67.5 174.531 67.9219C176.156 68.3281 177.75 68.5312 179.312 68.5312C179.609 68.5312 179.969 68.5234 180.391 68.5078C180.812 68.4766 181.211 68.4062 181.586 68.2969C181.977 68.1719 182.305 67.9922 182.57 67.7578C182.836 67.5234 182.969 67.1875 182.969 66.75C182.969 66.4531 182.875 66.2031 182.688 66C182.5 65.7812 182.258 65.6094 181.961 65.4844C181.664 65.3438 181.328 65.2422 180.953 65.1797C180.578 65.1016 180.211 65.0469 179.852 65.0156C179.492 64.9844 179.156 64.9688 178.844 64.9688C178.531 64.9688 178.281 64.9688 178.094 64.9688C176.75 64.9688 175.523 64.7578 174.414 64.3359C173.32 63.9141 172.375 63.3203 171.578 62.5547C170.797 61.7734 170.188 60.8359 169.75 59.7422C169.312 58.6328 169.094 57.4062 169.094 56.0625C169.094 54.2188 169.461 52.5703 170.195 51.1172C170.945 49.6484 171.938 48.4062 173.172 47.3906C174.422 46.3594 175.852 45.5703 177.461 45.0234C179.07 44.4766 180.734 44.2031 182.453 44.2031C183.219 44.2031 184.008 44.2344 184.82 44.2969C185.633 44.3438 186.438 44.4375 187.234 44.5781C188.047 44.7188 188.836 44.8984 189.602 45.1172C190.367 45.3359 191.094 45.6094 191.781 45.9375L190.891 55.4531C189.828 55.0938 188.711 54.7969 187.539 54.5625C186.383 54.3125 185.25 54.1875 184.141 54.1875C183.938 54.1875 183.672 54.1953 183.344 54.2109C183.031 54.2109 182.695 54.2344 182.336 54.2812C181.992 54.3125 181.641 54.3672 181.281 54.4453C180.922 54.5234 180.602 54.6328 180.32 54.7734C180.039 54.8984 179.812 55.0703 179.641 55.2891C179.469 55.5078 179.391 55.7656 179.406 56.0625C179.422 56.4062 179.547 56.6719 179.781 56.8594C180.031 57.0469 180.344 57.1875 180.719 57.2812C181.109 57.3594 181.531 57.3984 181.984 57.3984C182.453 57.3984 182.914 57.3906 183.367 57.375C183.82 57.3438 184.242 57.3203 184.633 57.3047C185.023 57.2734 185.344 57.2656 185.594 57.2812C186.844 57.3594 187.969 57.625 188.969 58.0781C189.969 58.5312 190.812 59.1328 191.5 59.8828C192.203 60.6328 192.734 61.5312 193.094 62.5781C193.469 63.6094 193.656 64.75 193.656 66ZM219.438 44.9531L219.203 54.8906L212.219 55.1719L211.375 76.9219L201.484 77.4375L200.594 55.6875L193.609 56.0625L193.891 45L219.438 44.9531ZM246.461 59.0625C246.461 60.4219 246.367 61.7812 246.18 63.1406C243.508 63.3125 240.852 63.5938 238.211 63.9844C235.57 64.3594 232.93 64.7344 230.289 65.1094C230.695 66.2344 231.328 67.1328 232.188 67.8047C233.062 68.4766 234.102 68.8125 235.305 68.8125C235.93 68.8125 236.609 68.6953 237.344 68.4609C238.094 68.2266 238.836 67.9375 239.57 67.5938C240.305 67.2344 241.008 66.8516 241.68 66.4453C242.352 66.0391 242.93 65.6719 243.414 65.3438L242.289 75.9844C241.68 76.4531 241.016 76.8516 240.297 77.1797C239.594 77.5078 238.859 77.7734 238.094 77.9766C237.328 78.1797 236.555 78.3281 235.773 78.4219C234.992 78.5156 234.227 78.5625 233.477 78.5625C231.93 78.5625 230.516 78.3516 229.234 77.9297C227.953 77.5078 226.789 76.9219 225.742 76.1719C224.711 75.4062 223.805 74.5078 223.023 73.4766C222.242 72.4453 221.594 71.3203 221.078 70.1016C220.562 68.8828 220.172 67.5938 219.906 66.2344C219.641 64.875 219.508 63.5 219.508 62.1094C219.508 60.6562 219.641 59.2031 219.906 57.75C220.172 56.2969 220.57 54.8984 221.102 53.5547C221.648 52.2109 222.328 50.9688 223.141 49.8281C223.969 48.6719 224.93 47.6641 226.023 46.8047C227.117 45.9453 228.352 45.2734 229.727 44.7891C231.117 44.3047 232.648 44.0625 234.32 44.0625C235.711 44.0625 236.977 44.2578 238.117 44.6484C239.273 45.0234 240.297 45.5547 241.188 46.2422C242.094 46.9141 242.875 47.7188 243.531 48.6562C244.203 49.5938 244.75 50.625 245.172 51.75C245.609 52.8594 245.93 54.0391 246.133 55.2891C246.352 56.5234 246.461 57.7812 246.461 59.0625ZM237.086 57.8438C237.086 57.4062 237.039 56.9609 236.945 56.5078C236.852 56.0391 236.695 55.6172 236.477 55.2422C236.273 54.8672 236 54.5625 235.656 54.3281C235.312 54.0781 234.883 53.9531 234.367 53.9531C233.742 53.9531 233.188 54.125 232.703 54.4688C232.234 54.7969 231.828 55.2188 231.484 55.7344C231.141 56.2344 230.859 56.7812 230.641 57.375C230.422 57.9688 230.258 58.5156 230.148 59.0156L237.086 58.3594V57.8438ZM274.562 59.3906C274.562 61.5781 274.281 63.5391 273.719 65.2734C273.156 67.0078 272.367 68.5469 271.352 69.8906C270.352 71.2188 269.156 72.3516 267.766 73.2891C266.375 74.2266 264.852 75 263.195 75.6094C261.539 76.2031 259.773 76.6406 257.898 76.9219C256.039 77.2031 254.125 77.3438 252.156 77.3438C251.422 77.3438 250.703 77.3281 250 77.2969C249.297 77.25 248.578 77.1875 247.844 77.1094L248.5 46.5938C250.219 46.0469 251.984 45.6641 253.797 45.4453C255.625 45.2109 257.438 45.0938 259.234 45.0938C261.469 45.0938 263.523 45.4062 265.398 46.0312C267.273 46.6562 268.891 47.5781 270.25 48.7969C271.609 50 272.664 51.4922 273.414 53.2734C274.18 55.0391 274.562 57.0781 274.562 59.3906ZM258.625 68.3906C259.562 68.25 260.414 67.9688 261.18 67.5469C261.961 67.1094 262.633 66.5781 263.195 65.9531C263.758 65.3125 264.188 64.5938 264.484 63.7969C264.797 62.9844 264.953 62.125 264.953 61.2188C264.953 60.3281 264.859 59.5 264.672 58.7344C264.484 57.9531 264.18 57.2812 263.758 56.7188C263.336 56.1406 262.781 55.6875 262.094 55.3594C261.406 55.0156 260.562 54.8281 259.562 54.7969L258.625 68.3906ZM136.023 113.531C136.023 115.672 135.648 117.547 134.898 119.156C134.164 120.75 133.148 122.078 131.852 123.141C130.57 124.203 129.062 125 127.328 125.531C125.609 126.062 123.758 126.328 121.773 126.328C121.008 126.328 120.164 126.227 119.242 126.023C118.336 125.82 117.414 125.57 116.477 125.273C115.539 124.961 114.633 124.633 113.758 124.289C112.898 123.93 112.133 123.594 111.461 123.281L112.492 113.625C113.82 114.422 115.289 115.031 116.898 115.453C118.523 115.859 120.117 116.062 121.68 116.062C121.977 116.062 122.336 116.055 122.758 116.039C123.18 116.008 123.578 115.938 123.953 115.828C124.344 115.703 124.672 115.523 124.938 115.289C125.203 115.055 125.336 114.719 125.336 114.281C125.336 113.984 125.242 113.734 125.055 113.531C124.867 113.312 124.625 113.141 124.328 113.016C124.031 112.875 123.695 112.773 123.32 112.711C122.945 112.633 122.578 112.578 122.219 112.547C121.859 112.516 121.523 112.5 121.211 112.5C120.898 112.5 120.648 112.5 120.461 112.5C119.117 112.5 117.891 112.266 116.781 111.797C115.688 111.328 114.742 110.68 113.945 109.852C113.164 109.008 112.555 108.016 112.117 106.875C111.68 105.719 111.461 104.469 111.461 103.125C111.461 101.281 111.828 99.6328 112.562 98.1797C113.312 96.7109 114.305 95.4688 115.539 94.4531C116.789 93.4219 118.219 92.6328 119.828 92.0859C121.438 91.5391 123.102 91.2656 124.82 91.2656C125.586 91.2656 126.375 91.2969 127.188 91.3594C128 91.4062 128.805 91.5 129.602 91.6406C130.414 91.7812 131.203 91.9609 131.969 92.1797C132.734 92.3984 133.461 92.6719 134.148 93L133.258 102.516C132.195 102.156 131.078 101.859 129.906 101.625C128.75 101.375 127.617 101.25 126.508 101.25C126.305 101.25 126.039 101.258 125.711 101.273C125.398 101.273 125.062 101.297 124.703 101.344C124.359 101.375 124.008 101.43 123.648 101.508C123.289 101.586 122.969 101.695 122.688 101.836C122.406 101.961 122.18 102.133 122.008 102.352C121.836 102.57 121.758 102.828 121.773 103.125C121.789 103.469 121.914 103.75 122.148 103.969C122.398 104.172 122.711 104.336 123.086 104.461C123.477 104.57 123.898 104.648 124.352 104.695C124.82 104.742 125.281 104.773 125.734 104.789C126.188 104.789 126.609 104.789 127 104.789C127.391 104.773 127.711 104.781 127.961 104.812C129.211 104.891 130.336 105.156 131.336 105.609C132.336 106.062 133.18 106.664 133.867 107.414C134.57 108.164 135.102 109.062 135.461 110.109C135.836 111.141 136.023 112.281 136.023 113.531ZM163.68 107.062C163.68 108.422 163.586 109.781 163.398 111.141C160.727 111.312 158.07 111.594 155.43 111.984C152.789 112.359 150.148 112.734 147.508 113.109C147.914 114.234 148.547 115.133 149.406 115.805C150.281 116.477 151.32 116.812 152.523 116.812C153.148 116.812 153.828 116.695 154.562 116.461C155.312 116.227 156.055 115.938 156.789 115.594C157.523 115.234 158.227 114.852 158.898 114.445C159.57 114.039 160.148 113.672 160.633 113.344L159.508 123.984C158.898 124.453 158.234 124.852 157.516 125.18C156.812 125.508 156.078 125.773 155.312 125.977C154.547 126.18 153.773 126.328 152.992 126.422C152.211 126.516 151.445 126.562 150.695 126.562C149.148 126.562 147.734 126.352 146.453 125.93C145.172 125.508 144.008 124.922 142.961 124.172C141.93 123.406 141.023 122.508 140.242 121.477C139.461 120.445 138.812 119.32 138.297 118.102C137.781 116.883 137.391 115.594 137.125 114.234C136.859 112.875 136.727 111.5 136.727 110.109C136.727 108.656 136.859 107.203 137.125 105.75C137.391 104.297 137.789 102.898 138.32 101.555C138.867 100.211 139.547 98.9688 140.359 97.8281C141.188 96.6719 142.148 95.6641 143.242 94.8047C144.336 93.9453 145.57 93.2734 146.945 92.7891C148.336 92.3047 149.867 92.0625 151.539 92.0625C152.93 92.0625 154.195 92.2578 155.336 92.6484C156.492 93.0234 157.516 93.5547 158.406 94.2422C159.312 94.9141 160.094 95.7188 160.75 96.6562C161.422 97.5938 161.969 98.625 162.391 99.75C162.828 100.859 163.148 102.039 163.352 103.289C163.57 104.523 163.68 105.781 163.68 107.062ZM154.305 105.844C154.305 105.406 154.258 104.961 154.164 104.508C154.07 104.039 153.914 103.617 153.695 103.242C153.492 102.867 153.219 102.562 152.875 102.328C152.531 102.078 152.102 101.953 151.586 101.953C150.961 101.953 150.406 102.125 149.922 102.469C149.453 102.797 149.047 103.219 148.703 103.734C148.359 104.234 148.078 104.781 147.859 105.375C147.641 105.969 147.477 106.516 147.367 107.016L154.305 106.359V105.844ZM190.047 92.9531L189.812 102.891L182.828 103.172L181.984 124.922L172.094 125.438L171.203 103.688L164.219 104.062L164.5 93L190.047 92.9531ZM219.32 93C218.617 98.5 218.016 103.977 217.516 109.43C217.016 114.867 216.539 120.344 216.086 125.859L206.477 126.562L206.898 122.953C206.586 123.312 206.219 123.625 205.797 123.891C205.391 124.156 204.953 124.375 204.484 124.547C204.016 124.703 203.531 124.82 203.031 124.898C202.531 124.961 202.055 124.984 201.602 124.969C200.539 124.953 199.539 124.75 198.602 124.359C197.664 123.953 196.805 123.422 196.023 122.766C195.242 122.094 194.539 121.32 193.914 120.445C193.289 119.555 192.758 118.625 192.32 117.656C191.898 116.672 191.57 115.672 191.336 114.656C191.117 113.641 191.008 112.656 191.008 111.703C191.008 110.297 191.031 108.844 191.078 107.344C191.141 105.828 191.242 104.312 191.383 102.797C191.523 101.281 191.703 99.7812 191.922 98.2969C192.156 96.8125 192.445 95.3906 192.789 94.0312C194.695 94.125 196.609 94.2109 198.531 94.2891C200.453 94.3672 202.367 94.3906 204.273 94.3594C203.914 95.7188 203.555 97.0859 203.195 98.4609C202.852 99.8203 202.539 101.195 202.258 102.586C201.977 103.961 201.75 105.344 201.578 106.734C201.406 108.125 201.32 109.531 201.32 110.953C201.32 111.281 201.336 111.75 201.367 112.359C201.398 112.969 201.477 113.57 201.602 114.164C201.742 114.758 201.945 115.281 202.211 115.734C202.492 116.172 202.883 116.391 203.383 116.391C203.977 116.391 204.508 116.141 204.977 115.641C205.445 115.125 205.859 114.438 206.219 113.578C206.578 112.719 206.883 111.727 207.133 110.602C207.398 109.477 207.617 108.305 207.789 107.086C207.977 105.852 208.125 104.609 208.234 103.359C208.344 102.109 208.422 100.938 208.469 99.8438C208.531 98.7344 208.57 97.7422 208.586 96.8672C208.617 95.9922 208.633 95.3125 208.633 94.8281C208.633 94.5156 208.625 94.2109 208.609 93.9141C208.594 93.6172 208.57 93.3125 208.539 93C209.555 93.0312 210.562 93.0547 211.562 93.0703C212.562 93.0859 213.57 93.0938 214.586 93.0938C215.367 93.0938 216.148 93.0938 216.93 93.0938C217.727 93.0781 218.523 93.0469 219.32 93ZM248.031 104.391C248.031 105.906 247.805 107.25 247.352 108.422C246.898 109.594 246.273 110.625 245.477 111.516C244.695 112.391 243.773 113.133 242.711 113.742C241.648 114.336 240.508 114.828 239.289 115.219C238.086 115.594 236.836 115.875 235.539 116.062C234.242 116.234 232.969 116.328 231.719 116.344V126.328H220.797C220.797 124.547 220.797 122.812 220.797 121.125C220.812 119.438 220.82 117.766 220.82 116.109C220.836 114.438 220.844 112.758 220.844 111.07C220.859 109.383 220.875 107.641 220.891 105.844C220.922 103.938 220.93 102.031 220.914 100.125C220.898 98.2188 220.938 96.2969 221.031 94.3594C223.031 93.7656 225.031 93.3203 227.031 93.0234C229.031 92.7266 231.094 92.5781 233.219 92.5781C234.422 92.5781 235.625 92.6797 236.828 92.8828C238.031 93.0703 239.18 93.375 240.273 93.7969C241.383 94.2188 242.406 94.75 243.344 95.3906C244.297 96.0156 245.117 96.7656 245.805 97.6406C246.492 98.5156 247.031 99.5156 247.422 100.641C247.828 101.766 248.031 103.016 248.031 104.391ZM237.625 105.188C237.625 104.172 237.312 103.383 236.688 102.82C236.078 102.242 235.281 101.953 234.297 101.953C233.969 101.953 233.625 101.984 233.266 102.047C232.922 102.094 232.594 102.156 232.281 102.234L232 109.078C232.219 109.109 232.43 109.125 232.633 109.125C232.836 109.125 233.047 109.125 233.266 109.125C233.828 109.125 234.367 109.031 234.883 108.844C235.414 108.656 235.883 108.391 236.289 108.047C236.695 107.688 237.016 107.273 237.25 106.805C237.5 106.32 237.625 105.781 237.625 105.188Z" fill="#151616"/>
</g>
<defs>
<clipPath id="clip0_55_2228">
<rect width="360" height="160" rx="4" fill="white"/>
</clipPath>
</defs>
</svg>
