<svg width="360" height="160" viewBox="0 0 360 160" fill="none" xmlns="http://www.w3.org/2000/svg">
<rect width="360" height="160" fill="#82597F"/>
<path d="M58.9688 38.4844L58.7344 48.4219L51.75 48.7031L49.9688 70.9219L40.0781 71.4375L40.125 49.2188L33.1406 49.5938L33.4219 38.5312L58.9688 38.4844ZM87.7266 49.4062C87.7266 50.625 87.6172 51.7344 87.3984 52.7344C87.1953 53.7188 86.8672 54.625 86.4141 55.4531C85.9609 56.2812 85.375 57.0469 84.6562 57.75C83.9375 58.4531 83.0703 59.125 82.0547 59.7656L87.6328 69.7031L77.0859 71.7656L73.4766 61.7812L70.5703 61.875L70.1484 71.625H60.0703C60.1484 68.0625 60.2188 64.5156 60.2812 60.9844C60.3594 57.4531 60.4453 53.9062 60.5391 50.3438C60.5703 48.5469 60.6016 46.7656 60.6328 45C60.6641 43.2344 60.7266 41.4531 60.8203 39.6562C61.9141 39.25 62.9922 38.9141 64.0547 38.6484C65.1172 38.3828 66.1797 38.1797 67.2422 38.0391C68.3203 37.8828 69.4062 37.7812 70.5 37.7344C71.6094 37.6719 72.7422 37.6406 73.8984 37.6406C75.6797 37.6406 77.3984 37.8906 79.0547 38.3906C80.7266 38.875 82.2031 39.6094 83.4844 40.5938C84.7656 41.5781 85.7891 42.8047 86.5547 44.2734C87.3359 45.7422 87.7266 47.4531 87.7266 49.4062ZM77.2266 50.1562C77.2266 49.5 77.1328 48.8984 76.9453 48.3516C76.7734 47.8047 76.5078 47.3359 76.1484 46.9453C75.8047 46.5391 75.3672 46.2266 74.8359 46.0078C74.3203 45.7734 73.7109 45.6562 73.0078 45.6562C72.6953 45.6562 72.3906 45.6797 72.0938 45.7266C71.7969 45.7578 71.5078 45.8125 71.2266 45.8906L70.8516 54.6094H71.4141C72.0859 54.6094 72.7656 54.5234 73.4531 54.3516C74.1562 54.1797 74.7812 53.9141 75.3281 53.5547C75.8906 53.1953 76.3438 52.7344 76.6875 52.1719C77.0469 51.6094 77.2266 50.9375 77.2266 50.1562ZM117.305 39C116.602 44.5 116 49.9766 115.5 55.4297C115 60.8672 114.523 66.3438 114.07 71.8594L104.461 72.5625L104.883 68.9531C104.57 69.3125 104.203 69.625 103.781 69.8906C103.375 70.1562 102.938 70.375 102.469 70.5469C102 70.7031 101.516 70.8203 101.016 70.8984C100.516 70.9609 100.039 70.9844 99.5859 70.9688C98.5234 70.9531 97.5234 70.75 96.5859 70.3594C95.6484 69.9531 94.7891 69.4219 94.0078 68.7656C93.2266 68.0938 92.5234 67.3203 91.8984 66.4453C91.2734 65.5547 90.7422 64.625 90.3047 63.6562C89.8828 62.6719 89.5547 61.6719 89.3203 60.6562C89.1016 59.6406 88.9922 58.6562 88.9922 57.7031C88.9922 56.2969 89.0156 54.8438 89.0625 53.3438C89.125 51.8281 89.2266 50.3125 89.3672 48.7969C89.5078 47.2812 89.6875 45.7812 89.9062 44.2969C90.1406 42.8125 90.4297 41.3906 90.7734 40.0312C92.6797 40.125 94.5938 40.2109 96.5156 40.2891C98.4375 40.3672 100.352 40.3906 102.258 40.3594C101.898 41.7188 101.539 43.0859 101.18 44.4609C100.836 45.8203 100.523 47.1953 100.242 48.5859C99.9609 49.9609 99.7344 51.3438 99.5625 52.7344C99.3906 54.125 99.3047 55.5312 99.3047 56.9531C99.3047 57.2812 99.3203 57.75 99.3516 58.3594C99.3828 58.9688 99.4609 59.5703 99.5859 60.1641C99.7266 60.7578 99.9297 61.2812 100.195 61.7344C100.477 62.1719 100.867 62.3906 101.367 62.3906C101.961 62.3906 102.492 62.1406 102.961 61.6406C103.43 61.125 103.844 60.4375 104.203 59.5781C104.562 58.7188 104.867 57.7266 105.117 56.6016C105.383 55.4766 105.602 54.3047 105.773 53.0859C105.961 51.8516 106.109 50.6094 106.219 49.3594C106.328 48.1094 106.406 46.9375 106.453 45.8438C106.516 44.7344 106.555 43.7422 106.57 42.8672C106.602 41.9922 106.617 41.3125 106.617 40.8281C106.617 40.5156 106.609 40.2109 106.594 39.9141C106.578 39.6172 106.555 39.3125 106.523 39C107.539 39.0312 108.547 39.0547 109.547 39.0703C110.547 39.0859 111.555 39.0938 112.57 39.0938C113.352 39.0938 114.133 39.0938 114.914 39.0938C115.711 39.0781 116.508 39.0469 117.305 39ZM142.5 60C142.5 62.1406 142.125 63.9922 141.375 65.5547C140.641 67.1016 139.625 68.3828 138.328 69.3984C137.047 70.3984 135.539 71.1406 133.805 71.625C132.086 72.0938 130.234 72.3281 128.25 72.3281C127.484 72.3281 126.641 72.2266 125.719 72.0234C124.812 71.8203 123.891 71.5703 122.953 71.2734C122.016 70.9609 121.109 70.6328 120.234 70.2891C119.375 69.9297 118.609 69.5938 117.938 69.2812L118.969 60.0938C120.297 60.8906 121.766 61.5 123.375 61.9219C125 62.3281 126.594 62.5312 128.156 62.5312C128.453 62.5312 128.812 62.5234 129.234 62.5078C129.656 62.4766 130.055 62.4062 130.43 62.2969C130.82 62.1719 131.148 61.9922 131.414 61.7578C131.68 61.5234 131.812 61.1875 131.812 60.75C131.812 60.4531 131.719 60.2031 131.531 60C131.344 59.7812 131.102 59.6094 130.805 59.4844C130.508 59.3438 130.172 59.2422 129.797 59.1797C129.422 59.1016 129.055 59.0469 128.695 59.0156C128.336 58.9844 128 58.9688 127.688 58.9688C127.375 58.9688 127.125 58.9688 126.938 58.9688C125.594 58.9688 124.367 58.7578 123.258 58.3359C122.164 57.9141 121.219 57.3203 120.422 56.5547C119.641 55.7734 119.031 54.8359 118.594 53.7422C118.156 52.6328 117.938 51.4062 117.938 50.0625C117.938 48.2188 118.305 46.5703 119.039 45.1172C119.789 43.6484 120.781 42.4062 122.016 41.3906C123.266 40.3594 124.695 39.5703 126.305 39.0234C127.914 38.4766 129.578 38.2031 131.297 38.2031C132.062 38.2031 132.852 38.2344 133.664 38.2969C134.477 38.3438 135.281 38.4375 136.078 38.5781C136.891 38.7188 137.68 38.8984 138.445 39.1172C139.211 39.3359 139.938 39.6094 140.625 39.9375L139.734 49.4531C138.672 49.0938 137.555 48.7969 136.383 48.5625C135.227 48.3125 134.094 48.1875 132.984 48.1875C132.781 48.1875 132.516 48.1953 132.188 48.2109C131.875 48.2109 131.539 48.2344 131.18 48.2812C130.836 48.3125 130.484 48.3672 130.125 48.4453C129.766 48.5234 129.445 48.6328 129.164 48.7734C128.883 48.8984 128.656 49.0703 128.484 49.2891C128.312 49.5078 128.234 49.7656 128.25 50.0625C128.266 50.4062 128.391 50.6719 128.625 50.8594C128.875 51.0469 129.188 51.1875 129.562 51.2812C129.953 51.3594 130.375 51.3984 130.828 51.3984C131.297 51.3984 131.758 51.3906 132.211 51.375C132.664 51.3438 133.086 51.3203 133.477 51.3047C133.867 51.2734 134.188 51.2656 134.438 51.2812C135.688 51.3594 136.812 51.625 137.812 52.0781C138.812 52.5312 139.656 53.1328 140.344 53.8828C141.047 54.6328 141.578 55.5312 141.938 56.5781C142.312 57.6094 142.5 58.75 142.5 60ZM168.281 38.9531L168.047 48.8906L161.062 49.1719L160.219 70.9219L150.328 71.4375L149.438 49.6875L142.453 50.0625L142.734 39L168.281 38.9531ZM195.305 53.0625C195.305 54.4219 195.211 55.7812 195.023 57.1406C192.352 57.3125 189.695 57.5938 187.055 57.9844C184.414 58.3594 181.773 58.7344 179.133 59.1094C179.539 60.2344 180.172 61.1328 181.031 61.8047C181.906 62.4766 182.945 62.8125 184.148 62.8125C184.773 62.8125 185.453 62.6953 186.188 62.4609C186.938 62.2266 187.68 61.9375 188.414 61.5938C189.148 61.2344 189.852 60.8516 190.523 60.4453C191.195 60.0391 191.773 59.6719 192.258 59.3438L191.133 69.9844C190.523 70.4531 189.859 70.8516 189.141 71.1797C188.438 71.5078 187.703 71.7734 186.938 71.9766C186.172 72.1797 185.398 72.3281 184.617 72.4219C183.836 72.5156 183.07 72.5625 182.32 72.5625C180.773 72.5625 179.359 72.3516 178.078 71.9297C176.797 71.5078 175.633 70.9219 174.586 70.1719C173.555 69.4062 172.648 68.5078 171.867 67.4766C171.086 66.4453 170.438 65.3203 169.922 64.1016C169.406 62.8828 169.016 61.5938 168.75 60.2344C168.484 58.875 168.352 57.5 168.352 56.1094C168.352 54.6562 168.484 53.2031 168.75 51.75C169.016 50.2969 169.414 48.8984 169.945 47.5547C170.492 46.2109 171.172 44.9688 171.984 43.8281C172.812 42.6719 173.773 41.6641 174.867 40.8047C175.961 39.9453 177.195 39.2734 178.57 38.7891C179.961 38.3047 181.492 38.0625 183.164 38.0625C184.555 38.0625 185.82 38.2578 186.961 38.6484C188.117 39.0234 189.141 39.5547 190.031 40.2422C190.938 40.9141 191.719 41.7188 192.375 42.6562C193.047 43.5938 193.594 44.625 194.016 45.75C194.453 46.8594 194.773 48.0391 194.977 49.2891C195.195 50.5234 195.305 51.7812 195.305 53.0625ZM185.93 51.8438C185.93 51.4062 185.883 50.9609 185.789 50.5078C185.695 50.0391 185.539 49.6172 185.32 49.2422C185.117 48.8672 184.844 48.5625 184.5 48.3281C184.156 48.0781 183.727 47.9531 183.211 47.9531C182.586 47.9531 182.031 48.125 181.547 48.4688C181.078 48.7969 180.672 49.2188 180.328 49.7344C179.984 50.2344 179.703 50.7812 179.484 51.375C179.266 51.9688 179.102 52.5156 178.992 53.0156L185.93 52.3594V51.8438ZM223.406 53.3906C223.406 55.5781 223.125 57.5391 222.562 59.2734C222 61.0078 221.211 62.5469 220.195 63.8906C219.195 65.2188 218 66.3516 216.609 67.2891C215.219 68.2266 213.695 69 212.039 69.6094C210.383 70.2031 208.617 70.6406 206.742 70.9219C204.883 71.2031 202.969 71.3438 201 71.3438C200.266 71.3438 199.547 71.3281 198.844 71.2969C198.141 71.25 197.422 71.1875 196.688 71.1094L197.344 40.5938C199.062 40.0469 200.828 39.6641 202.641 39.4453C204.469 39.2109 206.281 39.0938 208.078 39.0938C210.312 39.0938 212.367 39.4062 214.242 40.0312C216.117 40.6562 217.734 41.5781 219.094 42.7969C220.453 44 221.508 45.4922 222.258 47.2734C223.023 49.0391 223.406 51.0781 223.406 53.3906ZM207.469 62.3906C208.406 62.25 209.258 61.9688 210.023 61.5469C210.805 61.1094 211.477 60.5781 212.039 59.9531C212.602 59.3125 213.031 58.5938 213.328 57.7969C213.641 56.9844 213.797 56.125 213.797 55.2188C213.797 54.3281 213.703 53.5 213.516 52.7344C213.328 51.9531 213.023 51.2812 212.602 50.7188C212.18 50.1406 211.625 49.6875 210.938 49.3594C210.25 49.0156 209.406 48.8281 208.406 48.7969L207.469 62.3906ZM58.1953 107.531C58.1953 109.672 57.8203 111.547 57.0703 113.156C56.3359 114.75 55.3203 116.078 54.0234 117.141C52.7422 118.203 51.2344 119 49.5 119.531C47.7812 120.062 45.9297 120.328 43.9453 120.328C43.1797 120.328 42.3359 120.227 41.4141 120.023C40.5078 119.82 39.5859 119.57 38.6484 119.273C37.7109 118.961 36.8047 118.633 35.9297 118.289C35.0703 117.93 34.3047 117.594 33.6328 117.281L34.6641 107.625C35.9922 108.422 37.4609 109.031 39.0703 109.453C40.6953 109.859 42.2891 110.062 43.8516 110.062C44.1484 110.062 44.5078 110.055 44.9297 110.039C45.3516 110.008 45.75 109.938 46.125 109.828C46.5156 109.703 46.8438 109.523 47.1094 109.289C47.375 109.055 47.5078 108.719 47.5078 108.281C47.5078 107.984 47.4141 107.734 47.2266 107.531C47.0391 107.312 46.7969 107.141 46.5 107.016C46.2031 106.875 45.8672 106.773 45.4922 106.711C45.1172 106.633 44.75 106.578 44.3906 106.547C44.0312 106.516 43.6953 106.5 43.3828 106.5C43.0703 106.5 42.8203 106.5 42.6328 106.5C41.2891 106.5 40.0625 106.266 38.9531 105.797C37.8594 105.328 36.9141 104.68 36.1172 103.852C35.3359 103.008 34.7266 102.016 34.2891 100.875C33.8516 99.7188 33.6328 98.4688 33.6328 97.125C33.6328 95.2812 34 93.6328 34.7344 92.1797C35.4844 90.7109 36.4766 89.4688 37.7109 88.4531C38.9609 87.4219 40.3906 86.6328 42 86.0859C43.6094 85.5391 45.2734 85.2656 46.9922 85.2656C47.7578 85.2656 48.5469 85.2969 49.3594 85.3594C50.1719 85.4062 50.9766 85.5 51.7734 85.6406C52.5859 85.7812 53.375 85.9609 54.1406 86.1797C54.9062 86.3984 55.6328 86.6719 56.3203 87L55.4297 96.5156C54.3672 96.1562 53.25 95.8594 52.0781 95.625C50.9219 95.375 49.7891 95.25 48.6797 95.25C48.4766 95.25 48.2109 95.2578 47.8828 95.2734C47.5703 95.2734 47.2344 95.2969 46.875 95.3438C46.5312 95.375 46.1797 95.4297 45.8203 95.5078C45.4609 95.5859 45.1406 95.6953 44.8594 95.8359C44.5781 95.9609 44.3516 96.1328 44.1797 96.3516C44.0078 96.5703 43.9297 96.8281 43.9453 97.125C43.9609 97.4688 44.0859 97.75 44.3203 97.9688C44.5703 98.1719 44.8828 98.3359 45.2578 98.4609C45.6484 98.5703 46.0703 98.6484 46.5234 98.6953C46.9922 98.7422 47.4531 98.7734 47.9062 98.7891C48.3594 98.7891 48.7812 98.7891 49.1719 98.7891C49.5625 98.7734 49.8828 98.7812 50.1328 98.8125C51.3828 98.8906 52.5078 99.1562 53.5078 99.6094C54.5078 100.062 55.3516 100.664 56.0391 101.414C56.7422 102.164 57.2734 103.062 57.6328 104.109C58.0078 105.141 58.1953 106.281 58.1953 107.531ZM85.8516 101.062C85.8516 102.422 85.7578 103.781 85.5703 105.141C82.8984 105.312 80.2422 105.594 77.6016 105.984C74.9609 106.359 72.3203 106.734 69.6797 107.109C70.0859 108.234 70.7188 109.133 71.5781 109.805C72.4531 110.477 73.4922 110.812 74.6953 110.812C75.3203 110.812 76 110.695 76.7344 110.461C77.4844 110.227 78.2266 109.938 78.9609 109.594C79.6953 109.234 80.3984 108.852 81.0703 108.445C81.7422 108.039 82.3203 107.672 82.8047 107.344L81.6797 117.984C81.0703 118.453 80.4062 118.852 79.6875 119.18C78.9844 119.508 78.25 119.773 77.4844 119.977C76.7188 120.18 75.9453 120.328 75.1641 120.422C74.3828 120.516 73.6172 120.562 72.8672 120.562C71.3203 120.562 69.9062 120.352 68.625 119.93C67.3438 119.508 66.1797 118.922 65.1328 118.172C64.1016 117.406 63.1953 116.508 62.4141 115.477C61.6328 114.445 60.9844 113.32 60.4688 112.102C59.9531 110.883 59.5625 109.594 59.2969 108.234C59.0312 106.875 58.8984 105.5 58.8984 104.109C58.8984 102.656 59.0312 101.203 59.2969 99.75C59.5625 98.2969 59.9609 96.8984 60.4922 95.5547C61.0391 94.2109 61.7188 92.9688 62.5312 91.8281C63.3594 90.6719 64.3203 89.6641 65.4141 88.8047C66.5078 87.9453 67.7422 87.2734 69.1172 86.7891C70.5078 86.3047 72.0391 86.0625 73.7109 86.0625C75.1016 86.0625 76.3672 86.2578 77.5078 86.6484C78.6641 87.0234 79.6875 87.5547 80.5781 88.2422C81.4844 88.9141 82.2656 89.7188 82.9219 90.6562C83.5938 91.5938 84.1406 92.625 84.5625 93.75C85 94.8594 85.3203 96.0391 85.5234 97.2891C85.7422 98.5234 85.8516 99.7812 85.8516 101.062ZM76.4766 99.8438C76.4766 99.4062 76.4297 98.9609 76.3359 98.5078C76.2422 98.0391 76.0859 97.6172 75.8672 97.2422C75.6641 96.8672 75.3906 96.5625 75.0469 96.3281C74.7031 96.0781 74.2734 95.9531 73.7578 95.9531C73.1328 95.9531 72.5781 96.125 72.0938 96.4688C71.625 96.7969 71.2188 97.2188 70.875 97.7344C70.5312 98.2344 70.25 98.7812 70.0312 99.375C69.8125 99.9688 69.6484 100.516 69.5391 101.016L76.4766 100.359V99.8438ZM112.219 86.9531L111.984 96.8906L105 97.1719L104.156 118.922L94.2656 119.438L93.375 97.6875L86.3906 98.0625L86.6719 87L112.219 86.9531ZM141.492 87C140.789 92.5 140.188 97.9766 139.688 103.43C139.188 108.867 138.711 114.344 138.258 119.859L128.648 120.562L129.07 116.953C128.758 117.312 128.391 117.625 127.969 117.891C127.562 118.156 127.125 118.375 126.656 118.547C126.188 118.703 125.703 118.82 125.203 118.898C124.703 118.961 124.227 118.984 123.773 118.969C122.711 118.953 121.711 118.75 120.773 118.359C119.836 117.953 118.977 117.422 118.195 116.766C117.414 116.094 116.711 115.32 116.086 114.445C115.461 113.555 114.93 112.625 114.492 111.656C114.07 110.672 113.742 109.672 113.508 108.656C113.289 107.641 113.18 106.656 113.18 105.703C113.18 104.297 113.203 102.844 113.25 101.344C113.312 99.8281 113.414 98.3125 113.555 96.7969C113.695 95.2812 113.875 93.7812 114.094 92.2969C114.328 90.8125 114.617 89.3906 114.961 88.0312C116.867 88.125 118.781 88.2109 120.703 88.2891C122.625 88.3672 124.539 88.3906 126.445 88.3594C126.086 89.7188 125.727 91.0859 125.367 92.4609C125.023 93.8203 124.711 95.1953 124.43 96.5859C124.148 97.9609 123.922 99.3438 123.75 100.734C123.578 102.125 123.492 103.531 123.492 104.953C123.492 105.281 123.508 105.75 123.539 106.359C123.57 106.969 123.648 107.57 123.773 108.164C123.914 108.758 124.117 109.281 124.383 109.734C124.664 110.172 125.055 110.391 125.555 110.391C126.148 110.391 126.68 110.141 127.148 109.641C127.617 109.125 128.031 108.438 128.391 107.578C128.75 106.719 129.055 105.727 129.305 104.602C129.57 103.477 129.789 102.305 129.961 101.086C130.148 99.8516 130.297 98.6094 130.406 97.3594C130.516 96.1094 130.594 94.9375 130.641 93.8438C130.703 92.7344 130.742 91.7422 130.758 90.8672C130.789 89.9922 130.805 89.3125 130.805 88.8281C130.805 88.5156 130.797 88.2109 130.781 87.9141C130.766 87.6172 130.742 87.3125 130.711 87C131.727 87.0312 132.734 87.0547 133.734 87.0703C134.734 87.0859 135.742 87.0938 136.758 87.0938C137.539 87.0938 138.32 87.0938 139.102 87.0938C139.898 87.0781 140.695 87.0469 141.492 87ZM170.203 98.3906C170.203 99.9062 169.977 101.25 169.523 102.422C169.07 103.594 168.445 104.625 167.648 105.516C166.867 106.391 165.945 107.133 164.883 107.742C163.82 108.336 162.68 108.828 161.461 109.219C160.258 109.594 159.008 109.875 157.711 110.062C156.414 110.234 155.141 110.328 153.891 110.344V120.328H142.969C142.969 118.547 142.969 116.812 142.969 115.125C142.984 113.438 142.992 111.766 142.992 110.109C143.008 108.438 143.016 106.758 143.016 105.07C143.031 103.383 143.047 101.641 143.062 99.8438C143.094 97.9375 143.102 96.0312 143.086 94.125C143.07 92.2188 143.109 90.2969 143.203 88.3594C145.203 87.7656 147.203 87.3203 149.203 87.0234C151.203 86.7266 153.266 86.5781 155.391 86.5781C156.594 86.5781 157.797 86.6797 159 86.8828C160.203 87.0703 161.352 87.375 162.445 87.7969C163.555 88.2188 164.578 88.75 165.516 89.3906C166.469 90.0156 167.289 90.7656 167.977 91.6406C168.664 92.5156 169.203 93.5156 169.594 94.6406C170 95.7656 170.203 97.0156 170.203 98.3906ZM159.797 99.1875C159.797 98.1719 159.484 97.3828 158.859 96.8203C158.25 96.2422 157.453 95.9531 156.469 95.9531C156.141 95.9531 155.797 95.9844 155.438 96.0469C155.094 96.0938 154.766 96.1562 154.453 96.2344L154.172 103.078C154.391 103.109 154.602 103.125 154.805 103.125C155.008 103.125 155.219 103.125 155.438 103.125C156 103.125 156.539 103.031 157.055 102.844C157.586 102.656 158.055 102.391 158.461 102.047C158.867 101.688 159.188 101.273 159.422 100.805C159.672 100.32 159.797 99.7812 159.797 99.1875Z" fill="#FCFCFC"/>
</svg>
