<svg width="40" height="40" viewBox="0 0 40 40" fill="none" xmlns="http://www.w3.org/2000/svg">
<path fill-rule="evenodd" clip-rule="evenodd" d="M0 20C0 8.95431 8.95431 0 20 0C31.0457 0 40 8.95431 40 20C40 31.0457 31.0457 40 20 40C8.95431 40 0 31.0457 0 20ZM27.625 14.375C28.5 14.25 29.25 14.125 30 13.75C29.5 14.625 28.75 15.375 27.875 15.875C28.125 21.75 23.875 28.125 16.25 28.125C14 28.125 11.875 27.375 10 26.25C12.125 26.5 14.375 25.875 15.875 24.75C14 24.75 12.5 23.5 12 21.875C12.625 22 13.25 21.875 13.875 21.75C12 21.25 10.625 19.5 10.625 17.625C11.25 17.875 11.875 18.125 12.5 18.125C10.75 16.875 10.125 14.5 11.25 12.625C13.375 15.125 16.375 16.75 19.75 16.875C19.125 14.375 21.125 11.875 23.75 11.875C24.875 11.875 26 12.375 26.75 13.125C27.75 12.875 28.625 12.625 29.375 12.125C29.125 13.125 28.5 13.875 27.625 14.375Z" fill="#151616"/>
</svg>
