<svg width="360" height="160" viewBox="0 0 360 160" fill="none" xmlns="http://www.w3.org/2000/svg">
<g clip-path="url(#clip0_422_2220)">
<rect width="360" height="160" rx="4" fill="white"/>
<rect width="360" height="160" rx="4" fill="url(#paint0_linear_422_2220)"/>
<g filter="url(#filter0_f_422_2220)">
<path d="M102.188 89.9259C58.249 111.52 37.8231 150.019 33.1025 166.569C100.563 266.163 150.353 221.783 196.198 208.787C242.043 195.791 368.753 82.8072 354.203 67.8242C339.652 52.8413 273.071 64.2574 261.144 76.8105C249.217 89.3636 234.61 137.355 198.776 129.435C162.942 121.514 157.112 62.9339 102.188 89.9259Z" fill="url(#paint1_linear_422_2220)"/>
</g>
<circle cx="296.39" cy="20.9517" r="25.9478" fill="url(#paint2_linear_422_2220)"/>
<path opacity="0.5" d="M275.228 90.8688C275.228 73.3582 289.423 59.1631 306.934 59.1631V59.1631C324.444 59.1631 338.639 73.3582 338.639 90.8688V142.166H275.228V90.8688Z" fill="url(#paint3_linear_422_2220)"/>
<path opacity="0.5" d="M-1 90.8688C-1 73.3582 13.1951 59.1631 30.7057 59.1631V59.1631C48.2163 59.1631 62.4114 73.3582 62.4114 90.8688V142.166H-1V90.8688Z" fill="url(#paint4_linear_422_2220)"/>
<path opacity="0.5" d="M105.035 77.8575C105.035 42.2582 133.894 13.3993 169.493 13.3993V13.3993C205.092 13.3993 233.951 42.2582 233.951 77.8575V166.992H105.035V77.8575Z" fill="url(#paint5_linear_422_2220)"/>
<path opacity="0.5" d="M111.466 86.8308C111.466 54.7832 137.446 28.8035 169.493 28.8035V28.8035C201.541 28.8035 227.521 54.7832 227.521 86.8308V166.992H111.466V86.8308Z" fill="url(#paint6_linear_422_2220)"/>
<path opacity="0.5" d="M120.438 99.3934C120.438 72.3016 142.401 50.3394 169.493 50.3394V50.3394C196.584 50.3394 218.547 72.3016 218.547 99.3934V166.992H120.438V99.3934Z" fill="url(#paint7_linear_422_2220)"/>
<path opacity="0.5" d="M129.263 111.657C129.263 89.4384 147.274 71.4266 169.493 71.4266V71.4266C191.712 71.4266 209.723 89.4384 209.723 111.657V166.992H129.263V111.657Z" fill="url(#paint8_linear_422_2220)"/>
<path opacity="0.5" d="M139.433 122.425C139.433 104.667 153.829 90.2705 171.587 90.2705V90.2705C189.345 90.2705 203.741 104.667 203.741 122.425V166.992H139.433V122.425Z" fill="url(#paint9_linear_422_2220)"/>
<path d="M69.3548 126.973C69.3548 126.973 70.2932 111.989 80.1072 103.42C89.9212 94.8505 102.117 92.7593 104.894 95.9402C107.672 99.1211 104.112 111.102 94.298 119.672C84.484 128.241 69.3548 126.973 69.3548 126.973Z" fill="url(#paint10_angular_422_2220)"/>
<path d="M55.1445 87.5828C55.1445 87.5828 69.3224 79.0775 83.2244 82.6289C97.1263 86.1802 106.639 95.9374 105.488 100.443C104.337 104.949 91.2454 109.202 77.3434 105.65C63.4415 102.099 55.1445 87.5828 55.1445 87.5828Z" fill="url(#paint11_angular_422_2220)"/>
<path d="M138.534 105.017C138.534 105.017 138.887 116.291 132.149 123.393C125.411 130.494 116.435 132.917 114.133 130.733C111.831 128.549 113.651 119.336 120.389 112.234C127.127 105.133 138.534 105.017 138.534 105.017Z" fill="url(#paint12_angular_422_2220)"/>
<path d="M87.6347 77.1864C88.8608 77.903 90.6103 79.1867 92.6432 81.0545M112.546 177.676C113.016 175.307 114.045 162.678 114.048 148.032M92.6432 81.0545C97.3685 85.3959 103.625 92.8931 108.401 103.759C112.845 113.869 114.051 132.138 114.048 148.032M92.6432 81.0545L85.8379 80.1091M114.048 148.032L116.521 143.537" stroke="url(#paint13_linear_422_2220)" stroke-width="1.19644" stroke-linecap="round"/>
<path d="M276.52 129.964C276.52 129.964 275.582 114.98 265.768 106.411C255.954 97.8414 243.758 95.7502 240.981 98.9312C238.203 102.112 241.763 114.093 251.577 122.663C261.391 131.232 276.52 129.964 276.52 129.964Z" fill="url(#paint14_angular_422_2220)"/>
<path d="M290.73 90.574C290.73 90.574 276.553 82.0688 262.651 85.6201C248.749 89.1714 239.236 98.9286 240.387 103.434C241.538 107.94 254.63 112.193 268.532 108.641C282.433 105.09 290.73 90.574 290.73 90.574Z" fill="url(#paint15_angular_422_2220)"/>
<path d="M207.341 108.008C207.341 108.008 206.988 119.282 213.726 126.384C220.465 133.485 229.441 135.908 231.742 133.724C234.044 131.54 232.225 122.327 225.486 115.225C218.748 108.124 207.341 108.008 207.341 108.008Z" fill="url(#paint16_angular_422_2220)"/>
<path d="M258.24 80.1775C257.014 80.8941 255.265 82.1778 253.232 84.0456M233.329 180.667C232.859 178.298 231.83 165.669 231.827 151.023M253.232 84.0456C248.507 88.387 242.25 95.8842 237.474 106.75C233.03 116.86 231.824 135.129 231.827 151.023M253.232 84.0456L260.037 83.1002M231.827 151.023L229.354 146.528" stroke="url(#paint17_linear_422_2220)" stroke-width="1.19644" stroke-linecap="round"/>
<path d="M69.8176 23.4838C69.4408 23.292 69.094 23.1179 68.7832 22.9641C69.0819 22.9989 69.4301 23.1803 69.8176 23.4838C73.6259 25.4229 80.4892 29.1735 84.0938 32.0745C89.0454 36.0595 90.3699 40.25 88.2709 41.2513C86.5918 42.0524 83.0162 42.0853 81.4384 42.0016C78.6931 36.4694 72.9636 25.9485 69.8176 23.4838Z" fill="url(#paint18_linear_422_2220)"/>
<path d="M100.97 33.3474C102.658 33.4793 104.655 35.3303 105.442 36.2393C101.338 34.6764 97.0711 35.2172 95.2811 36.6232C93.4911 38.0292 93.1205 43.1071 91.1918 46.4959C89.2631 49.8847 66.78 57.1365 72.8824 54.3192C78.9848 51.5019 80.3783 47.6307 82.203 42.2113C84.0277 36.7919 86.0583 34.8052 88.8625 32.0915C91.6666 29.3778 94.7243 29.8549 96.4254 30.8184C98.1265 31.7819 98.859 33.1826 100.97 33.3474Z" fill="url(#paint19_linear_422_2220)"/>
<path d="M65.9226 29.2254C65.5102 29.1325 65.1312 29.0495 64.792 28.9772C65.09 28.9372 65.4723 29.0269 65.9226 29.2254C70.0918 30.1642 77.6686 32.1042 81.878 34.0254C87.6601 36.6645 89.9782 40.3983 88.1915 41.8868C86.762 43.0777 83.3053 43.9924 81.7556 44.3009C77.7294 39.6177 69.5798 30.8371 65.9226 29.2254Z" fill="url(#paint20_linear_422_2220)"/>
<path d="M81.4095 52.2824C83.3521 49.8792 84.089 45.7163 84.2146 43.9352C83.1824 45.0861 80.1825 48.0161 76.4401 50.5288C72.6978 53.0416 65.9483 53.7491 63.0414 53.7887C64.207 53.9218 67.2636 54.2341 70.1649 54.419C73.0663 54.604 76.5823 55.2004 77.9776 55.4754C78.3122 55.4124 79.4669 54.6855 81.4095 52.2824Z" fill="url(#paint21_linear_422_2220)"/>
<path d="M270.75 23.0351C271.127 22.8433 271.473 22.6692 271.784 22.5154C271.486 22.5502 271.137 22.7315 270.75 23.0351C266.941 24.9742 260.078 28.7248 256.474 31.6258C251.522 35.6107 250.197 39.8013 252.296 40.8026C253.976 41.6037 257.551 41.6366 259.129 41.5529C261.874 36.0207 267.604 25.4998 270.75 23.0351Z" fill="url(#paint22_linear_422_2220)"/>
<path d="M239.598 32.8988C237.909 33.0307 235.912 34.8816 235.125 35.7906C239.229 34.2278 243.496 34.7686 245.286 36.1746C247.076 37.5806 247.447 42.6585 249.376 46.0473C251.304 49.4361 273.787 56.6879 267.685 53.8706C261.583 51.0533 260.189 47.1821 258.364 41.7627C256.54 36.3433 254.509 34.3565 251.705 31.6429C248.901 28.9292 245.843 29.4063 244.142 30.3698C242.441 31.3333 241.708 32.734 239.598 32.8988Z" fill="url(#paint23_linear_422_2220)"/>
<path d="M274.644 28.7768C275.057 28.6839 275.436 28.6009 275.775 28.5286C275.477 28.4886 275.095 28.5783 274.644 28.7768C270.475 29.7156 262.898 31.6556 258.689 33.5768C252.907 36.2159 250.589 39.9497 252.375 41.4382C253.805 42.6291 257.262 43.5438 258.811 43.8522C262.837 39.1691 270.987 30.3885 274.644 28.7768Z" fill="url(#paint24_linear_422_2220)"/>
<path d="M259.158 51.8337C257.215 49.4306 256.478 45.2677 256.353 43.4866C257.385 44.6375 260.385 47.5675 264.127 50.0802C267.87 52.593 274.619 53.3005 277.526 53.3401C276.36 53.4731 273.304 53.7855 270.402 53.9704C267.501 54.1554 263.985 54.7518 262.59 55.0268C262.255 54.9638 261.1 54.2369 259.158 51.8337Z" fill="url(#paint25_linear_422_2220)"/>
<path d="M233.241 133.437C233.241 133.437 228.813 141.616 231.153 149.34C233.494 157.064 239.213 162.168 241.717 161.409C244.22 160.651 246.285 153.188 243.945 145.464C241.604 137.74 233.241 133.437 233.241 133.437Z" fill="url(#paint26_angular_422_2220)"/>
<path d="M283.841 133.819C283.841 133.819 275.071 128.528 266.454 130.707C257.836 132.887 251.929 138.917 252.635 141.71C253.341 144.503 261.445 147.157 270.062 144.978C278.679 142.799 283.841 133.819 283.841 133.819Z" fill="url(#paint27_angular_422_2220)"/>
<path d="M215.563 150.303C215.563 150.303 219.252 158.89 226.8 161.858C234.348 164.826 241.935 163.497 242.897 161.051C243.859 158.604 239.263 152.326 231.715 149.358C224.167 146.39 215.563 150.303 215.563 150.303Z" fill="url(#paint28_angular_422_2220)"/>
<path d="M232.029 207.509C231.605 205.34 236.736 190.174 236.766 176.77M252.427 119.713C252.66 126.684 254.525 140.957 250.13 150.891C246.041 160.133 236.799 162.224 236.766 176.77M236.766 176.77L234.737 179.353" stroke="url(#paint29_linear_422_2220)" stroke-width="1.19644" stroke-linecap="round"/>
<path d="M113.213 129.245C113.213 129.245 117.641 137.423 115.3 145.148C112.96 152.872 107.241 157.976 104.737 157.217C102.233 156.458 100.168 148.996 102.509 141.272C104.85 133.547 113.213 129.245 113.213 129.245Z" fill="url(#paint30_angular_422_2220)"/>
<path d="M62.612 129.626C62.612 129.626 71.3822 124.336 79.9995 126.515C88.6169 128.694 94.5245 134.724 93.8182 137.517C93.1119 140.311 85.0084 142.964 76.391 140.785C67.7737 138.606 62.612 129.626 62.612 129.626Z" fill="url(#paint31_angular_422_2220)"/>
<path d="M130.89 146.11C130.89 146.11 127.201 154.697 119.653 157.665C112.105 160.633 104.518 159.305 103.556 156.858C102.594 154.412 107.19 148.134 114.738 145.166C122.286 142.198 130.89 146.11 130.89 146.11Z" fill="url(#paint32_angular_422_2220)"/>
<path d="M114.425 203.317C114.849 201.147 109.717 185.981 109.687 172.577M94.0269 115.521C93.7939 122.491 91.9284 136.764 96.3234 146.698C100.413 155.941 109.655 158.031 109.687 172.577M109.687 172.577L111.716 175.161" stroke="url(#paint33_linear_422_2220)" stroke-width="1.19644" stroke-linecap="round"/>
<path d="M64.2809 120.918V110.476H68.788C69.5629 110.476 70.241 110.629 70.8222 110.935C71.4035 111.241 71.8555 111.671 72.1784 112.225C72.5013 112.779 72.6628 113.427 72.6628 114.168C72.6628 114.915 72.4962 115.563 72.1631 116.11C71.8334 116.657 71.3695 117.079 70.7713 117.375C70.1764 117.67 69.4813 117.818 68.686 117.818H65.994V115.616H68.115C68.4481 115.616 68.7319 115.558 68.9664 115.442C69.2043 115.323 69.3862 115.155 69.5119 114.937C69.6411 114.72 69.7057 114.463 69.7057 114.168C69.7057 113.868 69.6411 113.614 69.5119 113.403C69.3862 113.189 69.2043 113.026 68.9664 112.913C68.7319 112.798 68.4481 112.74 68.115 112.74H67.1157V120.918H64.2809ZM73.7437 120.918V113.087H76.4764V114.575H76.558C76.7008 114.025 76.9268 113.622 77.2361 113.367C77.5488 113.112 77.9142 112.985 78.3323 112.985C78.4547 112.985 78.5753 112.995 78.6943 113.015C78.8166 113.032 78.9339 113.058 79.0461 113.092V115.493C78.9067 115.446 78.7351 115.41 78.5311 115.386C78.3272 115.362 78.1521 115.35 78.006 115.35C77.7307 115.35 77.4825 115.413 77.2616 115.539C77.0441 115.661 76.8724 115.835 76.7467 116.059C76.6209 116.28 76.558 116.54 76.558 116.839V120.918H73.7437ZM79.9689 120.918V113.087H82.7833V120.918H79.9689ZM81.3761 112.271C80.9954 112.271 80.6691 112.145 80.3972 111.894C80.1253 111.642 79.9893 111.34 79.9893 110.986C79.9893 110.633 80.1253 110.33 80.3972 110.079C80.6691 109.827 80.9954 109.701 81.3761 109.701C81.7602 109.701 82.0865 109.827 82.355 110.079C82.6269 110.33 82.7629 110.633 82.7629 110.986C82.7629 111.34 82.6269 111.642 82.355 111.894C82.0865 112.145 81.7602 112.271 81.3761 112.271ZM92.1096 113.087L89.4788 120.918H86.2158L83.585 113.087H86.5421L87.8065 118.267H87.8881L89.1525 113.087H92.1096ZM94.8959 121.04C94.3963 121.04 93.9544 120.959 93.5703 120.796C93.1897 120.629 92.8905 120.378 92.673 120.041C92.4555 119.705 92.3467 119.276 92.3467 118.756C92.3467 118.328 92.4198 117.963 92.5659 117.66C92.7121 117.354 92.916 117.104 93.1778 116.911C93.4395 116.717 93.7437 116.569 94.0904 116.467C94.4405 116.365 94.8178 116.299 95.2222 116.268C95.6607 116.234 96.0125 116.193 96.2776 116.146C96.5461 116.095 96.7399 116.025 96.8589 115.937C96.9778 115.845 97.0373 115.724 97.0373 115.575V115.554C97.0373 115.35 96.9591 115.194 96.8028 115.085C96.6464 114.977 96.4459 114.922 96.2012 114.922C95.9326 114.922 95.7134 114.982 95.5434 115.101C95.3769 115.216 95.2766 115.395 95.2426 115.636H92.6526C92.6866 115.16 92.8379 114.722 93.1064 114.321C93.3783 113.916 93.7743 113.593 94.2943 113.352C94.8144 113.107 95.4636 112.985 96.2419 112.985C96.8028 112.985 97.3058 113.051 97.7511 113.184C98.1964 113.313 98.5753 113.495 98.888 113.729C99.2007 113.96 99.4387 114.232 99.6018 114.545C99.7684 114.854 99.8517 115.191 99.8517 115.554V120.918H97.2208V119.817H97.1597C97.0033 120.109 96.813 120.345 96.5886 120.525C96.3677 120.706 96.1145 120.836 95.829 120.918C95.5468 121 95.2358 121.04 94.8959 121.04ZM95.8137 119.266C96.0278 119.266 96.2283 119.222 96.4153 119.134C96.6056 119.045 96.7603 118.918 96.8792 118.751C96.9982 118.585 97.0577 118.382 97.0577 118.144V117.492C96.9829 117.522 96.903 117.551 96.8181 117.578C96.7365 117.606 96.6481 117.631 96.5529 117.655C96.4612 117.679 96.3626 117.701 96.2572 117.721C96.1553 117.742 96.0482 117.76 95.936 117.777C95.7185 117.811 95.54 117.867 95.4007 117.946C95.2647 118.02 95.1628 118.114 95.0948 118.226C95.0302 118.335 94.9979 118.457 94.9979 118.593C94.9979 118.811 95.0744 118.977 95.2273 119.093C95.3803 119.208 95.5757 119.266 95.8137 119.266ZM104.969 121.061C104.119 121.061 103.392 120.892 102.787 120.556C102.182 120.216 101.718 119.744 101.395 119.139C101.072 118.53 100.911 117.825 100.911 117.023C100.911 116.221 101.072 115.517 101.395 114.912C101.718 114.304 102.182 113.831 102.787 113.495C103.392 113.155 104.119 112.985 104.969 112.985C105.737 112.985 106.402 113.124 106.963 113.403C107.527 113.678 107.964 114.069 108.273 114.575C108.582 115.079 108.739 115.67 108.742 116.35H106.132C106.094 115.938 105.975 115.626 105.775 115.412C105.578 115.194 105.323 115.085 105.01 115.085C104.765 115.085 104.551 115.157 104.368 115.299C104.184 115.439 104.041 115.651 103.939 115.937C103.837 116.219 103.786 116.574 103.786 117.002C103.786 117.431 103.837 117.788 103.939 118.073C104.041 118.355 104.184 118.568 104.368 118.71C104.551 118.85 104.765 118.919 105.01 118.919C105.217 118.919 105.401 118.872 105.561 118.777C105.72 118.678 105.85 118.535 105.948 118.348C106.05 118.158 106.111 117.927 106.132 117.655H108.742C108.732 118.345 108.574 118.947 108.268 119.46C107.962 119.97 107.529 120.364 106.968 120.643C106.41 120.921 105.744 121.061 104.969 121.061ZM111.616 123.855C111.293 123.855 110.986 123.829 110.694 123.778C110.401 123.731 110.145 123.664 109.924 123.579L110.535 121.581C110.767 121.662 110.977 121.715 111.168 121.739C111.361 121.763 111.526 121.749 111.662 121.698C111.802 121.647 111.902 121.55 111.963 121.407L112.024 121.265L109.271 113.087H112.208L113.472 118.511H113.554L114.839 113.087H117.796L114.941 121.571C114.798 122.002 114.59 122.39 114.319 122.733C114.05 123.08 113.697 123.353 113.258 123.554C112.82 123.754 112.272 123.855 111.616 123.855ZM124.821 121.081C124.074 121.081 123.43 120.949 122.889 120.683C122.349 120.418 121.934 120.063 121.645 119.618C121.356 119.173 121.212 118.681 121.212 118.144C121.212 117.754 121.286 117.409 121.436 117.109C121.586 116.807 121.795 116.53 122.063 116.278C122.332 116.027 122.646 115.779 123.006 115.534L125.372 114.066C125.61 113.916 125.771 113.761 125.856 113.602C125.941 113.439 125.984 113.294 125.984 113.168C125.984 113.002 125.923 112.854 125.8 112.725C125.678 112.596 125.488 112.533 125.229 112.536C125.07 112.536 124.932 112.567 124.816 112.628C124.701 112.686 124.611 112.767 124.546 112.873C124.485 112.978 124.454 113.104 124.454 113.25C124.454 113.45 124.512 113.656 124.628 113.867C124.743 114.074 124.901 114.298 125.102 114.54C125.302 114.781 125.528 115.051 125.78 115.35L130.838 120.918H128.023L123.781 116.431C123.574 116.21 123.345 115.94 123.093 115.621C122.841 115.298 122.624 114.934 122.44 114.53C122.26 114.125 122.17 113.685 122.17 113.209C122.17 112.679 122.298 112.194 122.553 111.756C122.808 111.318 123.164 110.967 123.623 110.706C124.082 110.444 124.617 110.313 125.229 110.313C125.814 110.313 126.317 110.434 126.738 110.675C127.163 110.916 127.49 111.238 127.717 111.639C127.948 112.04 128.064 112.482 128.064 112.964C128.064 113.45 127.943 113.904 127.702 114.326C127.464 114.747 127.123 115.116 126.677 115.432L124.515 116.962C124.349 117.077 124.204 117.21 124.082 117.359C123.963 117.509 123.904 117.703 123.904 117.94C123.904 118.138 123.95 118.306 124.041 118.445C124.133 118.585 124.262 118.692 124.429 118.766C124.599 118.841 124.798 118.879 125.025 118.879C125.372 118.879 125.719 118.795 126.065 118.629C126.416 118.459 126.735 118.223 127.024 117.92C127.313 117.614 127.544 117.254 127.717 116.839C127.894 116.421 127.982 115.966 127.982 115.473H130.205C130.205 116.078 130.143 116.661 130.017 117.222C129.891 117.782 129.689 118.296 129.41 118.761C129.131 119.227 128.764 119.62 128.309 119.939C128.166 120.01 128.027 120.078 127.891 120.143C127.755 120.208 127.615 120.276 127.473 120.347C127.055 120.615 126.618 120.806 126.162 120.918C125.707 121.027 125.26 121.081 124.821 121.081ZM134.328 123.855V113.087H137.121V114.453H137.183C137.285 114.188 137.434 113.945 137.631 113.724C137.828 113.5 138.073 113.321 138.365 113.189C138.658 113.053 138.998 112.985 139.385 112.985C139.902 112.985 140.393 113.122 140.859 113.398C141.328 113.673 141.708 114.106 142.001 114.698C142.296 115.289 142.444 116.057 142.444 117.002C142.444 117.906 142.303 118.656 142.021 119.251C141.742 119.846 141.368 120.289 140.899 120.581C140.434 120.874 139.922 121.02 139.365 121.02C138.998 121.02 138.67 120.96 138.381 120.841C138.095 120.719 137.851 120.554 137.647 120.347C137.446 120.136 137.291 119.898 137.183 119.633H137.142V123.855H134.328ZM137.081 117.002C137.081 117.383 137.13 117.713 137.229 117.991C137.331 118.267 137.473 118.481 137.657 118.634C137.844 118.783 138.066 118.858 138.325 118.858C138.583 118.858 138.802 118.785 138.982 118.639C139.166 118.489 139.305 118.277 139.4 118.002C139.499 117.723 139.548 117.39 139.548 117.002C139.548 116.615 139.499 116.283 139.4 116.008C139.305 115.729 139.166 115.517 138.982 115.371C138.802 115.221 138.583 115.147 138.325 115.147C138.066 115.147 137.844 115.221 137.657 115.371C137.473 115.517 137.331 115.729 137.229 116.008C137.13 116.283 137.081 116.615 137.081 117.002ZM143.623 120.918V113.087H146.356V114.575H146.438C146.58 114.025 146.806 113.622 147.116 113.367C147.428 113.112 147.794 112.985 148.212 112.985C148.334 112.985 148.455 112.995 148.574 113.015C148.696 113.032 148.814 113.058 148.926 113.092V115.493C148.786 115.446 148.615 115.41 148.411 115.386C148.207 115.362 148.032 115.35 147.886 115.35C147.61 115.35 147.362 115.413 147.141 115.539C146.924 115.661 146.752 115.835 146.626 116.059C146.501 116.28 146.438 116.54 146.438 116.839V120.918H143.623ZM153.173 121.061C152.323 121.061 151.596 120.892 150.991 120.556C150.386 120.216 149.922 119.744 149.599 119.139C149.276 118.53 149.114 117.825 149.114 117.023C149.114 116.221 149.276 115.517 149.599 114.912C149.922 114.304 150.386 113.831 150.991 113.495C151.596 113.155 152.323 112.985 153.173 112.985C154.022 112.985 154.75 113.155 155.355 113.495C155.96 113.831 156.424 114.304 156.747 114.912C157.07 115.517 157.231 116.221 157.231 117.023C157.231 117.825 157.07 118.53 156.747 119.139C156.424 119.744 155.96 120.216 155.355 120.556C154.75 120.892 154.022 121.061 153.173 121.061ZM153.193 118.981C153.431 118.981 153.637 118.901 153.81 118.741C153.983 118.581 154.118 118.353 154.213 118.058C154.308 117.762 154.356 117.41 154.356 117.002C154.356 116.591 154.308 116.239 154.213 115.947C154.118 115.651 153.983 115.424 153.81 115.264C153.637 115.104 153.431 115.024 153.193 115.024C152.942 115.024 152.726 115.104 152.546 115.264C152.365 115.424 152.228 115.651 152.133 115.947C152.037 116.239 151.99 116.591 151.99 117.002C151.99 117.41 152.037 117.762 152.133 118.058C152.228 118.353 152.365 118.581 152.546 118.741C152.726 118.901 152.942 118.981 153.193 118.981ZM166.027 113.087L163.396 120.918H160.133L157.503 113.087H160.46L161.724 118.267H161.806L163.07 113.087H166.027ZM168.814 121.04C168.314 121.04 167.872 120.959 167.488 120.796C167.107 120.629 166.808 120.378 166.591 120.041C166.373 119.705 166.264 119.276 166.264 118.756C166.264 118.328 166.337 117.963 166.484 117.66C166.63 117.354 166.834 117.104 167.095 116.911C167.357 116.717 167.661 116.569 168.008 116.467C168.358 116.365 168.735 116.299 169.14 116.268C169.578 116.234 169.93 116.193 170.195 116.146C170.464 116.095 170.657 116.025 170.776 115.937C170.895 115.845 170.955 115.724 170.955 115.575V115.554C170.955 115.35 170.877 115.194 170.72 115.085C170.564 114.977 170.363 114.922 170.119 114.922C169.85 114.922 169.631 114.982 169.461 115.101C169.295 115.216 169.194 115.395 169.16 115.636H166.57C166.604 115.16 166.755 114.722 167.024 114.321C167.296 113.916 167.692 113.593 168.212 113.352C168.732 113.107 169.381 112.985 170.16 112.985C170.72 112.985 171.223 113.051 171.669 113.184C172.114 113.313 172.493 113.495 172.806 113.729C173.118 113.96 173.356 114.232 173.519 114.545C173.686 114.854 173.769 115.191 173.769 115.554V120.918H171.138V119.817H171.077C170.921 120.109 170.731 120.345 170.506 120.525C170.285 120.706 170.032 120.836 169.747 120.918C169.464 121 169.153 121.04 168.814 121.04ZM169.731 119.266C169.945 119.266 170.146 119.222 170.333 119.134C170.523 119.045 170.678 118.918 170.797 118.751C170.916 118.585 170.975 118.382 170.975 118.144V117.492C170.901 117.522 170.821 117.551 170.736 117.578C170.654 117.606 170.566 117.631 170.471 117.655C170.379 117.679 170.28 117.701 170.175 117.721C170.073 117.742 169.966 117.76 169.854 117.777C169.636 117.811 169.458 117.867 169.318 117.946C169.182 118.02 169.08 118.114 169.012 118.226C168.948 118.335 168.916 118.457 168.916 118.593C168.916 118.811 168.992 118.977 169.145 119.093C169.298 119.208 169.493 119.266 169.731 119.266ZM175.073 120.918V110.476H177.888V114.453H177.928C178.03 114.188 178.18 113.945 178.377 113.724C178.574 113.5 178.819 113.321 179.111 113.189C179.403 113.053 179.743 112.985 180.131 112.985C180.648 112.985 181.139 113.122 181.604 113.398C182.073 113.673 182.454 114.106 182.746 114.698C183.042 115.289 183.19 116.057 183.19 117.002C183.19 117.906 183.049 118.656 182.767 119.251C182.488 119.846 182.114 120.289 181.645 120.581C181.179 120.874 180.668 121.02 180.11 121.02C179.743 121.02 179.415 120.96 179.126 120.841C178.841 120.719 178.596 120.554 178.392 120.347C178.192 120.136 178.037 119.898 177.928 119.633H177.867V120.918H175.073ZM177.826 117.002C177.826 117.383 177.876 117.713 177.974 117.991C178.076 118.267 178.219 118.481 178.402 118.634C178.589 118.783 178.812 118.858 179.07 118.858C179.329 118.858 179.548 118.785 179.728 118.639C179.912 118.489 180.051 118.277 180.146 118.002C180.245 117.723 180.294 117.39 180.294 117.002C180.294 116.615 180.245 116.283 180.146 116.008C180.051 115.729 179.912 115.517 179.728 115.371C179.548 115.221 179.329 115.147 179.07 115.147C178.812 115.147 178.589 115.221 178.402 115.371C178.219 115.517 178.076 115.729 177.974 116.008C177.876 116.283 177.826 116.615 177.826 117.002ZM187.182 110.476V120.918H184.368V110.476H187.182ZM192.368 121.061C191.532 121.061 190.812 120.901 190.207 120.581C189.605 120.259 189.141 119.796 188.815 119.195C188.492 118.59 188.33 117.866 188.33 117.023C188.33 116.214 188.494 115.507 188.82 114.902C189.146 114.297 189.607 113.826 190.202 113.489C190.796 113.153 191.498 112.985 192.307 112.985C192.899 112.985 193.434 113.077 193.913 113.26C194.393 113.444 194.802 113.71 195.142 114.061C195.482 114.407 195.744 114.829 195.927 115.325C196.111 115.821 196.203 116.38 196.203 117.002V117.655H189.207V116.105H193.612C193.609 115.881 193.551 115.684 193.439 115.514C193.33 115.34 193.183 115.206 192.996 115.111C192.812 115.012 192.603 114.963 192.368 114.963C192.141 114.963 191.932 115.012 191.741 115.111C191.551 115.206 191.398 115.339 191.282 115.508C191.17 115.678 191.111 115.877 191.104 116.105V117.777C191.104 118.029 191.157 118.253 191.262 118.45C191.367 118.647 191.519 118.802 191.716 118.914C191.913 119.026 192.151 119.083 192.43 119.083C192.623 119.083 192.8 119.055 192.96 119.001C193.123 118.947 193.262 118.868 193.378 118.766C193.494 118.661 193.579 118.535 193.633 118.389H196.203C196.114 118.933 195.905 119.405 195.575 119.807C195.246 120.204 194.809 120.513 194.265 120.734C193.725 120.952 193.092 121.061 192.368 121.061ZM200.211 120.918V113.087H202.944V114.575H203.026C203.168 114.025 203.394 113.622 203.704 113.367C204.016 113.112 204.382 112.985 204.8 112.985C204.922 112.985 205.043 112.995 205.162 113.015C205.284 113.032 205.401 113.058 205.514 113.092V115.493C205.374 115.446 205.203 115.41 204.999 115.386C204.795 115.362 204.62 115.35 204.474 115.35C204.198 115.35 203.95 115.413 203.729 115.539C203.512 115.661 203.34 115.835 203.214 116.059C203.088 116.28 203.026 116.54 203.026 116.839V120.918H200.211ZM209.74 121.061C208.904 121.061 208.183 120.901 207.578 120.581C206.977 120.259 206.513 119.796 206.187 119.195C205.864 118.59 205.702 117.866 205.702 117.023C205.702 116.214 205.865 115.507 206.192 114.902C206.518 114.297 206.979 113.826 207.573 113.489C208.168 113.153 208.87 112.985 209.679 112.985C210.27 112.985 210.806 113.077 211.285 113.26C211.764 113.444 212.174 113.71 212.514 114.061C212.854 114.407 213.115 114.829 213.299 115.325C213.483 115.821 213.574 116.38 213.574 117.002V117.655H206.579V116.105H210.984C210.981 115.881 210.923 115.684 210.811 115.514C210.702 115.34 210.554 115.206 210.367 115.111C210.184 115.012 209.975 114.963 209.74 114.963C209.512 114.963 209.303 115.012 209.113 115.111C208.923 115.206 208.77 115.339 208.654 115.508C208.542 115.678 208.483 115.877 208.476 116.105V117.777C208.476 118.029 208.528 118.253 208.634 118.45C208.739 118.647 208.89 118.802 209.088 118.914C209.285 119.026 209.523 119.083 209.801 119.083C209.995 119.083 210.172 119.055 210.332 119.001C210.495 118.947 210.634 118.868 210.75 118.766C210.865 118.661 210.95 118.535 211.005 118.389H213.574C213.486 118.933 213.277 119.405 212.947 119.807C212.617 120.204 212.181 120.513 211.637 120.734C211.096 120.952 210.464 121.061 209.74 121.061ZM214.723 123.855V113.087H217.517V114.453H217.578C217.68 114.188 217.829 113.945 218.027 113.724C218.224 113.5 218.468 113.321 218.761 113.189C219.053 113.053 219.393 112.985 219.78 112.985C220.297 112.985 220.788 113.122 221.254 113.398C221.723 113.673 222.104 114.106 222.396 114.698C222.692 115.289 222.839 116.057 222.839 117.002C222.839 117.906 222.698 118.656 222.416 119.251C222.138 119.846 221.764 120.289 221.295 120.581C220.829 120.874 220.317 121.02 219.76 121.02C219.393 121.02 219.065 120.96 218.776 120.841C218.49 120.719 218.246 120.554 218.042 120.347C217.841 120.136 217.687 119.898 217.578 119.633H217.537V123.855H214.723ZM217.476 117.002C217.476 117.383 217.525 117.713 217.624 117.991C217.726 118.267 217.868 118.481 218.052 118.634C218.239 118.783 218.462 118.858 218.72 118.858C218.978 118.858 219.197 118.785 219.378 118.639C219.561 118.489 219.701 118.277 219.796 118.002C219.894 117.723 219.944 117.39 219.944 117.002C219.944 116.615 219.894 116.283 219.796 116.008C219.701 115.729 219.561 115.517 219.378 115.371C219.197 115.221 218.978 115.147 218.72 115.147C218.462 115.147 218.239 115.221 218.052 115.371C217.868 115.517 217.726 115.729 217.624 116.008C217.525 116.283 217.476 116.615 217.476 117.002ZM229.097 117.492V113.087H231.911V120.918H229.239V119.429H229.158C228.988 119.929 228.69 120.32 228.266 120.602C227.841 120.881 227.336 121.02 226.751 121.02C226.204 121.02 225.725 120.894 225.314 120.643C224.906 120.391 224.588 120.044 224.36 119.603C224.136 119.161 224.022 118.654 224.019 118.083V113.087H226.833V117.492C226.836 117.879 226.935 118.183 227.129 118.404C227.326 118.625 227.601 118.736 227.955 118.736C228.189 118.736 228.391 118.687 228.561 118.588C228.735 118.486 228.867 118.343 228.959 118.16C229.054 117.973 229.1 117.75 229.097 117.492ZM238.013 113.087V115.126H232.853V113.087H238.013ZM233.852 111.21H236.667V118.399C236.667 118.508 236.685 118.6 236.723 118.675C236.76 118.746 236.818 118.8 236.896 118.838C236.974 118.872 237.074 118.889 237.197 118.889C237.282 118.889 237.38 118.879 237.492 118.858C237.608 118.838 237.693 118.821 237.747 118.807L238.155 120.785C238.03 120.823 237.849 120.869 237.615 120.923C237.384 120.977 237.108 121.013 236.789 121.03C236.143 121.064 235.601 120.998 235.162 120.831C234.724 120.661 234.394 120.395 234.173 120.031C233.952 119.667 233.845 119.212 233.852 118.664V111.21ZM241.343 121.04C240.843 121.04 240.402 120.959 240.017 120.796C239.637 120.629 239.338 120.378 239.12 120.041C238.903 119.705 238.794 119.276 238.794 118.756C238.794 118.328 238.867 117.963 239.013 117.66C239.159 117.354 239.363 117.104 239.625 116.911C239.887 116.717 240.191 116.569 240.538 116.467C240.888 116.365 241.265 116.299 241.669 116.268C242.108 116.234 242.46 116.193 242.725 116.146C242.993 116.095 243.187 116.025 243.306 115.937C243.425 115.845 243.484 115.724 243.484 115.575V115.554C243.484 115.35 243.406 115.194 243.25 115.085C243.094 114.977 242.893 114.922 242.648 114.922C242.38 114.922 242.161 114.982 241.991 115.101C241.824 115.216 241.724 115.395 241.69 115.636H239.1C239.134 115.16 239.285 114.722 239.554 114.321C239.825 113.916 240.221 113.593 240.741 113.352C241.262 113.107 241.911 112.985 242.689 112.985C243.25 112.985 243.753 113.051 244.198 113.184C244.643 113.313 245.022 113.495 245.335 113.729C245.648 113.96 245.886 114.232 246.049 114.545C246.216 114.854 246.299 115.191 246.299 115.554V120.918H243.668V119.817H243.607C243.45 120.109 243.26 120.345 243.036 120.525C242.815 120.706 242.562 120.836 242.276 120.918C241.994 121 241.683 121.04 241.343 121.04ZM242.261 119.266C242.475 119.266 242.675 119.222 242.862 119.134C243.053 119.045 243.207 118.918 243.326 118.751C243.445 118.585 243.505 118.382 243.505 118.144V117.492C243.43 117.522 243.35 117.551 243.265 117.578C243.184 117.606 243.095 117.631 243 117.655C242.908 117.679 242.81 117.701 242.704 117.721C242.602 117.742 242.495 117.76 242.383 117.777C242.166 117.811 241.987 117.867 241.848 117.946C241.712 118.02 241.61 118.114 241.542 118.226C241.477 118.335 241.445 118.457 241.445 118.593C241.445 118.811 241.522 118.977 241.674 119.093C241.827 119.208 242.023 119.266 242.261 119.266ZM252.314 113.087V115.126H247.154V113.087H252.314ZM248.153 111.21H250.968V118.399C250.968 118.508 250.986 118.6 251.024 118.675C251.061 118.746 251.119 118.8 251.197 118.838C251.275 118.872 251.376 118.889 251.498 118.889C251.583 118.889 251.682 118.879 251.794 118.858C251.909 118.838 251.994 118.821 252.049 118.807L252.456 120.785C252.331 120.823 252.151 120.869 251.916 120.923C251.685 120.977 251.41 121.013 251.09 121.03C250.444 121.064 249.902 120.998 249.464 120.831C249.025 120.661 248.696 120.395 248.475 120.031C248.254 119.667 248.147 119.212 248.153 118.664V111.21ZM253.462 120.918V113.087H256.277V120.918H253.462ZM254.869 112.271C254.489 112.271 254.162 112.145 253.89 111.894C253.619 111.642 253.483 111.34 253.483 110.986C253.483 110.633 253.619 110.33 253.89 110.079C254.162 109.827 254.489 109.701 254.869 109.701C255.253 109.701 255.58 109.827 255.848 110.079C256.12 110.33 256.256 110.633 256.256 110.986C256.256 111.34 256.12 111.642 255.848 111.894C255.58 112.145 255.253 112.271 254.869 112.271ZM261.483 121.061C260.634 121.061 259.906 120.892 259.301 120.556C258.696 120.216 258.232 119.744 257.909 119.139C257.586 118.53 257.425 117.825 257.425 117.023C257.425 116.221 257.586 115.517 257.909 114.912C258.232 114.304 258.696 113.831 259.301 113.495C259.906 113.155 260.634 112.985 261.483 112.985C262.333 112.985 263.06 113.155 263.665 113.495C264.27 113.831 264.734 114.304 265.057 114.912C265.38 115.517 265.542 116.221 265.542 117.023C265.542 117.825 265.38 118.53 265.057 119.139C264.734 119.744 264.27 120.216 263.665 120.556C263.06 120.892 262.333 121.061 261.483 121.061ZM261.504 118.981C261.742 118.981 261.947 118.901 262.121 118.741C262.294 118.581 262.428 118.353 262.523 118.058C262.619 117.762 262.666 117.41 262.666 117.002C262.666 116.591 262.619 116.239 262.523 115.947C262.428 115.651 262.294 115.424 262.121 115.264C261.947 115.104 261.742 115.024 261.504 115.024C261.252 115.024 261.036 115.104 260.856 115.264C260.676 115.424 260.538 115.651 260.443 115.947C260.348 116.239 260.3 116.591 260.3 117.002C260.3 117.41 260.348 117.762 260.443 118.058C260.538 118.353 260.676 118.581 260.856 118.741C261.036 118.901 261.252 118.981 261.504 118.981ZM269.498 116.513V120.918H266.684V113.087H269.355V114.575H269.437C269.607 114.079 269.906 113.69 270.334 113.408C270.766 113.126 271.269 112.985 271.843 112.985C272.397 112.985 272.878 113.112 273.286 113.367C273.698 113.619 274.015 113.965 274.24 114.407C274.467 114.849 274.58 115.354 274.576 115.921V120.918H271.762V116.513C271.765 116.125 271.667 115.821 271.466 115.6C271.269 115.379 270.994 115.269 270.64 115.269C270.409 115.269 270.207 115.32 270.033 115.422C269.864 115.52 269.733 115.663 269.641 115.85C269.549 116.034 269.502 116.255 269.498 116.513Z" fill="#151616"/>
<rect x="142.125" y="39.8705" width="58.9247" height="58.9247" rx="29.4624" fill="#FCFCFC"/>
<path fill-rule="evenodd" clip-rule="evenodd" d="M155.81 54.5927C156.404 54.5927 156.886 55.0744 156.886 55.6687V73.5524C156.886 78.3641 159.205 82.6342 162.786 85.3062C161.902 83.7962 161.396 82.0386 161.396 80.1627V60.998C161.396 60.4036 161.878 59.9219 162.472 59.9219C163.066 59.9219 163.548 60.4036 163.548 60.998V80.1627C163.548 84.3465 166.742 87.7844 170.824 88.1715V66.8396C170.824 66.2453 171.306 65.7635 171.9 65.7635C172.495 65.7635 172.976 66.2453 172.976 66.8396V88.0893C176.76 87.4336 179.638 84.1342 179.638 80.1627V60.998C179.638 60.4036 180.12 59.9219 180.714 59.9219C181.309 59.9219 181.79 60.4036 181.79 60.998V80.1627C181.79 81.9813 181.314 83.6888 180.48 85.1673C183.957 82.4876 186.197 78.2816 186.197 73.5524V55.6687C186.197 55.0744 186.679 54.5927 187.273 54.5927C187.867 54.5927 188.349 55.0744 188.349 55.6687V73.5524C188.349 82.758 180.948 90.235 171.772 90.3584C171.712 90.3594 171.653 90.3599 171.593 90.3599L171.573 90.3599L171.541 90.36C162.259 90.36 154.734 82.835 154.734 73.5524V55.6687C154.734 55.0744 155.216 54.5927 155.81 54.5927Z" fill="#A0D8DB"/>
</g>
<defs>
<filter id="filter0_f_422_2220" x="3.19152" y="30.7928" width="382.078" height="229.021" filterUnits="userSpaceOnUse" color-interpolation-filters="sRGB">
<feFlood flood-opacity="0" result="BackgroundImageFix"/>
<feBlend mode="normal" in="SourceGraphic" in2="BackgroundImageFix" result="shape"/>
<feGaussianBlur stdDeviation="14.9555" result="effect1_foregroundBlur_422_2220"/>
</filter>
<linearGradient id="paint0_linear_422_2220" x1="177.562" y1="160" x2="176.275" y2="-0.0062312" gradientUnits="userSpaceOnUse">
<stop stop-color="#FFEAED"/>
<stop offset="1" stop-color="#FFF9FA"/>
</linearGradient>
<linearGradient id="paint1_linear_422_2220" x1="164.929" y1="232.263" x2="149.113" y2="82.722" gradientUnits="userSpaceOnUse">
<stop stop-color="#FFD7C0"/>
<stop offset="1" stop-color="#FFD7C0" stop-opacity="0"/>
</linearGradient>
<linearGradient id="paint2_linear_422_2220" x1="296.39" y1="-4.99609" x2="296.39" y2="46.8995" gradientUnits="userSpaceOnUse">
<stop stop-color="#FF7043"/>
<stop offset="1" stop-color="#FF7043" stop-opacity="0"/>
</linearGradient>
<linearGradient id="paint3_linear_422_2220" x1="306.934" y1="59.1631" x2="306.934" y2="142.166" gradientUnits="userSpaceOnUse">
<stop stop-color="#95D5D9"/>
<stop offset="1" stop-color="#A1D9DC" stop-opacity="0"/>
</linearGradient>
<linearGradient id="paint4_linear_422_2220" x1="30.7057" y1="59.1631" x2="30.7057" y2="142.166" gradientUnits="userSpaceOnUse">
<stop stop-color="#95D5D9"/>
<stop offset="1" stop-color="#A1D9DC" stop-opacity="0"/>
</linearGradient>
<linearGradient id="paint5_linear_422_2220" x1="169.493" y1="13.3993" x2="169.493" y2="166.992" gradientUnits="userSpaceOnUse">
<stop stop-color="#95D5D9"/>
<stop offset="1" stop-color="#A1D9DC" stop-opacity="0"/>
</linearGradient>
<linearGradient id="paint6_linear_422_2220" x1="169.493" y1="28.8035" x2="169.493" y2="166.992" gradientUnits="userSpaceOnUse">
<stop stop-color="#95D5D9"/>
<stop offset="1" stop-color="#A1D9DC" stop-opacity="0"/>
</linearGradient>
<linearGradient id="paint7_linear_422_2220" x1="169.493" y1="50.3394" x2="169.493" y2="166.992" gradientUnits="userSpaceOnUse">
<stop stop-color="#95D5D9"/>
<stop offset="1" stop-color="#A1D9DC" stop-opacity="0"/>
</linearGradient>
<linearGradient id="paint8_linear_422_2220" x1="169.493" y1="71.4266" x2="169.493" y2="166.992" gradientUnits="userSpaceOnUse">
<stop stop-color="#95D5D9"/>
<stop offset="1" stop-color="#A1D9DC" stop-opacity="0"/>
</linearGradient>
<linearGradient id="paint9_linear_422_2220" x1="171.587" y1="90.2705" x2="171.587" y2="166.992" gradientUnits="userSpaceOnUse">
<stop stop-color="#95D5D9"/>
<stop offset="1" stop-color="#A1D9DC" stop-opacity="0"/>
</linearGradient>
<radialGradient id="paint10_angular_422_2220" cx="0" cy="0" r="1" gradientUnits="userSpaceOnUse" gradientTransform="translate(87.1831 111.523) rotate(-131.127) scale(7.97225 30.8357)">
<stop offset="0.503801" stop-color="#99D7DA"/>
<stop offset="0.961746" stop-color="#99D7DA" stop-opacity="0"/>
<stop offset="1" stop-color="#99D7DA" stop-opacity="0"/>
</radialGradient>
<radialGradient id="paint11_angular_422_2220" cx="0" cy="0" r="1" gradientUnits="userSpaceOnUse" gradientTransform="translate(80.292 94.1079) rotate(-75.67) scale(8.77968 33.9588)">
<stop offset="0.503801" stop-color="#99D7DA"/>
<stop offset="0.961746" stop-color="#99D7DA" stop-opacity="0"/>
<stop offset="1" stop-color="#99D7DA" stop-opacity="0"/>
</radialGradient>
<radialGradient id="paint12_angular_422_2220" cx="0" cy="0" r="1" gradientUnits="userSpaceOnUse" gradientTransform="translate(126.285 117.829) rotate(43.4966) scale(5.99017 23.1693)">
<stop offset="0.503801" stop-color="#99D7DA"/>
<stop offset="0.961746" stop-color="#99D7DA" stop-opacity="0"/>
<stop offset="1" stop-color="#99D7DA" stop-opacity="0"/>
</radialGradient>
<linearGradient id="paint13_linear_422_2220" x1="88.0472" y1="76.8641" x2="115.557" y2="177.886" gradientUnits="userSpaceOnUse">
<stop stop-color="#9BD8DB"/>
<stop offset="1" stop-color="#9BD8DB" stop-opacity="0.78"/>
</linearGradient>
<radialGradient id="paint14_angular_422_2220" cx="0" cy="0" r="1" gradientUnits="userSpaceOnUse" gradientTransform="translate(258.692 114.514) rotate(-48.8731) scale(7.97225 30.8357)">
<stop offset="0.503801" stop-color="#99D7DA"/>
<stop offset="0.961746" stop-color="#99D7DA" stop-opacity="0"/>
<stop offset="1" stop-color="#99D7DA" stop-opacity="0"/>
</radialGradient>
<radialGradient id="paint15_angular_422_2220" cx="0" cy="0" r="1" gradientUnits="userSpaceOnUse" gradientTransform="translate(265.583 97.0991) rotate(-104.33) scale(8.77968 33.9588)">
<stop offset="0.503801" stop-color="#99D7DA"/>
<stop offset="0.961746" stop-color="#99D7DA" stop-opacity="0"/>
<stop offset="1" stop-color="#99D7DA" stop-opacity="0"/>
</radialGradient>
<radialGradient id="paint16_angular_422_2220" cx="0" cy="0" r="1" gradientUnits="userSpaceOnUse" gradientTransform="translate(219.59 120.82) rotate(136.503) scale(5.99017 23.1693)">
<stop offset="0.503801" stop-color="#99D7DA"/>
<stop offset="0.961746" stop-color="#99D7DA" stop-opacity="0"/>
<stop offset="1" stop-color="#99D7DA" stop-opacity="0"/>
</radialGradient>
<linearGradient id="paint17_linear_422_2220" x1="257.828" y1="79.8552" x2="230.318" y2="180.877" gradientUnits="userSpaceOnUse">
<stop stop-color="#9BD8DB"/>
<stop offset="1" stop-color="#9BD8DB" stop-opacity="0.78"/>
</linearGradient>
<linearGradient id="paint18_linear_422_2220" x1="77.9945" y1="21.9526" x2="80.248" y2="42.4729" gradientUnits="userSpaceOnUse">
<stop stop-color="#98D9DC"/>
<stop offset="1" stop-color="#98D9DC" stop-opacity="0"/>
</linearGradient>
<linearGradient id="paint19_linear_422_2220" x1="99.3325" y1="31.6544" x2="79.9681" y2="53.2733" gradientUnits="userSpaceOnUse">
<stop stop-color="#98D9DC"/>
<stop offset="1" stop-color="#98D9DC" stop-opacity="0"/>
</linearGradient>
<linearGradient id="paint20_linear_422_2220" x1="73.4684" y1="25.7227" x2="80.7184" y2="45.0514" gradientUnits="userSpaceOnUse">
<stop stop-color="#98D9DC"/>
<stop offset="1" stop-color="#98D9DC" stop-opacity="0"/>
</linearGradient>
<linearGradient id="paint21_linear_422_2220" x1="84.3367" y1="43.9593" x2="72.3582" y2="55.6253" gradientUnits="userSpaceOnUse">
<stop stop-color="#98D9DC"/>
<stop offset="1" stop-color="#98D9DC" stop-opacity="0"/>
</linearGradient>
<linearGradient id="paint22_linear_422_2220" x1="262.573" y1="21.5038" x2="260.319" y2="42.0241" gradientUnits="userSpaceOnUse">
<stop stop-color="#98D9DC"/>
<stop offset="1" stop-color="#98D9DC" stop-opacity="0"/>
</linearGradient>
<linearGradient id="paint23_linear_422_2220" x1="241.235" y1="31.2058" x2="260.599" y2="52.8247" gradientUnits="userSpaceOnUse">
<stop stop-color="#98D9DC"/>
<stop offset="1" stop-color="#98D9DC" stop-opacity="0"/>
</linearGradient>
<linearGradient id="paint24_linear_422_2220" x1="267.098" y1="25.2741" x2="259.848" y2="44.6028" gradientUnits="userSpaceOnUse">
<stop stop-color="#98D9DC"/>
<stop offset="1" stop-color="#98D9DC" stop-opacity="0"/>
</linearGradient>
<linearGradient id="paint25_linear_422_2220" x1="256.231" y1="43.5107" x2="268.209" y2="55.1767" gradientUnits="userSpaceOnUse">
<stop stop-color="#98D9DC"/>
<stop offset="1" stop-color="#98D9DC" stop-opacity="0"/>
</linearGradient>
<radialGradient id="paint26_angular_422_2220" cx="0" cy="0" r="1" gradientUnits="userSpaceOnUse" gradientTransform="translate(237.531 147.407) rotate(163.142) scale(4.93869 19.1023)">
<stop offset="0.503801" stop-color="#99D7DA"/>
<stop offset="0.961746" stop-color="#99D7DA" stop-opacity="0"/>
<stop offset="1" stop-color="#99D7DA" stop-opacity="0"/>
</radialGradient>
<radialGradient id="paint27_angular_422_2220" cx="0" cy="0" r="1" gradientUnits="userSpaceOnUse" gradientTransform="translate(268.253 137.823) rotate(-104.191) scale(5.43889 21.037)">
<stop offset="0.503801" stop-color="#99D7DA"/>
<stop offset="0.961746" stop-color="#99D7DA" stop-opacity="0"/>
<stop offset="1" stop-color="#99D7DA" stop-opacity="0"/>
</radialGradient>
<radialGradient id="paint28_angular_422_2220" cx="0" cy="0" r="1" gradientUnits="userSpaceOnUse" gradientTransform="translate(229.251 155.625) rotate(111.466) scale(4.96284 19.1957)">
<stop offset="0.503801" stop-color="#99D7DA"/>
<stop offset="0.961746" stop-color="#99D7DA" stop-opacity="0"/>
<stop offset="1" stop-color="#99D7DA" stop-opacity="0"/>
</radialGradient>
<linearGradient id="paint29_linear_422_2220" x1="260.944" y1="118.397" x2="235.543" y2="210.791" gradientUnits="userSpaceOnUse">
<stop stop-color="#9BD8DB"/>
<stop offset="1" stop-color="#9BD8DB" stop-opacity="0.78"/>
</linearGradient>
<radialGradient id="paint30_angular_422_2220" cx="0" cy="0" r="1" gradientUnits="userSpaceOnUse" gradientTransform="translate(108.922 143.215) rotate(16.8577) scale(4.93869 19.1023)">
<stop offset="0.503801" stop-color="#99D7DA"/>
<stop offset="0.961746" stop-color="#99D7DA" stop-opacity="0"/>
<stop offset="1" stop-color="#99D7DA" stop-opacity="0"/>
</radialGradient>
<radialGradient id="paint31_angular_422_2220" cx="0" cy="0" r="1" gradientUnits="userSpaceOnUse" gradientTransform="translate(78.2002 133.631) rotate(-75.809) scale(5.43889 21.037)">
<stop offset="0.503801" stop-color="#99D7DA"/>
<stop offset="0.961746" stop-color="#99D7DA" stop-opacity="0"/>
<stop offset="1" stop-color="#99D7DA" stop-opacity="0"/>
</radialGradient>
<radialGradient id="paint32_angular_422_2220" cx="0" cy="0" r="1" gradientUnits="userSpaceOnUse" gradientTransform="translate(117.202 151.433) rotate(68.5344) scale(4.96284 19.1957)">
<stop offset="0.503801" stop-color="#99D7DA"/>
<stop offset="0.961746" stop-color="#99D7DA" stop-opacity="0"/>
<stop offset="1" stop-color="#99D7DA" stop-opacity="0"/>
</radialGradient>
<linearGradient id="paint33_linear_422_2220" x1="85.5092" y1="114.205" x2="110.911" y2="206.599" gradientUnits="userSpaceOnUse">
<stop stop-color="#9BD8DB"/>
<stop offset="1" stop-color="#9BD8DB" stop-opacity="0.78"/>
</linearGradient>
<clipPath id="clip0_422_2220">
<rect width="360" height="160" rx="4" fill="white"/>
</clipPath>
</defs>
</svg>
