<svg width="360" height="160" viewBox="0 0 360 160" fill="none" xmlns="http://www.w3.org/2000/svg">
<rect width="360" height="160" rx="4" fill="url(#paint0_linear_50_2014)"/>
<path opacity="0.4" d="M62.0268 23.5455H79.7967V65.4773C79.7967 70.4631 78.6035 74.7777 76.2172 78.4212C73.8521 82.0433 70.5495 84.8452 66.3095 86.8267C62.0694 88.7869 57.1476 89.767 51.5439 89.767C45.8976 89.767 40.9544 88.7869 36.7143 86.8267C32.4743 84.8452 29.1717 82.0433 26.8066 78.4212C24.4629 74.7777 23.291 70.4631 23.291 65.4773V23.5455H41.0609V63.9432C41.0609 65.9673 41.5083 67.7784 42.4032 69.3764C43.2981 70.9531 44.5339 72.1889 46.1106 73.0838C47.7086 73.9787 49.5197 74.4261 51.5439 74.4261C53.5893 74.4261 55.4004 73.9787 56.9771 73.0838C58.5538 72.1889 59.7896 70.9531 60.6845 69.3764C61.5794 67.7784 62.0268 65.9673 62.0268 63.9432V23.5455ZM106.14 61.3864V89H88.4979V39.9091H105.245V49.2415H105.756C106.822 46.1307 108.697 43.6911 111.381 41.9226C114.087 40.1541 117.241 39.2699 120.842 39.2699C124.315 39.2699 127.33 40.0689 129.886 41.6669C132.464 43.2436 134.457 45.4169 135.863 48.1868C137.29 50.9567 137.994 54.1207 137.972 57.679V89H120.33V61.3864C120.352 58.9574 119.734 57.0504 118.477 55.6655C117.241 54.2805 115.515 53.5881 113.299 53.5881C111.85 53.5881 110.582 53.9077 109.496 54.5469C108.43 55.1648 107.61 56.0597 107.035 57.2315C106.46 58.3821 106.161 59.767 106.14 61.3864ZM146.681 89V39.9091H164.324V89H146.681ZM155.502 34.7955C153.116 34.7955 151.071 34.0071 149.366 32.4304C147.662 30.8537 146.809 28.9574 146.809 26.7415C146.809 24.5256 147.662 22.6293 149.366 21.0526C151.071 19.4759 153.116 18.6875 155.502 18.6875C157.91 18.6875 159.956 19.4759 161.639 21.0526C163.343 22.6293 164.196 24.5256 164.196 26.7415C164.196 28.9574 163.343 30.8537 161.639 32.4304C159.956 34.0071 157.91 34.7955 155.502 34.7955ZM173.057 89V23.5455H201.309C206.167 23.5455 210.418 24.4297 214.062 26.1982C217.705 27.9666 220.539 30.5128 222.563 33.8366C224.587 37.1605 225.599 41.1449 225.599 45.7898C225.599 50.4773 224.555 54.4297 222.467 57.647C220.4 60.8643 217.492 63.2933 213.742 64.9339C210.013 66.5746 205.656 67.3949 200.67 67.3949H183.795V53.5881H197.091C199.179 53.5881 200.958 53.3324 202.428 52.821C203.92 52.2884 205.059 51.4467 205.848 50.2962C206.657 49.1456 207.062 47.6435 207.062 45.7898C207.062 43.9148 206.657 42.3913 205.848 41.2195C205.059 40.0263 203.92 39.1527 202.428 38.5987C200.958 38.0234 199.179 37.7358 197.091 37.7358H190.827V89H173.057ZM211.409 58.9574L227.773 89H208.469L192.488 58.9574H211.409ZM255.898 89.8949C250.656 89.8949 246.139 88.8935 242.346 86.8906C238.575 84.8665 235.667 81.9687 233.621 78.1974C231.597 74.4048 230.585 69.8665 230.585 64.5824C230.585 59.5114 231.608 55.0795 233.653 51.2869C235.699 47.4943 238.586 44.5433 242.314 42.4339C246.043 40.3246 250.443 39.2699 255.514 39.2699C259.221 39.2699 262.577 39.8452 265.582 40.9957C268.586 42.1463 271.153 43.8189 273.284 46.0135C275.415 48.1868 277.055 50.8288 278.206 53.9396C279.356 57.0504 279.932 60.5554 279.932 64.4545V68.5455H236.082V58.8295H263.696C263.675 57.4233 263.312 56.1875 262.609 55.1222C261.927 54.0355 261.001 53.1939 259.829 52.5973C258.678 51.9794 257.368 51.6705 255.898 51.6705C254.47 51.6705 253.16 51.9794 251.966 52.5973C250.773 53.1939 249.814 54.0249 249.09 55.0902C248.387 56.1555 248.014 57.402 247.971 58.8295V69.3125C247.971 70.8892 248.302 72.2955 248.962 73.5312C249.623 74.767 250.571 75.7365 251.807 76.4396C253.042 77.1428 254.534 77.4943 256.281 77.4943C257.496 77.4943 258.604 77.3239 259.605 76.983C260.628 76.642 261.501 76.152 262.226 75.5128C262.95 74.8523 263.483 74.0639 263.824 73.1477H279.932C279.378 76.5568 278.067 79.5185 276.001 82.0327C273.934 84.5256 271.196 86.4645 267.787 87.8494C264.399 89.2131 260.436 89.8949 255.898 89.8949ZM287.131 107.409V39.9091H304.645V48.4744H305.028C305.668 46.8125 306.605 45.2891 307.841 43.9041C309.077 42.4979 310.611 41.3793 312.443 40.5483C314.276 39.696 316.406 39.2699 318.835 39.2699C322.074 39.2699 325.153 40.1328 328.072 41.8587C331.012 43.5845 333.398 46.3011 335.231 50.0085C337.085 53.7159 338.011 58.5312 338.011 64.4545C338.011 70.1222 337.127 74.8203 335.359 78.549C333.612 82.2777 331.268 85.0582 328.327 86.8906C325.408 88.723 322.202 89.6392 318.707 89.6392C316.406 89.6392 314.35 89.2663 312.539 88.5206C310.749 87.7536 309.215 86.7202 307.937 85.4205C306.68 84.0994 305.71 82.608 305.028 80.946H304.773V107.409H287.131ZM304.389 64.4545C304.389 66.8409 304.698 68.9077 305.316 70.6548C305.955 72.3807 306.85 73.723 308.001 74.6818C309.173 75.6193 310.568 76.0881 312.188 76.0881C313.807 76.0881 315.181 75.63 316.31 74.7138C317.461 73.7763 318.335 72.4446 318.931 70.7188C319.549 68.9716 319.858 66.8835 319.858 64.4545C319.858 62.0256 319.549 59.9482 318.931 58.2223C318.335 56.4751 317.461 55.1435 316.31 54.2273C315.181 53.2898 313.807 52.821 312.188 52.821C310.568 52.821 309.173 53.2898 308.001 54.2273C306.85 55.1435 305.955 56.4751 305.316 58.2223C304.698 59.9482 304.389 62.0256 304.389 64.4545Z" fill="#FCFCFC"/>
<path fill-rule="evenodd" clip-rule="evenodd" d="M115.592 110.719C123.651 110.719 130.184 104.186 130.184 96.1267C130.184 88.0679 123.651 81.5349 115.592 81.5349C107.533 81.5349 101 88.0679 101 96.1267C101 104.186 107.533 110.719 115.592 110.719ZM114.862 90.2896H110.485V94.6671H114.862V90.2896ZM123.617 90.2896H119.24V94.6672H123.617V90.2896ZM114.862 96.856H110.485V100.504C110.485 101.72 111.944 105.611 117.051 105.611C122.304 105.611 123.617 101.72 123.617 100.504V96.856H119.24V100.504C119.24 100.99 118.51 101.963 117.051 101.963C115.592 101.963 114.862 100.99 114.862 100.504V96.856Z" fill="#FCFCFC"/>
<path fill-rule="evenodd" clip-rule="evenodd" d="M158.776 108.286C165.491 108.286 170.935 102.842 170.935 96.1265C170.935 89.4108 165.491 83.9667 158.776 83.9667C152.06 83.9667 146.616 89.4108 146.616 96.1265C146.616 102.842 152.06 108.286 158.776 108.286ZM159.383 89.7345C159.383 88.5128 157.784 88.0541 157.136 89.0901L152.761 96.09C152.255 96.8999 152.837 97.9505 153.792 97.9505H156.841L156.095 102.428C155.894 103.636 157.403 104.35 158.21 103.428L164.43 96.3192C165.118 95.533 164.56 94.3025 163.515 94.3025H159.383V89.7345Z" fill="#FCFCFC"/>
<path fill-rule="evenodd" clip-rule="evenodd" d="M191.015 83.9667H212.903C213.575 83.9667 214.119 84.5111 214.119 85.1827V100.99C214.119 101.662 213.575 102.206 212.903 102.206H201.959L195.347 107.496C194.949 107.815 194.359 107.531 194.359 107.021V102.206H191.015C190.344 102.206 189.799 101.662 189.799 100.99V85.1827C189.799 84.5111 190.344 83.9667 191.015 83.9667ZM195.879 94.9106C196.551 94.9106 197.095 94.3661 197.095 93.6946C197.095 93.023 196.551 92.4786 195.879 92.4786C195.208 92.4786 194.663 93.023 194.663 93.6946C194.663 94.3661 195.208 94.9106 195.879 94.9106ZM201.959 94.9106C202.631 94.9106 203.175 94.3661 203.175 93.6946C203.175 93.023 202.631 92.4786 201.959 92.4786C201.288 92.4786 200.743 93.023 200.743 93.6946C200.743 94.3661 201.288 94.9106 201.959 94.9106ZM209.255 93.6946C209.255 94.3661 208.711 94.9106 208.039 94.9106C207.367 94.9106 206.823 94.3661 206.823 93.6946C206.823 93.023 207.367 92.4786 208.039 92.4786C208.711 92.4786 209.255 93.023 209.255 93.6946Z" fill="#FCFCFC"/>
<path fill-rule="evenodd" clip-rule="evenodd" d="M250.711 88.0714L244.916 84.7257C244.748 84.6289 244.549 84.6027 244.362 84.6528L240.947 85.568L251.966 91.9299L251.051 88.5144C251 88.3275 250.878 88.1682 250.711 88.0714ZM239.52 86.1715L239.53 86.1542L252.166 93.4498L252.156 93.4675L249.637 97.8312L256.162 101.598C257.325 102.27 257.724 103.757 257.052 104.921C256.381 106.084 254.893 106.482 253.73 105.811L247.205 102.044L245.381 105.203L232.744 97.9067L239.52 86.1715ZM232.549 99.1982L244.36 106.017L240.43 107.07H253.047C253.382 107.07 253.655 107.343 253.655 107.678C253.655 108.014 253.382 108.286 253.047 108.286H233.591C233.255 108.286 232.983 108.014 232.983 107.678C232.983 107.343 233.255 107.07 233.591 107.07H239.856C239.825 107.058 239.795 107.043 239.767 107.027L233.972 103.681C233.804 103.584 233.682 103.425 233.632 103.238L232.549 99.1982ZM240.43 93.6327C240.244 93.3525 239.867 93.2753 239.587 93.4603C239.307 93.6453 239.23 94.0225 239.415 94.3027L241.533 97.5116C241.65 97.6875 241.848 97.7907 242.059 97.7843C242.27 97.778 242.462 97.6631 242.567 97.4806L243.553 95.7732L244.432 99.0536C244.519 99.378 244.852 99.5705 245.177 99.4836C245.501 99.3966 245.694 99.0633 245.607 98.7389L244.348 94.0407C244.284 93.8032 244.084 93.6274 243.84 93.5953C243.596 93.5632 243.357 93.6811 243.234 93.8941L242.006 96.0207L240.43 93.6327ZM249.236 99.0035L248.02 101.11L254.338 104.758C254.92 105.093 255.663 104.894 255.999 104.313C256.335 103.731 256.136 102.987 255.554 102.652L249.236 99.0035Z" fill="#FCFCFC"/>
<path d="M93.2972 132.177V123.45H96.9023C97.5558 123.45 98.1197 123.578 98.5941 123.834C99.0714 124.087 99.4393 124.44 99.6978 124.895C99.9563 125.347 100.086 125.872 100.086 126.472C100.086 127.074 99.9535 127.601 99.6893 128.052C99.4279 128.501 99.0543 128.849 98.5685 129.097C98.0827 129.344 97.506 129.467 96.8384 129.467H94.614V127.805H96.4464C96.7646 127.805 97.0302 127.75 97.2433 127.639C97.4592 127.528 97.6225 127.374 97.7333 127.175C97.8441 126.973 97.8995 126.739 97.8995 126.472C97.8995 126.202 97.8441 125.969 97.7333 125.773C97.6225 125.574 97.4592 125.42 97.2433 125.312C97.0273 125.204 96.7617 125.151 96.4464 125.151H95.4066V132.177H93.2972ZM101.125 132.177V125.632H103.15V126.825H103.218C103.337 126.393 103.532 126.072 103.801 125.862C104.071 125.649 104.385 125.543 104.743 125.543C104.84 125.543 104.939 125.55 105.042 125.564C105.144 125.575 105.239 125.594 105.327 125.619V127.43C105.228 127.396 105.097 127.369 104.935 127.349C104.776 127.329 104.634 127.32 104.509 127.32C104.262 127.32 104.039 127.375 103.84 127.486C103.644 127.594 103.489 127.746 103.375 127.942C103.265 128.135 103.209 128.362 103.209 128.624V132.177H101.125ZM106.176 132.177V125.632H108.26V132.177H106.176ZM107.22 124.869C106.928 124.869 106.676 124.773 106.466 124.579C106.256 124.383 106.151 124.148 106.151 123.872C106.151 123.599 106.256 123.366 106.466 123.173C106.676 122.977 106.928 122.879 107.22 122.879C107.516 122.879 107.767 122.977 107.974 123.173C108.185 123.366 108.29 123.599 108.29 123.872C108.29 124.148 108.185 124.383 107.974 124.579C107.767 124.773 107.516 124.869 107.22 124.869ZM115.936 125.632L113.69 132.177H111.304L109.062 125.632H111.257L112.463 130.141H112.531L113.741 125.632H115.936ZM118.404 132.288C117.987 132.288 117.616 132.219 117.292 132.079C116.971 131.937 116.717 131.724 116.529 131.44C116.344 131.153 116.252 130.794 116.252 130.362C116.252 129.999 116.316 129.692 116.444 129.442C116.572 129.192 116.748 128.989 116.972 128.832C117.197 128.676 117.455 128.558 117.748 128.479C118.04 128.396 118.353 128.341 118.685 128.312C119.058 128.278 119.357 128.243 119.585 128.206C119.812 128.166 119.977 128.111 120.079 128.04C120.184 127.966 120.237 127.862 120.237 127.729V127.707C120.237 127.489 120.161 127.32 120.011 127.2C119.86 127.081 119.657 127.021 119.401 127.021C119.126 127.021 118.904 127.081 118.737 127.2C118.569 127.32 118.462 127.484 118.417 127.695L116.495 127.626C116.552 127.229 116.698 126.874 116.934 126.561C117.173 126.246 117.499 125.999 117.914 125.82C118.332 125.638 118.833 125.547 119.418 125.547C119.836 125.547 120.221 125.597 120.573 125.696C120.925 125.793 121.232 125.935 121.494 126.122C121.755 126.307 121.957 126.534 122.099 126.804C122.244 127.074 122.316 127.382 122.316 127.729V132.177H120.356V131.266H120.305C120.188 131.487 120.039 131.675 119.857 131.828C119.678 131.981 119.467 132.097 119.222 132.173C118.981 132.25 118.708 132.288 118.404 132.288ZM119.048 130.925C119.272 130.925 119.474 130.879 119.653 130.788C119.835 130.697 119.979 130.572 120.087 130.413C120.195 130.251 120.249 130.064 120.249 129.851V129.229C120.19 129.26 120.117 129.288 120.032 129.314C119.95 129.339 119.859 129.364 119.759 129.386C119.66 129.409 119.558 129.429 119.452 129.446C119.347 129.463 119.246 129.479 119.15 129.493C118.954 129.524 118.786 129.572 118.647 129.638C118.511 129.703 118.406 129.788 118.332 129.893C118.261 129.996 118.225 130.118 118.225 130.26C118.225 130.476 118.302 130.641 118.455 130.754C118.612 130.868 118.809 130.925 119.048 130.925ZM126.646 132.301C125.955 132.301 125.363 132.159 124.869 131.875C124.377 131.591 123.999 131.196 123.735 130.69C123.471 130.182 123.339 129.594 123.339 128.926C123.339 128.256 123.471 127.668 123.735 127.162C124.002 126.653 124.381 126.257 124.873 125.973C125.367 125.689 125.957 125.547 126.641 125.547C127.246 125.547 127.773 125.656 128.222 125.875C128.674 126.094 129.026 126.403 129.279 126.804C129.535 127.202 129.67 127.669 129.684 128.206H127.737C127.697 127.871 127.583 127.608 127.396 127.418C127.211 127.227 126.969 127.132 126.671 127.132C126.43 127.132 126.218 127.2 126.036 127.337C125.854 127.47 125.712 127.669 125.61 127.933C125.511 128.195 125.461 128.518 125.461 128.905C125.461 129.291 125.511 129.618 125.61 129.885C125.712 130.149 125.854 130.349 126.036 130.486C126.218 130.619 126.43 130.686 126.671 130.686C126.864 130.686 127.035 130.645 127.183 130.562C127.333 130.48 127.457 130.359 127.553 130.2C127.65 130.038 127.711 129.842 127.737 129.612H129.684C129.664 130.152 129.529 130.624 129.279 131.027C129.032 131.43 128.684 131.744 128.235 131.969C127.789 132.19 127.259 132.301 126.646 132.301ZM132.025 134.632C131.775 134.632 131.539 134.612 131.317 134.572C131.096 134.535 130.905 134.486 130.746 134.423L131.206 132.91C131.411 132.979 131.596 133.018 131.76 133.03C131.928 133.041 132.071 133.014 132.191 132.949C132.313 132.886 132.407 132.774 132.472 132.612L132.553 132.416L130.226 125.632H132.408L133.614 130.302H133.682L134.905 125.632H137.1L134.632 132.804C134.513 133.162 134.344 133.477 134.125 133.75C133.909 134.026 133.63 134.241 133.286 134.398C132.945 134.554 132.525 134.632 132.025 134.632ZM143.221 132.31C142.608 132.31 142.078 132.2 141.632 131.981C141.189 131.763 140.848 131.469 140.609 131.099C140.37 130.727 140.251 130.314 140.251 129.859C140.251 129.524 140.316 129.229 140.447 128.973C140.581 128.714 140.764 128.477 140.997 128.261C141.233 128.043 141.507 127.828 141.819 127.618L143.652 126.446C143.859 126.315 144.005 126.177 144.091 126.033C144.179 125.888 144.223 125.743 144.223 125.598C144.223 125.442 144.162 125.3 144.039 125.172C143.92 125.044 143.743 124.981 143.507 124.984C143.356 124.984 143.225 125.016 143.115 125.078C143.004 125.141 142.917 125.224 142.855 125.329C142.795 125.435 142.765 125.554 142.765 125.687C142.765 125.861 142.815 126.038 142.914 126.22C143.014 126.402 143.147 126.595 143.315 126.8C143.485 127.004 143.674 127.23 143.882 127.477L148.062 132.177H145.94L142.441 128.381C142.243 128.159 142.034 127.91 141.815 127.635C141.596 127.359 141.412 127.058 141.261 126.731C141.11 126.402 141.035 126.044 141.035 125.658C141.035 125.223 141.137 124.829 141.342 124.477C141.547 124.125 141.833 123.845 142.203 123.638C142.575 123.427 143.008 123.322 143.502 123.322C143.98 123.322 144.392 123.42 144.738 123.616C145.085 123.812 145.352 124.072 145.539 124.396C145.727 124.72 145.821 125.075 145.821 125.462C145.821 125.871 145.72 126.247 145.518 126.591C145.316 126.932 145.031 127.234 144.662 127.499L142.868 128.781C142.677 128.918 142.528 129.064 142.42 129.22C142.312 129.374 142.258 129.541 142.258 129.723C142.258 129.91 142.302 130.074 142.39 130.213C142.481 130.352 142.609 130.462 142.774 130.541C142.939 130.621 143.132 130.66 143.353 130.66C143.649 130.66 143.944 130.591 144.24 130.452C144.535 130.31 144.805 130.111 145.049 129.855C145.294 129.597 145.49 129.291 145.637 128.939C145.785 128.584 145.859 128.195 145.859 127.771H147.538C147.538 128.294 147.483 128.78 147.372 129.229C147.261 129.675 147.095 130.075 146.873 130.43C146.654 130.783 146.383 131.075 146.059 131.308C145.957 131.365 145.858 131.419 145.761 131.47C145.664 131.521 145.565 131.575 145.463 131.632C145.127 131.874 144.764 132.047 144.372 132.152C143.983 132.257 143.599 132.31 143.221 132.31ZM151.282 134.632V125.632H153.344V126.753H153.408C153.493 126.554 153.614 126.362 153.77 126.177C153.929 125.993 154.131 125.842 154.375 125.726C154.623 125.606 154.918 125.547 155.262 125.547C155.716 125.547 156.141 125.666 156.536 125.905C156.934 126.143 157.255 126.511 157.499 127.008C157.743 127.506 157.865 128.139 157.865 128.909C157.865 129.651 157.748 130.271 157.512 130.771C157.279 131.271 156.963 131.646 156.566 131.896C156.171 132.146 155.732 132.271 155.249 132.271C154.919 132.271 154.634 132.217 154.392 132.109C154.151 132.001 153.948 131.859 153.783 131.683C153.621 131.507 153.496 131.318 153.408 131.116H153.365V134.632H151.282ZM153.323 128.905C153.323 129.257 153.37 129.564 153.463 129.825C153.56 130.087 153.698 130.29 153.877 130.435C154.059 130.577 154.276 130.648 154.529 130.648C154.784 130.648 155.002 130.577 155.181 130.435C155.36 130.29 155.495 130.087 155.586 129.825C155.679 129.564 155.726 129.257 155.726 128.905C155.726 128.552 155.679 128.247 155.586 127.989C155.495 127.73 155.36 127.53 155.181 127.388C155.005 127.246 154.787 127.175 154.529 127.175C154.273 127.175 154.056 127.244 153.877 127.383C153.698 127.523 153.56 127.722 153.463 127.98C153.37 128.239 153.323 128.547 153.323 128.905ZM158.957 132.177V125.632H160.982V126.825H161.05C161.169 126.393 161.364 126.072 161.634 125.862C161.903 125.649 162.217 125.543 162.575 125.543C162.672 125.543 162.771 125.55 162.874 125.564C162.976 125.575 163.071 125.594 163.159 125.619V127.43C163.06 127.396 162.929 127.369 162.767 127.349C162.608 127.329 162.466 127.32 162.341 127.32C162.094 127.32 161.871 127.375 161.672 127.486C161.476 127.594 161.321 127.746 161.207 127.942C161.097 128.135 161.041 128.362 161.041 128.624V132.177H158.957ZM166.724 132.301C166.036 132.301 165.445 132.16 164.951 131.879C164.46 131.595 164.08 131.2 163.813 130.695C163.549 130.186 163.417 129.597 163.417 128.926C163.417 128.253 163.549 127.663 163.813 127.158C164.08 126.649 164.46 126.254 164.951 125.973C165.445 125.689 166.036 125.547 166.724 125.547C167.411 125.547 168.001 125.689 168.492 125.973C168.987 126.254 169.366 126.649 169.63 127.158C169.897 127.663 170.031 128.253 170.031 128.926C170.031 129.597 169.897 130.186 169.63 130.695C169.366 131.2 168.987 131.595 168.492 131.879C168.001 132.16 167.411 132.301 166.724 132.301ZM166.737 130.729C166.987 130.729 167.198 130.652 167.371 130.499C167.545 130.345 167.677 130.132 167.768 129.859C167.862 129.587 167.908 129.271 167.908 128.913C167.908 128.55 167.862 128.231 167.768 127.959C167.677 127.686 167.545 127.473 167.371 127.32C167.198 127.166 166.987 127.089 166.737 127.089C166.478 127.089 166.259 127.166 166.08 127.32C165.904 127.473 165.769 127.686 165.675 127.959C165.585 128.231 165.539 128.55 165.539 128.913C165.539 129.271 165.585 129.587 165.675 129.859C165.769 130.132 165.904 130.345 166.08 130.499C166.259 130.652 166.478 130.729 166.737 130.729ZM177.237 125.632L174.991 132.177H172.604L170.363 125.632H172.558L173.763 130.141H173.832L175.042 125.632H177.237ZM179.705 132.288C179.287 132.288 178.917 132.219 178.593 132.079C178.272 131.937 178.017 131.724 177.83 131.44C177.645 131.153 177.553 130.794 177.553 130.362C177.553 129.999 177.617 129.692 177.745 129.442C177.873 129.192 178.049 128.989 178.273 128.832C178.498 128.676 178.756 128.558 179.049 128.479C179.341 128.396 179.654 128.341 179.986 128.312C180.358 128.278 180.658 128.243 180.885 128.206C181.113 128.166 181.277 128.111 181.38 128.04C181.485 127.966 181.537 127.862 181.537 127.729V127.707C181.537 127.489 181.462 127.32 181.311 127.2C181.161 127.081 180.958 127.021 180.702 127.021C180.426 127.021 180.205 127.081 180.037 127.2C179.87 127.32 179.763 127.484 179.718 127.695L177.796 127.626C177.853 127.229 177.999 126.874 178.235 126.561C178.473 126.246 178.8 125.999 179.215 125.82C179.632 125.638 180.134 125.547 180.719 125.547C181.137 125.547 181.522 125.597 181.874 125.696C182.226 125.793 182.533 125.935 182.794 126.122C183.056 126.307 183.257 126.534 183.4 126.804C183.544 127.074 183.617 127.382 183.617 127.729V132.177H181.657V131.266H181.605C181.489 131.487 181.34 131.675 181.158 131.828C180.979 131.981 180.767 132.097 180.523 132.173C180.282 132.25 180.009 132.288 179.705 132.288ZM180.348 130.925C180.573 130.925 180.775 130.879 180.953 130.788C181.135 130.697 181.28 130.572 181.388 130.413C181.496 130.251 181.55 130.064 181.55 129.851V129.229C181.49 129.26 181.418 129.288 181.333 129.314C181.25 129.339 181.159 129.364 181.06 129.386C180.961 129.409 180.858 129.429 180.753 129.446C180.648 129.463 180.547 129.479 180.451 129.493C180.255 129.524 180.087 129.572 179.948 129.638C179.811 129.703 179.706 129.788 179.632 129.893C179.561 129.996 179.526 130.118 179.526 130.26C179.526 130.476 179.603 130.641 179.756 130.754C179.912 130.868 180.11 130.925 180.348 130.925ZM184.891 132.177V123.45H186.975V126.753H187.017C187.103 126.554 187.223 126.362 187.38 126.177C187.539 125.993 187.74 125.842 187.985 125.726C188.232 125.606 188.527 125.547 188.871 125.547C189.326 125.547 189.75 125.666 190.145 125.905C190.543 126.143 190.864 126.511 191.108 127.008C191.353 127.506 191.475 128.139 191.475 128.909C191.475 129.651 191.357 130.271 191.121 130.771C190.888 131.271 190.573 131.646 190.175 131.896C189.78 132.146 189.341 132.271 188.858 132.271C188.529 132.271 188.243 132.217 188.002 132.109C187.76 132.001 187.557 131.859 187.392 131.683C187.23 131.507 187.105 131.318 187.017 131.116H186.953V132.177H184.891ZM186.932 128.905C186.932 129.257 186.979 129.564 187.073 129.825C187.169 130.087 187.307 130.29 187.486 130.435C187.668 130.577 187.885 130.648 188.138 130.648C188.394 130.648 188.611 130.577 188.79 130.435C188.969 130.29 189.104 130.087 189.195 129.825C189.289 129.564 189.336 129.257 189.336 128.905C189.336 128.552 189.289 128.247 189.195 127.989C189.104 127.73 188.969 127.53 188.79 127.388C188.614 127.246 188.397 127.175 188.138 127.175C187.882 127.175 187.665 127.244 187.486 127.383C187.307 127.523 187.169 127.722 187.073 127.98C186.979 128.239 186.932 128.547 186.932 128.905ZM194.651 123.45V132.177H192.567V123.45H194.651ZM199.037 132.301C198.352 132.301 197.761 132.166 197.264 131.896C196.77 131.624 196.389 131.236 196.122 130.733C195.858 130.227 195.725 129.626 195.725 128.93C195.725 128.254 195.859 127.663 196.126 127.158C196.393 126.649 196.77 126.254 197.255 125.973C197.741 125.689 198.314 125.547 198.973 125.547C199.439 125.547 199.865 125.619 200.251 125.764C200.637 125.909 200.971 126.124 201.252 126.408C201.534 126.692 201.752 127.043 201.909 127.46C202.065 127.875 202.143 128.351 202.143 128.888V129.408H196.454V128.197H200.204C200.201 127.976 200.149 127.778 200.047 127.605C199.944 127.432 199.804 127.297 199.625 127.2C199.449 127.101 199.245 127.051 199.015 127.051C198.782 127.051 198.574 127.104 198.389 127.209C198.204 127.311 198.058 127.452 197.95 127.631C197.842 127.807 197.785 128.007 197.779 128.231V129.463C197.779 129.73 197.832 129.964 197.937 130.166C198.042 130.365 198.191 130.52 198.385 130.631C198.578 130.741 198.808 130.797 199.075 130.797C199.26 130.797 199.427 130.771 199.578 130.72C199.728 130.669 199.858 130.594 199.966 130.494C200.074 130.395 200.154 130.273 200.208 130.128L202.122 130.183C202.042 130.612 201.868 130.986 201.598 131.304C201.331 131.619 200.98 131.865 200.545 132.041C200.11 132.214 199.608 132.301 199.037 132.301ZM205.786 132.177V125.632H207.81V126.825H207.878C207.997 126.393 208.192 126.072 208.462 125.862C208.732 125.649 209.045 125.543 209.403 125.543C209.5 125.543 209.599 125.55 209.702 125.564C209.804 125.575 209.899 125.594 209.987 125.619V127.43C209.888 127.396 209.757 127.369 209.595 127.349C209.436 127.329 209.294 127.32 209.169 127.32C208.922 127.32 208.699 127.375 208.5 127.486C208.304 127.594 208.149 127.746 208.036 127.942C207.925 128.135 207.869 128.362 207.869 128.624V132.177H205.786ZM213.556 132.301C212.871 132.301 212.281 132.166 211.783 131.896C211.289 131.624 210.908 131.236 210.641 130.733C210.377 130.227 210.245 129.626 210.245 128.93C210.245 128.254 210.379 127.663 210.646 127.158C210.913 126.649 211.289 126.254 211.775 125.973C212.261 125.689 212.833 125.547 213.492 125.547C213.958 125.547 214.384 125.619 214.771 125.764C215.157 125.909 215.491 126.124 215.772 126.408C216.053 126.692 216.272 127.043 216.428 127.46C216.585 127.875 216.663 128.351 216.663 128.888V129.408H210.974V128.197H214.724C214.721 127.976 214.668 127.778 214.566 127.605C214.464 127.432 214.323 127.297 214.144 127.2C213.968 127.101 213.765 127.051 213.535 127.051C213.302 127.051 213.093 127.104 212.908 127.209C212.724 127.311 212.577 127.452 212.469 127.631C212.362 127.807 212.305 128.007 212.299 128.231V129.463C212.299 129.73 212.352 129.964 212.457 130.166C212.562 130.365 212.711 130.52 212.904 130.631C213.097 130.741 213.327 130.797 213.594 130.797C213.779 130.797 213.947 130.771 214.097 130.72C214.248 130.669 214.377 130.594 214.485 130.494C214.593 130.395 214.674 130.273 214.728 130.128L216.641 130.183C216.562 130.612 216.387 130.986 216.117 131.304C215.85 131.619 215.499 131.865 215.065 132.041C214.63 132.214 214.127 132.301 213.556 132.301ZM217.727 134.632V125.632H219.789V126.753H219.853C219.939 126.554 220.059 126.362 220.216 126.177C220.375 125.993 220.576 125.842 220.821 125.726C221.068 125.606 221.363 125.547 221.707 125.547C222.162 125.547 222.586 125.666 222.981 125.905C223.379 126.143 223.7 126.511 223.944 127.008C224.189 127.506 224.311 128.139 224.311 128.909C224.311 129.651 224.193 130.271 223.957 130.771C223.724 131.271 223.409 131.646 223.011 131.896C222.616 132.146 222.177 132.271 221.694 132.271C221.365 132.271 221.079 132.217 220.838 132.109C220.596 132.001 220.393 131.859 220.228 131.683C220.066 131.507 219.941 131.318 219.853 131.116H219.811V134.632H217.727ZM219.768 128.905C219.768 129.257 219.815 129.564 219.909 129.825C220.005 130.087 220.143 130.29 220.322 130.435C220.504 130.577 220.721 130.648 220.974 130.648C221.23 130.648 221.447 130.577 221.626 130.435C221.805 130.29 221.94 130.087 222.031 129.825C222.125 129.564 222.172 129.257 222.172 128.905C222.172 128.552 222.125 128.247 222.031 127.989C221.94 127.73 221.805 127.53 221.626 127.388C221.45 127.246 221.233 127.175 220.974 127.175C220.718 127.175 220.501 127.244 220.322 127.383C220.143 127.523 220.005 127.722 219.909 127.98C219.815 128.239 219.768 128.547 219.768 128.905ZM229.626 129.352V125.632H231.705V132.177H229.719V130.959H229.651C229.506 131.359 229.259 131.677 228.91 131.913C228.563 132.146 228.144 132.263 227.653 132.263C227.207 132.263 226.815 132.16 226.477 131.956C226.138 131.751 225.876 131.466 225.688 131.099C225.501 130.73 225.406 130.298 225.403 129.804V125.632H227.487V129.395C227.489 129.75 227.583 130.03 227.768 130.234C227.952 130.439 228.204 130.541 228.522 130.541C228.729 130.541 228.915 130.496 229.08 130.405C229.248 130.311 229.38 130.176 229.477 130C229.576 129.821 229.626 129.605 229.626 129.352ZM236.726 125.632V127.166H232.597V125.632H236.726ZM233.462 124.064H235.546V130.119C235.546 130.247 235.566 130.351 235.605 130.43C235.648 130.507 235.709 130.562 235.789 130.597C235.868 130.628 235.963 130.643 236.074 130.643C236.154 130.643 236.238 130.636 236.326 130.622C236.417 130.605 236.485 130.591 236.53 130.579L236.846 132.084C236.746 132.112 236.605 132.148 236.424 132.19C236.245 132.233 236.03 132.26 235.78 132.271C235.292 132.294 234.873 132.237 234.523 132.101C234.176 131.962 233.911 131.746 233.726 131.453C233.544 131.16 233.456 130.793 233.462 130.349V124.064ZM239.635 132.288C239.217 132.288 238.846 132.219 238.522 132.079C238.201 131.937 237.947 131.724 237.76 131.44C237.575 131.153 237.483 130.794 237.483 130.362C237.483 129.999 237.547 129.692 237.674 129.442C237.802 129.192 237.978 128.989 238.203 128.832C238.427 128.676 238.686 128.558 238.978 128.479C239.271 128.396 239.583 128.341 239.916 128.312C240.288 128.278 240.588 128.243 240.815 128.206C241.042 128.166 241.207 128.111 241.309 128.04C241.414 127.966 241.467 127.862 241.467 127.729V127.707C241.467 127.489 241.392 127.32 241.241 127.2C241.091 127.081 240.887 127.021 240.632 127.021C240.356 127.021 240.135 127.081 239.967 127.2C239.799 127.32 239.693 127.484 239.647 127.695L237.725 127.626C237.782 127.229 237.929 126.874 238.164 126.561C238.403 126.246 238.73 125.999 239.145 125.82C239.562 125.638 240.064 125.547 240.649 125.547C241.066 125.547 241.451 125.597 241.804 125.696C242.156 125.793 242.463 125.935 242.724 126.122C242.985 126.307 243.187 126.534 243.329 126.804C243.474 127.074 243.547 127.382 243.547 127.729V132.177H241.586V131.266H241.535C241.419 131.487 241.27 131.675 241.088 131.828C240.909 131.981 240.697 132.097 240.453 132.173C240.211 132.25 239.939 132.288 239.635 132.288ZM240.278 130.925C240.502 130.925 240.704 130.879 240.883 130.788C241.065 130.697 241.21 130.572 241.318 130.413C241.426 130.251 241.48 130.064 241.48 129.851V129.229C241.42 129.26 241.348 129.288 241.262 129.314C241.18 129.339 241.089 129.364 240.99 129.386C240.89 129.409 240.788 129.429 240.683 129.446C240.578 129.463 240.477 129.479 240.38 129.493C240.184 129.524 240.017 129.572 239.877 129.638C239.741 129.703 239.636 129.788 239.562 129.893C239.491 129.996 239.456 130.118 239.456 130.26C239.456 130.476 239.532 130.641 239.686 130.754C239.842 130.868 240.039 130.925 240.278 130.925ZM248.515 125.632V127.166H244.386V125.632H248.515ZM245.251 124.064H247.335V130.119C247.335 130.247 247.355 130.351 247.395 130.43C247.437 130.507 247.498 130.562 247.578 130.597C247.657 130.628 247.752 130.643 247.863 130.643C247.943 130.643 248.027 130.636 248.115 130.622C248.206 130.605 248.274 130.591 248.319 130.579L248.635 132.084C248.535 132.112 248.395 132.148 248.213 132.19C248.034 132.233 247.819 132.26 247.569 132.271C247.081 132.294 246.662 132.237 246.312 132.101C245.966 131.962 245.7 131.746 245.515 131.453C245.333 131.16 245.245 130.793 245.251 130.349V124.064ZM249.578 132.177V125.632H251.662V132.177H249.578ZM250.623 124.869C250.33 124.869 250.078 124.773 249.868 124.579C249.658 124.383 249.553 124.148 249.553 123.872C249.553 123.599 249.658 123.366 249.868 123.173C250.078 122.977 250.33 122.879 250.623 122.879C250.918 122.879 251.169 122.977 251.377 123.173C251.587 123.366 251.692 123.599 251.692 123.872C251.692 124.148 251.587 124.383 251.377 124.579C251.169 124.773 250.918 124.869 250.623 124.869ZM256.044 132.301C255.357 132.301 254.766 132.16 254.271 131.879C253.78 131.595 253.401 131.2 253.134 130.695C252.869 130.186 252.737 129.597 252.737 128.926C252.737 128.253 252.869 127.663 253.134 127.158C253.401 126.649 253.78 126.254 254.271 125.973C254.766 125.689 255.357 125.547 256.044 125.547C256.732 125.547 257.321 125.689 257.812 125.973C258.307 126.254 258.686 126.649 258.95 127.158C259.217 127.663 259.351 128.253 259.351 128.926C259.351 129.597 259.217 130.186 258.95 130.695C258.686 131.2 258.307 131.595 257.812 131.879C257.321 132.16 256.732 132.301 256.044 132.301ZM256.057 130.729C256.307 130.729 256.518 130.652 256.692 130.499C256.865 130.345 256.997 130.132 257.088 129.859C257.182 129.587 257.229 129.271 257.229 128.913C257.229 128.55 257.182 128.231 257.088 127.959C256.997 127.686 256.865 127.473 256.692 127.32C256.518 127.166 256.307 127.089 256.057 127.089C255.798 127.089 255.58 127.166 255.401 127.32C255.224 127.473 255.089 127.686 254.996 127.959C254.905 128.231 254.859 128.55 254.859 128.913C254.859 129.271 254.905 129.587 254.996 129.859C255.089 130.132 255.224 130.345 255.401 130.499C255.58 130.652 255.798 130.729 256.057 130.729ZM262.502 128.445V132.177H260.418V125.632H262.4V126.834H262.472C262.617 126.433 262.864 126.119 263.214 125.892C263.563 125.662 263.979 125.547 264.462 125.547C264.923 125.547 265.322 125.651 265.66 125.858C266.001 126.062 266.265 126.349 266.452 126.719C266.643 127.085 266.737 127.514 266.734 128.006V132.177H264.65V128.415C264.653 128.051 264.56 127.767 264.373 127.562C264.188 127.358 263.931 127.256 263.602 127.256C263.383 127.256 263.19 127.304 263.022 127.401C262.857 127.494 262.729 127.629 262.638 127.805C262.55 127.981 262.505 128.195 262.502 128.445Z" fill="#FCFCFC"/>
<defs>
<linearGradient id="paint0_linear_50_2014" x1="180" y1="0" x2="180" y2="160" gradientUnits="userSpaceOnUse">
<stop stop-color="#36383A"/>
<stop offset="1"/>
</linearGradient>
</defs>
</svg>
