<svg width="360" height="160" viewBox="0 0 360 160" fill="none" xmlns="http://www.w3.org/2000/svg">
<g clip-path="url(#clip0_802_2220)">
<rect width="360" height="160" rx="4" fill="#151616"/>
<g opacity="0.8" filter="url(#filter0_f_802_2220)">
<path d="M-223.644 -24.7868C-228.155 -26.2352 -234.016 -27.1224 -238.205 -29.4794C-236.401 -30.1902 -234.762 -31.3887 -233.288 -32.3951C-230.563 -34.2558 -226.368 -35.306 -223.121 -36.5226C-219.045 -38.0502 -212.397 -36.1858 -207.878 -34.8206C-199.168 -32.1894 -190.609 -30.0236 -181.786 -29.6853C-173.568 -29.3702 -165.672 -32.2303 -158.885 -34.8532C-146.06 -39.81 -132.871 -44.0941 -119.39 -48.0878C-91.9125 -56.228 -63.7846 -60.6282 -31.9644 -56.2265C-12.6798 -53.5589 18.8816 -64.089 37.5257 -57.3418C48.3201 -53.4354 107.812 -38.3294 117.39 -32.1647C132.089 -22.7033 122.655 -8.69519 131.814 4.07549C135.799 9.63204 98.3288 21.8771 101.387 27.7051C103.296 31.3421 105.593 35.093 106.028 38.8752C107.174 48.8465 104.154 58.1458 99.9006 66.6123C94.8448 76.6749 84.8184 84.6122 73.1747 89.4966C68.9477 91.2697 64.6815 93.1354 59.825 93.9299C54.9378 94.7293 49.6502 94.4026 44.5309 94.4498C27.1247 94.6104 11.9747 87.2763 -3.52824 78.8533C-23.229 68.1496 -98.9547 69.1798 -118.525 58.2762C-149.224 41.1718 -156.558 22.8967 -189.396 9.68385C-211.473 0.801172 -201.039 -17.5294 -223.644 -24.7868Z" fill="#28C7FA"/>
</g>
<g filter="url(#filter1_f_802_2220)">
<ellipse cx="58.2666" cy="76.661" rx="58.2666" ry="76.661" transform="matrix(0.811861 0.583851 -0.480658 0.876908 348.139 44.5656)" fill="#F5841A"/>
</g>
<circle cx="222.549" cy="161.549" r="9.18655" transform="rotate(60 222.549 161.549)" fill="url(#paint0_radial_802_2220)"/>
<circle cx="36.1079" cy="131.108" r="10.9629" transform="rotate(102.722 36.1079 131.108)" fill="url(#paint1_radial_802_2220)"/>
<circle cx="316.705" cy="42.9719" r="14.4316" transform="rotate(46.6721 316.705 42.9719)" fill="url(#paint2_radial_802_2220)"/>
<path d="M313.734 16.4598L331.356 16.3912L340.649 31.2892L323.507 30.6362L313.734 16.4598Z" fill="url(#paint3_linear_802_2220)" fill-opacity="0.4"/>
<path d="M276.744 66.7422L300.602 71.0135L316.747 88.5367L293.17 84.5021L276.744 66.7422Z" fill="url(#paint4_linear_802_2220)" fill-opacity="0.4"/>
<path opacity="0.8" d="M330.852 16.1134L340.277 30.9201L317.022 88.9343L300.568 71.0766L330.852 16.1134Z" fill="url(#paint5_linear_802_2220)"/>
<path opacity="0.8" d="M330.815 16.1791L313.263 16.1217L276.645 66.7733L300.531 71.1423L330.815 16.1791Z" fill="url(#paint6_linear_802_2220)"/>
<g clip-path="url(#clip1_802_2220)">
<path fill-rule="evenodd" clip-rule="evenodd" d="M68.4734 51C67.6597 51 67 51.6604 67 52.475V87.7882C67 100.055 76.9338 110 89.1879 110C89.9537 110 90.5746 109.378 90.5746 108.612V52.475C90.5746 51.6604 89.9149 51 89.1012 51H68.4734ZM78.7873 53.95C78.7873 58.8377 74.8293 62.8 69.9468 62.8C74.8293 62.8 78.7873 66.7623 78.7873 71.65C78.7873 66.7623 82.7453 62.8 87.6278 62.8C82.7453 62.8 78.7873 58.8377 78.7873 53.95Z" fill="#28C7FA"/>
<path fill-rule="evenodd" clip-rule="evenodd" d="M94.9945 110C94.1808 110 93.5211 109.34 93.5211 108.525L93.5211 73.2118C93.5211 60.9445 103.455 51 115.709 51C116.475 51 117.096 51.6215 117.096 52.3882L117.096 108.525C117.096 109.34 116.436 110 115.622 110H94.9945ZM105.308 107.05C105.308 102.162 101.35 98.2 96.4679 98.2C101.35 98.2 105.308 94.2377 105.308 89.35C105.308 94.2377 109.266 98.2 114.149 98.2C109.266 98.2 105.308 102.162 105.308 107.05Z" fill="#F5841A"/>
</g>
<path d="M138.195 83.8433C135.812 83.8433 133.782 83.4237 132.105 82.5846C130.429 81.7193 129.145 80.5131 128.255 78.966C127.364 77.4188 126.919 75.6095 126.919 73.538V55.9166H133.402V73.538C133.402 74.5606 133.598 75.4391 133.991 76.1733C134.384 76.9075 134.934 77.4844 135.642 77.904C136.375 78.2973 137.226 78.494 138.195 78.494C139.191 78.494 140.042 78.2973 140.749 77.904C141.457 77.4844 142.007 76.9075 142.4 76.1733C142.793 75.4391 142.989 74.5606 142.989 73.538V55.9166H149.472V73.538C149.472 75.6095 149.027 77.4188 148.136 78.966C147.245 80.5131 145.962 81.7193 144.286 82.5846C142.609 83.4237 140.579 83.8433 138.195 83.8433Z" fill="white"/>
<path d="M156.128 83.3713V55.9166H164.379L172.04 75.3473L171.608 65.3566V55.9166H177.698V83.3713H169.447L161.707 64.2946L162.218 73.9313V83.3713H156.128Z" fill="white"/>
<path d="M192.33 83.3713V55.9166H198.813V83.3713H192.33ZM186.043 55.9166H205.099V61.2266H186.043V55.9166ZM186.043 78.0613H205.099V83.3713H186.043V78.0613Z" fill="white"/>
<path d="M218.631 73.1053V67.7953H224.8C225.585 67.7953 226.266 67.6511 226.843 67.3626C227.445 67.0742 227.904 66.6677 228.218 66.1433C228.558 65.6188 228.729 65.0288 228.729 64.3733C228.729 63.744 228.572 63.1933 228.257 62.7213C227.969 62.2493 227.563 61.8822 227.039 61.62C226.515 61.3577 225.913 61.2266 225.232 61.2266H218.631V55.9166H225.232C227.223 55.9166 228.978 56.2575 230.497 56.9393C232.042 57.5948 233.247 58.552 234.112 59.8106C234.976 61.0693 235.408 62.5902 235.408 64.3733C235.408 65.4484 235.146 66.5104 234.622 67.5593C234.125 68.582 233.391 69.5128 232.422 70.352C231.479 71.1911 230.327 71.8597 228.964 72.358C227.629 72.8562 226.109 73.1053 224.407 73.1053H218.631ZM213.955 83.3713V55.9166H220.438V83.3713H213.955ZM228.886 83.3713C228.886 82.2175 228.676 81.0506 228.257 79.8706C227.838 78.6644 227.223 77.5237 226.411 76.4486C225.625 75.3473 224.642 74.3508 223.464 73.4593C222.285 72.5677 220.923 71.8466 219.377 71.296L226.568 69.8406C228.087 70.6011 229.41 71.5057 230.536 72.5546C231.662 73.6035 232.592 74.7311 233.326 75.9373C234.085 77.1435 234.649 78.3891 235.015 79.674C235.382 80.9326 235.565 82.1651 235.565 83.3713H228.886Z" fill="white"/>
<path d="M243.085 83.3713V55.9166H263.399V61.2266H249.568V66.5366H258.487V71.8466H249.568V78.0613H263.556V83.3713H243.085Z" fill="white"/>
<path d="M275.909 74.7573V69.4473H282.156C283.413 69.4473 284.422 69.0671 285.181 68.3066C285.941 67.52 286.321 66.4973 286.321 65.2386C286.321 64.0324 285.941 63.0622 285.181 62.328C284.422 61.5937 283.413 61.2266 282.156 61.2266H275.909V55.9166H282.195C284.369 55.9166 286.268 56.2968 287.892 57.0573C289.516 57.8177 290.774 58.906 291.664 60.322C292.555 61.7117 293 63.3506 293 65.2386C293 67.1528 292.555 68.8311 291.664 70.2733C290.774 71.6893 289.516 72.7906 287.892 73.5773C286.295 74.364 284.395 74.7573 282.195 74.7573H275.909ZM271.272 83.3713V55.9166H277.755V83.3713H271.272Z" fill="white"/>
<path d="M129.109 98.9325V97.0888H133.775C134.97 97.0888 135.936 96.7692 136.673 96.13C137.41 95.4909 137.778 94.6468 137.778 93.5979C137.778 92.5654 137.434 91.7378 136.747 91.115C136.075 90.4923 135.183 90.1809 134.07 90.1809H129.109V88.3371H134.094C135.29 88.3371 136.329 88.5584 137.213 89.0009C138.097 89.427 138.785 90.0334 139.276 90.82C139.767 91.5903 140.013 92.5163 140.013 93.5979C140.013 94.6632 139.751 95.5974 139.227 96.4004C138.719 97.2035 137.999 97.8263 137.066 98.2688C136.133 98.7113 135.036 98.9325 133.775 98.9325H129.109ZM127.587 105.496V88.3371H129.699V105.496H127.587Z" fill="white"/>
<path d="M151.073 98.0721V96.2284H155.567C156.369 96.2284 157.073 96.1054 157.679 95.8596C158.301 95.5974 158.784 95.2286 159.128 94.7534C159.488 94.2617 159.668 93.6963 159.668 93.0571C159.668 92.4671 159.512 91.9591 159.201 91.5329C158.89 91.1068 158.473 90.7791 157.949 90.5496C157.425 90.3038 156.844 90.1809 156.205 90.1809H151.073V88.3371H156.205C157.302 88.3371 158.276 88.5256 159.128 88.9025C159.995 89.2795 160.675 89.8203 161.166 90.525C161.657 91.2298 161.902 92.0738 161.902 93.0571C161.902 93.7127 161.755 94.3436 161.46 94.95C161.182 95.54 160.765 96.0727 160.208 96.5479C159.651 97.0068 158.98 97.3756 158.194 97.6542C157.409 97.9328 156.508 98.0721 155.493 98.0721H151.073ZM149.55 105.496V88.3371H151.662V105.496H149.55ZM159.57 105.496C159.439 104.71 159.201 103.939 158.857 103.185C158.53 102.432 158.088 101.71 157.531 101.022C156.991 100.334 156.312 99.6864 155.493 99.08C154.675 98.4736 153.725 97.9164 152.645 97.4084L155.002 96.8675C156.148 97.4248 157.122 98.0393 157.924 98.7113C158.726 99.3668 159.389 100.063 159.913 100.801C160.454 101.522 160.863 102.276 161.141 103.063C161.42 103.849 161.608 104.66 161.706 105.496H159.57Z" fill="white"/>
<path d="M177.162 105.791C175.721 105.791 174.469 105.431 173.405 104.71C172.341 103.972 171.514 102.94 170.924 101.612C170.351 100.268 170.065 98.7031 170.065 96.9167C170.065 95.1139 170.351 93.5488 170.924 92.2213C171.514 90.8938 172.341 89.8695 173.405 89.1484C174.469 88.4109 175.721 88.0421 177.162 88.0421C178.603 88.0421 179.855 88.4109 180.919 89.1484C181.983 89.8695 182.802 90.8938 183.375 92.2213C183.964 93.5488 184.259 95.1139 184.259 96.9167C184.259 98.7031 183.964 100.268 183.375 101.612C182.802 102.94 181.983 103.972 180.919 104.71C179.855 105.431 178.603 105.791 177.162 105.791ZM177.162 103.948C178.144 103.948 178.995 103.661 179.716 103.087C180.452 102.514 181.017 101.702 181.41 100.653C181.819 99.5881 182.024 98.3425 182.024 96.9167C182.024 95.4909 181.819 94.2535 181.41 93.2046C181.017 92.1557 180.452 91.3445 179.716 90.7709C178.995 90.1809 178.144 89.8859 177.162 89.8859C176.18 89.8859 175.32 90.1809 174.583 90.7709C173.863 91.3445 173.298 92.1557 172.889 93.2046C172.48 94.2535 172.275 95.4909 172.275 96.9167C172.275 98.3425 172.48 99.5881 172.889 100.653C173.298 101.702 173.863 102.514 174.583 103.087C175.32 103.661 176.18 103.948 177.162 103.948Z" fill="white"/>
<path d="M197.922 105.496V90.1809H192.225V88.3371H205.756V90.1809H200.058V105.496H197.922Z" fill="white"/>
<path d="M220.892 105.791C219.452 105.791 218.199 105.431 217.135 104.71C216.071 103.972 215.244 102.94 214.655 101.612C214.082 100.268 213.795 98.7031 213.795 96.9167C213.795 95.1139 214.082 93.5488 214.655 92.2213C215.244 90.8938 216.071 89.8695 217.135 89.1484C218.199 88.4109 219.452 88.0421 220.892 88.0421C222.333 88.0421 223.585 88.4109 224.649 89.1484C225.714 89.8695 226.532 90.8938 227.105 92.2213C227.695 93.5488 227.989 95.1139 227.989 96.9167C227.989 98.7031 227.695 100.268 227.105 101.612C226.532 102.94 225.714 103.972 224.649 104.71C223.585 105.431 222.333 105.791 220.892 105.791ZM220.892 103.948C221.875 103.948 222.726 103.661 223.446 103.087C224.183 102.514 224.748 101.702 225.141 100.653C225.55 99.5881 225.755 98.3425 225.755 96.9167C225.755 95.4909 225.55 94.2535 225.141 93.2046C224.748 92.1557 224.183 91.3445 223.446 90.7709C222.726 90.1809 221.875 89.8859 220.892 89.8859C219.91 89.8859 219.051 90.1809 218.314 90.7709C217.593 91.3445 217.029 92.1557 216.619 93.2046C216.21 94.2535 216.005 95.4909 216.005 96.9167C216.005 98.3425 216.21 99.5881 216.619 100.653C217.029 101.702 217.593 102.514 218.314 103.087C219.051 103.661 219.91 103.948 220.892 103.948Z" fill="white"/>
<path d="M243.077 105.791C241.571 105.791 240.261 105.406 239.148 104.636C238.051 103.866 237.208 102.817 236.618 101.489C236.029 100.145 235.734 98.6129 235.734 96.8921C235.734 95.0893 236.045 93.5242 236.667 92.1967C237.29 90.8692 238.157 89.8449 239.27 89.1238C240.384 88.4027 241.669 88.0421 243.126 88.0421C244.321 88.0421 245.393 88.2798 246.343 88.755C247.292 89.2139 248.07 89.8777 248.676 90.7463C249.281 91.6149 249.642 92.6392 249.756 93.8192H247.399C247.268 92.6392 246.818 91.6886 246.048 90.9675C245.279 90.2464 244.296 89.8859 243.101 89.8859C242.086 89.8859 241.194 90.1727 240.425 90.7463C239.655 91.3199 239.049 92.1393 238.607 93.2046C238.182 94.2535 237.969 95.4909 237.969 96.9167C237.969 98.3589 238.19 99.6127 238.632 100.678C239.074 101.727 239.68 102.538 240.449 103.112C241.219 103.669 242.094 103.948 243.077 103.948C243.912 103.948 244.64 103.775 245.262 103.431C245.901 103.087 246.408 102.604 246.785 101.981C247.178 101.358 247.415 100.629 247.497 99.7929H249.83C249.715 100.989 249.363 102.046 248.774 102.964C248.201 103.866 247.431 104.562 246.466 105.054C245.5 105.545 244.37 105.791 243.077 105.791Z" fill="white"/>
<path d="M264.623 105.791C263.182 105.791 261.93 105.431 260.866 104.71C259.801 103.972 258.975 102.94 258.385 101.612C257.812 100.268 257.526 98.7031 257.526 96.9167C257.526 95.1139 257.812 93.5488 258.385 92.2213C258.975 90.8938 259.801 89.8695 260.866 89.1484C261.93 88.4109 263.182 88.0421 264.623 88.0421C266.063 88.0421 267.316 88.4109 268.38 89.1484C269.444 89.8695 270.263 90.8938 270.836 92.2213C271.425 93.5488 271.72 95.1139 271.72 96.9167C271.72 98.7031 271.425 100.268 270.836 101.612C270.263 102.94 269.444 103.972 268.38 104.71C267.316 105.431 266.063 105.791 264.623 105.791ZM264.623 103.948C265.605 103.948 266.456 103.661 267.177 103.087C267.913 102.514 268.478 101.702 268.871 100.653C269.28 99.5881 269.485 98.3425 269.485 96.9167C269.485 95.4909 269.28 94.2535 268.871 93.2046C268.478 92.1557 267.913 91.3445 267.177 90.7709C266.456 90.1809 265.605 89.8859 264.623 89.8859C263.64 89.8859 262.781 90.1809 262.044 90.7709C261.324 91.3445 260.759 92.1557 260.35 93.2046C259.941 94.2535 259.736 95.4909 259.736 96.9167C259.736 98.3425 259.941 99.5881 260.35 100.653C260.759 101.702 261.324 102.514 262.044 103.087C262.781 103.661 263.64 103.948 264.623 103.948Z" fill="white"/>
<path d="M281.405 105.496V88.3371H283.517V103.653H292.725V105.496H281.405Z" fill="white"/>
</g>
<defs>
<filter id="filter0_f_802_2220" x="-338.205" y="-159.639" width="570.316" height="354.116" filterUnits="userSpaceOnUse" color-interpolation-filters="sRGB">
<feFlood flood-opacity="0" result="BackgroundImageFix"/>
<feBlend mode="normal" in="SourceGraphic" in2="BackgroundImageFix" result="shape"/>
<feGaussianBlur stdDeviation="50" result="effect1_foregroundBlur_802_2220"/>
</filter>
<filter id="filter1_f_802_2220" x="198.631" y="-29.5492" width="319.93" height="350.717" filterUnits="userSpaceOnUse" color-interpolation-filters="sRGB">
<feFlood flood-opacity="0" result="BackgroundImageFix"/>
<feBlend mode="normal" in="SourceGraphic" in2="BackgroundImageFix" result="shape"/>
<feGaussianBlur stdDeviation="50" result="effect1_foregroundBlur_802_2220"/>
</filter>
<radialGradient id="paint0_radial_802_2220" cx="0" cy="0" r="1" gradientUnits="userSpaceOnUse" gradientTransform="translate(217.897 158.796) rotate(38.492) scale(12.2227)">
<stop stop-color="#FFCEAA"/>
<stop offset="0.182292" stop-color="#4FFFEA"/>
<stop offset="1" stop-color="#FF7D1F"/>
</radialGradient>
<radialGradient id="paint1_radial_802_2220" cx="0" cy="0" r="1" gradientUnits="userSpaceOnUse" gradientTransform="translate(30.5571 127.823) rotate(38.492) scale(14.5861)">
<stop stop-color="#55FFE0"/>
<stop offset="0.291667" stop-color="#FF6E4F"/>
<stop offset="1" stop-color="#1FE4FF"/>
</radialGradient>
<radialGradient id="paint2_radial_802_2220" cx="0" cy="0" r="1" gradientUnits="userSpaceOnUse" gradientTransform="translate(309.398 38.6474) rotate(38.492) scale(19.2012)">
<stop stop-color="#FFDBC1"/>
<stop offset="0.182292" stop-color="#86FDF6"/>
<stop offset="1" stop-color="#F1A269"/>
</radialGradient>
<linearGradient id="paint3_linear_802_2220" x1="324.805" y1="15.9038" x2="332.631" y2="31.2264" gradientUnits="userSpaceOnUse">
<stop stop-color="#7FE8EE"/>
<stop offset="1" stop-color="#FFC187"/>
</linearGradient>
<linearGradient id="paint4_linear_802_2220" x1="299.156" y1="61.2605" x2="306.982" y2="76.5831" gradientUnits="userSpaceOnUse">
<stop stop-color="#FF9D87"/>
<stop offset="1" stop-color="#0EFFB7"/>
</linearGradient>
<linearGradient id="paint5_linear_802_2220" x1="308.392" y1="75.9632" x2="345.241" y2="74.4077" gradientUnits="userSpaceOnUse">
<stop stop-color="#94D7FD" stop-opacity="0.47"/>
<stop offset="1" stop-color="#40D1FF"/>
</linearGradient>
<linearGradient id="paint6_linear_802_2220" x1="292.22" y1="67.1381" x2="273.849" y2="35.1573" gradientUnits="userSpaceOnUse">
<stop stop-color="#89AEB0" stop-opacity="0.42"/>
<stop offset="0.0001" stop-color="#BDF9D1" stop-opacity="0.26"/>
<stop offset="1" stop-color="#36F3FF"/>
</linearGradient>
<clipPath id="clip0_802_2220">
<rect width="360" height="160" rx="4" fill="white"/>
</clipPath>
<clipPath id="clip1_802_2220">
<rect width="50.096" height="59" fill="white" transform="translate(67 51)"/>
</clipPath>
</defs>
</svg>
