<svg width="360" height="160" viewBox="0 0 360 160" fill="none" xmlns="http://www.w3.org/2000/svg">
<rect width="360" height="160" rx="4" fill="#FFF5F4"/>
<path fill-rule="evenodd" clip-rule="evenodd" d="M30.4219 13.0777C30.4219 14.58 29.1992 15.8027 27.6969 15.8027C26.1947 15.8027 24.972 14.58 24.972 13.0777C24.972 11.5755 26.1947 10.3528 27.6969 10.3528C29.1992 10.3528 30.4219 11.5743 30.4219 13.0777ZM27.6969 10.9605C26.5301 10.9605 25.5797 11.9097 25.5797 13.0777C25.5797 14.2458 26.5301 15.195 27.6969 15.195C28.8637 15.195 29.8142 14.2458 29.8142 13.0777C29.8142 11.9097 28.8649 10.9605 27.6969 10.9605ZM89.4888 12.2392L88.6575 13.9238L86.7979 14.1936L88.1434 15.5051L87.8261 17.3561L89.4888 16.4823L91.1515 17.3561L90.8343 15.5051L92.1798 14.1936L90.3202 13.9238L89.4888 12.2392ZM90.1816 15.2936L90.3445 16.2453L89.4888 15.7968L88.6332 16.2453L88.7961 15.2936L88.1033 14.6178L89.061 14.4793L89.4888 13.6115L89.9167 14.4793L90.8744 14.6178L90.1816 15.2936ZM49.0071 40.9034H33.2128L24.7876 55.498L32.6865 69.18L24.7863 82.8631L33.2128 97.4578H50.067L57.9659 83.7759H73.7615L81.6604 70.0928H97.4681L105.895 55.498L97.4681 40.9034H81.6592L73.759 27.2214H56.9061L49.0071 40.9034ZM57.9599 29.0446H72.7065L80.0804 41.8161L72.7065 54.5865H57.9659L50.5908 41.8101L57.9599 29.0446ZM96.4144 68.2696H81.6677L74.2938 55.498L81.6665 42.7265H96.4144L103.787 55.498L96.4144 68.2696ZM72.7077 81.9528H57.9659L50.5932 69.1812L57.9659 56.4096H72.7077L80.0804 69.1812L72.7077 81.9528ZM34.2641 95.6347L26.8914 82.8631L34.2641 70.0928H49.0059L56.3822 82.8692L49.0132 95.6347H34.2641ZM49.0071 68.2696H34.2666L26.8939 55.498L34.2666 42.7265H49.0071L56.381 55.498L49.0071 68.2696ZM100.064 55.9522L101.643 55.0405L97.7271 48.26L96.1483 49.1717L100.064 55.9522ZM74.0211 34.5792L77.9352 41.3605L76.3562 42.2719L72.4421 35.4906L74.0211 34.5792ZM58.2192 63.4981L56.6404 62.5863L53.0961 68.7238L54.6749 69.6355L58.2192 63.4981ZM30.9883 83.3221L29.4095 82.4103L32.9531 76.274L34.5319 77.1857L30.9883 83.3221ZM92.2902 111.506C92.2902 110.003 91.0675 108.781 89.5652 108.781C88.0617 108.781 86.8403 110.003 86.8403 111.506C86.8403 113.008 88.063 114.231 89.5652 114.231C91.0675 114.231 92.2902 113.008 92.2902 111.506ZM91.6825 111.506C91.6825 112.674 90.732 113.623 89.5652 113.623C88.3972 113.623 87.448 112.674 87.448 111.506C87.448 110.338 88.3984 109.388 89.5652 109.388C90.732 109.388 91.6825 110.338 91.6825 111.506ZM113.529 37.7543L114.733 40.1948L117.426 40.585L115.477 42.4847L115.938 45.1683L113.529 43.9018L111.12 45.1683L111.579 42.4847L109.63 40.585L112.324 40.1948L113.529 37.7543ZM112.233 42.2732L111.928 44.0574L113.53 43.2164L115.132 44.0574L114.827 42.2732L116.12 41.0104L114.33 40.7503L113.529 39.1265L112.728 40.7503L110.937 41.0104L112.233 42.2732ZM20.7181 86.6795L19.3727 87.991L19.6899 89.8432L18.0272 88.9681L16.3645 89.8432L16.6818 87.991L15.3363 86.6795L17.1959 86.4085L18.0272 84.7251L18.8586 86.4085L20.7181 86.6795ZM18.0272 86.0985L17.5994 86.9651L16.6416 87.1049L17.3344 87.7807L17.1716 88.7336L18.0272 88.2839L18.8829 88.7336L18.72 87.7807L19.4128 87.1049L18.455 86.9651L18.0272 86.0985ZM19.1237 24.5062L18.0274 21.131L16.9311 24.5062H13.3833L16.2529 26.5931L15.1566 29.9659L18.0274 27.8802L20.8982 29.9659L19.8019 26.5931L22.6715 24.5062H19.1237ZM16.3125 28.3749L16.9676 26.3597L15.2502 25.1139H17.3711L18.0262 23.0988L18.6813 25.1139H20.8022L19.0872 26.3597L19.7423 28.3749L18.0274 27.1303L16.3125 28.3749ZM16.1606 65.6601C17.3578 65.6601 18.3313 64.6865 18.3313 63.4893C18.3313 62.2922 17.3578 61.3186 16.1606 61.3186C14.9634 61.3186 13.9899 62.2922 13.9899 63.4893C13.9899 64.6865 14.9634 65.6601 16.1606 65.6601ZM14.5976 63.4893C14.5976 62.6276 15.2989 61.9263 16.1606 61.9263C17.0223 61.9263 17.7236 62.6276 17.7236 63.4893C17.7236 64.3511 17.0223 65.0524 16.1606 65.0524C15.2989 65.0524 14.5976 64.3511 14.5976 63.4893ZM108.563 24.8004C108.563 26.3829 107.276 27.67 105.694 27.67C104.111 27.67 102.824 26.3816 102.824 24.8004C102.824 23.2191 104.111 21.932 105.694 21.932C107.276 21.932 108.563 23.2191 108.563 24.8004ZM105.694 22.5397C104.447 22.5397 103.432 23.5546 103.432 24.8004C103.432 26.0474 104.447 27.0623 105.694 27.0623C106.941 27.0623 107.956 26.0474 107.956 24.8004C107.956 23.5546 106.941 22.5397 105.694 22.5397ZM97.1551 111.531L97.0069 110.943C96.6204 111.04 96.229 111.129 95.834 111.208L95.9543 111.803C96.359 111.721 96.7589 111.631 97.1551 111.531ZM115.53 91.2289C115.413 92.0202 115.254 92.8187 115.058 93.599L114.469 93.4519C114.661 92.6887 114.815 91.9108 114.93 91.1402L115.53 91.2289ZM105.484 106.925C104.858 107.393 104.198 107.834 103.525 108.239L103.838 108.758C104.53 108.344 105.205 107.891 105.847 107.411L105.484 106.925ZM99.2655 110.256C100.002 109.992 100.735 109.688 101.445 109.353L101.705 109.901C100.977 110.246 100.226 110.557 99.4709 110.829L99.2655 110.256ZM108.968 103.75C108.444 104.331 107.884 104.893 107.303 105.422L107.713 105.871C108.308 105.329 108.883 104.753 109.419 104.158L108.968 103.75ZM111.771 99.963L112.291 100.277C111.877 100.968 111.426 101.645 110.949 102.287L110.461 101.926C110.925 101.3 111.366 100.64 111.771 99.963ZM113.785 95.7067C113.522 96.4408 113.218 97.1737 112.882 97.8835L113.431 98.1448C113.776 97.4156 114.087 96.6644 114.357 95.9109L113.785 95.7067ZM115.796 87.6348C115.796 88.0323 115.787 88.4285 115.767 88.8247L115.161 88.7968C115.179 88.4115 115.189 88.0238 115.189 87.636C115.189 87.2386 115.179 86.8387 115.16 86.4389L115.766 86.4085C115.787 86.8181 115.796 87.2277 115.796 87.6348ZM114.925 84.0739L115.525 83.9839C115.465 83.5804 115.394 83.1769 115.314 82.7721L114.718 82.8913C114.797 83.2863 114.867 83.6801 114.925 84.0739ZM14.8064 96.336L15.4141 96.3238C15.4226 96.7249 15.4445 97.1236 15.4809 97.5174L14.8757 97.5721C14.838 97.1637 14.8149 96.7517 14.8064 96.336ZM16.2129 102.797L16.7708 102.555C16.4244 101.76 16.1412 100.93 15.9248 100.088L15.3366 100.24C15.559 101.111 15.8543 101.972 16.2129 102.797ZM25.9387 111.36C26.7481 111.675 27.588 111.925 28.4363 112.106L28.3099 112.699C27.43 112.513 26.5597 112.252 25.7199 111.926L25.9387 111.36ZM21.4498 108.739L21.0645 109.21C21.7585 109.779 22.5048 110.298 23.2826 110.753L23.5901 110.228C22.839 109.788 22.1183 109.288 21.4498 108.739ZM19.1149 107.337C18.5169 106.663 17.9676 105.939 17.4838 105.183L17.9955 104.855C18.4622 105.585 18.991 106.284 19.5695 106.933L19.1149 107.337ZM32.2222 112.465C31.8187 112.473 31.4225 112.466 31.0275 112.445L30.9971 113.053C31.2937 113.068 31.5914 113.076 31.8916 113.076C32.0059 113.076 32.1201 113.075 32.2344 113.072L32.2222 112.465ZM15.8566 38.441H16.4643V40.8718H15.8566V38.441ZM16.4643 48.1642H15.8566V50.595H16.4643V48.1642ZM15.8566 53.0259H16.4643V55.4568H15.8566V53.0259ZM16.4643 43.3026H15.8566V45.7334H16.4643V43.3026ZM329.787 124.096H313.992L306.094 137.778H289.241L281.34 124.096H265.531L257.105 109.502L265.531 94.907H281.339L289.238 81.2238H305.034L312.933 67.5419H329.787L338.213 82.1366L330.313 95.8197L338.212 109.502L329.787 124.096ZM290.293 135.955H305.04L312.409 123.19L305.034 110.413H290.293L282.919 123.184L290.293 135.955ZM281.332 96.7301H266.585L259.213 109.502L266.585 122.273H281.333L288.706 109.502L281.332 96.7301ZM305.034 83.047H290.292L282.919 95.8185L290.292 108.59H305.034L312.406 95.8185L305.034 83.047ZM336.108 82.1366L328.735 69.365H313.986L306.617 82.1305L313.994 94.907H328.735L336.108 82.1366ZM328.733 96.7301H313.992L306.619 109.502L313.992 122.273H328.733L336.106 109.502L328.733 96.7301ZM262.936 109.047L261.357 109.959L265.272 116.74L266.851 115.828L262.936 109.047ZM288.978 130.42L285.064 123.639L286.643 122.728L290.557 129.509L288.978 130.42ZM304.78 101.502L306.359 102.413L309.904 96.2759L308.325 95.3642L304.78 101.502ZM332.011 81.6777L333.59 82.5894L330.046 88.7258L328.468 87.814L332.011 81.6777ZM270.709 53.4941C270.709 54.9963 271.932 56.2191 273.434 56.2191C274.938 56.2191 276.159 54.9963 276.159 53.4941C276.159 51.9918 274.937 50.7691 273.434 50.7691C271.932 50.7691 270.709 51.9918 270.709 53.4941ZM271.317 53.4941C271.317 52.3261 272.268 51.3769 273.434 51.3769C274.602 51.3769 275.552 52.3261 275.552 53.4941C275.552 54.6621 274.601 55.6114 273.434 55.6114C272.268 55.6114 271.317 54.6621 271.317 53.4941ZM249.471 127.245L248.267 124.805L245.573 124.415L247.523 122.515L247.062 119.831L249.471 121.098L251.88 119.831L251.421 122.515L253.37 124.415L250.676 124.805L249.471 127.245ZM250.767 122.727L251.072 120.942L249.47 121.783L247.868 120.942L248.173 122.727L246.88 123.989L248.67 124.249L249.471 125.873L250.272 124.249L252.062 123.989L250.767 122.727ZM273.511 152.76L274.342 151.076L276.202 150.806L274.856 149.495L275.173 147.644L273.511 148.517L271.848 147.644L272.165 149.495L270.82 150.806L272.679 151.076L273.511 152.76ZM273.511 149.203L274.366 148.754L274.204 149.706L274.896 150.382L273.939 150.52L273.511 151.388L273.083 150.52L272.125 150.382L272.818 149.706L272.655 148.754L273.511 149.203ZM342.281 78.3202L343.627 77.0088L343.31 75.1565L344.972 76.0316L346.635 75.1565L346.318 77.0088L347.663 78.3202L345.804 78.5912L344.972 80.2746L344.141 78.5912L342.281 78.3202ZM344.972 78.9012L345.4 78.0346L346.358 77.8948L345.665 77.219L345.828 76.2661L344.972 76.7158L344.117 76.2661L344.28 77.219L343.587 77.8948L344.545 78.0346L344.972 78.9012ZM343.876 140.493L344.972 143.869L346.069 140.493H349.616L346.747 138.407L347.843 135.034L344.972 137.119L342.101 135.034L343.198 138.407L340.328 140.493H343.876ZM346.687 136.625L346.032 138.64L347.749 139.886H345.629L344.973 141.901L344.318 139.886H342.197L343.912 138.64L343.257 136.625L344.972 137.869L346.687 136.625ZM332.578 151.922C332.578 150.42 333.8 149.197 335.303 149.197C336.805 149.197 338.028 150.42 338.028 151.922C338.028 153.424 336.805 154.647 335.303 154.647C333.8 154.647 332.578 153.425 332.578 151.922ZM335.303 154.039C336.469 154.039 337.42 153.09 337.42 151.922C337.42 150.754 336.469 149.805 335.303 149.805C334.136 149.805 333.185 150.754 333.185 151.922C333.185 153.09 334.135 154.039 335.303 154.039ZM346.839 99.3396C345.642 99.3396 344.668 100.313 344.668 101.51C344.668 102.708 345.642 103.681 346.839 103.681C348.036 103.681 349.01 102.708 349.01 101.51C349.01 100.313 348.036 99.3396 346.839 99.3396ZM348.402 101.51C348.402 102.372 347.701 103.073 346.839 103.073C345.977 103.073 345.276 102.372 345.276 101.51C345.276 100.649 345.977 99.9473 346.839 99.9473C347.701 99.9473 348.402 100.649 348.402 101.51ZM254.436 140.199C254.436 138.617 255.723 137.33 257.306 137.33C258.888 137.33 260.175 138.618 260.175 140.199C260.175 141.781 258.888 143.068 257.306 143.068C255.723 143.068 254.436 141.781 254.436 140.199ZM257.306 142.46C258.553 142.46 259.568 141.445 259.568 140.199C259.568 138.952 258.553 137.937 257.306 137.937C256.059 137.937 255.044 138.952 255.044 140.199C255.044 141.445 256.059 142.46 257.306 142.46ZM265.844 53.4685L265.993 54.0568C266.379 53.9595 266.771 53.8708 267.166 53.7918L267.045 53.1963C266.641 53.2789 266.241 53.3688 265.844 53.4685ZM247.47 73.7708C247.586 72.9795 247.745 72.181 247.941 71.4007L248.531 71.5478C248.339 72.3111 248.184 73.0889 248.07 73.8595L247.47 73.7708ZM257.516 58.0749C258.142 57.607 258.802 57.1658 259.475 56.7611L259.162 56.2421C258.47 56.6553 257.794 57.1087 257.152 57.5888L257.516 58.0749ZM263.734 54.7436C262.998 55.0074 262.265 55.3112 261.555 55.6467L261.295 55.0985C262.023 54.7533 262.774 54.4422 263.529 54.1712L263.734 54.7436ZM254.031 61.2496C254.555 60.6687 255.116 60.1071 255.697 59.5772L255.287 59.1287C254.691 59.6708 254.117 60.2469 253.581 60.8413L254.031 61.2496ZM251.229 65.0367L250.709 64.7231C251.123 64.0316 251.574 63.3546 252.05 62.7128L252.539 63.0738C252.075 63.6998 251.633 64.3597 251.229 65.0367ZM249.215 69.293C249.477 68.5589 249.781 67.826 250.118 67.1162L249.568 66.8549C249.223 67.5842 248.912 68.3353 248.642 69.0888L249.215 69.293ZM247.203 77.3649C247.203 76.9674 247.213 76.5712 247.232 76.175L247.839 76.2029C247.821 76.5882 247.811 76.9759 247.811 77.3637C247.811 77.7611 247.821 78.161 247.84 78.5608L247.234 78.5912C247.213 78.1816 247.203 77.772 247.203 77.3649ZM248.075 80.9258L247.474 81.0158C247.535 81.4193 247.605 81.8228 247.686 82.2276L248.281 82.1085C248.202 81.7134 248.133 81.3196 248.075 80.9258ZM348.193 68.6637L347.586 68.6759C347.577 68.2748 347.555 67.8761 347.519 67.4823L348.124 67.4277C348.162 67.836 348.185 68.2481 348.193 68.6637ZM346.787 62.2025L346.229 62.4443C346.575 63.2392 346.858 64.0693 347.075 64.9116L347.663 64.7597C347.441 63.8882 347.145 63.0277 346.787 62.2025ZM337.061 53.6399C336.251 53.3251 335.412 53.0747 334.563 52.8936L334.69 52.3005C335.57 52.4865 336.44 52.7478 337.28 53.0735L337.061 53.6399ZM341.55 56.2603L341.935 55.7899C341.241 55.2211 340.495 54.7021 339.717 54.2464L339.409 54.7714C340.161 55.2114 340.881 55.7121 341.55 56.2603ZM343.885 57.663C344.483 58.3363 345.032 59.0607 345.516 59.8167L345.004 60.1449C344.537 59.4144 344.009 58.7155 343.43 58.0665L343.885 57.663ZM330.777 52.535C331.181 52.5265 331.577 52.5338 331.972 52.5544L332.003 51.9467C331.706 51.9321 331.408 51.9236 331.108 51.9236C330.994 51.9236 330.879 51.9248 330.765 51.9273L330.777 52.535ZM347.143 126.559H346.535V124.128H347.143V126.559ZM346.535 116.836H347.143V114.405H346.535V116.836ZM347.143 111.974H346.535V109.543H347.143V111.974ZM346.535 121.697H347.143V119.266H346.535V121.697Z" fill="url(#paint0_linear_55_2548)"/>
<path d="M64.9992 105V98.7296L83.5635 75.7465V75.4749H65.6411V67.0815H96.2277V73.9197L78.799 96.335V96.6066H96.8695V105H64.9992ZM114.44 94.0886L114.465 81.4737H115.995L128.141 67.0815H140.213L123.895 86.1395H121.402L114.44 94.0886ZM104.911 105V54.442H115.428V105H104.911ZM128.61 105L117.452 88.4847L124.463 81.0541L140.929 105H128.61ZM145.57 105V54.442H179.637V63.2551H156.259V75.3021H177.885V84.1152H156.259V96.1869H179.736V105H145.57ZM197.27 54.442L209.489 92.8542H209.958L222.203 54.442H234.053L216.624 105H202.849L185.395 54.442H197.27ZM240.138 54.442H253.32L267.244 88.4107H267.836L281.759 54.442H294.942V105H284.573V72.0929H284.154L271.07 104.753H264.01L250.926 71.9694H250.506V105H240.138V54.442Z" fill="#151616"/>
<defs>
<linearGradient id="paint0_linear_55_2548" x1="322" y1="118" x2="46.5" y2="32.5" gradientUnits="userSpaceOnUse">
<stop stop-color="#DCA0D7"/>
<stop offset="0.210686" stop-color="#A6E275"/>
<stop offset="0.75" stop-color="#FFED71"/>
<stop offset="1" stop-color="#FF9C92"/>
</linearGradient>
</defs>
</svg>
