<svg width="361" height="160" viewBox="0 0 361 160" fill="none" xmlns="http://www.w3.org/2000/svg">
<rect width="361" height="160" fill="#282A2D"/>
<path d="M49.3864 97V91.75L65.8864 69.7273H49.4545V62.0909H77.9545V67.3409L61.4545 89.3636H77.8864V97H49.3864ZM82.5781 97V62.0909H92.0554V76.2045H92.5327L103.033 62.0909H114.078L102.283 77.6364L114.351 97H103.033L95.1918 83.9091L92.0554 88V97H82.5781ZM134.209 76V83.0909H117.845V76H134.209ZM162.342 73.6136C162.195 73.0114 161.962 72.483 161.643 72.0284C161.325 71.5625 160.928 71.1705 160.45 70.8523C159.984 70.5227 159.439 70.2784 158.814 70.1193C158.2 69.9489 157.524 69.8636 156.786 69.8636C155.195 69.8636 153.837 70.2443 152.712 71.0057C151.598 71.767 150.746 72.8636 150.155 74.2955C149.575 75.7273 149.286 77.4545 149.286 79.4773C149.286 81.5227 149.564 83.2727 150.121 84.7273C150.678 86.1818 151.507 87.2955 152.609 88.0682C153.712 88.8409 155.081 89.2273 156.717 89.2273C158.161 89.2273 159.359 89.017 160.314 88.5966C161.28 88.1761 162.001 87.5795 162.479 86.8068C162.956 86.0341 163.195 85.125 163.195 84.0795L164.831 84.25H156.854V77.5H172.331V82.3409C172.331 85.5227 171.655 88.2443 170.303 90.5057C168.962 92.7557 167.109 94.483 164.746 95.6875C162.393 96.8807 159.695 97.4773 156.649 97.4773C153.251 97.4773 150.268 96.7557 147.7 95.3125C145.132 93.8693 143.126 91.8125 141.683 89.142C140.251 86.4716 139.536 83.2955 139.536 79.6136C139.536 76.7273 139.973 74.1705 140.848 71.9432C141.734 69.7159 142.962 67.8352 144.53 66.3011C146.098 64.7557 147.911 63.5909 149.967 62.8068C152.024 62.0114 154.229 61.6136 156.581 61.6136C158.649 61.6136 160.57 61.9091 162.342 62.5C164.126 63.0795 165.7 63.9091 167.064 64.9886C168.439 66.0568 169.547 67.3239 170.388 68.7898C171.229 70.2557 171.74 71.8636 171.922 73.6136H162.342ZM176.886 97V70.8182H186.023V75.7955H186.295C186.773 73.9545 187.528 72.608 188.562 71.7557C189.608 70.9034 190.83 70.4773 192.227 70.4773C192.636 70.4773 193.04 70.5114 193.438 70.5795C193.847 70.6364 194.239 70.7216 194.614 70.8352V78.8636C194.148 78.7045 193.574 78.5852 192.892 78.5057C192.21 78.4261 191.625 78.3864 191.136 78.3864C190.216 78.3864 189.386 78.5966 188.648 79.017C187.92 79.4261 187.347 80.0057 186.926 80.7557C186.506 81.4943 186.295 82.3636 186.295 83.3636V97H176.886ZM208.812 97.4773C205.972 97.4773 203.54 96.9148 201.517 95.7898C199.494 94.6534 197.943 93.0739 196.864 91.0511C195.784 89.017 195.244 86.6591 195.244 83.9773C195.244 81.2955 195.784 78.9432 196.864 76.9205C197.943 74.8864 199.494 73.3068 201.517 72.1818C203.54 71.0455 205.972 70.4773 208.812 70.4773C211.653 70.4773 214.085 71.0455 216.108 72.1818C218.131 73.3068 219.682 74.8864 220.761 76.9205C221.841 78.9432 222.381 81.2955 222.381 83.9773C222.381 86.6591 221.841 89.017 220.761 91.0511C219.682 93.0739 218.131 94.6534 216.108 95.7898C214.085 96.9148 211.653 97.4773 208.812 97.4773ZM208.881 90.5227C209.676 90.5227 210.364 90.2557 210.943 89.7216C211.523 89.1875 211.972 88.4261 212.29 87.4375C212.608 86.4489 212.767 85.2727 212.767 83.9091C212.767 82.5341 212.608 81.358 212.29 80.3807C211.972 79.392 211.523 78.6307 210.943 78.0966C210.364 77.5625 209.676 77.2955 208.881 77.2955C208.04 77.2955 207.318 77.5625 206.716 78.0966C206.114 78.6307 205.653 79.392 205.335 80.3807C205.017 81.358 204.858 82.5341 204.858 83.9091C204.858 85.2727 205.017 86.4489 205.335 87.4375C205.653 88.4261 206.114 89.1875 206.716 89.7216C207.318 90.2557 208.04 90.5227 208.881 90.5227ZM243.176 85.5455V70.8182H252.585V97H243.653V92.0227H243.381C242.813 93.6932 241.818 95 240.398 95.9432C238.977 96.875 237.29 97.3409 235.335 97.3409C233.506 97.3409 231.903 96.9205 230.528 96.0795C229.165 95.2386 228.102 94.0795 227.341 92.6023C226.591 91.125 226.21 89.4318 226.199 87.5227V70.8182H235.608V85.5455C235.619 86.8409 235.949 87.858 236.597 88.5966C237.256 89.3352 238.176 89.7045 239.358 89.7045C240.142 89.7045 240.818 89.5398 241.386 89.2102C241.966 88.8693 242.409 88.392 242.716 87.7784C243.034 87.1534 243.188 86.4091 243.176 85.5455ZM257.371 106.818V70.8182H266.712V75.3864H266.916C267.257 74.5 267.757 73.6875 268.416 72.9489C269.075 72.1989 269.893 71.6023 270.871 71.1591C271.848 70.7045 272.984 70.4773 274.28 70.4773C276.007 70.4773 277.649 70.9375 279.206 71.858C280.774 72.7784 282.047 74.2273 283.024 76.2045C284.013 78.1818 284.507 80.75 284.507 83.9091C284.507 86.9318 284.036 89.4375 283.092 91.4261C282.161 93.4148 280.911 94.8977 279.342 95.875C277.786 96.8523 276.075 97.3409 274.212 97.3409C272.984 97.3409 271.888 97.142 270.922 96.7443C269.967 96.3352 269.149 95.7841 268.467 95.0909C267.797 94.3864 267.28 93.5909 266.916 92.7045H266.78V106.818H257.371ZM266.575 83.9091C266.575 85.1818 266.74 86.2841 267.07 87.2159C267.411 88.1364 267.888 88.8523 268.501 89.3636C269.126 89.8636 269.871 90.1136 270.734 90.1136C271.598 90.1136 272.331 89.8693 272.933 89.3807C273.547 88.8807 274.013 88.1705 274.331 87.25C274.661 86.3182 274.825 85.2045 274.825 83.9091C274.825 82.6136 274.661 81.5057 274.331 80.5852C274.013 79.6534 273.547 78.9432 272.933 78.4545C272.331 77.9545 271.598 77.7045 270.734 77.7045C269.871 77.7045 269.126 77.9545 268.501 78.4545C267.888 78.9432 267.411 79.6534 267.07 80.5852C266.74 81.5057 266.575 82.6136 266.575 83.9091ZM312.381 79.3409H303.722C303.676 78.8068 303.489 78.3466 303.159 77.9602C302.83 77.5739 302.403 77.2784 301.881 77.0739C301.369 76.858 300.801 76.75 300.176 76.75C299.369 76.75 298.676 76.8977 298.097 77.1932C297.517 77.4886 297.233 77.9091 297.244 78.4545C297.233 78.8409 297.398 79.1989 297.739 79.5284C298.091 79.858 298.767 80.1136 299.767 80.2955L305.085 81.25C307.767 81.7386 309.761 82.5625 311.068 83.7216C312.386 84.8693 313.051 86.4091 313.062 88.3409C313.051 90.2045 312.494 91.8239 311.392 93.1989C310.301 94.5625 308.807 95.6193 306.909 96.3693C305.023 97.108 302.869 97.4773 300.449 97.4773C296.449 97.4773 293.318 96.6591 291.057 95.0227C288.807 93.3864 287.551 91.2273 287.29 88.5455H296.631C296.756 89.375 297.165 90.017 297.858 90.4716C298.563 90.9148 299.449 91.1364 300.517 91.1364C301.381 91.1364 302.091 90.9886 302.648 90.6932C303.216 90.3977 303.506 89.9773 303.517 89.4318C303.506 88.9318 303.256 88.5341 302.767 88.2386C302.29 87.9432 301.54 87.7045 300.517 87.5227L295.881 86.7045C293.21 86.2386 291.21 85.3523 289.881 84.0455C288.551 82.7386 287.892 81.0568 287.903 79C287.892 77.1818 288.369 75.642 289.335 74.3807C290.313 73.108 291.705 72.142 293.511 71.483C295.33 70.8125 297.483 70.4773 299.972 70.4773C303.756 70.4773 306.739 71.2614 308.92 72.8295C311.114 74.3977 312.267 76.5682 312.381 79.3409Z" fill="#FAFBFC"/>
</svg>
