<svg width="128" height="128" viewBox="0 0 128 128" fill="none" xmlns="http://www.w3.org/2000/svg">
<path d="M64 0.289993C28.87 0.289993 0.290029 28.87 0.280029 64C0.290029 99.13 28.87 127.71 64 127.71C99.13 127.71 127.71 99.12 127.71 64C127.71 28.87 99.13 0.289993 64 0.289993ZM89.2 85.25C82.96 83.4 75.8 82.16 67.61 81.87V67.61H91.79C91.53 74.23 90.58 80.06 89.2 85.25ZM38.75 42.74C45.01 44.6 52.18 45.85 60.39 46.14V60.39H36.16C36.41 53.76 37.36 47.93 38.75 42.74ZM36.22 67.61H60.39V81.86C52.22 82.15 45.08 83.38 38.84 85.23C37.44 80.04 36.48 74.22 36.22 67.61ZM91.79 60.39H67.61V46.13C75.78 45.84 82.92 44.61 89.16 42.76C90.56 47.96 91.53 53.78 91.79 60.39ZM120.37 60.39H99.07C98.81 52.86 97.72 46.22 96.11 40.34C101.84 37.99 106.63 35.15 110.6 32.17C116.18 40.31 119.7 49.96 120.37 60.39ZM106.14 26.48C102.75 28.99 98.7 31.41 93.86 33.44C89.56 22.2 83.32 14.38 77.76 9.20999C88.91 12.01 98.71 18.16 106.14 26.48ZM86.92 35.88C81.34 37.52 74.95 38.63 67.61 38.91V10.3C73.04 14.18 81.56 22.1 86.92 35.88ZM60.39 10.22V38.91C53.01 38.63 46.57 37.5 40.96 35.84C46.33 21.94 54.92 14.06 60.39 10.22ZM50.24 9.20999C44.69 14.38 38.45 22.2 34.15 33.44C29.31 31.41 25.26 28.99 21.87 26.48C29.29 18.16 39.1 12.01 50.24 9.20999ZM17.41 32.17C21.38 35.14 26.18 37.99 31.9 40.33C30.29 46.21 29.2 52.85 28.94 60.38H7.64003C8.30003 49.96 11.83 40.31 17.41 32.17ZM28.94 67.61C29.2 75.14 30.3 81.78 31.9 87.67C26.17 90.01 21.38 92.86 17.41 95.83C11.83 87.69 8.30003 78.04 7.63003 67.61H28.94ZM21.88 101.52C25.26 99.01 29.31 96.6 34.16 94.56C38.46 105.79 44.69 113.62 50.25 118.79C39.1 115.99 29.29 109.84 21.88 101.52ZM41.08 92.12C46.66 90.48 53.05 89.37 60.38 89.09V117.71C54.97 113.83 46.45 105.9 41.08 92.12ZM67.61 117.77V89.09C74.98 89.37 81.4 90.49 86.99 92.14C81.63 106.04 73.08 113.93 67.61 117.77ZM77.77 118.79C83.32 113.62 89.56 105.8 93.86 94.56C98.7 96.59 102.75 99.01 106.13 101.52C98.71 109.84 88.91 115.99 77.77 118.79ZM110.6 95.83C106.63 92.86 101.83 90.01 96.11 87.67C97.72 81.78 98.81 75.15 99.07 67.61H120.37C119.71 78.04 116.18 87.69 110.6 95.83Z" fill="#373A3E"/>
</svg>
