<svg id="eHceUgkpK5L1" xmlns="http://www.w3.org/2000/svg" xmlns:xlink="http://www.w3.org/1999/xlink" viewBox="0 0 210 330" shape-rendering="geometricPrecision" text-rendering="geometricPrecision"><style><![CDATA[#eHceUgkpK5L42_to {animation: eHceUgkpK5L42_to__to 3000ms linear infinite normal forwards}@keyframes eHceUgkpK5L42_to__to { 0% {transform: translate(105px,174px);animation-timing-function: cubic-bezier(0.42,0,1,1)} 50% {transform: translate(105px,170px);animation-timing-function: cubic-bezier(0.42,0,1,1)} 100% {transform: translate(105px,174px)}}]]></style><g transform="translate(-10.4999-.000211)"><path d="M115.5,318.859c-25.1948,0-48.9516-9.901-66.8881-27.882-17.9402-17.981-27.8181-41.789-27.8181-67.041v-117.872c0-25.2522,9.8779-49.0633,27.8181-67.0409C66.5522,21.0418,90.3052,11.1414,115.5,11.1414c25.195,0,48.952,9.9004,66.888,27.8817c17.94,17.9813,27.818,41.7887,27.818,67.0409v117.872c0,25.252-9.878,49.063-27.818,67.041-17.936,17.981-41.693,27.882-66.888,27.882Zm0-303.9345c-50.1406,0-90.9317,40.8845-90.9317,91.1395v117.872c0,50.255,40.7911,91.14,90.9317,91.14c50.141,0,90.932-40.885,90.932-91.14v-117.872c0-50.255-40.791-91.1395-90.932-91.1395Z" fill="#fdfeff"/><path d="M45.815,146.203h-1.4871l-6.2355-4.683v4.661h-2.1591v-8.089h1.4872l6.2355,4.684v-4.661h2.1628v8.088h-.0038Z" fill="#fff"/><path d="M45.815,135.421h-9.8817v-2.689h3.9935v-.137l-3.9935-2.981v-3.132l4.4011,3.348l5.4806-3.424v3.212l-3.7066,2.225l1.1588.889h2.5478v2.689Z" fill="#fff"/><path d="M45.815,124.329h-9.8817v-4.275c0-.734.1435-1.377.4341-1.929s.6983-.98,1.2192-1.286c.5246-.307,1.1361-.458,1.8382-.458.7096,0,1.3211.159,1.8382.473s.9172.753,1.1965,1.32c.2793.568.4189,1.226.4189,1.982v2.554h-2.0835v-2.013c0-.314-.0566-.586-.1661-.809-.1094-.223-.2679-.397-.4755-.518-.2039-.121-.4492-.182-.7285-.182-.2831,0-.5247.061-.7247.182s-.3548.295-.4643.518-.1623.495-.1623.809v.95h7.7415v2.682v0Z" fill="#fff"/><path d="M82.6504,63.1142L71.6628,37.8996l10.8593-4.7554c1.8684-.8172,3.6613-1.1615,5.3825-1.0366c1.7211.1248,3.2649.6885,4.6237,1.6835c1.3589.9949,2.4308,2.3909,3.2121,4.1804.7851,1.8045,1.0682,3.5448.8455,5.2131-.2227,1.6722-.8983,3.1779-2.0231,4.5209s-2.6459,2.4326-4.5634,3.2724l-6.4846,2.8374-2.3175-5.3191l5.1106-2.2359c.804-.3518,1.4268-.7944,1.8722-1.3241s.7096-1.1273.7851-1.7894c.0793-.6583-.0377-1.3468-.351-2.0618-.3133-.7226-.7361-1.2712-1.2683-1.6495s-1.1399-.5788-1.8306-.6053-1.4343.1362-2.2383.4881l-2.4081,1.0555l8.6059,19.748-6.8244,2.9924Z" fill="#fff"/><path d="M121.377,35.0433c-.042-.8966-.347-1.6078-.925-2.1299-.577-.5221-1.468-.8058-2.672-.8474-.77-.0265-1.4.0416-1.891.208-.495.1665-.861.401-1.106.7075s-.378.6582-.4,1.063c-.03.3292.019.6318.151.9004.128.2686.343.5145.638.734.294.2194.679.4237,1.143.6128.465.1892,1.023.3594,1.672.5145l2.235.5637c1.506.3746,2.789.8475,3.854,1.4111c1.06.5675,1.925,1.2182,2.585,1.9521.661.734,1.14,1.5511,1.438,2.4515.295.8966.431,1.8689.4,2.9168-.071,1.8084-.577,3.3216-1.513,4.5436-.936,1.2219-2.246,2.1299-3.926,2.7239-1.679.5939-3.68.8512-6.001.7717-2.386-.0832-4.45-.5107-6.198-1.2787-1.747-.768-3.084-1.9067-4.012-3.4124-.925-1.5057-1.355-3.4086-1.283-5.7125l7.073.2496c.015.8437.2,1.5587.555,2.1451s.868,1.0404,1.54,1.3581s1.483.4956,2.431.5297c.796.0265,1.464-.0454,2.008-.227.543-.1778.958-.4351,1.249-.7756s.445-.7339.472-1.1803c.004-.4199-.117-.7945-.37-1.1236-.253-.3253-.672-.628-1.265-.9042-.588-.2761-1.389-.5447-2.4-.802l-2.71-.6885c-2.412-.6129-4.292-1.5625-5.647-2.8525-1.355-1.2901-1.989-3.0076-1.906-5.1564.053-1.7441.57-3.2573,1.559-4.536s2.333-2.2548,4.031-2.932c1.699-.6734,3.635-.976,5.805-.9004c2.216.0795,4.118.5183,5.707,1.3166s2.801,1.8878,3.635,3.2648s1.223,2.966,1.166,4.7668l-7.122-.2459Z" fill="#fff"/><path d="M131.259,55.1393l11.474-24.9952l17.974,8.2889-2.51,5.4666-11.203-5.1678-1.97,4.2977l10.278,4.7403-2.51,5.4666-10.278-4.7403-1.97,4.2977l11.154,5.1451-2.511,5.4666-17.928-8.2662Z" fill="#fff"/><path d="M186.385,122.911h9.882v2.689h-7.719v4.007h-2.163v-6.696Z" fill="#fff"/><path d="M186.385,132.07h1.929l3.05,3.696c.204.246.392.454.57.632.177.174.362.31.551.404.189.095.4.144.63.144.253,0,.472-.053.653-.163.181-.109.321-.257.419-.446s.147-.409.147-.658c0-.25-.049-.466-.151-.655-.098-.189-.245-.333-.437-.439-.193-.102-.427-.155-.706-.155v-2.553c.694,0,1.294.155,1.796.469s.887.753,1.159,1.324.404,1.241.404,2.009c0,.794-.125,1.479-.377,2.062-.253.582-.608,1.032-1.065,1.35s-.993.477-1.608.477c-.381,0-.755-.08-1.132-.239-.374-.158-.789-.442-1.242-.851-.453-.408-.993-.991-1.623-1.748l-.774-.926h-.056v3.87h-2.144v-7.604h.007Z" fill="#fff"/><path d="M38.4849,240.256l10.0062-4.528l1.5966,3.541c.3473.772.4945,1.479.4416,2.115-.0566.635-.2717,1.191-.6454,1.664-.3775.473-.8719.851-1.4834,1.128-.6152.28-1.2267.401-1.8306.37-.604-.03-1.1626-.238-1.6797-.62s-.9436-.957-1.2909-1.725l-1.0984-2.437l1.2796-.578l1.0342,2.3c.2189.488.4832.847.7927,1.074s.6416.344,1.004.352c.3623.008.7285-.072,1.1059-.246.3775-.17.6832-.393.9097-.67.2302-.276.3586-.601.385-.983.0302-.382-.068-.821-.2944-1.32l-.8493-1.884-8.7116,3.942-.6718-1.495Z" fill="#fff"/><path d="M42.5916,249.124l7.3376-3.749.6983,1.369-1.1663.594.0377.076c.4605-.068.8946.007,1.2909.227.3963.219.7058.545.9247.972.0453.087.0944.197.151.322s.0944.223.1208.299l-1.3664.699c-.0113-.064-.0453-.174-.0981-.332-.0528-.156-.117-.307-.1925-.454-.1699-.337-.3925-.598-.6681-.787s-.5737-.295-.9021-.318-.6492.045-.97.208l-4.4804,2.289-.7171-1.415Z" fill="#fff"/><path d="M45.3356,254.413l7.2168-3.973.7663,1.396-7.2169,3.973-.7662-1.396Zm8.7191-3.882c-.1321-.242-.1661-.495-.0944-.76s.2189-.458.4492-.583c.2302-.128.4756-.151.736-.068.2605.083.4567.246.5888.488.1322.242.1661.496.0944.761-.0679.264-.2189.457-.4529.586-.2303.125-.4718.148-.7323.064-.2604-.083-.4529-.242-.5888-.488Z" fill="#fff"/><path d="M57.9236,259.649l-8.5756,1.736-.8795-1.456l5.5108-6.814.8832,1.464-4.352,5.062.0453.072l6.4884-1.521.8794,1.457Z" fill="#fff"/><path d="M52.9978,267.366c-.2944-.427-.4831-.866-.5586-1.32-.0793-.454-.034-.889.1321-1.301.1661-.413.4718-.772.9172-1.082.3812-.265.7474-.413,1.0946-.439.3473-.027.6794.034.9927.181.3133.148.6153.348.9021.606.2869.253.5587.529.8153.821.3246.37.5888.669.7964.9.2039.231.3813.374.5322.443.1473.064.302.041.4605-.069l.0302-.022c.385-.269.6077-.583.6719-.942.0642-.36-.0528-.753-.3435-1.177-.3057-.439-.6417-.719-1.0116-.836s-.7058-.14-1.0115-.072l-.57-1.426c.5134-.14.9927-.159,1.4419-.053s.8568.299,1.2305.586c.3737.288.6945.632.9776,1.037.1849.269.351.575.4982.919.1472.345.2265.708.2416,1.09s-.0717.764-.268,1.146c-.1925.386-.536.749-1.0304,1.093l-4.4917,3.125-.8833-1.278.9248-.643-.0377-.053c-.2303.034-.4832.022-.7663-.031s-.5699-.178-.8606-.367c-.2944-.185-.5699-.465-.8266-.836Zm1.2532-.45c.2491.363.5359.62.8606.779.3208.159.6492.224.9738.197.3284-.026.6265-.132.8908-.318l.8719-.605c-.0793-.015-.185-.072-.3171-.178s-.268-.231-.4152-.382c-.1434-.151-.2831-.299-.4152-.443-.1321-.143-.2453-.268-.3321-.363-.2076-.23-.4228-.423-.6417-.579-.2189-.155-.4454-.245-.6719-.268-.2302-.027-.4605.045-.6945.208-.3246.227-.4907.518-.4907.874c0,.344.1284.707.3813,1.078Z" fill="#fff"/><path d="M59.0409,275.458c-.4982-.616-.7851-1.259-.8606-1.929s.0377-1.328.3473-1.967c.3057-.64.7813-1.222,1.4229-1.741.6493-.525,1.3211-.87,2.0156-1.032.6945-.163,1.3589-.136,1.9968.079.6378.216,1.1965.621,1.6796,1.218.3888.485.6492.988.7738,1.51.1245.522.1208,1.033-.0113,1.528-.1359.496-.4001.938-.7927,1.332l-.9738-1.203c.2453-.31.3812-.67.4076-1.082.0265-.413-.1207-.814-.4378-1.211-.2793-.344-.6115-.571-1.004-.681-.3926-.109-.8115-.102-1.2607.027-.4492.128-.9021.378-1.3588.745-.4681.378-.8116.776-1.038,1.192-.2265.416-.3284.828-.3058,1.237.0227.408.1737.787.4568,1.139.1887.234.4038.412.6492.533.2415.121.4982.182.77.178.2717-.004.5397-.072.8153-.205l.9738,1.204c-.4492.291-.9285.457-1.4343.499s-1.004-.049-1.491-.272c-.4869-.231-.936-.594-1.3399-1.098Z" fill="#fff"/><path d="M61.2565,282.537c-.1661-.171-.302-.341-.4077-.507-.1057-.167-.1812-.299-.2151-.398l1.2116-.635c.1434.265.2982.477.4643.632.166.155.3661.242.6039.257s.5359-.057.8908-.212l.5322-.238l3.9481-7.952l1.1776,1.229-3.1781,5.932.0604.061l6.0392-2.944l1.1814,1.234-9.0588,4.051c-.419.186-.8153.295-1.2003.33-.3812.034-.7436-.019-1.0833-.156-.3397-.14-.6605-.367-.9662-.684Z" fill="#fff"/><path d="M74.924,291.124c-.5812-.438-1.004-.927-1.2606-1.456-.2605-.534-.3624-1.067-.3096-1.608s.2529-1.048.6077-1.517c.268-.359.5813-.62.9399-.787.3586-.166.7549-.272,1.1965-.31s.9248-.049,1.4494-.027l2.1515.057c.3548.023.6681-.004.9323-.079.2642-.076.4945-.242.6907-.503.1548-.205.2152-.47.1812-.791-.034-.322-.1963-.594-.4907-.814-.2038-.155-.4189-.238-.6492-.253-.2302-.015-.4454.023-.6492.114-.2038.09-.3699.223-.4982.393-.151.2-.2492.443-.2907.73-.0453.284-.0604.602-.049.946.0113.348.0226.707.0377,1.082l.3661,7.926-1.4343-1.082-.3548-6.492c-.0302-.545-.0528-1.06-.0679-1.536-.0189-.477.0151-.927.0943-1.343.0793-.416.2529-.802.5209-1.158.302-.405.6643-.692,1.0833-.87.419-.174.8568-.227,1.3211-.159.4605.072.9134.272,1.355.605.4454.337.7663.715.955,1.135s.2604.84.2151,1.26-.1962.806-.4529,1.146c-.3133.417-.6945.708-1.1399.874-.4454.163-.9474.242-1.506.239l-2.7215-.015c-.5284-.004-.9511.064-1.2644.211-.3171.144-.5247.288-.6266.424-.1887.254-.2982.534-.3322.844s.0189.62.1548.927c.1359.306.3624.575.6756.813.3209.242.6908.409,1.1022.499.4114.091.8455.095,1.2947.019.4491-.075.8907-.246,1.3173-.507s.8115-.62,1.1587-1.082l1.1475.867c-.4265.567-.8493.998-1.2683,1.29-.4189.291-.8115.495-1.1776.605s-.6756.174-.9361.189c-.0868.008-.1661.015-.2491.03-.0793.012-.1623.023-.2491.031-.5209.079-1.0418.03-1.5664-.14-.5322-.186-1.0003-.424-1.4042-.727Z" fill="#fff"/><path d="M93.8984,292.808c.1623-.484.117-.942-.1359-1.37-.2528-.427-.6605-.775-1.2267-1.04-.4038-.189-.7851-.288-1.1399-.299s-.6643.057-.9323.204c-.2642.148-.4642.36-.5963.644-.1095.238-.151.469-.1208.692s.1094.435.2378.635c.1283.201.2793.386.4491.56.1737.174.3435.329.5134.469l.8455.704c.2793.223.551.481.819.768.268.288.4945.605.6757.957.1811.348.283.727.3095,1.131.0264.405-.068.829-.2756,1.275-.2642.564-.6416.999-1.1323,1.302-.4907.302-1.0682.454-1.7287.454-.6606,0-1.3777-.182-2.1477-.545-.7398-.344-1.3211-.764-1.7514-1.252s-.6945-1.026-.7964-1.604c-.1019-.579-.0302-1.177.2189-1.794l1.4909.7c-.1396.375-.1623.727-.0717,1.063.0906.337.2718.632.536.897s.5888.488.97.666c.419.197.8267.306,1.2192.325s.7398-.049,1.0418-.2c.3019-.155.5284-.394.6794-.715.1396-.295.1661-.575.0906-.84-.0793-.265-.2265-.526-.4492-.78-.2227-.253-.4907-.51-.8002-.771l-1.0153-.867c-.687-.586-1.1626-1.199-1.4268-1.838-.2642-.64-.234-1.305.0906-1.998.268-.575.6567-1.002,1.1625-1.286s1.0795-.424,1.7174-.416c.6379.007,1.2871.166,1.9477.476.6681.314,1.2003.708,1.6041,1.185.4039.476.653.991.7549,1.543.102.552.034,1.101-.2,1.642l-1.4268-.677Z" fill="#fff"/><path d="M98.0315,302.969c-.7587-.219-1.3626-.582-1.808-1.089s-.7285-1.112-.8417-1.812c-.117-.7-.0604-1.449.1698-2.244.2303-.806.5851-1.475,1.0607-2.005.4756-.533,1.038-.893,1.6834-1.086.6454-.192,1.3362-.181,2.0763.035.596.17,1.094.435,1.498.79.404.356.691.776.865,1.26.173.48.211.999.109,1.547l-1.487-.427c.026-.394-.068-.768-.283-1.12s-.566-.598-1.05-.738c-.4261-.121-.83-.117-1.2112.015-.3812.133-.7209.383-1.0191.746s-.5247.828-.687,1.392c-.1661.579-.2227,1.105-.1698,1.574s.2038.866.4567,1.188c.2529.321.5926.544,1.0267.669.2906.083.5661.106.8341.065.268-.042.5134-.14.7323-.296.2193-.155.4043-.367.5513-.635l1.487.427c-.2.496-.498.908-.891,1.23-.392.321-.849.533-1.3776.632-.5322.102-1.1059.06-1.7249-.118Z" fill="#fff"/><path d="M106.317,304.747c-.514-.068-.963-.223-1.355-.472-.389-.246-.68-.572-.872-.973-.193-.401-.253-.87-.185-1.407.06-.462.196-.832.411-1.105.215-.276.483-.48.804-.616.321-.137.672-.224,1.053-.265.381-.042.766-.061,1.155-.057.491.008.891.011,1.197.011.305,0,.536-.03.683-.098s.234-.197.26-.39l.004-.037c.061-.466-.023-.844-.249-1.132-.226-.287-.593-.465-1.102-.533-.532-.068-.963-.004-1.299.193s-.577.431-.732.704l-1.434-.534c.238-.473.547-.843.928-1.108.382-.265.801-.435,1.257-.519.461-.083.936-.094,1.423-.03.325.042.661.125,1.016.25.354.125.675.306.966.552.291.242.513.568.672.969.155.401.192.9.117,1.498l-.702,5.436-1.54-.2.143-1.12-.064-.008c-.128.193-.306.375-.536.549s-.513.303-.849.393c-.332.091-.725.11-1.17.049Zm.509-1.233c.434.057.819.019,1.151-.117.333-.133.601-.333.801-.594s.32-.552.362-.878l.136-1.055c-.064.049-.178.087-.344.113-.166.027-.354.046-.562.053-.208.008-.411.012-.608.015-.196,0-.362.004-.494.004-.31,0-.597.03-.861.087-.264.061-.479.167-.653.318-.17.155-.275.371-.313.654-.049.394.053.712.317.95.268.246.623.393,1.068.45Z" fill="#fff"/><path d="M115.002,294.204l-.261,11.001-1.589-.038.261-11.001l1.589.038Z" fill="#fff"/><path d="M117.742,295.641c-.275.008-.517-.075-.717-.257-.2-.181-.31-.401-.317-.662-.008-.265.083-.495.272-.688.188-.193.422-.295.698-.307.275-.011.517.076.717.257.2.182.31.405.317.67.008.261-.083.488-.272.685-.188.193-.422.295-.698.302Zm-.479,9.549l-.28-8.251l1.589-.053.28,8.251-1.589.053Z" fill="#fff"/><path d="M122.577,299.973l.63,4.862-1.573.204-1.061-8.187l1.51-.197.173,1.332.102-.011c.129-.458.378-.844.74-1.158s.849-.511,1.457-.59c.551-.072,1.049-.019,1.495.159.445.178.811.48,1.098.911.287.428.476.98.562,1.658l.676,5.205-1.574.204-.649-5.012c-.076-.594-.291-1.037-.638-1.336-.347-.295-.789-.408-1.325-.34-.366.045-.679.17-.94.367-.26.197-.456.458-.577.787-.129.329-.162.707-.106,1.142Z" fill="#fff"/><path d="M135.611,305.761c-.623.178-1.182.246-1.68.205-.494-.038-.921-.155-1.28-.348-.358-.193-.656-.432-.887-.715l1.159-.92c.136.125.302.254.506.379.204.124.457.211.759.257.302.045.664.007,1.087-.11.581-.163,1.019-.442,1.317-.832s.359-.897.185-1.517l-.438-1.563-.098.027c-.045.197-.125.42-.238.677s-.298.503-.558.738c-.261.234-.627.423-1.106.56-.619.174-1.22.185-1.801.03-.577-.155-1.094-.481-1.544-.976-.449-.496-.792-1.165-1.03-2.013-.238-.843-.298-1.608-.185-2.292.113-.685.377-1.256.785-1.722.408-.461.925-.783,1.555-.961.487-.136.906-.166,1.25-.087.347.08.634.205.864.375s.415.325.551.465l.113-.03-.362-1.286l1.498-.424l2.284,8.119c.192.681.192,1.286.004,1.812-.189.526-.525.968-.997,1.331-.472.36-1.045.636-1.713.821Zm-1.291-4.539c.441-.125.781-.333,1.03-.628.246-.295.393-.662.442-1.098.049-.435-.004-.926-.159-1.475-.151-.533-.362-.984-.63-1.347-.272-.363-.589-.616-.959-.76s-.774-.151-1.223-.027c-.46.129-.811.36-1.049.685s-.377.715-.419,1.169.011.935.155,1.442c.147.522.355.957.619,1.305s.585.59.958.722c.367.136.778.14,1.235.012Z" fill="#fff"/><path d="M145.364,298.74l-5.122-9.734l6.031-3.189.665,1.263-4.582,2.421l1.558,2.966l4.266-2.254.664,1.259-4.265,2.255l1.57,2.981l4.639-2.451.664,1.263-6.088,3.22Z" fill="#fff"/><path d="M150.169,286.505l3.318,1.585-.363-3.677l1.419-1.002.295,4.842l4.469,1.892-1.419,1.002-3.277-1.46.276,3.579-1.423,1.006-.298-4.839-4.424-1.925l1.427-1.003Z" fill="#fff"/><path d="M163.24,290.939l-7.564-8.448l1.155-1.036.891.995.098-.087c-.045-.189-.079-.428-.102-.712-.023-.283.026-.594.143-.926.117-.333.363-.67.74-1.007.491-.442,1.042-.711,1.65-.806.607-.094,1.234-.007,1.879.269.642.272,1.261.742,1.857,1.407.593.662.993,1.332,1.201,2.002.207.669.23,1.305.075,1.903-.155.597-.475,1.119-.966,1.558-.37.333-.725.541-1.072.624-.347.084-.661.103-.94.053-.279-.049-.517-.105-.706-.174l-.071.065l2.917,3.261-1.185,1.059Zm-3.654-6.416c.385.431.789.757,1.204.968.416.212.823.307,1.22.28.396-.026.766-.196,1.105-.499.355-.318.563-.677.631-1.082s.015-.825-.159-1.264c-.17-.438-.441-.862-.807-1.275-.363-.404-.748-.715-1.159-.93-.408-.216-.816-.31-1.223-.28-.408.026-.785.2-1.144.522-.343.31-.551.658-.626,1.048-.076.39-.031.802.132,1.229.162.428.441.855.826,1.283Z" fill="#fff"/><path d="M161.439,273.204l7.946,7.596-1.095,1.154-7.945-7.596l1.094-1.154Z" fill="#fff"/><path d="M173.503,276.366c-.487.591-1.05.992-1.687,1.207-.638.212-1.299.238-1.99.076-.69-.163-1.362-.518-2.019-1.063-.657-.549-1.132-1.147-1.423-1.797-.291-.651-.392-1.313-.298-1.979.09-.666.381-1.294.868-1.884s1.049-.991,1.687-1.207c.638-.211,1.302-.238,1.997-.072.694.167,1.37.523,2.027,1.071.657.545,1.125,1.143,1.415,1.793.287.651.385,1.309.295,1.975-.095.662-.385,1.29-.872,1.88Zm-1.034-.866c.317-.382.475-.783.483-1.203.003-.42-.114-.832-.351-1.233-.238-.405-.559-.772-.967-1.113-.403-.336-.826-.586-1.268-.745-.441-.159-.868-.2-1.283-.121-.415.08-.781.31-1.095.692-.317.386-.479.791-.483,1.215-.004.423.117.84.355,1.241.238.404.562.775.966,1.112.408.337.831.586,1.268.749.438.159.865.197,1.276.113.415-.087.782-.321,1.099-.707Z" fill="#fff"/><path d="M177.115,271.486l-6.704-4.797.891-1.252l1.065.76.049-.068c-.276-.378-.408-.798-.393-1.256.012-.458.155-.881.434-1.271.057-.079.129-.174.215-.284.087-.106.155-.189.208-.246l1.249.893c-.052.042-.135.121-.249.242-.113.121-.219.246-.313.379-.219.306-.347.624-.389.957-.041.333.004.647.136.949.128.303.34.556.63.765l4.092,2.928-.921,1.301Z" fill="#fff"/><path d="M182.041,264.563c-.272.439-.604.787-.989,1.037-.385.253-.8.382-1.246.393-.441.011-.894-.129-1.351-.416-.393-.246-.672-.526-.834-.836s-.238-.64-.227-.988c.012-.348.076-.703.197-1.07.12-.363.264-.723.426-1.075.212-.446.378-.809.51-1.089s.192-.5.192-.662c0-.163-.083-.295-.245-.398l-.03-.018c-.397-.25-.774-.33-1.129-.246-.355.083-.672.344-.943.783-.284.454-.404.874-.367,1.263.042.386.151.708.336.961l-1.079,1.09c-.332-.416-.536-.851-.619-1.305s-.064-.908.053-1.362.305-.893.566-1.309c.173-.276.389-.553.645-.821.261-.273.559-.488.902-.655.344-.166.729-.234,1.155-.208.431.027.899.197,1.408.515l4.643,2.898-.819,1.32-.955-.598-.034.053c.121.197.211.435.275.719.061.28.065.594.004.938-.06.341-.207.704-.445,1.086Zm-.91-.972c.234-.375.359-.742.374-1.101.015-.36-.053-.685-.204-.976-.151-.292-.37-.522-.645-.696l-.903-.564c.019.079.008.2-.037.363-.046.163-.106.341-.185.534-.08.192-.159.378-.242.559-.079.182-.147.33-.2.451-.128.283-.223.556-.275.821-.057.264-.049.507.018.726.068.219.223.405.465.556.336.212.668.246.992.106.325-.136.604-.397.842-.779Z" fill="#fff"/><path d="M176.538,253.475l.762-1.396l6.839,3.741c.272.151.499.22.68.216s.332-.061.449-.163.219-.231.302-.382c.06-.114.106-.216.136-.306.03-.091.053-.167.068-.216l1.298.382c-.011.098-.041.231-.09.397-.049.167-.132.363-.253.59-.193.371-.446.678-.759.92s-.664.382-1.061.42c-.396.037-.811-.061-1.245-.299l-7.126-3.904Zm3.295-1.926l1.128.617-2.136,3.923-1.129-.617l2.137-3.923Z" fill="#fff"/><path d="M179.814,248.753c-.125.246-.314.416-.57.511-.257.091-.502.079-.732-.038-.238-.117-.397-.306-.476-.567s-.057-.515.064-.761.313-.416.57-.511c.257-.09.502-.079.74.038.234.118.389.307.472.568.079.257.056.51-.068.76Zm8.145,4.975l-7.368-3.689.71-1.422l7.368,3.689-.71,1.422Z" fill="#fff"/><path d="M191.311,247.013c-.309.704-.74,1.245-1.291,1.623-.555.378-1.185.586-1.895.62-.709.034-1.453-.125-2.23-.465-.782-.344-1.401-.791-1.861-1.339-.457-.549-.736-1.154-.831-1.82-.094-.666.012-1.351.321-2.05.31-.7.74-1.245,1.291-1.623.555-.379,1.185-.587,1.899-.617.713-.03,1.46.125,2.242.473.777.344,1.396.787,1.849,1.335.457.545.733,1.15.823,1.816.098.659-.007,1.343-.317,2.047Zm-1.23-.549c.2-.454.245-.885.132-1.29-.114-.404-.336-.768-.676-1.089-.34-.322-.751-.59-1.234-.802-.48-.212-.955-.333-1.423-.367s-.891.045-1.265.234c-.377.189-.664.515-.864.969-.2.458-.245.893-.132,1.301.113.409.34.776.679,1.097.34.322.751.59,1.231.802.483.212.958.337,1.426.371.465.034.887-.049,1.261-.242.378-.201.664-.526.865-.984Z" fill="#fff"/><path d="M189.45,238.183l4.613,1.627-.529,1.502-7.768-2.743.506-1.441l1.264.446.034-.095c-.347-.321-.581-.718-.698-1.184-.117-.469-.072-.991.132-1.57.185-.526.457-.946.815-1.263.359-.318.797-.507,1.306-.572.51-.064,1.088.016,1.729.243l4.941,1.744-.528,1.501-4.76-1.679c-.562-.197-1.057-.208-1.476-.031-.419.178-.721.523-.898,1.033-.121.348-.155.685-.098,1.007.056.321.203.612.441.874.238.253.563.457.974.601Z" fill="#fff"/><path d="M191.621,161.945h-.944v60.844h.944v-60.844Z" fill="#fff"/><path d="M38.6698,161.945h-.9436v60.844h.9436v-60.844Z" fill="#fff"/><path d="M190.3,106.409c-.004-.129-.589-12.8745-4.36-24.0272-3.756-11.1073-15.279-22.0709-15.396-22.1768l.645-.6886c.117.1098,11.811,11.2322,15.642,22.5628c3.816,11.2851,4.401,24.1628,4.408,24.2918l-.939.038Z" fill="#fff"/><path d="M38.6698,106.409l-.9436-.042c.0038-.129.5926-13.0065,4.4086-24.2916c3.8312-11.3306,15.5246-22.453,15.6416-22.5627l.6454.6885c-.117.1097-11.6406,11.0733-15.3962,22.1768-3.7707,11.1565-4.352,23.902-4.3558,24.031Z" fill="#fff"/></g><g id="eHceUgkpK5L42_to" transform="translate(105,174)"><g transform="translate(-65.477379,-105.973503)"><path d="M129.798,122.888c-.729-.874-1.729-1.475-2.839-1.71-1.113-.235-2.268-.083-3.283.427L65.4877,150.762L7.29608,121.605c-1.01534-.51-2.17034-.662-3.28382-.427-1.10971.231-2.10995.832-2.83843,1.706s-1.139901,1.967-1.170097,3.102c-.030196,1.139.324604,2.251,1.004017,3.159L61.4527,209.908c.0604.079.1624.11.2303.193.3359.397.7323.737,1.1776,1.01.1586.121.3284.234.502.333.6568.333,1.3815.503,2.1176.503s1.4607-.174,2.1137-.503c.1774-.099.3435-.212.502-.333.4454-.273.8417-.613,1.1776-1.01.0717-.083.1699-.114.2303-.193l60.4452-80.763c.679-.908,1.034-2.02,1.004-3.159-.015-1.131-.427-2.224-1.155-3.098ZM60.4487,159.524v32.213L21.8732,140.253l38.5755,19.271Zm10.0742,32.217v-32.213l38.5751-19.272-38.5751,51.485Z" fill="#fdfeff"/><path d="M0.143433,106.514c-.003774.277.0151.557.060394.829.049068.163.169853.284.230245.435.022647.14.056614.28.101908.412.060392.133.211372.182.283088.303.335932.56.781322,1.048,1.309752,1.434.16986.121.29064.261.46427.363.16986.102.12078.121.1925.151L63.2306,140.729h.1396c.6568.326,1.3815.496,2.1175.496s1.457-.17,2.1138-.496h.1396l60.4449-30.288c.147-.102.291-.211.423-.333.313-.196.604-.431.868-.696.223-.227.423-.476.593-.745.128-.151.249-.31.362-.473.072-.151.06-.302.121-.442.079-.129.147-.265.211-.405.015-.182.015-.363,0-.545.072-.348.098-.704.079-1.059-.011-.295-.049-.59-.109-.878-.083-.348-.204-.688-.362-1.01-.042-.163-.099-.322-.163-.473L69.768,2.42122c-.0717-.10971-.2-.15133-.2717-.25347-.4416-.66584-1.0418-1.214396-1.7439-1.59271C67.0504,0.196725,66.2653,0,65.4651,0c-.7964,0-1.5853.196725-2.2874.57504-.702.378314-1.3022.92309-1.7438,1.59271-.0717.10214-.2.13997-.2717.25347L0.71716,103.374c-.403872.715-.622796,1.521-.645443,2.342c0,.091-.071717.163-.071717.254.037745.185.086816.367.143433.544ZM60.4488,128.048l-44.1467-22.12l44.1467-22.12v44.24Zm10.0741-44.24l44.1471,22.12-44.1471,22.12v-44.24Zm0-11.2851v-49.3246L112.703,93.6556L70.5229,72.5229Zm-10.0741,0L18.2573,93.6631L60.4488,23.1983v49.3246Z" fill="#fdfeff"/></g></g></svg>